<svg xmlns="http://www.w3.org/2000/svg" viewBox="0 0 87.01 74.5"><defs><style>.cls-1{fill:#e1e5ef;}.cls-2{fill:none;stroke:#344154;stroke-linecap:round;stroke-linejoin:round;}</style></defs><title>pantalla2_inteligentescp</title><g id="Capa_2" data-name="Capa 2"><g id="Capa_1-2" data-name="Capa 1"><path class="cls-1" d="M47.42,73.85a37.78,37.78,0,0,1,6.17.28,38.33,38.33,0,0,0,15.43-1c6.13-1.69,8.24-7.54,10.77-12.83,2.3-4.79,5.25-9.4,6.41-14.64,1-4.4,1.53-11.17-1.16-15.06-1.77-2.56-4.62-3.3-7.5-4.19S71.81,24.65,70.07,22s.14-5.81-1.36-8.52c-4.21-7.59-17-7.18-24.26-7.62-3.87-.23-7,.51-10.74,1.17-6.32,1.12-13.18,3.16-17.15,8.52C14,19,15.75,23,14.4,27a24.71,24.71,0,0,1-2.48,4.6c-1.28,2.1-2.64,3.41-3.15,5.91a23.64,23.64,0,0,0-.27,7.89c.41,3.08,1.74,5.88,2.82,8.83A37.31,37.31,0,0,0,15,62.32c3.44,5.15,8.86,7.71,14.32,9.07,4.2,1.05,8,2.21,12.36,2.44C43.61,73.94,45.52,73.88,47.42,73.85Z"/><path class="cls-2" d="M39.75,24.4a15.74,15.74,0,1,0-27,11A9.4,9.4,0,0,1,15.57,42v.06H32.45V42a9.05,9.05,0,0,1,2.64-6.44A15.68,15.68,0,0,0,39.75,24.4Z"/><path class="cls-2" d="M13.44,23.47a10.84,10.84,0,0,1,10-9.86l.77,0a10.77,10.77,0,0,1,7.14,2.7"/><line class="cls-2" x1="15.47" y1="45.39" x2="32.55" y2="45.39"/><path class="cls-2" d="M15.47,48.77H32.55a0,0,0,0,1,0,0v0a8.17,8.17,0,0,1-8.17,8.17h-.73a8.17,8.17,0,0,1-8.17-8.17v0a0,0,0,0,1,0,0Z"/><path class="cls-2" d="M21.48,57.09V58A2.52,2.52,0,0,0,24,60.5h0A2.52,2.52,0,0,0,26.53,58v-.9"/><line class="cls-2" x1="24.01" y1="4.57" x2="24.01" y2="0.5"/><line class="cls-2" x1="17.23" y1="5.76" x2="15.84" y2="1.94"/><line class="cls-2" x1="11.28" y1="9.2" x2="8.66" y2="6.08"/><line class="cls-2" x1="6.86" y1="14.47" x2="3.34" y2="12.44"/><line class="cls-2" x1="4.51" y1="20.93" x2="0.5" y2="20.23"/><line class="cls-2" x1="4.51" y1="27.81" x2="0.5" y2="28.52"/><line class="cls-2" x1="43.51" y1="27.81" x2="47.52" y2="28.52"/><line class="cls-2" x1="43.51" y1="20.93" x2="47.52" y2="20.23"/><line class="cls-2" x1="41.16" y1="14.47" x2="44.68" y2="12.44"/><line class="cls-2" x1="36.74" y1="9.2" x2="39.35" y2="6.08"/><line class="cls-2" x1="30.78" y1="5.76" x2="32.17" y2="1.94"/></g></g></svg>