<svg xmlns="http://www.w3.org/2000/svg" viewBox="0 0 95.27 79.16"><defs><style>.cls-1{fill:#e1e5ef;}.cls-2{fill:none;stroke:#344154;stroke-linecap:round;stroke-linejoin:round;}</style></defs><title>pantalla2_segurascp</title><g id="Capa_2" data-name="Capa 2"><g id="Capa_1-2" data-name="Capa 1"><path class="cls-1" d="M54.11,78.48a39.74,39.74,0,0,0-6.49.3,40.31,40.31,0,0,1-16.23-1C24.93,75.95,22.72,69.79,20,64.23c-2.42-5-5.53-9.89-6.74-15.4-1-4.62-1.61-11.75,1.22-15.84,1.86-2.69,4.86-3.48,7.89-4.4,3.2-1,6-1.86,7.86-4.67s-.15-6.11,1.43-9c4.43-8,17.87-7.55,25.52-8,4.07-.25,7.39.54,11.3,1.23,6.65,1.18,13.87,3.33,18,9,2.74,3.69.85,7.92,2.28,12.1a26,26,0,0,0,2.6,4.83c1.34,2.21,2.78,3.59,3.32,6.22a24.86,24.86,0,0,1,.28,8.3c-.44,3.24-1.83,6.19-3,9.29a39.25,39.25,0,0,1-3.87,8.49c-3.62,5.42-9.32,8.11-15.06,9.54-4.42,1.11-8.41,2.32-13,2.57C58.11,78.58,56.11,78.51,54.11,78.48Z"/><polyline class="cls-2" points="72 30.58 72 6.55 6.55 6.55 6.55 60.55 51.42 60.55 61.6 60.55"/><line class="cls-2" x1="6.55" y1="14.73" x2="72" y2="14.73"/><polyline class="cls-2" points="12.68 29.59 12.68 21.35 33.46 21.35 33.46 29.59"/><line class="cls-2" x1="12.68" y1="36.41" x2="33.46" y2="36.41"/><line class="cls-2" x1="12.68" y1="41.84" x2="33.46" y2="41.84"/><line class="cls-2" x1="12.68" y1="47.28" x2="33.46" y2="47.28"/><path class="cls-2" d="M72,30.58h0a6.16,6.16,0,0,0-6.16,6.16V39H78.16v-2.3A6.16,6.16,0,0,0,72,30.58Z"/><path class="cls-2" d="M75.74,47.75a3.75,3.75,0,1,0-5.41,3.35v4.48h3.33V51.1A3.74,3.74,0,0,0,75.74,47.75Z"/><rect class="cls-2" x="61.6" y="39.04" width="20.8" height="21.51"/><polyline class="cls-2" points="6.55 54.5 0.5 54.5 0.5 0.5 57.86 0.5 57.86 6.55"/></g></g></svg>