<svg xmlns="http://www.w3.org/2000/svg" xmlns:xlink="http://www.w3.org/1999/xlink" viewBox="0 0 479.66 366.07"><defs><style>.cls-1{fill:#f2f2f2;}.cls-2{fill:#07075b;}.cls-3{fill:#eebfa5;}.cls-4{fill:#a3ccc5;}.cls-5{opacity:0.1;}.cls-10,.cls-5{isolation:isolate;}.cls-6{fill:#663e04;}.cls-7{fill:#e2da8d;}.cls-13,.cls-8{fill:#1c1b1b;}.cls-9{fill:#6c63ff;}.cls-10{opacity:0.25;}.cls-11{fill:url(#linear-gradient);}.cls-12{fill:#fff;}.cls-13{stroke:#1c1b1b;stroke-miterlimit:10;}.cls-14{fill:#3f3d56;}.cls-15{fill:#4f3405;}</style><linearGradient id="linear-gradient" x1="633.21" y1="8771.27" x2="633.21" y2="8779.74" gradientTransform="matrix(1, 0, 0, -1, -292.07, 8820.58)" gradientUnits="userSpaceOnUse"><stop offset="0" stop-color="gray" stop-opacity="0.25"/><stop offset="0.54" stop-color="gray" stop-opacity="0.12"/><stop offset="1" stop-color="gray" stop-opacity="0.1"/></linearGradient></defs><title>medic-patientes</title><g id="Layer_2" data-name="Layer 2"><g id="Capa_1" data-name="Capa 1"><path class="cls-1" d="M283.64,71.64c-31.3-1.17-61.13-12-89.57-23.92s-56.63-25-87.2-31.34c-19.65-4.06-42.12-4.63-57.95,6.7C33.68,34,28.76,52.79,26.11,70.24c-2,13.13-3.14,27,2.3,39.25C32.2,118,38.92,125.2,43.58,133.37c16.18,28.45,4.74,63.53-12.8,91.33C22.55,237.75,13,250.16,6.67,264s-9.29,29.77-3.73,43.91,18.62,24.56,32.83,32c28.86,15,62.87,19.33,96,21.79,73.42,5.4,147.23,3.06,220.83.72,27.25-.86,54.61-1.74,81.41-6.28,14.88-2.51,21.73-6.51,32.54-16.14,13.71-12.23,17.11-32.94,7.92-48.29C459.09,266,425,259.6,414.21,232c-5.93-15.2.16-32.13,8.78-46.23,18.49-30.23,49.48-56.76,51.11-91.32,1.13-23.74-13.77-47.51-36.81-58.74-24.15-11.79-57.63-10.3-75.44,9.18C343.5,64.94,311.27,72.67,283.64,71.64Z"/><polygon class="cls-2" points="104.34 301.96 106.04 357.56 221.78 366.07 212.13 303.66 104.34 301.96"/><path class="cls-3" d="M98.74,103.38l10.47,18.79s54.19,31.61,46.05-.88C151.67,107,152,96.71,153.39,89.74a1.5,1.5,0,0,0,0-.2c1.84-8.73,5.49-12.28,5.49-12.28s-52.68-32.73-46.1-12.79a26.68,26.68,0,0,1,1,12.85A43.75,43.75,0,0,1,106.4,94.4,58.56,58.56,0,0,1,98.74,103.38Z"/><path class="cls-3" d="M105.64,48.79a37.34,37.34,0,0,0,34.12,40.3C160.3,90.8,175,75.15,176.67,54.6s-10.18-38.22-30.73-39.92a37.33,37.33,0,0,0-40.3,34.11Z"/><path class="cls-4" d="M216.29,136.24c-6.88-2.47-15.93,57.91-13.54,66.13s2.54,66.17,2.54,66.17,3.67,12.57-1.95,20.59c0,0-2.61,17.27-1.69,20.37,0,0-84.65,2-107.58-10.59,0,0-.28-39.16,3.64-43.78s-1.95-16.2-1.95-16.2L83.56,204.2,50.09,164.41S47,133.27,73.71,115.68l17.82-13.36s10-7.28,12.73-7.56,1.72.14,1.72.14,9.53,16.71,32.09,14.82c12.22-1,12.87-7.18,13.48-12a30.36,30.36,0,0,1,1.67-7.09L164,96.31c3.43.26,34.07,6.2,43.93,12.21C207.91,108.52,236,143.34,216.29,136.24Z"/><path class="cls-5" d="M97,212.86s51.33,6.39,60.29,23.41c0,0-12.82-7.44-24.92-6.56S97,212.86,97,212.86Z"/><path class="cls-5" d="M149.17,274s-24.49-.39-29.22-6-4.48-8.63-4.48-8.63Z"/><path class="cls-5" d="M174.55,99.07s15.79,28.43,2.72,43.84C177.27,142.91,185.44,124,174.55,99.07Z"/><path class="cls-3" d="M112.17,299.24l5.07,5.64.71.79,5.89,6.55c.43.39.85.77,1.27,1.12,24.43,20.76,32-7.07,32-7.07s10.85,8.4,13,2.49-25.42-17-29.72-16.84a5.39,5.39,0,0,1-1.13-.09,18.54,18.54,0,0,1-5.64-2.55l-1.18-.78c-2.26-1.53-4-3-4-3Z"/><path class="cls-6" d="M173.76,22.31c.66.41,1.33,1.12,1.1,1.85a1.69,1.69,0,0,1-.75.81A16.23,16.23,0,0,1,168,27.51c-4.28.79-8.94-.13-12.9,1.7-4.49,2.12-6.85,7.23-7.26,12.16s.74,9.82,1.28,14.74c.23,2.25.23,4.81-1.36,6.43a5.56,5.56,0,0,1-5.34,1.14,15.5,15.5,0,0,1-5-2.7A4.51,4.51,0,0,0,134,59.74a4.32,4.32,0,0,0-1.76,1,30.05,30.05,0,0,0-7,8.61c-1.62,3-2.7,6.24-4.29,9.26a15.51,15.51,0,0,1-6.91,7.27c-3.1,1.39-7.22.92-9.29-1.78s-1.62-6.2-2.45-9.35c-1.42-5.47-6.33-9.27-9.2-14.08C90,55.22,89.46,48.65,89,42.34a14.78,14.78,0,0,1,.4-6,22.1,22.1,0,0,1,2-3.65c4.23-7.14,5-16.63,11.23-22.14,4.7-4.13,11.4-4.95,17.67-5.2s12.8-.18,18.39-3A19.24,19.24,0,0,1,143.79.09c1.84-.35,4.08.34,4.64,2.19A3.22,3.22,0,0,0,149,3.64a2,2,0,0,0,1.82.25l8.43-1.52-1.28,4.07a20.49,20.49,0,0,0,8.8-.77c0,2.35-2.8,3.66-3.81,5.78a5.64,5.64,0,0,0,1.14,5.84C166.76,20.45,170.54,20.22,173.76,22.31Z"/><path class="cls-4" d="M62.08,150.32l-12,14.09L48.76,180.1S42.42,196.3,46,213.35l-1.75,14.46s4.11,13.78,2,16.91c0,0,.13,9.91,12.2,17.75s25,25.24,25,25.24,4.54,10.76,19.24,9.62l13.33,7,17.62-19-20.57-13.5s-6.61-10.69-11.15-10.59L85.42,238.31s.11-6.83-4.58-7.22c0,0,9.26-6.3,6.55-10.77s1.44-23,1.44-23Z"/><path class="cls-5" d="M76.54,220.35s-24.56-2.5-28.12,3.56S69.34,216.22,76.54,220.35Z"/><path class="cls-4" d="M185.32,167.12s4.61,18.41,2,22.94,6.82,10.61,6.82,10.61c-4.67.5-4.4,7.33-4.4,7.33l-15.9,23.29c-4.54,0-10.88,10.87-10.88,10.87l-20.22,14,18.08,18.59L174,267.43c14.73.77,19-10.09,19-10.09s12.5-17.73,24.38-25.86,11.75-18,11.75-18c-2.23-3.08,1.54-17,1.54-17l-2.11-14.41c3.15-17.13-3.59-33.17-3.59-33.17l-1.7-15.65-12.36-13.79Z"/><path class="cls-3" d="M183.85,170.84c-3.69,2.89-6.38,9.73-8.33,17.24A185.51,185.51,0,0,0,171,216.39s-29.35-6.73-27.21-9.78c1.34-1.92-.46-16.4-2-26.89-.9-6.21-1.7-11-1.7-11S193.94,162.89,183.85,170.84Z"/><path class="cls-5" d="M183.85,170.23c-3.69,2.89-6.38,9.73-8.33,17.24a33.86,33.86,0,0,1-33.69-8.36c-.9-6.21-1.7-11-1.7-11S193.94,162.28,183.85,170.23Z"/><path class="cls-3" d="M199.62,153.76a33.94,33.94,0,1,1-7.47-21.23A33.94,33.94,0,0,1,199.62,153.76Z"/><path class="cls-7" d="M151.71,363.8A106.3,106.3,0,0,1,138.09,336c-5.71-19-2.16-50-6-56.25s-2.5-33.71-2.5-33.71,4.7-23.41,9.68-35.89A17,17,0,0,1,142.4,205a12.26,12.26,0,0,1,1.38-1.32h0a10.63,10.63,0,0,1,1.16-.87l.08-.06a15.3,15.3,0,0,1,6.81-2.38,16.85,16.85,0,0,1,5.11.16,69.76,69.76,0,0,1,19.68,6.11c13.92,6.9,18.14,16.15,18.22,16.34h0l0,.08c.56,1.47,8.73,23,11.68,33,.76,2.62,1.18,4.46,1,5C209.45,277.12,221,357.36,221,364.19,221.07,366.32,151.71,363.8,151.71,363.8Z"/><path class="cls-3" d="M229.29,366H201.94c-3.82-3.32-7.44-6.39-9.74-8.24-3.69-3-6.34-7.31-8-10.81-.38-.8-.71-1.55-1-2.22q-.75-1.76-1.32-3.57l20.25-12a30.44,30.44,0,0,1,3.14,3.08l.25.28a8.36,8.36,0,0,1,2.2,4.07c.1,1.44,4.1,7,8.19,12.34s8.39,10.62,8.67,11h0s.7,1,1.85,2.42C227.19,363.31,228.19,364.58,229.29,366Z"/><path class="cls-8" d="M181.21,143.67c-.37,7.05,3.27,12.35-4.54,15.89-3.86,1.74-2.69,2.91-6.93,2.81-3.05-.07-5.84,1.87-7.7,4.29s-3,5.29-4.37,8c-1.23,2.48,2.24,7.5.65,9.78-.94,1.34,3.07,3.26,1.61,4-2.54,1.33-15.58-2.63-18.31-3.48-3.54-1.12-10.34-4.81-10.34-5.34-.1.2-.21.38-.32.57,0,0-10.86-4.63-13.29-14.52,2-1.29,2.28-4.19,1.38-6.38s-2.7-3.85-4.31-5.57.86-3.21.66-5.56a47.54,47.54,0,0,1,.82-12.87c.8-4.49,5.17-3.57,5.42-8.12.3-5.5,4.66-9,9.65-11.35,7.52-3.48,10.46-8.14,18.72-7.37,6.72.63,11.75.19,18.45,1,4,.47,8.56-.71,12.15,1.22,11.66,6.3,7.42,13,10.25,15.94C195.68,135.51,181.63,135.49,181.21,143.67Z"/><path class="cls-5" d="M183.34,346.91c-2.35-1-6.63-.41-14-2.64s-8.75-12.34-8.75-12.34v0h0c-.09-.23-.77-1.73-5.39-7-5.1-5.81-16.12-35.16-16.12-35.16s-9.78-10.5-9.47-14.37-1.74-14.16-1.53-25.68,22-19.16,22-19.16c42-7.44,32.1,41,31,44.63s4.69,13.57,4.69,13.57c-.82,4.32,3.36,11,3.36,11s1,5.91,1.22,8.15a1.55,1.55,0,0,0,.07.31c.67,2.11,6.16,4,8.39,5.19s9.88,11.93,9.88,11.93C210.34,333.16,185.68,347.94,183.34,346.91Z"/><path class="cls-7" d="M184.56,345.07c-2.34-1-6.62-.41-14-2.65s-8.75-12.33-8.75-12.33v0h0c-.09-.24-.77-1.73-5.39-7-5.1-5.8-16.13-35.15-16.13-35.15s-9.77-10.5-9.47-14.37-1.73-14.17-1.53-25.68,22-19.14,22-19.14c42-7.44,32.1,41,31,44.63S187,286.92,187,286.92c-.82,4.32,3.36,11,3.36,11s1,5.91,1.23,8.15a1.07,1.07,0,0,0,.06.31c.67,2.11,6.16,4,8.39,5.19s9.89,11.93,9.89,11.93C211.56,331.33,186.91,346.11,184.56,345.07Z"/><path class="cls-9" d="M391.72,162.47c-3.68-.61-13.25-9.07-13.25-9.07s11.79-4.91,15.47-4.3a6.77,6.77,0,0,1-2.19,13.36Z"/><path class="cls-9" d="M363.27,147.32c.49,3.68,8.64,13.53,8.64,13.53s5.26-11.64,4.76-15.33A6.77,6.77,0,1,0,363.22,147C363.24,147.1,363.25,147.21,363.27,147.32Z"/><path class="cls-10" d="M391.72,162.47c-3.68-.61-13.25-9.07-13.25-9.07s11.79-4.91,15.47-4.3a6.77,6.77,0,0,1-2.19,13.36Z"/><path class="cls-10" d="M363.27,147.32c.49,3.68,8.64,13.53,8.64,13.53s5.26-11.64,4.76-15.33A6.77,6.77,0,1,0,363.22,147C363.24,147.1,363.25,147.21,363.27,147.32Z"/><path class="cls-9" d="M385.56,151.07c-3.61.92-15.8-2.89-15.8-2.89s8.79-9.27,12.41-10.21a6.77,6.77,0,0,1,3.39,13.1Z"/><path class="cls-9" d="M353.39,148.76c1.95,3.18,13.38,8.87,13.38,8.87s.1-12.77-1.84-15.95a6.76,6.76,0,0,0-11.52,7.08Z"/><path class="cls-11" d="M340,49.31c.77-2.81,1.69-5.63,2.33-8.47C341.53,43.68,340.6,46.51,340,49.31Z"/><path class="cls-12" d="M246.94,135.49l-2.76,1.22s-18,70-18,75.67,38.21,37.14,38.21,37.14l6-40.24S261.77,117,246.94,135.49Z"/><path class="cls-3" d="M305.36,136.31l-1.64-22.9A31.94,31.94,0,0,0,299,102.74c-2.34-3.37-5.44-6.68-9.31-8.41C280,90,331.1,66.92,331.1,66.92A83.81,83.81,0,0,0,334,75.08c2.63,6.5,7,14.92,12.64,17.31C356.17,96.47,305.36,136.31,305.36,136.31Z"/><path class="cls-5" d="M334,75.08A38.15,38.15,0,0,1,299,102.74c-2.34-3.37-5.44-6.68-9.31-8.41C280,90,331.1,66.92,331.1,66.92A83.81,83.81,0,0,0,334,75.08Z"/><path class="cls-3" d="M328.91,46.17c10,18.52,4.58,40.85-12.14,49.89s-33.07,2-43.08-16.5-1.23-39.19,15.49-48.23c0,0,29.53-3.86,39.57,14.53Z"/><polygon class="cls-12" points="340.88 116.85 330.49 141.1 321.32 157.2 301.96 158.76 298.54 102.63 302.64 107.4 307.06 132.23 332.57 109.1 336.31 106.38 331.81 111.71 340.88 116.85"/><path class="cls-5" d="M340.88,116.85,330.49,141.1l-9.15,16.1H292l-8.56-22,3.47-22.83h6.23c-.1,5.33,1.84,11.59,1.72,13.91-.21,3.83,5.7,24.46,5.7,24.46s12.38-20,17.27-21.81c3.07-1.12,9.58-10.43,14-17.21Z"/><path class="cls-12" d="M377.47,244.48l-.93,1.32s6.74,38.37,4.88,47.08a27.34,27.34,0,0,0-.54,4.78v.07c-.33,8.87,2,20.37,2,20.37s1.89,33.91.81,47.86H257.37c-.74-20.62-1.53-47.34-.81-50.3,1.22-4.89,3.66-22.63,3.66-22.63l.27-8.4s0-8.12.22-17.17c.09-4.07.23-8.34.43-12.13a71.52,71.52,0,0,1,1.11-10.75,27.69,27.69,0,0,0,.52-4.55,3.31,3.31,0,0,1,0-.44c0-.46,0-1,.06-1.47v-.46c.08-3,0-6.48,0-10.13v-.61c-.07-2.73-.17-5.53-.28-8.18-.36-8.29-.82-15.31-.82-15.31L246.2,145.2l4.18-11.67,11.6-8,21.46-14.68c10.47-9.74,17.36-8.57,20-7.5a6.36,6.36,0,0,1,.75.34l.21.13a1.58,1.58,0,0,1,.24.15h0a5.19,5.19,0,0,0-1.82,1.7,8.14,8.14,0,0,0-1.13,2.77,15,15,0,0,0-.29,1.88c-.05.67-.07,1.36-.07,2.06a40.61,40.61,0,0,0,.34,4.55V117c.14,1.07.3,2.13.47,3.12v0c.18,1.16.37,2.23.5,3.15,0,.16,0,.32.06.46a12.55,12.55,0,0,1,.13,1.84,25.17,25.17,0,0,0,.53,4.42c.1.61.23,1.26.36,1.94.18.92.38,1.93.6,2.95.12.56.24,1.14.37,1.72l.15.69.08.37c.87,3.9,1.81,7.78,2.39,10.13l.55,2.24s6.13-11.22,11-17.61l.21-.26c.48-.63,1-1.21,1.41-1.71a8.6,8.6,0,0,1,2.61-2.23,2.38,2.38,0,0,0,.45-.23c2-1.29,5.23-6,8.25-10.84.3-.46.59-1,.88-1.44.67-1.1,1.32-2.2,1.94-3.25l1.35-2.34c2-3.58,3.46-6.25,3.46-6.25l2.83-.15.49,0h.33l12.81-.68s.56.11,1.47.32a.27.27,0,0,1,.15,0c4.55,1,17.18,4.26,17.95,8.76.95,5.5,21.33,12.84,21.33,12.84.27,3.68,5.26,6.11,5.26,6.11s7.55,22.62,5.53,31.49,5.2,30.41,5.39,31h0l-1.38,2Z"/><path class="cls-5" d="M337.3,82.91s14.13-4,17.34,4.24S365,128.73,365,128.73s-18.65,3.52-23.54,0a14.11,14.11,0,0,0-9.94-2.6L321,133.31l-3.11-.92s16.87-25.08,20.54-33.6S343.34,86.45,337.3,82.91Z"/><path class="cls-12" d="M336.69,81.07s14.14-4,17.36,4.24,10.4,41.58,10.4,41.58-18.65,3.51-23.54,0a14.06,14.06,0,0,0-9.94-2.6l-10.55,7.18-3.12-.92s16.88-25.08,20.54-33.61S342.73,84.62,336.69,81.07Z"/><path class="cls-3" d="M339.51,261.29s-69.7,3.36-49.37,25.07,62.06.92,62.06.92Z"/><path class="cls-12" d="M229.67,211.15l-3.52,1.23s1.38,20.78-3.23,26.75,15.14,20.78,15.14,20.78,27.05-.15,27.81-2.3-1.38-38.52-1.38-38.52-14.52-5.66-13.3-14.68c0,0-4.43,21.25-11,20.33S226.16,218.34,229.67,211.15Z"/><path class="cls-3" d="M251.53,211.76s-1.84-56.24-17.88-43.71S217.45,195.57,220.5,200s12.85,26.59,12.85,26.59h0a11.21,11.21,0,0,0,15.32-4.08,11.35,11.35,0,0,0,1.27-3.29Z"/><path class="cls-13" d="M307.64,128.72c-.2-.14-13.1-9.65-15.4-13.6-2.39-4.11,6.21-12.14,6.3-12.49l.92.94c-.58,2.18-7.28,7.77-5.61,10.62,2.09,3.61,14.82,13,14.87,13Z"/><path class="cls-13" d="M275.4,232.2a16.21,16.21,0,0,1-1.84-.1,34.13,34.13,0,0,1-23.78-7.78C241,217,236.06,205,235,188.89l1.84-.11c1,15.62,5.72,27.1,14.09,34.13a32.84,32.84,0,0,0,22.5,7.38h.2a13.51,13.51,0,0,0,11.1-3.69c8.38-7.8,10.89-26,10.5-35.58-.46-10.83,3.46-41.83,8.11-48,4.08-5.38,6.61-29.66,6.64-29.9l.07-.69.68-.12s4-.76,4.52-3.73c.64-3.88,21.48-26.61,22.79-27.76l1.2,1.38c-4.78,4.15-21.78,24.24-22.17,26.67-.56,3.38-3.86,4.67-5.32,5.07-.46,4-2.89,24.84-6.91,30.18s-8.22,35.33-7.76,46.79c.39,9.95-2.26,28.78-11.1,37A15.12,15.12,0,0,1,275.4,232.2Z"/><path class="cls-5" d="M408.91,178.66l5.35,5.66s4.28,31.18,6.42,34.09,7.18,14.52,2.44,23.23c0,0-1.53,4.74-.61,6.73s-6.87,11.92-6.87,11.92-10.25,9.17-12.39,10.55S389.8,283.22,386,283.37s-5.07,4.9-5.07,4.9l-21.55.76s-11.9-.62-14.49,1.06c0,0,1.38-18.19-11.92-30.11l17-6.12s6.42-2.76,8.41-5.65a10.36,10.36,0,0,1,5.07-3.82s4.73-3.36,4.89-5.2,5.79-4.08,5.79-4.08l-3.19-27.25,1.68-45.25s5.35-37.91,16.66-35.76S408.91,178.66,408.91,178.66Z"/><path class="cls-12" d="M410.75,178.66l5.35,5.66s4.28,31.18,6.42,34.09,7.19,14.52,2.45,23.23c0,0-1.53,4.74-.61,6.73s-6.88,11.92-6.88,11.92-10.24,9.17-12.39,10.55-13.44,12.38-17.26,12.53-5.07,4.9-5.07,4.9L361.2,289s-11.91-.62-14.49,1.06c0,0,1.38-18.19-11.92-30.11l17-6.12s6.43-2.76,8.41-5.65a10.36,10.36,0,0,1,5.07-3.82s4.74-3.36,4.89-5.2,5.79-4.08,5.79-4.08l-3.19-27.25,1.68-45.25s5.35-37.91,16.66-35.76S410.75,178.66,410.75,178.66Z"/><path class="cls-5" d="M254.63,161.89s3.2,22,1.63,31,4.17,20.07,4.17,20.07Z"/><circle class="cls-14" cx="302.19" cy="172.76" r="1.08"/><circle class="cls-14" cx="302.19" cy="203.6" r="1.08"/><circle class="cls-14" cx="302.19" cy="232.73" r="1.08"/><circle class="cls-14" cx="302.19" cy="256.94" r="1.08"/><circle cx="232.69" cy="190.76" r="8.92"/><path class="cls-15" d="M262.9,33.18c2.5-4.19,16.83-14.81,21.32-16.43,13.88-13.61,37-8.58,44.4,1.82,1.46,2.1,4.42,3.87,6.44,5.32,14.88,12.94,17.19,24.66,18.8,29.83s2.59,26,5.22,32.41c3.11,7.6,4,12.89,10,18.26,8.17,7.33,12.81,8.83,20.4,16.87,9,9.55,8.69,25.31,4.06,37.82a10.78,10.78,0,0,0-1.06,5.11c.24,1.75-2.56,10.53-1.39,11.92l-6.35,17.21c-11.63,2.94-9.47-22-14.88-33.18-1.67-3.46-2.78-7.44-5.63-9.9-2.56-2.19-6-2.72-9.18-3.7-10.5-3.27-19.3-13.33-19.63-24.81-.16-5.39-2.18-4.24-2.9-9.58-.41-3.05-.39-10.34-2.18-12.78-2.75-3.76-4.44-8.42-6.67-12.61-3.79-7-3.78-30.3-7.69-28-4.68,1.91-16.12-1.7-20-5s-9.32-4.33-14.29-3.58c-3.29.48-7.93,6.92-11,8.14-2.23.9-5.32-.77-7.28-2.75C259.32,51.54,261.19,36.07,262.9,33.18Z"/></g></g></svg>