<svg xmlns="http://www.w3.org/2000/svg" xmlns:xlink="http://www.w3.org/1999/xlink" viewBox="0 0 698.56 678.71"><defs><style>.cls-1{fill:#f1f1f1;}.cls-2{stroke-linecap:round;stroke-linejoin:round;stroke-width:5.67px;fill:url(#linear-gradient);stroke:url(#linear-gradient-2);}.cls-3{fill:url(#linear-gradient-3);}.cls-4{fill:url(#linear-gradient-4);}.cls-5{fill:#493545;}.cls-6{fill:#eebfa5;}.cls-7{opacity:0.1;isolation:isolate;}.cls-8{fill:#e0eeef;}.cls-26,.cls-9{fill:#fff;}.cls-10{fill:#472802;}.cls-11,.cls-26{opacity:0.8;}.cls-12{fill:url(#linear-gradient-5);}.cls-13{fill:url(#linear-gradient-6);}.cls-14{fill:#fcdd5e;}.cls-15{fill:#8ec0fb;}.cls-16{fill:url(#linear-gradient-7);}.cls-17{fill:url(#linear-gradient-8);}.cls-18{fill:#060607;}.cls-19{fill:url(#linear-gradient-9);}.cls-20{fill:url(#linear-gradient-10);}.cls-21{fill:#c17508;}.cls-22{fill:url(#linear-gradient-11);}.cls-23{fill:url(#linear-gradient-12);}.cls-24{fill:#0a0a0a;}.cls-25{fill:url(#linear-gradient-13);}.cls-27{fill:url(#linear-gradient-14);}.cls-28{fill:url(#linear-gradient-15);}.cls-29{fill:#444343;}.cls-30{fill:url(#linear-gradient-16);}.cls-31{fill:url(#linear-gradient-17);}.cls-32{fill:#68430d;}</style><linearGradient id="linear-gradient" x1="176.66" y1="336.14" x2="500.49" y2="336.14" gradientUnits="userSpaceOnUse"><stop offset="0.11" stop-color="#215779"/><stop offset="0.93" stop-color="#215779"/></linearGradient><linearGradient id="linear-gradient-2" x1="173.83" y1="336.14" x2="503.32" y2="336.14" xlink:href="#linear-gradient"/><linearGradient id="linear-gradient-3" x1="508.07" y1="544.61" x2="698.56" y2="544.61" xlink:href="#linear-gradient"/><linearGradient id="linear-gradient-4" x1="880.24" y1="6293.81" x2="880.24" y2="6463.35" gradientTransform="matrix(1, 0, 0, -1, -278.33, 6933.7)" gradientUnits="userSpaceOnUse"><stop offset="0" stop-color="gray" stop-opacity="0.25"/><stop offset="0.54" stop-color="gray" stop-opacity="0.12"/><stop offset="1" stop-color="gray" stop-opacity="0.1"/></linearGradient><linearGradient id="linear-gradient-5" x1="348.86" y1="56.74" x2="462.34" y2="56.74" xlink:href="#linear-gradient"/><linearGradient id="linear-gradient-6" x1="640.14" y1="6871.51" x2="725.66" y2="6871.51" xlink:href="#linear-gradient-4"/><linearGradient id="linear-gradient-7" x1="3.31" y1="479.22" x2="173.28" y2="479.22" xlink:href="#linear-gradient"/><linearGradient id="linear-gradient-8" x1="301.05" y1="6446.32" x2="429.13" y2="6446.32" xlink:href="#linear-gradient-4"/><linearGradient id="linear-gradient-9" x1="273.61" y1="617.74" x2="395.56" y2="617.74" xlink:href="#linear-gradient"/><linearGradient id="linear-gradient-10" x1="-2360.87" y1="6255.07" x2="-2360.87" y2="6358.22" gradientTransform="translate(-2027.34 6933.7) rotate(180)" xlink:href="#linear-gradient-4"/><linearGradient id="linear-gradient-11" x1="10064.3" y1="245.95" x2="10247.8" y2="245.95" gradientTransform="matrix(-1, 0, 0, 1, 10746.03, 0)" xlink:href="#linear-gradient"/><linearGradient id="linear-gradient-12" x1="-12181.8" y1="6596.13" x2="-12181.8" y2="6759" gradientTransform="matrix(1, 0, 0, -1, 12773.37, 6933.7)" xlink:href="#linear-gradient-4"/><linearGradient id="linear-gradient-13" x1="241.36" y1="334.98" x2="405.19" y2="334.98" gradientUnits="userSpaceOnUse"><stop offset="0.62" stop-color="#215779"/><stop offset="0.93" stop-color="#215779"/></linearGradient><linearGradient id="linear-gradient-14" x1="9395.62" y1="79.86" x2="9465.63" y2="79.86" gradientTransform="matrix(-1, 0, 0, 1, 9689.06, 0)" xlink:href="#linear-gradient"/><linearGradient id="linear-gradient-15" x1="-11457.36" y1="6818.88" x2="-11457.36" y2="6881.02" gradientTransform="matrix(1, 0, 0, -1, 11716.4, 6933.7)" xlink:href="#linear-gradient-4"/><linearGradient id="linear-gradient-16" x1="0" y1="184.43" x2="152.71" y2="184.43" xlink:href="#linear-gradient"/><linearGradient id="linear-gradient-17" x1="-2102.37" y1="6673.01" x2="-2102.37" y2="6798.44" gradientTransform="translate(-2027.34 6933.7) rotate(180)" xlink:href="#linear-gradient-4"/></defs><title>medics-hub</title><g id="Layer_2" data-name="Layer 2"><g id="Capa_1" data-name="Capa 1"><ellipse class="cls-1" cx="305.61" cy="339.2" rx="147.87" ry="135.86"/><path class="cls-2" d="M500.49,480.26,395.45,449a160.44,160.44,0,0,1-69.79,15.87c-82.16,0-149-61.19-149-136.4S243.5,192,325.66,192s149,61.19,149,136.41c0,38-17.43,74.4-47.87,100.17ZM395.27,446.71l.39.11,93,27.74-65.36-45.82,1.06-.88c30.61-25.42,48.16-61.67,48.16-99.44,0-74.06-65.89-134.31-146.89-134.31s-146.9,60.25-146.9,134.31,65.9,134.3,146.9,134.3a158.28,158.28,0,0,0,69.24-15.83Z"/><path class="cls-3" d="M698.56,544.61a94.85,94.85,0,0,1-22.93,62c-.73.85-1.49,1.69-2.26,2.52q-.57.64-1.17,1.26A93.59,93.59,0,0,1,662,619.6l-.25.18a92.86,92.86,0,0,1-18.07,11.09h0a95.33,95.33,0,0,1-10.14,4.07l-1.28.4c-.78.27-1.59.51-2.39.73l-.32.1a95.76,95.76,0,0,1-52.6,0h-.14c-1.4-.41-2.8-.83-4.09-1.29l-1.19-.42a91.93,91.93,0,0,1-13.16-5.83l-.27-.14a95.58,95.58,0,0,1-18.66-13.2l-.46-.44a90.93,90.93,0,0,1-8.14-8.4c-.33-.38-.66-.77-1-1.16-.61-.73-1.2-1.49-1.79-2.25a95.24,95.24,0,1,1,170.46-58.43Z"/><path class="cls-4" d="M672.49,576.74l-7.23-3.25a28,28,0,0,0,.14-3.3,26.34,26.34,0,0,0,0-2.81c-.71-7.36-5.4-13.78-8.72-20.51a58.25,58.25,0,0,1-5.7-19.61c-.89-8.41,0-17.12-3.08-25-2.51-6.37-7.47-11.69-12.78-16.4a64.76,64.76,0,0,0-20.52-13c-7.76-2.8-16.68-3.52-24.44-.66-7,2.58-12.39,7.72-17.6,12.72a58.89,58.89,0,0,0-9.95,11.31c-3.18,5.21-4.54,11.21-5.6,17.12a264.13,264.13,0,0,0-3.45,28.6c-.54,8-1.4,17.07-8.23,22-3.34,2.39-8,3.74-9.56,7.36a7.62,7.62,0,0,0-.5,3.44,12.71,12.71,0,0,0,.21,2.89c.1.57.21,1.11.35,1.67a122.91,122.91,0,0,0-4.93,15c-1,3.78-2,7.49-2.8,11.09h3.47l13.06.31h.18l14,.32h.07l13.05.31h.32l3.77.27h1.23l52.2,1.2h.28l3.48.09h1.22l10.44.23h0l15.41.35h.11l11.6.28h3.61L675,596.52C677.55,577.9,672.49,576.74,672.49,576.74Zm-58.64-1.48c0,10.3-11,22.92-11,22.92L591.7,583.06l.41-.59L602.81,597s11-12.61,11-22.93a11.53,11.53,0,0,1,.88-1.52l.25.79A14.86,14.86,0,0,0,613.85,575.26Zm17,40.45a8.29,8.29,0,0,0-.1-1.57c-.09-.52-.08-1-.15-1.49s-.13-1-.2-1.5-.16-1-.26-1.49-.2-1-.31-1.5a2.46,2.46,0,0,0-.11-.51c-.16-.66-.33-1.31-.51-2s-.29-1.07-.46-1.59a2.36,2.36,0,0,0-.22-.7c-.09-.22-.24-.75-.37-1.13l-.25-.73c-.11-.32-.22-.66-.35-1-.21-.59-.43-1.16-.66-1.75s-.46-1.16-.7-1.74c-.47-1.17-1-2.34-1.51-3.51-2-4.54-4.32-9-6.42-13.43a73.89,73.89,0,0,1-3-7.12l-.27.35a15,15,0,0,0-1.13,1.89c0,10.31-11,22.93-11,22.93L591.7,583l-9.72,14c-1.4.7-2.8,3.08-3.89,6.47-.31.91-.6,1.92-.88,3-.2.71-.38,1.4-.55,2.2-.1.38-.18.76-.27,1.15l-.25,1.19v.18c-.17.81-.34,1.65-.49,2.51s-.34,1.83-.49,2.8c-.11.61-.21,1.21-.29,1.81-.2,1.16-.37,2.33-.54,3.51-.09.69-.19,1.4-.28,2l-.33,2.61c.71,2.14,1.51,4.2,2.34,6.36a10.16,10.16,0,0,1,.91,3.6,102.15,102.15,0,0,0,52.59,0v-.13a14.76,14.76,0,0,1-.34-3.57h0a93.8,93.8,0,0,1,1.41-10,35.33,35.33,0,0,0,.26-4.93v-.59c0-.53,0-1-.07-1.47Zm0,0a8.29,8.29,0,0,0-.1-1.57c-.09-.52-.08-1-.15-1.49s-.13-1-.2-1.5-.16-1-.26-1.49-.2-1-.31-1.5a2.46,2.46,0,0,0-.11-.51c-.16-.66-.33-1.31-.51-2s-.29-1.07-.46-1.59a2.36,2.36,0,0,0-.22-.7c-.09-.22-.24-.75-.37-1.13l-.25-.73c-.11-.32-.22-.66-.35-1-.21-.59-.43-1.16-.66-1.75s-.46-1.16-.7-1.74c-.47-1.17-1-2.34-1.51-3.51-2-4.54-4.32-9-6.42-13.43a73.89,73.89,0,0,1-3-7.12l-.27.35a15,15,0,0,0-1.13,1.89c0,10.31-11,22.93-11,22.93L591.7,583l-9.72,14c-1.4.7-2.8,3.08-3.89,6.47-.31.91-.6,1.92-.88,3-.2.71-.38,1.4-.55,2.2-.1.38-.18.76-.27,1.15l-.25,1.19v.18c-.17.81-.34,1.65-.49,2.51s-.34,1.83-.49,2.8c-.11.61-.21,1.21-.29,1.81-.2,1.16-.37,2.33-.54,3.51-.09.69-.19,1.4-.28,2l-.33,2.61c.71,2.14,1.51,4.2,2.34,6.36a10.16,10.16,0,0,1,.91,3.6,102.15,102.15,0,0,0,52.59,0v-.13a14.76,14.76,0,0,1-.34-3.57h0a93.8,93.8,0,0,1,1.41-10,35.33,35.33,0,0,0,.26-4.93v-.59c0-.53,0-1-.07-1.47Zm0,0a8.29,8.29,0,0,0-.1-1.57c-.09-.52-.08-1-.15-1.49s-.13-1-.2-1.5-.16-1-.26-1.49-.2-1-.31-1.5a2.46,2.46,0,0,0-.11-.51c-.16-.66-.33-1.31-.51-2s-.29-1.07-.46-1.59a2.36,2.36,0,0,0-.22-.7c-.09-.22-.24-.75-.37-1.13l-.25-.73c-.11-.32-.22-.66-.35-1-.21-.59-.43-1.16-.66-1.75s-.46-1.16-.7-1.74c-.47-1.17-1-2.34-1.51-3.51-2-4.54-4.32-9-6.42-13.43a73.89,73.89,0,0,1-3-7.12l-.27.35a15,15,0,0,0-1.13,1.89c0,10.31-11,22.93-11,22.93L591.7,583l-9.72,14c-1.4.7-2.8,3.08-3.89,6.47-.31.91-.6,1.92-.88,3-.2.71-.38,1.4-.55,2.2-.1.38-.18.76-.27,1.15l-.25,1.19v.18c-.17.81-.34,1.65-.49,2.51s-.34,1.83-.49,2.8c-.11.61-.21,1.21-.29,1.81-.2,1.16-.37,2.33-.54,3.51-.09.69-.19,1.4-.28,2l-.33,2.61c.71,2.14,1.51,4.2,2.34,6.36a10.16,10.16,0,0,1,.91,3.6,102.15,102.15,0,0,0,52.59,0v-.13a14.76,14.76,0,0,1-.34-3.57h0a93.8,93.8,0,0,1,1.41-10,35.33,35.33,0,0,0,.26-4.93v-.59c0-.53,0-1-.07-1.47Zm0,0a8.29,8.29,0,0,0-.1-1.57c-.09-.52-.08-1-.15-1.49s-.13-1-.2-1.5-.16-1-.26-1.49-.2-1-.31-1.5a2.46,2.46,0,0,0-.11-.51c-.16-.66-.33-1.31-.51-2s-.29-1.07-.46-1.59a2.36,2.36,0,0,0-.22-.7c-.09-.22-.24-.75-.37-1.13l-.25-.73c-.11-.32-.22-.66-.35-1-.21-.59-.43-1.16-.66-1.75s-.46-1.16-.7-1.74c-.47-1.17-1-2.34-1.51-3.51-2-4.54-4.32-9-6.42-13.43a73.89,73.89,0,0,1-3-7.12l-.27.35a15,15,0,0,0-1.13,1.89c0,10.31-11,22.93-11,22.93L591.7,583l-9.72,14c-1.4.7-2.8,3.08-3.89,6.47-.31.91-.6,1.92-.88,3-.2.71-.38,1.4-.55,2.2-.1.38-.18.76-.27,1.15l-.25,1.19v.18c-.17.81-.34,1.65-.49,2.51s-.34,1.83-.49,2.8c-.11.61-.21,1.21-.29,1.81-.2,1.16-.37,2.33-.54,3.51-.09.69-.19,1.4-.28,2l-.33,2.61c.71,2.14,1.51,4.2,2.34,6.36a10.16,10.16,0,0,1,.91,3.6,102.15,102.15,0,0,0,52.59,0v-.13a14.76,14.76,0,0,1-.34-3.57h0a93.8,93.8,0,0,1,1.41-10,35.33,35.33,0,0,0,.26-4.93v-.59c0-.53,0-1-.07-1.47Z"/><rect class="cls-5" x="566.9" y="518.01" width="64.43" height="43.42"/><path class="cls-6" d="M642,565.9l-27,38-28.18-2.45s-36.76,2.44-12.25-25.73c11.78-13.54,15.63-24.83,16.46-32.88.89-8.71-1.76-13.67-1.76-13.67L620,525.48a22.82,22.82,0,0,0-.51,12.79C623.3,554.18,642,565.9,642,565.9Z"/><path class="cls-7" d="M619.45,538.22a30.6,30.6,0,0,1-28.38,4.57c.9-8.71-1.75-13.67-1.75-13.67L620,525.45A22.84,22.84,0,0,0,619.45,538.22Z"/><circle class="cls-6" cx="600.97" cy="512.58" r="30.63"/><path class="cls-7" d="M640.91,567.47l-.72-2.8-.61-2.47-.91-3.64-.17-.67-.14-.56s.73-2.2-4.08-1.49l-.9.16c-.75.15-1.63.36-2.64.64l-.91.28-1.21.38h0a26.34,26.34,0,0,0-10.17,6.13,23.15,23.15,0,0,0-3.4,4.12c-.1.14-.17.27-.25.38a12.17,12.17,0,0,0-.88,1.63c0,11-11,24.51-11,24.51l-10.77-15.56-.21-.31-2.57-3.73-.91-1.2-.3-.42-5.61-7.52-1.4-1.88-.46-.63-.69-.91-1.61-2.15-6.3,3.69-8.4,4.9-4.9,31.87v.88l.15,2.63,1,17.31v.24l-1.79,7.17.27.14a93.05,93.05,0,0,0,13.16,5.83l1.19.42c1.4.46,2.72.88,4.09,1.29a4.37,4.37,0,0,1,.11.63v-.6a95.76,95.76,0,0,0,52.6,0l.32-.1c.8-.23,1.61-.46,2.39-.73l1.28-.41a93.19,93.19,0,0,0,10.14-4.06l1.18-25.07.84-18.08v-1Z"/><path class="cls-8" d="M630.82,614a9.48,9.48,0,0,0-.1-1.68c-.09-.56-.08-1.05-.15-1.58s-.13-1.07-.2-1.6-.16-1.07-.26-1.6-.2-1.06-.31-1.59a2.59,2.59,0,0,0-.11-.54c-.16-.7-.33-1.4-.51-2.11s-.29-1.14-.46-1.7a2.51,2.51,0,0,0-.22-.74c-.09-.24-.24-.81-.37-1.22l-.25-.78c-.11-.35-.22-.7-.35-1-.21-.63-.43-1.25-.66-1.88s-.46-1.25-.7-1.86c-.47-1.26-1-2.51-1.51-3.76-2-4.84-4.32-9.62-6.42-14.35a76.49,76.49,0,0,1-3-7.61l-.27.38a16,16,0,0,0-1.13,2c0,11-11,24.51-11,24.51L591.7,579.12l-9.72,15c-1.4.74-2.8,3.29-3.89,6.92-.31,1-.6,2-.88,3.17-.2.76-.38,1.56-.55,2.36-.1.4-.18.81-.27,1.23l-.25,1.27v.2c-.17.87-.34,1.77-.49,2.68s-.34,2-.49,3c-.11.65-.21,1.29-.29,1.93-.2,1.25-.37,2.51-.54,3.76-.09.73-.19,1.4-.28,2.17l-.33,2.8c.71,2.3,1.51,4.57,2.34,6.79a11.65,11.65,0,0,1,.91,3.86,95.72,95.72,0,0,0,52.59,0,.33.33,0,0,1,0-.14,17,17,0,0,1-.34-3.83h0a107.09,107.09,0,0,1,1.41-10.71,40.35,40.35,0,0,0,.26-5.27v-.63C630.85,615.05,630.84,614.54,630.82,614Zm0,0a9.48,9.48,0,0,0-.1-1.68c-.09-.56-.08-1.05-.15-1.58s-.13-1.07-.2-1.6-.16-1.07-.26-1.6-.2-1.06-.31-1.59a2.59,2.59,0,0,0-.11-.54c-.16-.7-.33-1.4-.51-2.11s-.29-1.14-.46-1.7a2.51,2.51,0,0,0-.22-.74c-.09-.24-.24-.81-.37-1.22l-.25-.78c-.11-.35-.22-.7-.35-1-.21-.63-.43-1.25-.66-1.88s-.46-1.25-.7-1.86c-.47-1.26-1-2.51-1.51-3.76-2-4.84-4.32-9.62-6.42-14.35a76.49,76.49,0,0,1-3-7.61l-.27.38a16,16,0,0,0-1.13,2c0,11-11,24.51-11,24.51L591.7,579.12l-9.72,15c-1.4.74-2.8,3.29-3.89,6.92-.31,1-.6,2-.88,3.17-.2.76-.38,1.56-.55,2.36-.1.4-.18.81-.27,1.23l-.25,1.27v.2c-.17.87-.34,1.77-.49,2.68s-.34,2-.49,3c-.11.65-.21,1.29-.29,1.93-.2,1.25-.37,2.51-.54,3.76-.09.73-.19,1.4-.28,2.17l-.33,2.8c.71,2.3,1.51,4.57,2.34,6.79a11.65,11.65,0,0,1,.91,3.86,95.72,95.72,0,0,0,52.59,0,.33.33,0,0,1,0-.14,17,17,0,0,1-.34-3.83h0a107.09,107.09,0,0,1,1.41-10.71,40.35,40.35,0,0,0,.26-5.27v-.63C630.85,615.05,630.84,614.54,630.82,614Zm0,0a9.48,9.48,0,0,0-.1-1.68c-.09-.56-.08-1.05-.15-1.58s-.13-1.07-.2-1.6-.16-1.07-.26-1.6-.2-1.06-.31-1.59a2.59,2.59,0,0,0-.11-.54c-.16-.7-.33-1.4-.51-2.11s-.29-1.14-.46-1.7a2.51,2.51,0,0,0-.22-.74c-.09-.24-.24-.81-.37-1.22l-.25-.78c-.11-.35-.22-.7-.35-1-.21-.63-.43-1.25-.66-1.88s-.46-1.25-.7-1.86c-.47-1.26-1-2.51-1.51-3.76-2-4.84-4.32-9.62-6.42-14.35a76.49,76.49,0,0,1-3-7.61l-.27.38a16,16,0,0,0-1.13,2c0,11-11,24.51-11,24.51L591.7,579.12l-9.72,15c-1.4.74-2.8,3.29-3.89,6.92-.31,1-.6,2-.88,3.17-.2.76-.38,1.56-.55,2.36-.1.4-.18.81-.27,1.23l-.25,1.27v.2c-.17.87-.34,1.77-.49,2.68s-.34,2-.49,3c-.11.65-.21,1.29-.29,1.93-.2,1.25-.37,2.51-.54,3.76-.09.73-.19,1.4-.28,2.17l-.33,2.8c.71,2.3,1.51,4.57,2.34,6.79a11.65,11.65,0,0,1,.91,3.86,95.72,95.72,0,0,0,52.59,0,.33.33,0,0,1,0-.14,17,17,0,0,1-.34-3.83h0a107.09,107.09,0,0,1,1.41-10.71,40.35,40.35,0,0,0,.26-5.27v-.63C630.85,615.05,630.84,614.54,630.82,614Zm14.85-26.29-5-20-.86-3.42-.23-.94h0l-1.22-4.87v-.13h0a1.15,1.15,0,0,0-.1-.63c-.18-.36-.65-.74-1.72-.84a8.55,8.55,0,0,0-1.24,0h0a21.15,21.15,0,0,0-3.6.68c-.57.15-1.19.32-1.84.53l-1.21.38h-.11a26.79,26.79,0,0,0-8.83,4.9,23.77,23.77,0,0,0-4.48,5l-.26.37a16.08,16.08,0,0,0-1.14,2c0,11-11,24.51-11,24.51l-11.1-16.17-.63-.91-.11-.16-1.62-2.37-1.21-1.62-.33-.42L582.05,566h0l-1.82-2.48v-.09l-.63-.85-1.2-1.6-4.21,2.45-10.5,6.13-4.85,31.52v.34l.14,2.3,1,17.55v1l-1.58,6.32a91.88,91.88,0,0,0,13.16,5.82l1.19.42c1.4.47,2.72.89,4.09,1.29q.07.32.12.63v-.6a95.72,95.72,0,0,0,52.59,0l.32-.1c.8-.22,1.61-.46,2.4-.73l1.27-.4a94.42,94.42,0,0,0,10.14-4.06h0l1.16-25.05.84-17.88Zm-68.88,48.36c.05.21.08.42.11.63v-.6Zm54-22.07a9.48,9.48,0,0,0-.1-1.68c-.09-.56-.08-1.05-.15-1.58s-.13-1.07-.2-1.6-.16-1.07-.26-1.6-.2-1.06-.31-1.59a2.59,2.59,0,0,0-.11-.54c-.16-.7-.33-1.4-.51-2.11s-.29-1.14-.46-1.7a2.51,2.51,0,0,0-.22-.74c-.09-.24-.24-.81-.37-1.22l-.25-.78c-.11-.35-.22-.7-.35-1-.21-.63-.43-1.25-.66-1.88s-.46-1.25-.7-1.86c-.47-1.26-1-2.51-1.51-3.76-2-4.84-4.32-9.62-6.42-14.35a76.49,76.49,0,0,1-3-7.61l-.27.38a16,16,0,0,0-1.13,2c0,11-11,24.51-11,24.51L591.7,579.12l-9.72,15c-1.4.74-2.8,3.29-3.89,6.92-.31,1-.6,2-.88,3.17-.2.76-.38,1.56-.55,2.36-.1.4-.18.81-.27,1.23l-.25,1.27v.2c-.17.87-.34,1.77-.49,2.68s-.34,2-.49,3c-.11.65-.21,1.29-.29,1.93-.2,1.25-.37,2.51-.54,3.76-.09.73-.19,1.4-.28,2.17l-.33,2.8c.71,2.3,1.51,4.57,2.34,6.79a11.65,11.65,0,0,1,.91,3.86,95.72,95.72,0,0,0,52.59,0,.33.33,0,0,1,0-.14,17,17,0,0,1-.34-3.83h0a107.09,107.09,0,0,1,1.41-10.71,40.35,40.35,0,0,0,.26-5.27v-.63C630.85,615.05,630.84,614.54,630.82,614Zm0,0a9.48,9.48,0,0,0-.1-1.68c-.09-.56-.08-1.05-.15-1.58s-.13-1.07-.2-1.6-.16-1.07-.26-1.6-.2-1.06-.31-1.59a2.59,2.59,0,0,0-.11-.54c-.16-.7-.33-1.4-.51-2.11s-.29-1.14-.46-1.7a2.51,2.51,0,0,0-.22-.74c-.09-.24-.24-.81-.37-1.22l-.25-.78c-.11-.35-.22-.7-.35-1-.21-.63-.43-1.25-.66-1.88s-.46-1.25-.7-1.86c-.47-1.26-1-2.51-1.51-3.76-2-4.84-4.32-9.62-6.42-14.35a76.49,76.49,0,0,1-3-7.61l-.27.38a16,16,0,0,0-1.13,2c0,11-11,24.51-11,24.51L591.7,579.12l-9.72,15c-1.4.74-2.8,3.29-3.89,6.92-.31,1-.6,2-.88,3.17-.2.76-.38,1.56-.55,2.36-.1.4-.18.81-.27,1.23l-.25,1.27v.2c-.17.87-.34,1.77-.49,2.68s-.34,2-.49,3c-.11.65-.21,1.29-.29,1.93-.2,1.25-.37,2.51-.54,3.76-.09.73-.19,1.4-.28,2.17l-.33,2.8c.71,2.3,1.51,4.57,2.34,6.79a11.65,11.65,0,0,1,.91,3.86,95.72,95.72,0,0,0,52.59,0,.33.33,0,0,1,0-.14,17,17,0,0,1-.34-3.83h0a107.09,107.09,0,0,1,1.41-10.71,40.35,40.35,0,0,0,.26-5.27v-.63C630.85,615.05,630.84,614.54,630.82,614Zm0,0a9.48,9.48,0,0,0-.1-1.68c-.09-.56-.08-1.05-.15-1.58s-.13-1.07-.2-1.6-.16-1.07-.26-1.6-.2-1.06-.31-1.59a2.59,2.59,0,0,0-.11-.54c-.16-.7-.33-1.4-.51-2.11s-.29-1.14-.46-1.7a2.51,2.51,0,0,0-.22-.74c-.09-.24-.24-.81-.37-1.22l-.25-.78c-.11-.35-.22-.7-.35-1-.21-.63-.43-1.25-.66-1.88s-.46-1.25-.7-1.86c-.47-1.26-1-2.51-1.51-3.76-2-4.84-4.32-9.62-6.42-14.35a76.49,76.49,0,0,1-3-7.61l-.27.38a16,16,0,0,0-1.13,2c0,11-11,24.51-11,24.51L591.7,579.12l-9.72,15c-1.4.74-2.8,3.29-3.89,6.92-.31,1-.6,2-.88,3.17-.2.76-.38,1.56-.55,2.36-.1.4-.18.81-.27,1.23l-.25,1.27v.2c-.17.87-.34,1.77-.49,2.68s-.34,2-.49,3c-.11.65-.21,1.29-.29,1.93-.2,1.25-.37,2.51-.54,3.76-.09.73-.19,1.4-.28,2.17l-.33,2.8c.71,2.3,1.51,4.57,2.34,6.79a11.65,11.65,0,0,1,.91,3.86,95.72,95.72,0,0,0,52.59,0,.33.33,0,0,1,0-.14,17,17,0,0,1-.34-3.83h0a107.09,107.09,0,0,1,1.41-10.71,40.35,40.35,0,0,0,.26-5.27v-.63C630.85,615.05,630.84,614.54,630.82,614Zm0,0a9.48,9.48,0,0,0-.1-1.68c-.09-.56-.08-1.05-.15-1.58s-.13-1.07-.2-1.6-.16-1.07-.26-1.6-.2-1.06-.31-1.59a2.59,2.59,0,0,0-.11-.54c-.16-.7-.33-1.4-.51-2.11s-.29-1.14-.46-1.7a2.51,2.51,0,0,0-.22-.74c-.09-.24-.24-.81-.37-1.22l-.25-.78c-.11-.35-.22-.7-.35-1-.21-.63-.43-1.25-.66-1.88s-.46-1.25-.7-1.86c-.47-1.26-1-2.51-1.51-3.76-2-4.84-4.32-9.62-6.42-14.35a76.49,76.49,0,0,1-3-7.61l-.27.38a16,16,0,0,0-1.13,2c0,11-11,24.51-11,24.51L591.7,579.12l-9.72,15c-1.4.74-2.8,3.29-3.89,6.92-.31,1-.6,2-.88,3.17-.2.76-.38,1.56-.55,2.36-.1.4-.18.81-.27,1.23l-.25,1.27v.2c-.17.87-.34,1.77-.49,2.68s-.34,2-.49,3c-.11.65-.21,1.29-.29,1.93-.2,1.25-.37,2.51-.54,3.76-.09.73-.19,1.4-.28,2.17l-.33,2.8c.71,2.3,1.51,4.57,2.34,6.79a11.65,11.65,0,0,1,.91,3.86,95.72,95.72,0,0,0,52.59,0,.33.33,0,0,1,0-.14,17,17,0,0,1-.34-3.83h0a107.09,107.09,0,0,1,1.41-10.71,40.35,40.35,0,0,0,.26-5.27v-.63C630.85,615.05,630.84,614.54,630.82,614Zm0,0a9.48,9.48,0,0,0-.1-1.68c-.09-.56-.08-1.05-.15-1.58s-.13-1.07-.2-1.6-.16-1.07-.26-1.6-.2-1.06-.31-1.59a2.59,2.59,0,0,0-.11-.54c-.16-.7-.33-1.4-.51-2.11s-.29-1.14-.46-1.7a2.51,2.51,0,0,0-.22-.74c-.09-.24-.24-.81-.37-1.22l-.25-.78c-.11-.35-.22-.7-.35-1-.21-.63-.43-1.25-.66-1.88s-.46-1.25-.7-1.86c-.47-1.26-1-2.51-1.51-3.76-2-4.84-4.32-9.62-6.42-14.35a76.49,76.49,0,0,1-3-7.61l-.27.38a16,16,0,0,0-1.13,2c0,11-11,24.51-11,24.51L591.7,579.12l-9.72,15c-1.4.74-2.8,3.29-3.89,6.92-.31,1-.6,2-.88,3.17-.2.76-.38,1.56-.55,2.36-.1.4-.18.81-.27,1.23l-.25,1.27v.2c-.17.87-.34,1.77-.49,2.68s-.34,2-.49,3c-.11.65-.21,1.29-.29,1.93-.2,1.25-.37,2.51-.54,3.76-.09.73-.19,1.4-.28,2.17l-.33,2.8c.71,2.3,1.51,4.57,2.34,6.79a11.65,11.65,0,0,1,.91,3.86,95.72,95.72,0,0,0,52.59,0,.33.33,0,0,1,0-.14,17,17,0,0,1-.34-3.83h0a107.09,107.09,0,0,1,1.41-10.71,40.35,40.35,0,0,0,.26-5.27v-.63C630.85,615.05,630.84,614.54,630.82,614Zm0,0a9.48,9.48,0,0,0-.1-1.68c-.09-.56-.08-1.05-.15-1.58s-.13-1.07-.2-1.6-.16-1.07-.26-1.6-.2-1.06-.31-1.59a2.59,2.59,0,0,0-.11-.54c-.16-.7-.33-1.4-.51-2.11s-.29-1.14-.46-1.7a2.51,2.51,0,0,0-.22-.74c-.09-.24-.24-.81-.37-1.22l-.25-.78c-.11-.35-.22-.7-.35-1-.21-.63-.43-1.25-.66-1.88s-.46-1.25-.7-1.86c-.47-1.26-1-2.51-1.51-3.76-2-4.84-4.32-9.62-6.42-14.35a76.49,76.49,0,0,1-3-7.61l-.27.38a16,16,0,0,0-1.13,2c0,11-11,24.51-11,24.51L591.7,579.12l-9.72,15c-1.4.74-2.8,3.29-3.89,6.92-.31,1-.6,2-.88,3.17-.2.76-.38,1.56-.55,2.36-.1.4-.18.81-.27,1.23l-.25,1.27v.2c-.17.87-.34,1.77-.49,2.68s-.34,2-.49,3c-.11.65-.21,1.29-.29,1.93-.2,1.25-.37,2.51-.54,3.76-.09.73-.19,1.4-.28,2.17l-.33,2.8c.71,2.3,1.51,4.57,2.34,6.79a11.65,11.65,0,0,1,.91,3.86,95.72,95.72,0,0,0,52.59,0,.33.33,0,0,1,0-.14,17,17,0,0,1-.34-3.83h0a107.09,107.09,0,0,1,1.41-10.71,40.35,40.35,0,0,0,.26-5.27v-.63C630.85,615.05,630.84,614.54,630.82,614Zm0,0a9.48,9.48,0,0,0-.1-1.68c-.09-.56-.08-1.05-.15-1.58s-.13-1.07-.2-1.6-.16-1.07-.26-1.6-.2-1.06-.31-1.59a2.59,2.59,0,0,0-.11-.54c-.16-.7-.33-1.4-.51-2.11s-.29-1.14-.46-1.7a2.51,2.51,0,0,0-.22-.74c-.09-.24-.24-.81-.37-1.22l-.25-.78c-.11-.35-.22-.7-.35-1-.21-.63-.43-1.25-.66-1.88s-.46-1.25-.7-1.86c-.47-1.26-1-2.51-1.51-3.76-2-4.84-4.32-9.62-6.42-14.35a76.49,76.49,0,0,1-3-7.61l-.27.38a16,16,0,0,0-1.13,2c0,11-11,24.51-11,24.51L591.7,579.12l-9.72,15c-1.4.74-2.8,3.29-3.89,6.92-.31,1-.6,2-.88,3.17-.2.76-.38,1.56-.55,2.36-.1.4-.18.81-.27,1.23l-.25,1.27v.2c-.17.87-.34,1.77-.49,2.68s-.34,2-.49,3c-.11.65-.21,1.29-.29,1.93-.2,1.25-.37,2.51-.54,3.76-.09.73-.19,1.4-.28,2.17l-.33,2.8c.71,2.3,1.51,4.57,2.34,6.79a11.65,11.65,0,0,1,.91,3.86,95.72,95.72,0,0,0,52.59,0,.33.33,0,0,1,0-.14,17,17,0,0,1-.34-3.83h0a107.09,107.09,0,0,1,1.41-10.71,40.35,40.35,0,0,0,.26-5.27v-.63C630.85,615.05,630.84,614.54,630.82,614Zm0,0a9.48,9.48,0,0,0-.1-1.68c-.09-.56-.08-1.05-.15-1.58s-.13-1.07-.2-1.6-.16-1.07-.26-1.6-.2-1.06-.31-1.59a2.59,2.59,0,0,0-.11-.54c-.16-.7-.33-1.4-.51-2.11s-.29-1.14-.46-1.7a2.51,2.51,0,0,0-.22-.74c-.09-.24-.24-.81-.37-1.22l-.25-.78c-.11-.35-.22-.7-.35-1-.21-.63-.43-1.25-.66-1.88s-.46-1.25-.7-1.86c-.47-1.26-1-2.51-1.51-3.76-2-4.84-4.32-9.62-6.42-14.35a76.49,76.49,0,0,1-3-7.61l-.27.38a16,16,0,0,0-1.13,2c0,11-11,24.51-11,24.51L591.7,579.12l-9.72,15c-1.4.74-2.8,3.29-3.89,6.92-.31,1-.6,2-.88,3.17-.2.76-.38,1.56-.55,2.36-.1.4-.18.81-.27,1.23l-.25,1.27v.2c-.17.87-.34,1.77-.49,2.68s-.34,2-.49,3c-.11.65-.21,1.29-.29,1.93-.2,1.25-.37,2.51-.54,3.76-.09.73-.19,1.4-.28,2.17l-.33,2.8c.71,2.3,1.51,4.57,2.34,6.79a11.65,11.65,0,0,1,.91,3.86,95.72,95.72,0,0,0,52.59,0,.33.33,0,0,1,0-.14,17,17,0,0,1-.34-3.83h0a107.09,107.09,0,0,1,1.41-10.71,40.35,40.35,0,0,0,.26-5.27v-.63C630.85,615.05,630.84,614.54,630.82,614Z"/><path class="cls-7" d="M591.9,578.18l-.94-.12a35.07,35.07,0,0,1-4.2-.84l-.52-.14c-3.42-1-7.16-2.71-8-5.76a5.39,5.39,0,0,1,.09-3,25.29,25.29,0,0,1,1.9-4.82v-.09c.11-.21.22-.42.35-.63a14,14,0,0,1,5.06-5.5l-1.68.27h0l-14.23,2.31-22.06,3.55s-3.93-.78-9.26,13.93a2.45,2.45,0,0,1-.18.54c-1.29,3.6-2.65,8.1-4.05,13.72-1,3.89-1.85,7.71-2.66,11.42-.24,1.12-.48,2.23-.7,3.32a88.45,88.45,0,0,0,8.13,8.41l.47.43a95.56,95.56,0,0,0,18.65,13.21l.27.14a93.05,93.05,0,0,0,13.16,5.83l1.2.42c.25-2.59.53-5.47.86-8.41a2.23,2.23,0,0,1,.12-.88l.33-2.8c.09-.72.18-1.4.28-2.17.17-1.25.34-2.51.53-3.76.09-.64.19-1.28.3-1.93.15-1,.32-2,.49-3s.32-1.81.49-2.68V609l.25-1.28c.09-.42.17-.83.27-1.23.17-.8.35-1.6.54-2.36.28-1.13.58-2.19.89-3.17,1.12-3.63,2.42-6.18,3.89-6.92l9.72-15,.41-.63.18-.28Z"/><path class="cls-9" d="M591.07,578.21l-10.32,15.86c-1.4.71-2.72,3.19-3.82,6.71-.33,1-.65,2.17-1,3.36a167.15,167.15,0,0,0-3.16,18.33,2.21,2.21,0,0,1-.11.84c-.48,3.9-.87,7.72-1.2,11.09a91.88,91.88,0,0,1-13.16-5.82l-.27-.14a95.56,95.56,0,0,1-18.65-13.21l-.47-.43a88.45,88.45,0,0,1-8.13-8.41c-.34-.38-.66-.77-1-1.16.15-.73.3-1.4.47-2.19.8-3.71,1.68-7.52,2.65-11.4A136.15,136.15,0,0,1,537.72,576a3,3,0,0,1,.18-.45c5-12.76,8.53-12,8.53-12l23.3-3.75,14.7-2.38-.46.26h0a15,15,0,0,0-4.05,4.32l-.4.68c-.17.27-.33.56-.49.86a24.63,24.63,0,0,0-1.94,4.9,5.18,5.18,0,0,0,.34,4c1.4,2.71,5.38,4.2,8.64,5l.55.14A35.2,35.2,0,0,0,591.07,578.21Z"/><path class="cls-7" d="M672,606.52l-.57-12.44c2.45-19.61-2.45-20.83-2.45-20.83l-5.83-2.8H663l-23.43-11.36-.91-.45-.29-.12h0l-3-1.49h0l-1.93-.93-3.61-1.76-1.22-.58v4.86c0,1.4.12,3,.23,4.94.26,4.79.72,11.21,1.55,18.77.46,4.38,1,9.17,1.77,14.31.44,3,.75,6.07.94,9a159.17,159.17,0,0,1-.92,29.84l1.27-.41A94.42,94.42,0,0,0,643.55,631h0a93.24,93.24,0,0,0,18.07-11.09l.25-.19A92.58,92.58,0,0,0,672,610.52Z"/><path class="cls-9" d="M673.25,606.52l-.58-12.47c2.45-19.61-2.45-20.83-2.45-20.83l-7-3.38h-.14l-23.5-11.41-1.08-.51-.21-.1-1.73-.84-2.28-1.11-4.51-2.18v2h0v2.46c0,1.4.13,3.24.25,5.32.24,4.47.66,10.33,1.4,17.29.51,4.77,1.14,10.08,2,15.8q.64,4.58.93,9.06a158.84,158.84,0,0,1-.87,29.41A94.42,94.42,0,0,0,643.58,631h0a93.24,93.24,0,0,0,18.07-11.09l.25-.19a92.58,92.58,0,0,0,10.17-9.23c.41-.41.8-.83,1.18-1.26Z"/><path class="cls-7" d="M574.21,479c-1.4,1.93-1.29,4.59-1.92,7-1.5,5.48-7.44,8.91-8.8,14.43-.8,3.22.13,6.64-.42,9.91-1,6-6.51,10.13-9.59,15.41a20.77,20.77,0,0,0-1.28,18.07,27.8,27.8,0,0,1,1.78,4.56,16.6,16.6,0,0,1-.43,7c-1,5-2.13,10.47.28,15,2,3.8,6.25,6,10.49,6.72a40.4,40.4,0,0,0,12.84-.59c4.64-.71,9.39-1.54,13.42-3.92l-15.17-36.61c-1.52-3.7-3.09-7.52-3.08-11.53a25.25,25.25,0,0,1,1.89-8.6A74.64,74.64,0,0,1,586.83,494c2.2,2.55,2,6.43,3.86,9.26a14.61,14.61,0,0,0,6.25,4.67,207.69,207.69,0,0,0,22.12,9.24,2.89,2.89,0,0,1,2.15,4.31L615.5,545.1c-1.26,5.2-2.37,11.21.87,15.41s10.53,6.19,10.57,11.61a18.51,18.51,0,0,0,0,2.58c.38,2.53,3.39,3.75,5.95,3.88a17.76,17.76,0,0,0,17.81-14.53c1.4-9.27-4.74-17.82-7.3-26.85-4.31-15.2,1.4-33-7.07-46.37C629.46,480,617,477.06,605.08,475.71,596.74,474.73,580.08,471.23,574.21,479Z"/><path class="cls-10" d="M574.21,477.58c-1.4,1.93-1.29,4.59-1.92,7-1.5,5.48-7.44,8.91-8.8,14.43-.8,3.22.13,6.63-.42,9.91-1,6-6.51,10.13-9.59,15.41a20.77,20.77,0,0,0-1.28,18.07A27.8,27.8,0,0,1,554,547a16.6,16.6,0,0,1-.43,7c-1,5-2.13,10.47.28,15,2,3.79,6.25,6,10.49,6.72a40.4,40.4,0,0,0,12.84-.59c4.64-.71,9.39-1.54,13.42-3.92l-15.17-36.61c-1.52-3.7-3.09-7.52-3.08-11.53a25.25,25.25,0,0,1,1.89-8.6,74.64,74.64,0,0,1,12.61-21.78c2.2,2.55,2,6.43,3.86,9.26a14.59,14.59,0,0,0,6.25,4.66,205.71,205.71,0,0,0,22.12,9.25,2.89,2.89,0,0,1,2.15,4.31L615.5,543.7c-1.26,5.2-2.37,11.2.87,15.41s10.53,6.19,10.57,11.61a18.37,18.37,0,0,0,0,2.57c.38,2.54,3.39,3.76,5.95,3.88a17.74,17.74,0,0,0,17.81-14.52c1.4-9.27-4.74-17.82-7.3-26.85-4.31-15.2,1.4-33-7.07-46.37-6.87-10.83-19.37-13.77-31.25-15.12C596.74,473.33,580.08,469.83,574.21,477.58Z"/><g class="cls-11"><path class="cls-12" d="M462.34,56.74a56.5,56.5,0,0,1-13.66,36.92c-.43.51-.89,1-1.34,1.51l-.7.75a56.23,56.23,0,0,1-6.06,5.49l-.15.11a55.12,55.12,0,0,1-10.77,6.61h0a54.33,54.33,0,0,1-6,2.42l-.76.24c-.46.16-.95.3-1.42.44l-.2.06a57.12,57.12,0,0,1-31.33,0h-.08c-.84-.25-1.67-.5-2.44-.77l-.71-.25a54.8,54.8,0,0,1-7.84-3.47l-.16-.09a56.57,56.57,0,0,1-11.11-7.87l-.28-.25a54.64,54.64,0,0,1-4.85-5l-.58-.69c-.37-.44-.72-.89-1.07-1.34A56.74,56.74,0,1,1,462.34,56.74Z"/><path class="cls-13" d="M447.26,93.3l-.34-7.51c1.46-11.87-1.46-12.61-1.46-12.61l-4.17-2.05-.09,0-14-6.9-.64-.31-.08-.35s.27-.83-1.11-1a5,5,0,0,1-.35-2.13c.14-1.6,1.35-2.86,2.29-4.17a17.17,17.17,0,0,0,2.75-12.16,28.67,28.67,0,0,0-4.66-11.75l-.27-.39a13.9,13.9,0,0,0,.49-3.69c0-9.6-9.71-17.39-21.69-17.39-10.85,0-19.88,6.42-21.45,14.79a6.93,6.93,0,0,0-.66,1c-2.21,4.12,1.2,7.2,1.31,11.32.07,2.83-1.83,5.26-3.34,7.67s-2.63,5.59-1.08,8c.51.79,1.28,1.38,1.74,2.2,1.61,2.84-1.07,6.11-2.05,9.23a8.15,8.15,0,0,0-.26,1.11l-6.44,1s-2.13-.44-5.09,7.29a2.31,2.31,0,0,0-.1.28,85,85,0,0,0-2.84,9.5c-.58,2.35-1.1,4.66-1.58,6.9-.1.44-.19.89-.28,1.33.19.23.38.47.58.7a53.19,53.19,0,0,0,4.85,5.11l.28.26a57.25,57.25,0,0,0,11.11,8l.16.08a55.12,55.12,0,0,0,7.84,3.53l.71.25c.84.28,1.62.53,2.44.78a2.63,2.63,0,0,1,.06.39v-.37a56.23,56.23,0,0,0,31.34,0l.19-.06c.47-.13,1-.28,1.43-.44l.76-.24a57.46,57.46,0,0,0,6-2.46h0a55.73,55.73,0,0,0,10.76-6.72l.15-.11a56.22,56.22,0,0,0,6.06-5.59c.24-.25.48-.5.7-.76Z"/><path class="cls-14" d="M383.13,39.21c.07,2.79-1.83,5.18-3.34,7.51s-2.63,5.51-1.08,7.83c.51.77,1.28,1.36,1.74,2.17,1.61,2.79-1.07,6-2.05,9.07-1.12,3.55.19,7.51,2.56,10.39s5.64,4.83,8.94,6.54A80,80,0,0,0,412,90.59c4,.75,8.35,1.08,12.13-.54a12.9,12.9,0,0,0,7.29-14.18c-1-4.39-4.17-7.92-5.84-12.07a5.6,5.6,0,0,1-.55-2.61c.14-1.58,1.35-2.81,2.29-4.09a16.7,16.7,0,0,0,2.71-11.87,28,28,0,0,0-4.66-11.57A12.59,12.59,0,0,0,422.06,30a14.61,14.61,0,0,0-6.24-1.89c-9.06-1.27-18.45-2.65-27.59-3.12-2.88-.15-5,.42-6.43,3.12C379.62,32.13,383,35.16,383.13,39.21Z"/><path class="cls-6" d="M429.8,67.59,412.6,92l-16.79-1.46s-.55,5.85-7.3-15.32c-3.77-11.84,3.9-7.73,5.41-11s4.17-6.17,4.39-8.59c.54-5.19-1-8.15-1-8.15l18.25-2.18a13.59,13.59,0,0,0-.3,7.61C417.51,62.44,429.8,67.59,429.8,67.59Z"/><ellipse class="cls-14" cx="403.93" cy="29.63" rx="21.69" ry="17.11"/><path class="cls-7" d="M415.21,52.94a18.28,18.28,0,0,1-16.9,2.72c.53-5.19-1.05-8.15-1.05-8.15l18.25-2.18A13.68,13.68,0,0,0,415.21,52.94Z"/><circle class="cls-6" cx="404.2" cy="37.66" r="18.25"/><path class="cls-7" d="M428,70.36l-.42-1.67-.37-1.47-.54-2.17-.1-.4-.08-.33s.43-1.31-2.43-.89l-.54.09c-.45.1-1,.22-1.57.39l-.55.16-.71.23h0A15.62,15.62,0,0,0,414.62,68a13.7,13.7,0,0,0-2,2.46c-.06.08-.1.16-.15.22a9.12,9.12,0,0,0-.53,1c0,6.58-6.57,14.6-6.57,14.6l-6.42-9.27-.12-.18-1.53-2.22-.54-.72-.18-.25-3.34-4.48L392.37,68l-.27-.37-.41-.54-1-1.28L387,68l-5,2.92-2.92,19v.52l.09,1.57.61,10.31v.15l-1.07,4.27.16.08a54.8,54.8,0,0,0,7.84,3.47l.71.25c.84.28,1.62.53,2.44.77a2.32,2.32,0,0,1,.06.38v-.36a57.16,57.16,0,0,0,31.34,0l.19-.06c.47-.13,1-.28,1.43-.43l.76-.25a55.93,55.93,0,0,0,6-2.42l.7-14.93.5-10.77V81.8Z"/><path class="cls-15" d="M422,98.1a5.6,5.6,0,0,0-.06-1c-.06-.33-.05-.62-.09-.94s-.08-.64-.12-1-.1-.64-.16-.95l-.18-1a1.25,1.25,0,0,0-.07-.31q-.13-.63-.3-1.26c-.11-.43-.18-.68-.28-1a1.39,1.39,0,0,0-.13-.44c-.05-.15-.14-.49-.22-.73l-.15-.47c-.06-.21-.13-.42-.2-.62-.13-.38-.26-.75-.4-1.12s-.27-.74-.41-1.11c-.29-.75-.6-1.5-.91-2.24-1.2-2.88-2.56-5.73-3.82-8.55a46.25,46.25,0,0,1-1.78-4.53l-.16.22a11,11,0,0,0-.68,1.21c0,6.56-6.57,14.6-6.57,14.6l-6.62-9.64-5.79,8.9c-.83.45-1.67,2-2.32,4.13-.18.58-.36,1.21-.52,1.89-.12.45-.23.93-.33,1.4-.06.24-.11.49-.16.74l-.15.75v.12c-.1.52-.2,1-.29,1.6s-.2,1.16-.29,1.76c-.07.38-.13.76-.18,1.15-.12.74-.22,1.49-.32,2.23-.05.44-.11.84-.16,1.3l-.2,1.67c.42,1.36.9,2.72,1.39,4a6.55,6.55,0,0,1,.54,2.3,57.16,57.16,0,0,0,31.34,0,.14.14,0,0,1,0-.09,9.14,9.14,0,0,1-.2-2.27h0a59.71,59.71,0,0,1,.83-6.39A23.44,23.44,0,0,0,422,99.4V99C422,98.7,422,98.4,422,98.1Zm0,0a5.6,5.6,0,0,0-.06-1c-.06-.33-.05-.62-.09-.94s-.08-.64-.12-1-.1-.64-.16-.95l-.18-1a1.25,1.25,0,0,0-.07-.31q-.13-.63-.3-1.26c-.11-.43-.18-.68-.28-1a1.39,1.39,0,0,0-.13-.44c-.05-.15-.14-.49-.22-.73l-.15-.47c-.06-.21-.13-.42-.2-.62-.13-.38-.26-.75-.4-1.12s-.27-.74-.41-1.11c-.29-.75-.6-1.5-.91-2.24-1.2-2.88-2.56-5.73-3.82-8.55a46.25,46.25,0,0,1-1.78-4.53l-.16.22a11,11,0,0,0-.68,1.21c0,6.56-6.57,14.6-6.57,14.6l-6.62-9.64-5.79,8.9c-.83.45-1.67,2-2.32,4.13-.18.58-.36,1.21-.52,1.89-.12.45-.23.93-.33,1.4-.06.24-.11.49-.16.74l-.15.75v.12c-.1.52-.2,1-.29,1.6s-.2,1.16-.29,1.76c-.07.38-.13.76-.18,1.15-.12.74-.22,1.49-.32,2.23-.05.44-.11.84-.16,1.3l-.2,1.67c.42,1.36.9,2.72,1.39,4a6.55,6.55,0,0,1,.54,2.3,57.16,57.16,0,0,0,31.34,0,.14.14,0,0,1,0-.09,9.14,9.14,0,0,1-.2-2.27h0a59.71,59.71,0,0,1,.83-6.39A23.44,23.44,0,0,0,422,99.4V99C422,98.7,422,98.4,422,98.1Zm0,0a5.6,5.6,0,0,0-.06-1c-.06-.33-.05-.62-.09-.94s-.08-.64-.12-1-.1-.64-.16-.95l-.18-1a1.25,1.25,0,0,0-.07-.31q-.13-.63-.3-1.26c-.11-.43-.18-.68-.28-1a1.39,1.39,0,0,0-.13-.44c-.05-.15-.14-.49-.22-.73l-.15-.47c-.06-.21-.13-.42-.2-.62-.13-.38-.26-.75-.4-1.12s-.27-.74-.41-1.11c-.29-.75-.6-1.5-.91-2.24-1.2-2.88-2.56-5.73-3.82-8.55a46.25,46.25,0,0,1-1.78-4.53l-.16.22a11,11,0,0,0-.68,1.21c0,6.56-6.57,14.6-6.57,14.6l-6.62-9.64-5.79,8.9c-.83.45-1.67,2-2.32,4.13-.18.58-.36,1.21-.52,1.89-.12.45-.23.93-.33,1.4-.06.24-.11.49-.16.74l-.15.75v.12c-.1.52-.2,1-.29,1.6s-.2,1.16-.29,1.76c-.07.38-.13.76-.18,1.15-.12.74-.22,1.49-.32,2.23-.05.44-.11.84-.16,1.3l-.2,1.67c.42,1.36.9,2.72,1.39,4a6.55,6.55,0,0,1,.54,2.3,57.16,57.16,0,0,0,31.34,0,.14.14,0,0,1,0-.09,9.14,9.14,0,0,1-.2-2.27h0a59.71,59.71,0,0,1,.83-6.39A23.44,23.44,0,0,0,422,99.4V99C422,98.7,422,98.4,422,98.1Zm8.84-15.66-3-11.89-.51-2L427.2,68h0l-.72-2.9V65h0a.82.82,0,0,0-.06-.38c-.11-.22-.39-.44-1-.5a4.45,4.45,0,0,0-.73,0h0a12.94,12.94,0,0,0-2.15.4c-.34.09-.71.19-1.1.32l-.72.22h-.06A15.81,15.81,0,0,0,415.37,68a14.18,14.18,0,0,0-2.67,3l-.16.22a11.89,11.89,0,0,0-.68,1.2c0,6.57-6.57,14.61-6.57,14.61l-6.62-9.64-.37-.54-.07-.1-1-1.41-.72-1-.2-.25-3.42-4.57h0L391.85,68v0l-.38-.5-.72-1L388.25,68,382,71.6l-2.88,18.78v.2l.08,1.37.62,10.46V103l-.95,3.76a54.92,54.92,0,0,0,7.85,3.47l.71.25c.83.28,1.62.53,2.43.77a2.53,2.53,0,0,1,.07.38v-.36a56.93,56.93,0,0,0,31.33,0l.19-.06c.48-.13,1-.27,1.43-.43l.76-.24a56.34,56.34,0,0,0,6-2.42h0l.69-14.92.5-10.66Zm-41,28.81a2.53,2.53,0,0,1,.07.38v-.36ZM422,98.1a5.6,5.6,0,0,0-.06-1c-.06-.33-.05-.62-.09-.94s-.08-.64-.12-1-.1-.64-.16-.95l-.18-1a1.25,1.25,0,0,0-.07-.31q-.13-.63-.3-1.26c-.11-.43-.18-.68-.28-1a1.39,1.39,0,0,0-.13-.44c-.05-.15-.14-.49-.22-.73l-.15-.47c-.06-.21-.13-.42-.2-.62-.13-.38-.26-.75-.4-1.12s-.27-.74-.41-1.11c-.29-.75-.6-1.5-.91-2.24-1.2-2.88-2.56-5.73-3.82-8.55a46.25,46.25,0,0,1-1.78-4.53l-.16.22a11,11,0,0,0-.68,1.21c0,6.56-6.57,14.6-6.57,14.6l-6.62-9.64-5.79,8.9c-.83.45-1.67,2-2.32,4.13-.18.58-.36,1.21-.52,1.89-.12.45-.23.93-.33,1.4-.06.24-.11.49-.16.74l-.15.75v.12c-.1.52-.2,1-.29,1.6s-.2,1.16-.29,1.76c-.07.38-.13.76-.18,1.15-.12.74-.22,1.49-.32,2.23-.05.44-.11.84-.16,1.3l-.2,1.67c.42,1.36.9,2.72,1.39,4a6.55,6.55,0,0,1,.54,2.3,57.16,57.16,0,0,0,31.34,0,.14.14,0,0,1,0-.09,9.14,9.14,0,0,1-.2-2.27h0a59.71,59.71,0,0,1,.83-6.39A23.44,23.44,0,0,0,422,99.4V99C422,98.7,422,98.4,422,98.1Zm0,0a5.6,5.6,0,0,0-.06-1c-.06-.33-.05-.62-.09-.94s-.08-.64-.12-1-.1-.64-.16-.95l-.18-1a1.25,1.25,0,0,0-.07-.31q-.13-.63-.3-1.26c-.11-.43-.18-.68-.28-1a1.39,1.39,0,0,0-.13-.44c-.05-.15-.14-.49-.22-.73l-.15-.47c-.06-.21-.13-.42-.2-.62-.13-.38-.26-.75-.4-1.12s-.27-.74-.41-1.11c-.29-.75-.6-1.5-.91-2.24-1.2-2.88-2.56-5.73-3.82-8.55a46.25,46.25,0,0,1-1.78-4.53l-.16.22a11,11,0,0,0-.68,1.21c0,6.56-6.57,14.6-6.57,14.6l-6.62-9.64-5.79,8.9c-.83.45-1.67,2-2.32,4.13-.18.58-.36,1.21-.52,1.89-.12.45-.23.93-.33,1.4-.06.24-.11.49-.16.74l-.15.75v.12c-.1.52-.2,1-.29,1.6s-.2,1.16-.29,1.76c-.07.38-.13.76-.18,1.15-.12.74-.22,1.49-.32,2.23-.05.44-.11.84-.16,1.3l-.2,1.67c.42,1.36.9,2.72,1.39,4a6.55,6.55,0,0,1,.54,2.3,57.16,57.16,0,0,0,31.34,0,.14.14,0,0,1,0-.09,9.14,9.14,0,0,1-.2-2.27h0a59.71,59.71,0,0,1,.83-6.39A23.44,23.44,0,0,0,422,99.4V99C422,98.7,422,98.4,422,98.1Zm0,0a5.6,5.6,0,0,0-.06-1c-.06-.33-.05-.62-.09-.94s-.08-.64-.12-1-.1-.64-.16-.95l-.18-1a1.25,1.25,0,0,0-.07-.31q-.13-.63-.3-1.26c-.11-.43-.18-.68-.28-1a1.39,1.39,0,0,0-.13-.44c-.05-.15-.14-.49-.22-.73l-.15-.47c-.06-.21-.13-.42-.2-.62-.13-.38-.26-.75-.4-1.12s-.27-.74-.41-1.11c-.29-.75-.6-1.5-.91-2.24-1.2-2.88-2.56-5.73-3.82-8.55a46.25,46.25,0,0,1-1.78-4.53l-.16.22a11,11,0,0,0-.68,1.21c0,6.56-6.57,14.6-6.57,14.6l-6.62-9.64-5.79,8.9c-.83.45-1.67,2-2.32,4.13-.18.58-.36,1.21-.52,1.89-.12.45-.23.93-.33,1.4-.06.24-.11.49-.16.74l-.15.75v.12c-.1.52-.2,1-.29,1.6s-.2,1.16-.29,1.76c-.07.38-.13.76-.18,1.15-.12.74-.22,1.49-.32,2.23-.05.44-.11.84-.16,1.3l-.2,1.67c.42,1.36.9,2.72,1.39,4a6.55,6.55,0,0,1,.54,2.3,57.16,57.16,0,0,0,31.34,0,.14.14,0,0,1,0-.09,9.14,9.14,0,0,1-.2-2.27h0a59.71,59.71,0,0,1,.83-6.39A23.44,23.44,0,0,0,422,99.4V99C422,98.7,422,98.4,422,98.1Zm0,0a5.6,5.6,0,0,0-.06-1c-.06-.33-.05-.62-.09-.94s-.08-.64-.12-1-.1-.64-.16-.95l-.18-1a1.25,1.25,0,0,0-.07-.31q-.13-.63-.3-1.26c-.11-.43-.18-.68-.28-1a1.39,1.39,0,0,0-.13-.44c-.05-.15-.14-.49-.22-.73l-.15-.47c-.06-.21-.13-.42-.2-.62-.13-.38-.26-.75-.4-1.12s-.27-.74-.41-1.11c-.29-.75-.6-1.5-.91-2.24-1.2-2.88-2.56-5.73-3.82-8.55a46.25,46.25,0,0,1-1.78-4.53l-.16.22a11,11,0,0,0-.68,1.21c0,6.56-6.57,14.6-6.57,14.6l-6.62-9.64-5.79,8.9c-.83.45-1.67,2-2.32,4.13-.18.58-.36,1.21-.52,1.89-.12.45-.23.93-.33,1.4-.06.24-.11.49-.16.74l-.15.75v.12c-.1.52-.2,1-.29,1.6s-.2,1.16-.29,1.76c-.07.38-.13.76-.18,1.15-.12.74-.22,1.49-.32,2.23-.05.44-.11.84-.16,1.3l-.2,1.67c.42,1.36.9,2.72,1.39,4a6.55,6.55,0,0,1,.54,2.3,57.16,57.16,0,0,0,31.34,0,.14.14,0,0,1,0-.09,9.14,9.14,0,0,1-.2-2.27h0a59.71,59.71,0,0,1,.83-6.39A23.44,23.44,0,0,0,422,99.4V99C422,98.7,422,98.4,422,98.1Zm0,0a5.6,5.6,0,0,0-.06-1c-.06-.33-.05-.62-.09-.94s-.08-.64-.12-1-.1-.64-.16-.95l-.18-1a1.25,1.25,0,0,0-.07-.31q-.13-.63-.3-1.26c-.11-.43-.18-.68-.28-1a1.39,1.39,0,0,0-.13-.44c-.05-.15-.14-.49-.22-.73l-.15-.47c-.06-.21-.13-.42-.2-.62-.13-.38-.26-.75-.4-1.12s-.27-.74-.41-1.11c-.29-.75-.6-1.5-.91-2.24-1.2-2.88-2.56-5.73-3.82-8.55a46.25,46.25,0,0,1-1.78-4.53l-.16.22a11,11,0,0,0-.68,1.21c0,6.56-6.57,14.6-6.57,14.6l-6.62-9.64-5.79,8.9c-.83.45-1.67,2-2.32,4.13-.18.58-.36,1.21-.52,1.89-.12.45-.23.93-.33,1.4-.06.24-.11.49-.16.74l-.15.75v.12c-.1.52-.2,1-.29,1.6s-.2,1.16-.29,1.76c-.07.38-.13.76-.18,1.15-.12.74-.22,1.49-.32,2.23-.05.44-.11.84-.16,1.3l-.2,1.67c.42,1.36.9,2.72,1.39,4a6.55,6.55,0,0,1,.54,2.3,57.16,57.16,0,0,0,31.34,0,.14.14,0,0,1,0-.09,9.14,9.14,0,0,1-.2-2.27h0a59.71,59.71,0,0,1,.83-6.39A23.44,23.44,0,0,0,422,99.4V99C422,98.7,422,98.4,422,98.1Zm0,0a5.6,5.6,0,0,0-.06-1c-.06-.33-.05-.62-.09-.94s-.08-.64-.12-1-.1-.64-.16-.95l-.18-1a1.25,1.25,0,0,0-.07-.31q-.13-.63-.3-1.26c-.11-.43-.18-.68-.28-1a1.39,1.39,0,0,0-.13-.44c-.05-.15-.14-.49-.22-.73l-.15-.47c-.06-.21-.13-.42-.2-.62-.13-.38-.26-.75-.4-1.12s-.27-.74-.41-1.11c-.29-.75-.6-1.5-.91-2.24-1.2-2.88-2.56-5.73-3.82-8.55a46.25,46.25,0,0,1-1.78-4.53l-.16.22a11,11,0,0,0-.68,1.21c0,6.56-6.57,14.6-6.57,14.6l-6.62-9.64-5.79,8.9c-.83.45-1.67,2-2.32,4.13-.18.58-.36,1.21-.52,1.89-.12.45-.23.93-.33,1.4-.06.24-.11.49-.16.74l-.15.75v.12c-.1.52-.2,1-.29,1.6s-.2,1.16-.29,1.76c-.07.38-.13.76-.18,1.15-.12.74-.22,1.49-.32,2.23-.05.44-.11.84-.16,1.3l-.2,1.67c.42,1.36.9,2.72,1.39,4a6.55,6.55,0,0,1,.54,2.3,57.16,57.16,0,0,0,31.34,0,.14.14,0,0,1,0-.09,9.14,9.14,0,0,1-.2-2.27h0a59.71,59.71,0,0,1,.83-6.39A23.44,23.44,0,0,0,422,99.4V99C422,98.7,422,98.4,422,98.1Zm0,0a5.6,5.6,0,0,0-.06-1c-.06-.33-.05-.62-.09-.94s-.08-.64-.12-1-.1-.64-.16-.95l-.18-1a1.25,1.25,0,0,0-.07-.31q-.13-.63-.3-1.26c-.11-.43-.18-.68-.28-1a1.39,1.39,0,0,0-.13-.44c-.05-.15-.14-.49-.22-.73l-.15-.47c-.06-.21-.13-.42-.2-.62-.13-.38-.26-.75-.4-1.12s-.27-.74-.41-1.11c-.29-.75-.6-1.5-.91-2.24-1.2-2.88-2.56-5.73-3.82-8.55a46.25,46.25,0,0,1-1.78-4.53l-.16.22a11,11,0,0,0-.68,1.21c0,6.56-6.57,14.6-6.57,14.6l-6.62-9.64-5.79,8.9c-.83.45-1.67,2-2.32,4.13-.18.58-.36,1.21-.52,1.89-.12.45-.23.93-.33,1.4-.06.24-.11.49-.16.74l-.15.75v.12c-.1.52-.2,1-.29,1.6s-.2,1.16-.29,1.76c-.07.38-.13.76-.18,1.15-.12.74-.22,1.49-.32,2.23-.05.44-.11.84-.16,1.3l-.2,1.67c.42,1.36.9,2.72,1.39,4a6.55,6.55,0,0,1,.54,2.3,57.16,57.16,0,0,0,31.34,0,.14.14,0,0,1,0-.09,9.14,9.14,0,0,1-.2-2.27h0a59.71,59.71,0,0,1,.83-6.39A23.44,23.44,0,0,0,422,99.4V99C422,98.7,422,98.4,422,98.1Zm0,0a5.6,5.6,0,0,0-.06-1c-.06-.33-.05-.62-.09-.94s-.08-.64-.12-1-.1-.64-.16-.95l-.18-1a1.25,1.25,0,0,0-.07-.31q-.13-.63-.3-1.26c-.11-.43-.18-.68-.28-1a1.39,1.39,0,0,0-.13-.44c-.05-.15-.14-.49-.22-.73l-.15-.47c-.06-.21-.13-.42-.2-.62-.13-.38-.26-.75-.4-1.12s-.27-.74-.41-1.11c-.29-.75-.6-1.5-.91-2.24-1.2-2.88-2.56-5.73-3.82-8.55a46.25,46.25,0,0,1-1.78-4.53l-.16.22a11,11,0,0,0-.68,1.21c0,6.56-6.57,14.6-6.57,14.6l-6.62-9.64-5.79,8.9c-.83.45-1.67,2-2.32,4.13-.18.58-.36,1.21-.52,1.89-.12.45-.23.93-.33,1.4-.06.24-.11.49-.16.74l-.15.75v.12c-.1.52-.2,1-.29,1.6s-.2,1.16-.29,1.76c-.07.38-.13.76-.18,1.15-.12.74-.22,1.49-.32,2.23-.05.44-.11.84-.16,1.3l-.2,1.67c.42,1.36.9,2.72,1.39,4a6.55,6.55,0,0,1,.54,2.3,57.16,57.16,0,0,0,31.34,0,.14.14,0,0,1,0-.09,9.14,9.14,0,0,1-.2-2.27h0a59.71,59.71,0,0,1,.83-6.39A23.44,23.44,0,0,0,422,99.4V99C422,98.7,422,98.4,422,98.1Z"/><path class="cls-7" d="M398.8,76.74l-.56-.07a23,23,0,0,1-2.5-.5l-.31-.09c-2-.57-4.27-1.61-4.77-3.43a3.23,3.23,0,0,1,0-1.77A14.89,14.89,0,0,1,391.85,68v0a3.47,3.47,0,0,1,.21-.37,8.27,8.27,0,0,1,3-3.28l-1,.16h0l-8.48,1.38L372.45,68s-2.34-.46-5.52,8.3a1,1,0,0,1-.11.32c-.76,2.15-1.57,4.83-2.41,8.17-.57,2.32-1.1,4.6-1.58,6.81q-.22,1-.42,2a52.12,52.12,0,0,0,4.85,5l.27.25a56.94,56.94,0,0,0,11.12,7.87l.16.09a54.8,54.8,0,0,0,7.84,3.47l.71.25c.15-1.55.32-3.26.52-5a1.54,1.54,0,0,1,.06-.52l.2-1.67c.05-.43.11-.84.17-1.3.1-.74.2-1.49.32-2.23.05-.39.1-.77.17-1.15.09-.6.19-1.19.29-1.76s.2-1.08.3-1.6v-.12l.15-.75.15-.74c.1-.47.21-1,.33-1.4.17-.68.34-1.31.53-1.89.66-2.17,1.44-3.68,2.32-4.13l5.79-8.9.24-.38.11-.16Z"/><path class="cls-9" d="M398.31,76.76l-6.15,9.44c-.84.43-1.62,1.91-2.28,4-.19.62-.39,1.29-.57,2a101.07,101.07,0,0,0-1.89,10.93,1.46,1.46,0,0,1-.06.5c-.29,2.32-.52,4.59-.71,6.6a54.8,54.8,0,0,1-7.84-3.47l-.16-.08a56.94,56.94,0,0,1-11.12-7.87l-.27-.26a52,52,0,0,1-4.85-5c-.2-.23-.39-.46-.58-.7.09-.43.18-.83.28-1.3.47-2.21,1-4.48,1.58-6.79a82.48,82.48,0,0,1,2.83-9.35,2,2,0,0,1,.11-.26c3-7.6,5.08-7.18,5.08-7.18l13.88-2.23,8.76-1.42-.27.16h0a8.86,8.86,0,0,0-2.42,2.57l-.24.4c-.1.16-.19.34-.29.51A14.65,14.65,0,0,0,390,70.88a3.06,3.06,0,0,0,.2,2.39c.83,1.62,3.2,2.5,5.15,3l.32.08A19.89,19.89,0,0,0,398.31,76.76Z"/><path class="cls-7" d="M446.53,93.62l-.35-7.41c1.46-11.68-1.46-12.41-1.46-12.41l-3.47-1.66h-.09l-14-6.77-.54-.27-.17-.07h0l-1.82-.89h0l-1.15-.56-2.15-1-.73-.35v2.89c0,.84.08,1.82.14,3,.16,2.85.43,6.68.92,11.18.28,2.61.63,5.47,1.06,8.53.26,1.81.44,3.61.56,5.37a94.35,94.35,0,0,1-.55,17.78l.76-.25a54.33,54.33,0,0,0,6-2.42h0a55.56,55.56,0,0,0,10.77-6.6l.15-.11a56.32,56.32,0,0,0,6.05-5.5Z"/><path class="cls-9" d="M447.26,93.62l-.34-7.42c1.46-11.69-1.46-12.41-1.46-12.41l-4.17-2h-.09L427.2,65l-.64-.31-.13-.06-1-.5-1.36-.66-2.69-1.3v1.18h0V64.8c0,.84.08,1.93.15,3.17.14,2.66.39,6.15.84,10.3.3,2.84.67,6,1.16,9.41.26,1.82.44,3.62.55,5.4a94.12,94.12,0,0,1-.51,17.52,55.12,55.12,0,0,0,6-2.42h0a54.75,54.75,0,0,0,10.76-6.61l.15-.11A55.3,55.3,0,0,0,446.56,96c.24-.25.48-.5.7-.75Z"/><path class="cls-7" d="M400.19,32.32c2.6-.45,5.22-1.4,7.81-.84,2.17.45,4,1.9,6,2.9A15.49,15.49,0,0,0,420.13,36a3.65,3.65,0,0,0,2.26-.45c1-.71,1.18-2.18,1-3.43-.5-3.56-2.72-6.61-5-9.38a18.17,18.17,0,0,0-3.14-3.18c-3-2.21-7-2.59-10.67-2.42a26.78,26.78,0,0,0-12.22,3.13c-2.51,1.44-8.25,6-6.25,9.23S396.91,32.88,400.19,32.32Z"/><path class="cls-14" d="M385.62,44.87c2.6-.44,28.72-16.95,28.35-11.33,1.91,1,7.73,1.58,8.42,1.19,1-.72,1.18-2.19,1-3.44-.5-3.55-2.72-6.61-5-9.38a18.53,18.53,0,0,0-3.14-3.18c-3-2.21-7-2.58-10.67-2.42a26.67,26.67,0,0,0-12.22,3.14c-2.51,1.44-8.25,6-6.25,9.23C388.2,32.1,382.34,45.43,385.62,44.87Z"/></g><g class="cls-11"><path class="cls-16" d="M173.28,479.22a84.56,84.56,0,0,1-20.46,55.3q-1,1.14-2,2.25c-.34.38-.69.76-1.05,1.12a83.25,83.25,0,0,1-9.07,8.24l-.23.16a83.07,83.07,0,0,1-16.12,9.9h0a83.26,83.26,0,0,1-9,3.62l-1.13.37c-.7.23-1.43.45-2.14.65l-.29.08a85.26,85.26,0,0,1-46.93,0h-.12c-1.25-.36-2.5-.73-3.65-1.15L60,559.39a82.13,82.13,0,0,1-11.75-5.2l-.24-.12a85.49,85.49,0,0,1-16.65-11.79l-.41-.39a77.92,77.92,0,0,1-7.26-7.5c-.3-.33-.59-.68-.87-1-.55-.65-1.08-1.33-1.6-2a85,85,0,1,1,152.09-52.14Z"/><path class="cls-17" d="M150.7,534l-.51-11.25C152.37,505,148,503.84,148,503.84l-6.25-3.08-.13-.06-21-10.33-1-.48-.12-.51s.41-1.25-1.67-1.46a7.57,7.57,0,0,1-.52-3.19c.21-2.4,2-4.29,3.44-6.25a25.73,25.73,0,0,0,4.11-18.21,42.84,42.84,0,0,0-7-17.6l-.4-.58a21.06,21.06,0,0,0,.74-5.53c0-14.38-14.55-26-32.49-26-16.25,0-29.78,9.61-32.13,22.14a12,12,0,0,0-1,1.55c-3.3,6.18,1.8,10.79,2,17,.11,4.25-2.74,7.89-5,11.49S45.71,471,48,474.58c.76,1.18,1.91,2.06,2.6,3.29C53,482.13,49,487,47.57,491.69a13.37,13.37,0,0,0-.4,1.66l-9.65,1.58s-3.19-.65-7.61,10.92a2.9,2.9,0,0,0-.16.41A123.87,123.87,0,0,0,25.5,520.5q-1.3,5.28-2.36,10.33c-.15.66-.29,1.33-.43,2,.29.35.58.71.88,1a78.28,78.28,0,0,0,7.26,7.65l.41.4a85.09,85.09,0,0,0,16.65,12l.23.13a81.44,81.44,0,0,0,11.75,5.28l1.06.38c1.25.42,2.43.8,3.65,1.17a3.91,3.91,0,0,1,.1.58v-.55a84.16,84.16,0,0,0,46.93,0l.29-.09c.71-.2,1.44-.42,2.14-.66l1.13-.36a81.72,81.72,0,0,0,9-3.69h0A82.73,82.73,0,0,0,140.36,546l.23-.16a84.63,84.63,0,0,0,9.07-8.38c.37-.36.72-.74,1.05-1.13Z"/><path class="cls-18" d="M54.64,453c.11,4.19-2.74,7.76-5,11.25s-3.93,8.25-1.61,11.73c.76,1.15,1.91,2,2.6,3.24,2.41,4.19-1.6,9-3.06,13.6-1.69,5.31.27,11.25,3.82,15.56s8.45,7.22,13.4,9.78a119.54,119.54,0,0,0,33.14,11.8c6,1.11,12.5,1.61,18.17-.81A19.33,19.33,0,0,0,127,507.86c-1.44-6.57-6.25-11.86-8.75-18.07a8.4,8.4,0,0,1-.83-3.91c.21-2.36,2-4.21,3.44-6.13A25,25,0,0,0,124.93,462a41.66,41.66,0,0,0-7-17.32,18.86,18.86,0,0,0-5-5.5c-2.73-1.84-6.1-2.36-9.35-2.82-13.58-1.9-27.63-4-41.32-4.68-4.32-.22-7.5.63-9.64,4.68C49.39,442.36,54.48,446.9,54.64,453Z"/><path class="cls-6" d="M124.54,495.46,98.78,532.09l-25.14-2.18s-.83,8.75-10.94-23c-5.65-17.73,5.84-11.57,8.1-16.48s6.25-9.25,6.59-12.88c.8-7.77-1.56-12.2-1.56-12.2l27.33-3.27a20.33,20.33,0,0,0-.45,11.41C106.13,487.75,124.54,495.46,124.54,495.46Z"/><ellipse class="cls-18" cx="85.8" cy="438.61" rx="32.49" ry="25.62"/><path class="cls-7" d="M102.69,473.52a27.3,27.3,0,0,1-25.32,4.07c.8-7.77-1.56-12.2-1.56-12.2l27.33-3.27A20.47,20.47,0,0,0,102.69,473.52Z"/><circle class="cls-6" cx="86.21" cy="450.64" r="27.33"/><path class="cls-7" d="M121.84,499.61l-.64-2.5-.55-2.2-.81-3.25-.15-.59-.12-.5s.65-2-3.64-1.33l-.8.14c-.67.14-1.46.32-2.36.57l-.81.25-1.08.34h0a23.45,23.45,0,0,0-9.07,5.47,21,21,0,0,0-3,3.68c-.09.12-.15.24-.22.34a10.66,10.66,0,0,0-.79,1.45c0,9.84-9.85,21.87-9.85,21.87L78.3,509.46l-.19-.27-2.28-3.33L75,504.79l-.27-.38-5-6.71L68.49,496l-.41-.57-.62-.81L66,492.74,60.4,496l-7.5,4.37-4.37,28.43v.79l.14,2.35.91,15.45v.21L48,554l.24.12A81,81,0,0,0,60,559.35l1.06.38c1.25.41,2.42.78,3.65,1.15a5,5,0,0,1,.1.56v-.54a85.45,85.45,0,0,0,46.93,0l.28-.09c.72-.2,1.44-.41,2.14-.65l1.14-.36a84.92,84.92,0,0,0,9-3.62l1.05-22.37.75-16.14v-.92Z"/><path class="cls-15" d="M112.84,541.17a9.43,9.43,0,0,0-.08-1.5c-.09-.5-.08-.94-.14-1.41s-.11-1-.18-1.43-.15-1-.23-1.42-.18-.95-.28-1.43a2,2,0,0,0-.1-.47c-.14-.63-.29-1.25-.45-1.89s-.26-1-.41-1.51a2.19,2.19,0,0,0-.2-.66c-.08-.22-.21-.73-.33-1.09l-.22-.7c-.1-.31-.2-.63-.31-.94-.19-.56-.39-1.11-.59-1.67s-.41-1.12-.63-1.67c-.42-1.12-.88-2.23-1.35-3.35-1.81-4.32-3.85-8.58-5.72-12.81A69.11,69.11,0,0,1,99,500.44l-.24.34a13.19,13.19,0,0,0-1,1.8c0,9.83-9.85,21.87-9.85,21.87L77.94,510l-8.68,13.34c-1.25.66-2.5,2.93-3.47,6.17-.28.87-.54,1.82-.79,2.84-.17.67-.34,1.38-.49,2.1-.08.36-.16.72-.23,1.1l-.23,1.13v.18c-.15.77-.3,1.57-.44,2.39s-.3,1.75-.43,2.63c-.1.58-.19,1.15-.26,1.73-.18,1.11-.33,2.23-.48,3.35-.09.65-.17,1.25-.25,1.93l-.3,2.5c.64,2.05,1.35,4.08,2.09,6.06a10.23,10.23,0,0,1,.81,3.44,85.45,85.45,0,0,0,46.93,0,.24.24,0,0,1,0-.12,15.12,15.12,0,0,1-.3-3.42h0a93.64,93.64,0,0,1,1.25-9.56,36.9,36.9,0,0,0,.24-4.7v-.56C112.87,542.07,112.86,541.62,112.84,541.17Zm0,0a9.43,9.43,0,0,0-.08-1.5c-.09-.5-.08-.94-.14-1.41s-.11-1-.18-1.43-.15-1-.23-1.42-.18-.95-.28-1.43a2,2,0,0,0-.1-.47c-.14-.63-.29-1.25-.45-1.89s-.26-1-.41-1.51a2.19,2.19,0,0,0-.2-.66c-.08-.22-.21-.73-.33-1.09l-.22-.7c-.1-.31-.2-.63-.31-.94-.19-.56-.39-1.11-.59-1.67s-.41-1.12-.63-1.67c-.42-1.12-.88-2.23-1.35-3.35-1.81-4.32-3.85-8.58-5.72-12.81A69.11,69.11,0,0,1,99,500.44l-.24.34a13.19,13.19,0,0,0-1,1.8c0,9.83-9.85,21.87-9.85,21.87L77.94,510l-8.68,13.34c-1.25.66-2.5,2.93-3.47,6.17-.28.87-.54,1.82-.79,2.84-.17.67-.34,1.38-.49,2.1-.08.36-.16.72-.23,1.1l-.23,1.13v.18c-.15.77-.3,1.57-.44,2.39s-.3,1.75-.43,2.63c-.1.58-.19,1.15-.26,1.73-.18,1.11-.33,2.23-.48,3.35-.09.65-.17,1.25-.25,1.93l-.3,2.5c.64,2.05,1.35,4.08,2.09,6.06a10.23,10.23,0,0,1,.81,3.44,85.45,85.45,0,0,0,46.93,0,.24.24,0,0,1,0-.12,15.12,15.12,0,0,1-.3-3.42h0a93.64,93.64,0,0,1,1.25-9.56,36.9,36.9,0,0,0,.24-4.7v-.56C112.87,542.07,112.86,541.62,112.84,541.17Zm0,0a9.43,9.43,0,0,0-.08-1.5c-.09-.5-.08-.94-.14-1.41s-.11-1-.18-1.43-.15-1-.23-1.42-.18-.95-.28-1.43a2,2,0,0,0-.1-.47c-.14-.63-.29-1.25-.45-1.89s-.26-1-.41-1.51a2.19,2.19,0,0,0-.2-.66c-.08-.22-.21-.73-.33-1.09l-.22-.7c-.1-.31-.2-.63-.31-.94-.19-.56-.39-1.11-.59-1.67s-.41-1.12-.63-1.67c-.42-1.12-.88-2.23-1.35-3.35-1.81-4.32-3.85-8.58-5.72-12.81A69.11,69.11,0,0,1,99,500.44l-.24.34a13.19,13.19,0,0,0-1,1.8c0,9.83-9.85,21.87-9.85,21.87L77.94,510l-8.68,13.34c-1.25.66-2.5,2.93-3.47,6.17-.28.87-.54,1.82-.79,2.84-.17.67-.34,1.38-.49,2.1-.08.36-.16.72-.23,1.1l-.23,1.13v.18c-.15.77-.3,1.57-.44,2.39s-.3,1.75-.43,2.63c-.1.58-.19,1.15-.26,1.73-.18,1.11-.33,2.23-.48,3.35-.09.65-.17,1.25-.25,1.93l-.3,2.5c.64,2.05,1.35,4.08,2.09,6.06a10.23,10.23,0,0,1,.81,3.44,85.45,85.45,0,0,0,46.93,0,.24.24,0,0,1,0-.12,15.12,15.12,0,0,1-.3-3.42h0a93.64,93.64,0,0,1,1.25-9.56,36.9,36.9,0,0,0,.24-4.7v-.56C112.87,542.07,112.86,541.62,112.84,541.17Zm13.25-23.46-4.46-17.81-.76-3-.22-.84h0l-1.08-4.35v-.11h0a1.09,1.09,0,0,0-.09-.56c-.16-.32-.58-.66-1.54-.75a6.73,6.73,0,0,0-1.1,0h0a19.52,19.52,0,0,0-3.21.6c-.51.14-1.06.29-1.65.47l-1.07.34h-.1a24,24,0,0,0-7.88,4.38,21.55,21.55,0,0,0-4,4.42l-.23.34a14.4,14.4,0,0,0-1,1.8c0,9.83-9.84,21.87-9.84,21.87L77.92,510l-.56-.81-.1-.14L75.83,507l-1.09-1.45-.29-.37-5.12-6.84h0l-1.63-2.21V496l-.56-.76-1.08-1.42L62.32,496l-9.38,5.47-4.32,28.13v.3l.12,2.05.93,15.66v.88l-1.41,5.64A82.51,82.51,0,0,0,60,559.34l1.07.37c1.25.42,2.42.79,3.64,1.15a3.78,3.78,0,0,1,.1.57v-.54a85.45,85.45,0,0,0,46.93,0l.29-.09c.71-.2,1.44-.41,2.14-.65l1.13-.36a83.26,83.26,0,0,0,9-3.62h0l1-22.35.75-16ZM64.63,560.86a5.67,5.67,0,0,1,.1.57v-.54Zm48.21-19.69a9.43,9.43,0,0,0-.08-1.5c-.09-.5-.08-.94-.14-1.41s-.11-1-.18-1.43-.15-1-.23-1.42-.18-.95-.28-1.43a2,2,0,0,0-.1-.47c-.14-.63-.29-1.25-.45-1.89s-.26-1-.41-1.51a2.19,2.19,0,0,0-.2-.66c-.08-.22-.21-.73-.33-1.09l-.22-.7c-.1-.31-.2-.63-.31-.94-.19-.56-.39-1.11-.59-1.67s-.41-1.12-.63-1.67c-.42-1.12-.88-2.23-1.35-3.35-1.81-4.32-3.85-8.58-5.72-12.81A69.11,69.11,0,0,1,99,500.44l-.24.34a13.19,13.19,0,0,0-1,1.8c0,9.83-9.85,21.87-9.85,21.87L77.94,510l-8.68,13.34c-1.25.66-2.5,2.93-3.47,6.17-.28.87-.54,1.82-.79,2.84-.17.67-.34,1.38-.49,2.1-.08.36-.16.72-.23,1.1l-.23,1.13v.18c-.15.77-.3,1.57-.44,2.39s-.3,1.75-.43,2.63c-.1.58-.19,1.15-.26,1.73-.18,1.11-.33,2.23-.48,3.35-.09.65-.17,1.25-.25,1.93l-.3,2.5c.64,2.05,1.35,4.08,2.09,6.06a10.23,10.23,0,0,1,.81,3.44,85.45,85.45,0,0,0,46.93,0,.24.24,0,0,1,0-.12,15.12,15.12,0,0,1-.3-3.42h0a93.64,93.64,0,0,1,1.25-9.56,36.9,36.9,0,0,0,.24-4.7v-.56C112.87,542.07,112.86,541.62,112.84,541.17Zm0,0a9.43,9.43,0,0,0-.08-1.5c-.09-.5-.08-.94-.14-1.41s-.11-1-.18-1.43-.15-1-.23-1.42-.18-.95-.28-1.43a2,2,0,0,0-.1-.47c-.14-.63-.29-1.25-.45-1.89s-.26-1-.41-1.51a2.19,2.19,0,0,0-.2-.66c-.08-.22-.21-.73-.33-1.09l-.22-.7c-.1-.31-.2-.63-.31-.94-.19-.56-.39-1.11-.59-1.67s-.41-1.12-.63-1.67c-.42-1.12-.88-2.23-1.35-3.35-1.81-4.32-3.85-8.58-5.72-12.81A69.11,69.11,0,0,1,99,500.44l-.24.34a13.19,13.19,0,0,0-1,1.8c0,9.83-9.85,21.87-9.85,21.87L77.94,510l-8.68,13.34c-1.25.66-2.5,2.93-3.47,6.17-.28.87-.54,1.82-.79,2.84-.17.67-.34,1.38-.49,2.1-.08.36-.16.72-.23,1.1l-.23,1.13v.18c-.15.77-.3,1.57-.44,2.39s-.3,1.75-.43,2.63c-.1.58-.19,1.15-.26,1.73-.18,1.11-.33,2.23-.48,3.35-.09.65-.17,1.25-.25,1.93l-.3,2.5c.64,2.05,1.35,4.08,2.09,6.06a10.23,10.23,0,0,1,.81,3.44,85.45,85.45,0,0,0,46.93,0,.24.24,0,0,1,0-.12,15.12,15.12,0,0,1-.3-3.42h0a93.64,93.64,0,0,1,1.25-9.56,36.9,36.9,0,0,0,.24-4.7v-.56C112.87,542.07,112.86,541.62,112.84,541.17Zm0,0a9.43,9.43,0,0,0-.08-1.5c-.09-.5-.08-.94-.14-1.41s-.11-1-.18-1.43-.15-1-.23-1.42-.18-.95-.28-1.43a2,2,0,0,0-.1-.47c-.14-.63-.29-1.25-.45-1.89s-.26-1-.41-1.51a2.19,2.19,0,0,0-.2-.66c-.08-.22-.21-.73-.33-1.09l-.22-.7c-.1-.31-.2-.63-.31-.94-.19-.56-.39-1.11-.59-1.67s-.41-1.12-.63-1.67c-.42-1.12-.88-2.23-1.35-3.35-1.81-4.32-3.85-8.58-5.72-12.81A69.11,69.11,0,0,1,99,500.44l-.24.34a13.19,13.19,0,0,0-1,1.8c0,9.83-9.85,21.87-9.85,21.87L77.94,510l-8.68,13.34c-1.25.66-2.5,2.93-3.47,6.17-.28.87-.54,1.82-.79,2.84-.17.67-.34,1.38-.49,2.1-.08.36-.16.72-.23,1.1l-.23,1.13v.18c-.15.77-.3,1.57-.44,2.39s-.3,1.75-.43,2.63c-.1.58-.19,1.15-.26,1.73-.18,1.11-.33,2.23-.48,3.35-.09.65-.17,1.25-.25,1.93l-.3,2.5c.64,2.05,1.35,4.08,2.09,6.06a10.23,10.23,0,0,1,.81,3.44,85.45,85.45,0,0,0,46.93,0,.24.24,0,0,1,0-.12,15.12,15.12,0,0,1-.3-3.42h0a93.64,93.64,0,0,1,1.25-9.56,36.9,36.9,0,0,0,.24-4.7v-.56C112.87,542.07,112.86,541.62,112.84,541.17Zm0,0a9.43,9.43,0,0,0-.08-1.5c-.09-.5-.08-.94-.14-1.41s-.11-1-.18-1.43-.15-1-.23-1.42-.18-.95-.28-1.43a2,2,0,0,0-.1-.47c-.14-.63-.29-1.25-.45-1.89s-.26-1-.41-1.51a2.19,2.19,0,0,0-.2-.66c-.08-.22-.21-.73-.33-1.09l-.22-.7c-.1-.31-.2-.63-.31-.94-.19-.56-.39-1.11-.59-1.67s-.41-1.12-.63-1.67c-.42-1.12-.88-2.23-1.35-3.35-1.81-4.32-3.85-8.58-5.72-12.81A69.11,69.11,0,0,1,99,500.44l-.24.34a13.19,13.19,0,0,0-1,1.8c0,9.83-9.85,21.87-9.85,21.87L77.94,510l-8.68,13.34c-1.25.66-2.5,2.93-3.47,6.17-.28.87-.54,1.82-.79,2.84-.17.67-.34,1.38-.49,2.1-.08.36-.16.72-.23,1.1l-.23,1.13v.18c-.15.77-.3,1.57-.44,2.39s-.3,1.75-.43,2.63c-.1.58-.19,1.15-.26,1.73-.18,1.11-.33,2.23-.48,3.35-.09.65-.17,1.25-.25,1.93l-.3,2.5c.64,2.05,1.35,4.08,2.09,6.06a10.23,10.23,0,0,1,.81,3.44,85.45,85.45,0,0,0,46.93,0,.24.24,0,0,1,0-.12,15.12,15.12,0,0,1-.3-3.42h0a93.64,93.64,0,0,1,1.25-9.56,36.9,36.9,0,0,0,.24-4.7v-.56C112.87,542.07,112.86,541.62,112.84,541.17Zm0,0a9.43,9.43,0,0,0-.08-1.5c-.09-.5-.08-.94-.14-1.41s-.11-1-.18-1.43-.15-1-.23-1.42-.18-.95-.28-1.43a2,2,0,0,0-.1-.47c-.14-.63-.29-1.25-.45-1.89s-.26-1-.41-1.51a2.19,2.19,0,0,0-.2-.66c-.08-.22-.21-.73-.33-1.09l-.22-.7c-.1-.31-.2-.63-.31-.94-.19-.56-.39-1.11-.59-1.67s-.41-1.12-.63-1.67c-.42-1.12-.88-2.23-1.35-3.35-1.81-4.32-3.85-8.58-5.72-12.81A69.11,69.11,0,0,1,99,500.44l-.24.34a13.19,13.19,0,0,0-1,1.8c0,9.83-9.85,21.87-9.85,21.87L77.94,510l-8.68,13.34c-1.25.66-2.5,2.93-3.47,6.17-.28.87-.54,1.82-.79,2.84-.17.67-.34,1.38-.49,2.1-.08.36-.16.72-.23,1.1l-.23,1.13v.18c-.15.77-.3,1.57-.44,2.39s-.3,1.75-.43,2.63c-.1.58-.19,1.15-.26,1.73-.18,1.11-.33,2.23-.48,3.35-.09.65-.17,1.25-.25,1.93l-.3,2.5c.64,2.05,1.35,4.08,2.09,6.06a10.23,10.23,0,0,1,.81,3.44,85.45,85.45,0,0,0,46.93,0,.24.24,0,0,1,0-.12,15.12,15.12,0,0,1-.3-3.42h0a93.64,93.64,0,0,1,1.25-9.56,36.9,36.9,0,0,0,.24-4.7v-.56C112.87,542.07,112.86,541.62,112.84,541.17Zm0,0a9.43,9.43,0,0,0-.08-1.5c-.09-.5-.08-.94-.14-1.41s-.11-1-.18-1.43-.15-1-.23-1.42-.18-.95-.28-1.43a2,2,0,0,0-.1-.47c-.14-.63-.29-1.25-.45-1.89s-.26-1-.41-1.51a2.19,2.19,0,0,0-.2-.66c-.08-.22-.21-.73-.33-1.09l-.22-.7c-.1-.31-.2-.63-.31-.94-.19-.56-.39-1.11-.59-1.67s-.41-1.12-.63-1.67c-.42-1.12-.88-2.23-1.35-3.35-1.81-4.32-3.85-8.58-5.72-12.81A69.11,69.11,0,0,1,99,500.44l-.24.34a13.19,13.19,0,0,0-1,1.8c0,9.83-9.85,21.87-9.85,21.87L77.94,510l-8.68,13.34c-1.25.66-2.5,2.93-3.47,6.17-.28.87-.54,1.82-.79,2.84-.17.67-.34,1.38-.49,2.1-.08.36-.16.72-.23,1.1l-.23,1.13v.18c-.15.77-.3,1.57-.44,2.39s-.3,1.75-.43,2.63c-.1.58-.19,1.15-.26,1.73-.18,1.11-.33,2.23-.48,3.35-.09.65-.17,1.25-.25,1.93l-.3,2.5c.64,2.05,1.35,4.08,2.09,6.06a10.23,10.23,0,0,1,.81,3.44,85.45,85.45,0,0,0,46.93,0,.24.24,0,0,1,0-.12,15.12,15.12,0,0,1-.3-3.42h0a93.64,93.64,0,0,1,1.25-9.56,36.9,36.9,0,0,0,.24-4.7v-.56C112.87,542.07,112.86,541.62,112.84,541.17Zm0,0a9.43,9.43,0,0,0-.08-1.5c-.09-.5-.08-.94-.14-1.41s-.11-1-.18-1.43-.15-1-.23-1.42-.18-.95-.28-1.43a2,2,0,0,0-.1-.47c-.14-.63-.29-1.25-.45-1.89s-.26-1-.41-1.51a2.19,2.19,0,0,0-.2-.66c-.08-.22-.21-.73-.33-1.09l-.22-.7c-.1-.31-.2-.63-.31-.94-.19-.56-.39-1.11-.59-1.67s-.41-1.12-.63-1.67c-.42-1.12-.88-2.23-1.35-3.35-1.81-4.32-3.85-8.58-5.72-12.81A69.11,69.11,0,0,1,99,500.44l-.24.34a13.19,13.19,0,0,0-1,1.8c0,9.83-9.85,21.87-9.85,21.87L77.94,510l-8.68,13.34c-1.25.66-2.5,2.93-3.47,6.17-.28.87-.54,1.82-.79,2.84-.17.67-.34,1.38-.49,2.1-.08.36-.16.72-.23,1.1l-.23,1.13v.18c-.15.77-.3,1.57-.44,2.39s-.3,1.75-.43,2.63c-.1.58-.19,1.15-.26,1.73-.18,1.11-.33,2.23-.48,3.35-.09.65-.17,1.25-.25,1.93l-.3,2.5c.64,2.05,1.35,4.08,2.09,6.06a10.23,10.23,0,0,1,.81,3.44,85.45,85.45,0,0,0,46.93,0,.24.24,0,0,1,0-.12,15.12,15.12,0,0,1-.3-3.42h0a93.64,93.64,0,0,1,1.25-9.56,36.9,36.9,0,0,0,.24-4.7v-.56C112.87,542.07,112.86,541.62,112.84,541.17Zm0,0a9.43,9.43,0,0,0-.08-1.5c-.09-.5-.08-.94-.14-1.41s-.11-1-.18-1.43-.15-1-.23-1.42-.18-.95-.28-1.43a2,2,0,0,0-.1-.47c-.14-.63-.29-1.25-.45-1.89s-.26-1-.41-1.51a2.19,2.19,0,0,0-.2-.66c-.08-.22-.21-.73-.33-1.09l-.22-.7c-.1-.31-.2-.63-.31-.94-.19-.56-.39-1.11-.59-1.67s-.41-1.12-.63-1.67c-.42-1.12-.88-2.23-1.35-3.35-1.81-4.32-3.85-8.58-5.72-12.81A69.11,69.11,0,0,1,99,500.44l-.24.34a13.19,13.19,0,0,0-1,1.8c0,9.83-9.85,21.87-9.85,21.87L77.94,510l-8.68,13.34c-1.25.66-2.5,2.93-3.47,6.17-.28.87-.54,1.82-.79,2.84-.17.67-.34,1.38-.49,2.1-.08.36-.16.72-.23,1.1l-.23,1.13v.18c-.15.77-.3,1.57-.44,2.39s-.3,1.75-.43,2.63c-.1.58-.19,1.15-.26,1.73-.18,1.11-.33,2.23-.48,3.35-.09.65-.17,1.25-.25,1.93l-.3,2.5c.64,2.05,1.35,4.08,2.09,6.06a10.23,10.23,0,0,1,.81,3.44,85.45,85.45,0,0,0,46.93,0,.24.24,0,0,1,0-.12,15.12,15.12,0,0,1-.3-3.42h0a93.64,93.64,0,0,1,1.25-9.56,36.9,36.9,0,0,0,.24-4.7v-.56C112.87,542.07,112.86,541.62,112.84,541.17Z"/><path class="cls-7" d="M78.11,509.17l-.84-.11a29.83,29.83,0,0,1-3.74-.75l-.47-.12c-3-.87-6.38-2.42-7.13-5.14a4.81,4.81,0,0,1,.07-2.66,22.77,22.77,0,0,1,1.7-4.3V496c.1-.19.2-.38.31-.56a12.56,12.56,0,0,1,4.52-4.91l-1.5.24h0l-12.7,2.06L38.64,496s-3.49-.7-8.26,12.43a1.93,1.93,0,0,1-.16.48c-1.15,3.22-2.36,7.23-3.61,12.24-.86,3.47-1.65,6.89-2.38,10.2-.21,1-.42,2-.62,3a79.1,79.1,0,0,0,7.26,7.5l.41.39A85.45,85.45,0,0,0,47.93,554l.24.13a82.08,82.08,0,0,0,11.75,5.19l1.06.38c.22-2.31.47-4.87.77-7.5a2.18,2.18,0,0,1,.1-.79l.3-2.5c.08-.63.17-1.25.25-1.93.15-1.12.3-2.24.48-3.35.07-.58.16-1.15.26-1.73.14-.88.29-1.77.44-2.63s.28-1.62.43-2.39v-.18l.23-1.13c.07-.38.15-.74.24-1.1.15-.72.31-1.43.48-2.1.25-1,.52-2,.79-2.84,1-3.24,2.16-5.51,3.48-6.17L77.9,510l.36-.56.16-.25Z"/><path class="cls-9" d="M77.37,509.2l-9.21,14.15c-1.25.63-2.42,2.85-3.41,6-.29.93-.57,1.94-.85,3a151.15,151.15,0,0,0-2.82,16.36,1.94,1.94,0,0,1-.1.75c-.43,3.48-.78,6.89-1.06,9.9a82.13,82.13,0,0,1-11.75-5.2l-.24-.12a85.49,85.49,0,0,1-16.65-11.79l-.41-.39a77.92,77.92,0,0,1-7.26-7.5c-.3-.33-.59-.68-.87-1,.13-.65.27-1.25.42-1.95q1.07-5,2.36-10.18a123.9,123.9,0,0,1,4.25-14c.05-.14.1-.27.16-.4C34.36,495.4,37.54,496,37.54,496l20.79-3.35,13.12-2.12-.41.23h0a13.25,13.25,0,0,0-3.61,3.85l-.37.61c-.15.24-.28.5-.43.77a22.21,22.21,0,0,0-1.73,4.37,4.61,4.61,0,0,0,.3,3.58c1.25,2.42,4.8,3.74,7.71,4.47l.49.12A29.81,29.81,0,0,0,77.37,509.2Z"/><path class="cls-7" d="M149.6,534.46l-.51-11.1c2.18-17.5-2.19-18.59-2.19-18.59l-5.2-2.49h-.14l-20.91-10.14-.81-.4-.25-.11h0l-2.72-1.33h0l-1.73-.83-3.22-1.57-1.09-.52v4.33c0,1.25.11,2.72.21,4.42.23,4.27.64,10,1.38,16.74.41,3.92.94,8.19,1.59,12.78.38,2.71.66,5.41.83,8a141.8,141.8,0,0,1-.82,26.62l1.14-.36a83.92,83.92,0,0,0,9-3.62h0a83.34,83.34,0,0,0,16.13-9.9l.22-.16a82.34,82.34,0,0,0,9.07-8.24Z"/><path class="cls-9" d="M150.7,534.46l-.51-11.13c2.18-17.49-2.19-18.58-2.19-18.58l-6.25-3h-.13l-21-10.18-1-.46-.19-.09-1.53-.75-2-1-4-1.95v1.77h0v2.2c0,1.25.11,2.89.22,4.75.21,4,.59,9.21,1.25,15.42.45,4.26,1,9,1.75,14.1.38,2.72.66,5.42.82,8.08a141.27,141.27,0,0,1-.77,26.25,84.08,84.08,0,0,0,9-3.62h0a83.56,83.56,0,0,0,16.12-9.9l.23-.17a83.16,83.16,0,0,0,9.07-8.23c.36-.37.71-.74,1-1.13Z"/><path class="cls-7" d="M80.2,442.64c3.9-.67,7.82-2.09,11.7-1.25,3.25.67,6,2.83,8.93,4.33a23,23,0,0,0,9.23,2.44,5.44,5.44,0,0,0,3.38-.66c1.55-1.08,1.78-3.28,1.51-5.15-.74-5.32-4.07-9.9-7.49-14.05a27.86,27.86,0,0,0-4.7-4.76c-4.49-3.31-10.43-3.87-16-3.62-6.35.28-12.79,1.51-18.31,4.7-3.75,2.14-12.34,8.92-9.36,13.82C62.24,443.56,75.29,443.47,80.2,442.64Z"/><path class="cls-18" d="M80.2,441.39c3.9-.67,7.82-2.09,11.7-1.25,3.25.67,6,2.83,8.93,4.33a23,23,0,0,0,9.23,2.44,5.44,5.44,0,0,0,3.38-.66c1.55-1.08,1.78-3.28,1.51-5.15-.74-5.32-4.07-9.9-7.49-14.05a27.86,27.86,0,0,0-4.7-4.76c-4.49-3.31-10.43-3.87-16-3.62-6.35.28-12.79,1.51-18.31,4.7-3.75,2.15-12.34,8.92-9.36,13.82C62.24,442.31,75.29,442.22,80.2,441.39Z"/></g><g class="cls-11"><path class="cls-19" d="M273.61,617.74a60.7,60.7,0,0,0,12.18,36.56c.8,1.07,1.63,2.1,2.5,3.12.47.54.95,1.08,1.45,1.61.24.28.49.54.75.81a60.79,60.79,0,0,0,6.51,5.91l.16.11a58.91,58.91,0,0,0,11.57,7.1h0a58.55,58.55,0,0,0,6.49,2.6l.81.26c.51.18,1,.33,1.54.47l.2.06c.26.08.52.16.79.22a60.39,60.39,0,0,0,16,2.12c.9,0,1.84,0,2.75-.06a60.45,60.45,0,0,0,14.14-2.31h.09c.86-.25,1.7-.51,2.53-.8h.09l.76-.27a58.7,58.7,0,0,0,8.43-3.73l.17-.09.9-.49a60.63,60.63,0,0,0,11.06-8l.3-.28a58.8,58.8,0,0,0,5.21-5.38l.19-.23.44-.52c.39-.46.77-1,1.15-1.43a61,61,0,1,0-109.15-37.4Z"/><path class="cls-20" d="M294.71,637.35s13.23-1.12,19.29-9.53c5.91-8.19,9.93-8.29,10.12-8.29h0c.15-1.09.26-2.13.33-3.1v-.13a1.77,1.77,0,0,1-.83.36c-1.18.18-2.22-.94-2.82-2.13A16.05,16.05,0,0,0,319,611c-1.46-1.69,2.7-5.67,1-7-1.53-1.29-4.68-.71-4.87-2.7,15.91-.46,6.83,0,6.85-.72,0-1.61-2.62-.23-2.34-1.81.46-3,1.4-3.43,3.06-5.77s1.82-2.66,3.43-4.87c7.56-10.37,6.85-6.44,13.35-9.92,1.26-.8,3.75.38,5.23.18,2.61-.15-.3-4.3,1.8-2.53,1.34,1,7,.22,8.08,1.56,1.88,2.63,2.93,7,2.84,10.88a16.43,16.43,0,0,1-.41,4.26c-.52,2.07-1.93,1.93-3.47,1.47a18.63,18.63,0,0,1-6.34,23.38v1.15c0,1.43,0,2.86.15,4.28.15.09,14.65,8.31,16.29,12.21s7.72,6.72,7.72,6.72,6.68,3.59,9.86,14.85l-.18.23a58.67,58.67,0,0,1-5.21,5.48l-.3.29a60.38,60.38,0,0,1-11.06,8.07c-.29.17-.59.34-.9.5l-.17.09a59.57,59.57,0,0,1-8.43,3.8l-.76.27h-.09c-.84.3-1.68.56-2.53.81h-.09a59.48,59.48,0,0,1-14.14,2.35c-.9,0-1.79.06-2.75.06a59.64,59.64,0,0,1-15.95-2.07c-.27-.06-.53-.14-.79-.21l-.2-.07c-.51-.14-1-.3-1.53-.47l-.82-.26a59.4,59.4,0,0,1-6.52-2.66h0a59.41,59.41,0,0,1-11.57-7.21l-.16-.12a60.67,60.67,0,0,1-6.51-6c-.25-.26-.51-.54-.75-.82-.49-.54-1-1.09-1.44-1.64-.9-1-1.71-2.08-2.51-3.17C290.64,635.5,294.71,637.35,294.71,637.35Z"/><path class="cls-6" d="M340.44,652.36l19.29-14.88s-12.92,2.77-12.55-17.88a.67.67,0,0,1,0-.2,52.4,52.4,0,0,1,.44-6.16c3.31-27.56-23.14-3.31-23.14-3.31a39,39,0,0,1,0,7.33v.2a51.21,51.21,0,0,1-5.5,19.47C311.79,650.7,340.44,652.36,340.44,652.36Z"/><path class="cls-7" d="M327,613.43c3.27,3.19,5.27,9,10.19,9a18.12,18.12,0,0,0,10-3,52.56,52.56,0,0,1,.45-6.16c3.3-27.56-23.15-3.31-23.15-3.31S327.3,609,327,613.43Z"/><circle class="cls-6" cx="337.14" cy="603.32" r="18.18"/><path class="cls-21" d="M354.58,579.14a20.22,20.22,0,0,0-3.58-3.52c-2.1-1.75-4.43-3.58-7-3.42a10.3,10.3,0,0,0-4.16,1.49c-6.5,3.42-11.73-2.19-19.29,8-1.62,2.18-8.66,6.13-7.4,20.92.17,2,4.45,7,5.91,8.62a15.63,15.63,0,0,1,1.79,3.47c.6,1.16,1.64,2.27,2.82,2.1s1.89-1.46,2.06-2.69a16.37,16.37,0,0,0-.22-3.83,9.13,9.13,0,0,1,1.4-6.46c.89-1.17,2.24-1.87,3.13-3.06,2.13-2.88-3.2-2.65-.86-5.32,1.39-1.43,5.48-5.1,7.41-4.59s6-.66,7.71.34a39.84,39.84,0,0,0,7.36,2.84c2.14.58,4.61,2,5.34-.9C358.1,588.9,357,582.52,354.58,579.14Z"/><path class="cls-7" d="M319,661.93l-.36,13.76a60.81,60.81,0,0,0,16,2.13c.89,0,1.83,0,2.75-.07a60,60,0,0,0,14.14-2.31h.09c.85-.25,1.69-.51,2.53-.8h.09l.76-.27a59.19,59.19,0,0,0,8.43-3.73l.17-.09.9-.49-1.39-18.55,2.21-12.73-12.12-8.25a21.42,21.42,0,0,1-2.28,2.76,15.34,15.34,0,0,1-4.14,3.06c-8.7,4.29-18.6-2.53-23.52-6.74l-1.12-1c-1.28-1.16-2-2-2-2L314,636Z"/><path class="cls-15" d="M319,662.82l-.36,13.77a60.8,60.8,0,0,0,16,2.12c.89,0,1.83,0,2.75-.06a60.53,60.53,0,0,0,14.14-2.31h.09c.85-.26,1.69-.52,2.53-.8h.09l.76-.27a59.19,59.19,0,0,0,8.43-3.73l.17-.09.9-.49-1.39-18.56,2.21-12.72-12.12-8.26a20.76,20.76,0,0,1-2.28,2.76,15.37,15.37,0,0,1-4.14,3.07c-8.7,4.29-18.6-2.53-23.52-6.74l-1.12-1c-1.28-1.15-2-1.94-2-1.94L314,636.93Z"/><path class="cls-9" d="M285.79,654.3c.8,1.07,1.63,2.1,2.5,3.12.47.54.95,1.08,1.45,1.61.24.28.49.54.75.81a60.79,60.79,0,0,0,6.51,5.91l.16.11a58.91,58.91,0,0,0,11.57,7.1h0a58.55,58.55,0,0,0,6.49,2.6l.81.26c.51.18,1,.33,1.54.47l.2.06c.26.08.52.16.79.22a60.39,60.39,0,0,0,16,2.12c.9,0,1.84,0,2.75-.06.7-11.44.9-20.62-.19-23a36.49,36.49,0,0,0-2.22-4c-4.43-7.12-12.55-17.83-12.11-19.18a14,14,0,0,0,.36-2c.48-3.53,1-10,1-10h0c-.2,0-4.22.1-10.13,8.15-6.06,8.27-19.29,9.37-19.29,9.37S290.64,636.22,285.79,654.3Z"/><path class="cls-9" d="M352.56,663.93s.67,5.28,1.54,11.59h.09l.76-.27a59.19,59.19,0,0,0,8.43-3.73l.17-.09.9-.49a61,61,0,0,0,11.06-8l.3-.28a58.8,58.8,0,0,0,5.21-5.38l.18-.23c-3.2-11.11-9.86-14.6-9.86-14.6s-6.06-2.77-7.72-6.62-16.3-12-16.3-12v.07c0,.69-.23,7-.58,13.36-.23,4.14-.51,8.29-.83,10.93a12.7,12.7,0,0,1-.46,2.52C344.31,653.46,352.56,663.93,352.56,663.93Z"/></g><g class="cls-11"><path class="cls-22" d="M681.73,246a91.3,91.3,0,0,1-18.33,55c-1.2,1.61-2.45,3.16-3.76,4.68-.7.83-1.43,1.64-2.17,2.43-.37.42-.75.82-1.14,1.22a89.64,89.64,0,0,1-9.79,8.89l-.24.17a89.64,89.64,0,0,1-17.41,10.69h0a90.43,90.43,0,0,1-9.77,3.91l-1.23.39c-.75.26-1.53.49-2.3.7l-.31.1c-.39.11-.79.23-1.19.32a91.34,91.34,0,0,1-24.06,3.2c-1.35,0-2.76,0-4.14-.09a90.38,90.38,0,0,1-21.28-3.49h-.13c-1.28-.37-2.55-.76-3.81-1.2h-.13l-1.15-.4a89.66,89.66,0,0,1-12.68-5.61l-.26-.14L545.1,326a92.17,92.17,0,0,1-16.65-12l-.44-.42a84.46,84.46,0,0,1-7.84-8.1l-.28-.33c-.23-.26-.45-.52-.66-.79-.6-.7-1.17-1.43-1.73-2.15A91.75,91.75,0,1,1,681.73,246Z"/><path class="cls-23" d="M650,275.46s-19.9-1.69-29-14.35c-8.89-12.31-14.94-12.46-15.24-12.46h0c-.23-1.65-.39-3.21-.49-4.67v-.2a2.62,2.62,0,0,0,1.25.55c1.78.27,3.35-1.42,4.24-3.21a24.88,24.88,0,0,1,2.7-5.32c2.19-2.53,5.8-2.55,8.41-4.48a11.51,11.51,0,0,0,4-7.71,20.1,20.1,0,0,0,.16-3.38,36.84,36.84,0,0,0-.56-7.19c-.7-4.46-1.74-9-4.24-12.56s-7.38-4.28-9.81-7.61C600.06,177.27,592,182.22,582.17,177a15.67,15.67,0,0,0-6.26-2.28c-3.93-.23-7.44,2.58-10.6,5.25a30.28,30.28,0,0,0-5.39,5.4c-2.82,3.95-4.4,10.57-4.27,16.37a25.09,25.09,0,0,0,.62,6.41c.79,3.11,2.91,2.9,5.23,2.2A28,28,0,0,0,571,245.53V247a1.6,1.6,0,0,1,0,.31,63.18,63.18,0,0,1-.21,6.45c-.23.12-22,12.49-24.52,18.36s-11.62,10.12-11.62,10.12-10,5.4-14.84,22.34l.29.34a86,86,0,0,0,7.83,8.26l.45.43a91.48,91.48,0,0,0,16.65,12.14c.43.26.88.52,1.35.76l.25.13a88.56,88.56,0,0,0,12.69,5.71l1.14.42h.14c1.25.44,2.52.83,3.8,1.21h.14a89.26,89.26,0,0,0,21.28,3.54c1.35.07,2.7.09,4.14.09a90,90,0,0,0,24-3.11c.4-.1.79-.22,1.19-.33l.31-.09c.76-.22,1.55-.46,2.3-.72l1.23-.39a90.76,90.76,0,0,0,9.81-4h0a89.44,89.44,0,0,0,17.4-10.86l.25-.18a91,91,0,0,0,9.79-9c.39-.4.77-.81,1.14-1.24.74-.81,1.47-1.63,2.17-2.47,1.35-1.55,2.56-3.13,3.76-4.76C656.1,272.68,650,275.46,650,275.46Z"/><path class="cls-6" d="M581.17,298l-29-22.38s19.44,4.17,18.89-26.9v-.31a78.31,78.31,0,0,0-.68-9.27c-5-41.47,34.82-5,34.82-5a59.77,59.77,0,0,0,0,11v.3a77.11,77.11,0,0,0,8.29,29.29C624.28,295.55,581.17,298,581.17,298Z"/><path class="cls-7" d="M601.47,239.47c-4.92,4.79-7.93,13.5-15.34,13.5a27.27,27.27,0,0,1-15.07-4.52,80.34,80.34,0,0,0-.67-9.27c-5-41.47,34.82-5,34.82-5S601,232.73,601.47,239.47Z"/><circle class="cls-6" cx="586.13" cy="224.25" r="27.36"/><path class="cls-7" d="M559.89,189.21a30.05,30.05,0,0,1,5.4-5.29c3.16-2.63,6.66-5.39,10.59-5.15a16,16,0,0,1,6.26,2.24c9.78,5.15,17.89.28,29.26,15.61,2.43,3.28,7.3,4,9.81,7.49s3.53,8,4.24,12.36a30.46,30.46,0,0,1,.42,9,11.34,11.34,0,0,1-4,7.58c-2.62,1.9-6.22,1.92-8.42,4.41a25.08,25.08,0,0,0-2.7,5.22c-.89,1.76-2.45,3.42-4.23,3.16s-2.85-2.18-3.11-4a25.28,25.28,0,0,1,.34-5.76c.34-3.41-.09-7.13-2.1-9.71-1.35-1.77-3.38-2.82-4.71-4.62-3.21-4.33-1.76-11.6-5.28-15.62a8.35,8.35,0,0,0-8.09-2.25,34.57,34.57,0,0,0-8.1,3.48,59.28,59.28,0,0,1-11.08,4.27c-3.21.88-6.93,3-8-1.34C554.6,203.91,556.21,194.3,559.89,189.21Z"/><path class="cls-24" d="M559.89,187.86a29.67,29.67,0,0,1,5.4-5.28c3.16-2.64,6.66-5.4,10.59-5.16a16,16,0,0,1,6.26,2.24c9.78,5.16,17.89.28,29.26,15.61,2.43,3.28,7.3,4,9.81,7.49s3.53,8,4.24,12.36a30.46,30.46,0,0,1,.42,9,11.34,11.34,0,0,1-4,7.58c-2.62,1.9-6.22,1.92-8.42,4.41a24.91,24.91,0,0,0-2.7,5.23c-.89,1.75-2.45,3.41-4.23,3.15s-2.85-2.18-3.11-4.05a25.28,25.28,0,0,1,.34-5.76c.34-3.41-.09-7.13-2.1-9.71-1.35-1.77-3.38-2.82-4.71-4.62-3.21-4.33-1.76-11.6-5.28-15.62a8.35,8.35,0,0,0-8.09-2.25,34.57,34.57,0,0,0-8.1,3.48,60,60,0,0,1-11.08,4.28c-3.21.87-6.93,3-8-1.35C554.6,202.56,556.21,193,559.89,187.86Z"/><path class="cls-7" d="M613.5,312.44l.54,20.71a91.45,91.45,0,0,1-24.06,3.2c-1.35,0-2.77,0-4.14-.1a90.79,90.79,0,0,1-21.28-3.48h-.14c-1.28-.38-2.55-.77-3.8-1.2h-.14l-1.14-.4a89.2,89.2,0,0,1-12.69-5.62l-.25-.13-1.35-.74,2.09-27.92-3.33-19.14,18.24-12.43a31,31,0,0,0,3.43,4.15,22.75,22.75,0,0,0,6.23,4.62c13.09,6.45,28-3.81,35.39-10.15l1.69-1.49c1.91-1.75,3-2.93,3-2.93l9.12,14.08Z"/><path class="cls-15" d="M613.5,313.79,614,334.5A91.45,91.45,0,0,1,590,337.7c-1.35,0-2.77,0-4.14-.1a90.79,90.79,0,0,1-21.28-3.48h-.14c-1.28-.38-2.55-.77-3.8-1.2h-.14l-1.14-.4a89.2,89.2,0,0,1-12.69-5.62l-.25-.13-1.35-.74,2.09-27.92L543.81,279l18.24-12.42a31,31,0,0,0,3.43,4.15,23,23,0,0,0,6.23,4.62c13.09,6.45,28-3.81,35.39-10.15l1.69-1.5c1.91-1.74,3-2.92,3-2.92l9.12,14.08Z"/><path class="cls-9" d="M663.4,301c-1.2,1.61-2.45,3.16-3.76,4.68-.7.83-1.43,1.64-2.17,2.43-.37.42-.75.82-1.14,1.22a89.64,89.64,0,0,1-9.79,8.89l-.24.17a89.64,89.64,0,0,1-17.41,10.69h0a90.43,90.43,0,0,1-9.77,3.91l-1.23.39c-.75.26-1.53.49-2.3.7l-.31.1c-.39.11-.79.23-1.19.32a91.34,91.34,0,0,1-24.06,3.2c-1.35,0-2.76,0-4.14-.09-1-17.22-1.35-31,.3-34.59a57,57,0,0,1,3.33-6c6.67-10.71,18.89-26.82,18.23-28.86a20.94,20.94,0,0,1-.55-3c-.72-5.32-1.44-15-1.44-15h0c.3,0,6.35.15,15.24,12.27,9.12,12.44,29,14.1,29,14.1S656.1,273.76,663.4,301Z"/><path class="cls-9" d="M562.93,315.45s-1,7.95-2.31,17.44h-.14l-1.14-.4a90.29,90.29,0,0,1-12.69-5.61l-.25-.14-1.35-.74a91.82,91.82,0,0,1-16.65-12l-.45-.42a85.58,85.58,0,0,1-7.83-8.1l-.29-.33c4.82-16.72,14.84-22,14.84-22s9.12-4.16,11.62-10,24.53-18.07,24.53-18.07v.1c0,1,.35,10.55.88,20.12.33,6.22.75,12.46,1.24,16.43a18.85,18.85,0,0,0,.7,3.8C575.35,299.7,562.93,315.45,562.93,315.45Z"/></g><rect class="cls-25" x="241.36" y="295.09" width="163.83" height="79.8"/><rect class="cls-26" x="261.56" y="315.17" width="126.63" height="6.18"/><rect class="cls-9" x="283" y="334.73" width="65.89" height="6.18"/><g class="cls-11"><path class="cls-27" d="M293.43,79.86a34.78,34.78,0,0,1-7,21c-.45.61-.93,1.21-1.43,1.79-.27.31-.55.62-.83.92l-.43.47a34.36,34.36,0,0,1-3.74,3.39l-.09.07a34.48,34.48,0,0,1-6.64,4.07h0a36.3,36.3,0,0,1-3.73,1.5l-.47.15-.88.26-.12,0-.45.12a34.3,34.3,0,0,1-9.18,1.22c-.51,0-1.05,0-1.58,0a35,35,0,0,1-8.12-1.33h-.05l-1.45-.46h-.05l-.44-.15a34.8,34.8,0,0,1-4.84-2.15l-.09,0-.52-.28a34.8,34.8,0,0,1-6.35-4.57l-.17-.16a33.56,33.56,0,0,1-3-3.09l-.11-.13a3.61,3.61,0,0,1-.25-.3c-.23-.26-.44-.54-.66-.82a35,35,0,1,1,62.65-21.47Z"/><path class="cls-28" d="M281.32,91.12s-7.59-.65-11.07-5.47-5.7-4.76-5.81-4.76h0c-.09-.63-.15-1.23-.19-1.78V79a1,1,0,0,0,.48.21c.68.1,1.27-.54,1.61-1.22a9.45,9.45,0,0,1,1-2c.84-1,2.22-1,3.21-1.71a4.41,4.41,0,0,0,1.55-2.94,9.29,9.29,0,0,0,.06-1.29A14.11,14.11,0,0,0,272,67.3a11.26,11.26,0,0,0-1.61-4.79c-.95-1.34-2.82-1.63-3.74-2.9-4.34-6-7.44-4.06-11.17-6.06a6,6,0,0,0-2.39-.87c-1.5-.09-2.83,1-4,2A11.81,11.81,0,0,0,247,56.74,11.16,11.16,0,0,0,245.34,63a9.61,9.61,0,0,0,.23,2.45c.3,1.18,1.11,1.1,2,.84A10.7,10.7,0,0,0,251.2,79.7v.66c0,.82,0,1.64-.08,2.46-.09.05-8.41,4.77-9.36,7s-4.43,3.86-4.43,3.86-3.83,2-5.66,8.52l.11.13a31.75,31.75,0,0,0,3,3.15l.17.16a34.82,34.82,0,0,0,6.35,4.64l.51.28.1.06a33.28,33.28,0,0,0,4.84,2.17l.44.16h0c.48.17,1,.32,1.45.47h0a34.38,34.38,0,0,0,8.12,1.35c.52,0,1,0,1.58,0a34.05,34.05,0,0,0,9.15-1.19c.16,0,.31-.08.46-.12l.11,0c.3-.08.6-.17.89-.27l.46-.15a33.81,33.81,0,0,0,3.75-1.52h0a34.85,34.85,0,0,0,6.64-4.15l.09-.06a34.91,34.91,0,0,0,3.74-3.45c.14-.15.29-.31.43-.48s.56-.62.83-.94c.51-.59,1-1.19,1.43-1.82C283.66,90.06,281.32,91.12,281.32,91.12Z"/><path class="cls-6" d="M255.07,99.73,244,91.19s7.42,1.6,7.2-10.26a.24.24,0,0,0,0-.12,31.08,31.08,0,0,0-.25-3.53c-1.9-15.82,13.28-1.9,13.28-1.9a22.77,22.77,0,0,0,0,4.21v.11a29.53,29.53,0,0,0,3.16,11.18C271.52,98.78,255.07,99.73,255.07,99.73Z"/><path class="cls-7" d="M262.82,77.39c-1.88,1.83-3,5.15-5.86,5.15a10.43,10.43,0,0,1-5.75-1.73,31.08,31.08,0,0,0-.25-3.53c-1.9-15.82,13.28-1.9,13.28-1.9S262.62,74.82,262.82,77.39Z"/><circle class="cls-6" cx="256.96" cy="71.58" r="10.44"/><path class="cls-7" d="M247,58.21a11.53,11.53,0,0,1,2.06-2c1.21-1,2.54-2.06,4-2a6,6,0,0,1,2.39.85c3.73,2,6.83.11,11.17,6,.92,1.25,2.78,1.54,3.74,2.86A10.83,10.83,0,0,1,272,68.61a11.42,11.42,0,0,1,.16,3.45A4.3,4.3,0,0,1,270.58,75c-1,.73-2.37.74-3.21,1.69a9.39,9.39,0,0,0-1,2c-.34.67-.94,1.3-1.62,1.2s-1.08-.83-1.18-1.54a9.54,9.54,0,0,1,.13-2.2,5.27,5.27,0,0,0-.81-3.7c-.51-.68-1.28-1.08-1.79-1.76-1.23-1.66-.67-4.43-2-6A3.18,3.18,0,0,0,256,63.8a13.23,13.23,0,0,0-3.09,1.33,22.83,22.83,0,0,1-4.23,1.63c-1.22.34-2.64,1.14-3.06-.51A10.89,10.89,0,0,1,247,58.21Z"/><path class="cls-29" d="M247,57.7a11.59,11.59,0,0,1,2.06-2c1.21-1,2.54-2.06,4-2a6,6,0,0,1,2.39.85c3.73,2,6.83.11,11.17,6,.92,1.25,2.78,1.54,3.74,2.85A10.92,10.92,0,0,1,272,68.1a11.41,11.41,0,0,1,.16,3.45,4.3,4.3,0,0,1-1.54,2.89c-1,.73-2.37.73-3.21,1.68a9.39,9.39,0,0,0-1,2c-.34.67-.94,1.31-1.62,1.21a1.66,1.66,0,0,1-1.18-1.55,9.45,9.45,0,0,1,.13-2.19,5.29,5.29,0,0,0-.81-3.71c-.51-.67-1.28-1.08-1.79-1.76-1.23-1.65-.67-4.43-2-6a3.18,3.18,0,0,0-3.08-.86,13.23,13.23,0,0,0-3.09,1.33,22.83,22.83,0,0,1-4.23,1.63c-1.22.33-2.64,1.14-3.06-.52A10.87,10.87,0,0,1,247,57.7Z"/><path class="cls-7" d="M267.4,105.23l.21,7.9a35.12,35.12,0,0,1-9.18,1.22c-.51,0-1.05,0-1.58,0a34.44,34.44,0,0,1-8.12-1.33h0c-.49-.14-1-.29-1.45-.45h0l-.44-.16a34.74,34.74,0,0,1-4.84-2.14l-.1,0-.51-.28.8-10.65-1.27-7.31,7-4.74a13.08,13.08,0,0,0,1.3,1.59,9,9,0,0,0,2.38,1.76c5,2.46,10.68-1.46,13.5-3.87l.65-.58c.73-.66,1.14-1.11,1.14-1.11l3.48,5.37Z"/><path class="cls-15" d="M267.4,105.74l.21,7.9a34.3,34.3,0,0,1-9.18,1.22c-.51,0-1.05,0-1.58,0a35,35,0,0,1-8.12-1.33h0c-.49-.15-1-.29-1.45-.46h0l-.44-.15a34.8,34.8,0,0,1-4.84-2.15l-.1,0-.51-.28.8-10.65-1.27-7.3,7-4.75a11.71,11.71,0,0,0,1.3,1.59,8.76,8.76,0,0,0,2.38,1.76c5,2.46,10.68-1.45,13.5-3.87l.65-.57c.73-.67,1.14-1.12,1.14-1.12l3.48,5.38Z"/><path class="cls-9" d="M286.44,100.85c-.45.61-.93,1.21-1.43,1.79-.27.31-.55.62-.83.92l-.43.47a34.36,34.36,0,0,1-3.74,3.39l-.09.07a34.48,34.48,0,0,1-6.64,4.07h0a36.3,36.3,0,0,1-3.73,1.5l-.47.15-.88.26-.12,0-.45.12a34.3,34.3,0,0,1-9.18,1.22c-.51,0-1.05,0-1.58,0-.4-6.57-.51-11.84.11-13.2a22,22,0,0,1,1.28-2.27c2.54-4.09,7.2-10.24,6.95-11a7.63,7.63,0,0,1-.21-1.16c-.27-2-.55-5.74-.55-5.74h0c.12,0,2.42.06,5.82,4.68s11.07,5.38,11.07,5.38S283.66,90.47,286.44,100.85Z"/><path class="cls-9" d="M248.11,106.37s-.38,3-.88,6.66h0l-.44-.15a34.8,34.8,0,0,1-4.84-2.15l-.1,0-.51-.28a34.8,34.8,0,0,1-6.35-4.57l-.17-.16a32.3,32.3,0,0,1-3-3.09l-.11-.13c1.84-6.38,5.66-8.38,5.66-8.38s3.48-1.59,4.43-3.8,9.36-6.89,9.36-6.89v0c0,.4.14,4,.34,7.68.13,2.37.28,4.75.47,6.27a7.26,7.26,0,0,0,.27,1.45C252.85,100.37,248.11,106.37,248.11,106.37Z"/></g><g class="cls-11"><path class="cls-30" d="M0,184.44a76,76,0,0,0,15.25,45.79q1.5,2,3.13,3.89c.59.69,1.19,1.36,1.81,2,.31.34.62.68.94,1a76.21,76.21,0,0,0,8.15,7.4l.21.14A74.7,74.7,0,0,0,44,253.6h0a76.94,76.94,0,0,0,8.13,3.25l1,.33c.63.21,1.28.4,1.92.58l.26.08c.33.09.65.19,1,.27a76.09,76.09,0,0,0,20,2.66c1.12,0,2.3,0,3.45-.08a75.5,75.5,0,0,0,17.71-2.9h.11c1.06-.31,2.12-.64,3.16-1h.12l1-.34a74.17,74.17,0,0,0,10.56-4.67l.21-.12,1.12-.61a76.5,76.5,0,0,0,13.86-10l.37-.35a70.33,70.33,0,0,0,6.52-6.74l.24-.28c.19-.21.37-.43.55-.65.49-.59,1-1.19,1.44-1.8A76.36,76.36,0,1,0,0,184.44Z"/><path class="cls-31" d="M26.42,209s16.56-1.4,24.15-11.93C58,186.81,63,186.68,63.25,186.68h0c.19-1.37.33-2.67.42-3.88v-.17a2.31,2.31,0,0,1-1.05.46c-1.48.22-2.78-1.18-3.52-2.67A21,21,0,0,0,56.85,176c-1.83-2.11-4.83-2.12-7-3.72a9.67,9.67,0,0,1-3.36-6.43,17.52,17.52,0,0,1-.14-2.8,30.84,30.84,0,0,1,.47-6c.59-3.72,1.45-7.52,3.53-10.45s6.14-3.56,8.16-6.34c9.47-13,38.87,2.82,38.75,7.65.07,1.79-.68,3.33-1.09,5.08-.65,2.58,5.83,2.4,3.9,1.81a23.33,23.33,0,0,1-7.93,29.29v1.44a53.23,53.23,0,0,0,.18,5.36c.19.1,18.35,10.4,20.4,15.29s9.67,8.42,9.67,8.42,8.37,4.49,12.35,18.59l-.23.28a71.9,71.9,0,0,1-6.53,6.88l-.37.35a76.33,76.33,0,0,1-13.85,10.11c-.36.21-.73.43-1.13.63l-.21.11a73.37,73.37,0,0,1-10.55,4.75l-1,.35h-.11c-1,.37-2.1.7-3.17,1h-.11A74.36,74.36,0,0,1,79.8,260.6c-1.12.06-2.24.08-3.44.08a74.78,74.78,0,0,1-20-2.59c-.34-.08-.66-.18-1-.27l-.26-.08c-.64-.18-1.29-.38-1.92-.6l-1-.32A75,75,0,0,1,44,253.49h0a74.16,74.16,0,0,1-14.49-9l-.2-.14a76.36,76.36,0,0,1-8.15-7.52c-.32-.33-.64-.68-.94-1-.62-.67-1.23-1.36-1.81-2.05-1.12-1.29-2.13-2.61-3.13-4C21.32,206.68,26.42,209,26.42,209Z"/><path class="cls-6" d="M83.69,227.79l24.15-18.63s-16.18,3.47-15.72-22.39v-.26a67.72,67.72,0,0,1,.56-7.71c4.15-34.51-29-4.14-29-4.14a48.54,48.54,0,0,1,0,9.18v.25a64.21,64.21,0,0,1-6.89,24.38C47.81,225.71,83.69,227.79,83.69,227.79Z"/><path class="cls-7" d="M66.79,179.05c4.1,4,6.6,11.23,12.77,11.23a22.57,22.57,0,0,0,12.54-3.77,65.5,65.5,0,0,1,.56-7.71c4.14-34.51-29-4.14-29-4.14S67.23,173.43,66.79,179.05Z"/><circle class="cls-6" cx="79.56" cy="166.38" r="22.77"/><path class="cls-32" d="M102,144.28c-1.31-1.65-10.88-16-19.09-15-26.23,0-30.43,16.36-32.52,19.22s-2.93,6.63-3.52,10.29c-.5,2.48,1.11,12.25,3,13.83,2.17,1.59,5.17,1.6,7,3.68a20.31,20.31,0,0,1,2.25,4.34c.74,1.46,2,2.84,3.52,2.63s2.37-1.82,2.59-3.37a20.9,20.9,0,0,0-.28-4.8c-.28-2.84-3.09-2.55-1.42-4.69,1.12-1.47,2.88-10.84,4-12.33,2.67-3.61,12.76-7.06,14.87-5.81,3,1.49,17.59,8,18.5,4.36C102.31,151.32,105,148.52,102,144.28Z"/><path class="cls-7" d="M56.78,239.77,56.33,257a76.11,76.11,0,0,0,20,2.66c1.12,0,2.3,0,3.44-.08a75.41,75.41,0,0,0,17.71-2.9h.11c1.07-.31,2.13-.64,3.17-1h.11l1-.33a74.05,74.05,0,0,0,10.55-4.67l.21-.12,1.13-.61L112,226.72l2.77-15.93L99.6,200.45a27,27,0,0,1-2.85,3.46,19.38,19.38,0,0,1-5.19,3.84c-10.89,5.37-23.29-3.17-29.45-8.45l-1.41-1.24c-1.59-1.45-2.5-2.44-2.5-2.44l-7.59,11.72Z"/><path class="cls-15" d="M56.78,240.9l-.45,17.23a76.11,76.11,0,0,0,20,2.66c1.12,0,2.3,0,3.44-.08a75.4,75.4,0,0,0,17.71-2.89h.11c1.07-.32,2.13-.64,3.17-1h.11l1-.34a74.05,74.05,0,0,0,10.55-4.67l.21-.11,1.13-.62L112,227.85l2.77-15.94L99.6,201.57A27,27,0,0,1,96.75,205a19.17,19.17,0,0,1-5.19,3.84c-10.89,5.37-23.29-3.17-29.45-8.44l-1.41-1.25c-1.59-1.45-2.5-2.44-2.5-2.44l-7.59,11.73Z"/><path class="cls-9" d="M15.25,230.23q1.5,2,3.13,3.89c.59.69,1.19,1.36,1.81,2,.31.34.62.68.94,1a76.21,76.21,0,0,0,8.15,7.4l.21.14A74.7,74.7,0,0,0,44,253.6h0a76.94,76.94,0,0,0,8.13,3.25l1,.33c.63.21,1.28.4,1.92.58l.26.08c.33.09.65.19,1,.27a76.09,76.09,0,0,0,20,2.66c1.12,0,2.3,0,3.45-.08.87-14.33,1.12-25.82-.25-28.78a47.18,47.18,0,0,0-2.77-5c-5.55-8.92-15.72-22.32-15.17-24A17.88,17.88,0,0,0,62,200.4c.59-4.42,1.19-12.52,1.19-12.52h0c-.25,0-5.28.13-12.68,10.21C43,208.44,26.39,209.83,26.39,209.83S21.32,207.58,15.25,230.23Z"/><path class="cls-9" d="M98.87,242.28s.83,6.61,1.92,14.52h.11l1-.34a74.05,74.05,0,0,0,10.55-4.67l.21-.12,1.13-.61a76.43,76.43,0,0,0,13.85-10l.37-.35A71.66,71.66,0,0,0,134.5,234l.23-.28c-4-13.91-12.35-18.29-12.35-18.29s-7.59-3.46-9.67-8.29-20.41-15-20.41-15v.08c0,.86-.29,8.78-.73,16.74-.28,5.17-.63,10.37-1,13.67a16.11,16.11,0,0,1-.59,3.17C88.53,229.17,98.87,242.28,98.87,242.28Z"/></g></g></g></svg>