<svg xmlns="http://www.w3.org/2000/svg" xmlns:xlink="http://www.w3.org/1999/xlink" viewBox="0 0 707.87 393.65"><defs><style>.cls-1{fill:#0b0b0c;}.cls-2{fill:#f2f2f2;}.cls-3{opacity:0.1;}.cls-28,.cls-3{isolation:isolate;}.cls-4{fill:#2b2b2b;}.cls-5{fill:#fafafc;}.cls-6{fill:#e2da8d;}.cls-7{fill:#a3ccc5;}.cls-8{fill:#0848af;}.cls-9{fill:url(#linear-gradient);}.cls-10{fill:#65617d;}.cls-11{fill:#eebfa5;}.cls-12{fill:#fbbebe;}.cls-13{fill:#c8c9cc;}.cls-14{fill:#e7effd;}.cls-15{fill:#3f240a;}.cls-16,.cls-28{opacity:0.2;}.cls-17{fill:#ffb9b9;}.cls-18{fill:#a0a2a3;}.cls-19{fill:#020202;}.cls-20{fill:#fff;}.cls-21{fill:#454a59;}.cls-22{fill:#663c0e;}.cls-23{fill:#2f2e41;}.cls-24{fill:#3d240e;}.cls-25{fill:#242c77;}.cls-26{fill:#232323;}.cls-27{fill:#8ec0fb;}.cls-29{fill:#444053;}.cls-30{fill:#30260e;}.cls-31{fill:#e2e2e2;}.cls-32{fill:#3f3d56;}</style><linearGradient id="linear-gradient" x1="392.96" y1="10260.23" x2="392.96" y2="10472.07" gradientTransform="matrix(1, 0, 0, -1, -28, 10652.82)" gradientUnits="userSpaceOnUse"><stop offset="0" stop-color="gray" stop-opacity="0.25"/><stop offset="0.54" stop-color="gray" stop-opacity="0.12"/><stop offset="1" stop-color="gray" stop-opacity="0.1"/></linearGradient></defs><title>medics-screen</title><g id="Layer_2" data-name="Layer 2"><g id="Capa_1" data-name="Capa 1"><rect class="cls-1" x="362.96" width="248.99" height="203.69"/><path class="cls-2" d="M553.79,366.29c0,8.81-116.36,27.36-259.9,27.36S34,375.1,34,366.29s116.36-4.56,259.89-4.56S553.79,357.48,553.79,366.29Z"/><path class="cls-2" d="M553.79,366.29c0,8.81-124,27.36-276.9,27.36S0,375.1,0,366.29s124-4.56,276.89-4.56S553.79,357.48,553.79,366.29Z"/><ellipse class="cls-2" cx="394.87" cy="366.29" rx="313" ry="15.96"/><ellipse class="cls-3" cx="295.6" cy="360.59" rx="104.87" ry="9.69"/><rect class="cls-4" x="237.76" y="289.35" width="133.08" height="75.23"/><rect class="cls-5" x="367.2" y="3.81" width="239.94" height="196.64"/><path class="cls-6" d="M461.14,88.16H431.51a103.24,103.24,0,0,1,0-35.33h29.63A63.54,63.54,0,0,0,461.14,88.16Z"/><path class="cls-7" d="M544,88.16H514.34a103.24,103.24,0,0,1,0-35.33H544A63.54,63.54,0,0,0,544,88.16Z"/><path class="cls-8" d="M419.06,56.53H389.43a103.8,103.8,0,0,1,0-35.34h29.63A63.76,63.76,0,0,0,419.06,56.53Z"/><path class="cls-6" d="M472.07,64.22h29.64a103.75,103.75,0,0,0,0-35.33H472.07A63.54,63.54,0,0,1,472.07,64.22Z"/><path class="cls-8" d="M549.3,58.24h29.63a103.3,103.3,0,0,0,0-35.34H549.3A63.3,63.3,0,0,1,549.3,58.24Z"/><path class="cls-9" d="M426.64,330.41s-13,3.14-18.12,9a17.41,17.41,0,0,1-6.9,4.39v-8.87c3-5,6-10.53,6-10.53.13-.28,1.21-4.1,1.21-4.1,2.44-1.91-.13-8.6-.13-8.6s1.49-4.23.68-5-.14-3,.54-4a5,5,0,0,0,.54-3c0-.82-1.08-2.05-2.84-2.73s.13-1.78,1.21-2.05,1.36-2.87.14-4.23.14-2.19.81-3.69-2.16-1.23-2.16-1.23V272h0s-.81-4.51-1.62-12.43-3.92-8.73-3.92-8.73a35.19,35.19,0,0,1-4.87-1.92A34.86,34.86,0,0,0,392,247a26.42,26.42,0,0,1-6.62-.91,20,20,0,0,0-4.52-1l-.49-.24a17.68,17.68,0,0,1-8.2-8.69c-.09-.19-.16-.38-.24-.56a19.42,19.42,0,0,0,2.16-2.87l0,0v.59c0,.34,0,.68,0,1h0v0c2.16-3.81,8.41-4.68,9-9,0-.2,0-.4,0-.6v0c0-.15,0-.3,0-.44-.08-1.22-.5-2.42-.58-3.65a7.36,7.36,0,0,1,0-1.05h0c.28-3.37,2.83-6.31,4-9.59a11.6,11.6,0,0,0,.61-2.73v0c0-.29.05-.57.06-.85a1.48,1.48,0,0,1,0-.21c0-.2,0-.39,0-.59a12.76,12.76,0,0,0-4.22-9.23c-2.15-1.87-5-3.05-6.49-5.49-.7-1.14-1-2.48-1.8-3.58-1.43-2.07-4.05-2.91-6.54-3.21s-5-.2-7.41-1c-1.68-.56-3.21-1.53-4.92-2a9.43,9.43,0,0,0-10.1,3.64c-.89,1.31-1.48,2.88-2.69,3.9-2.48,2.09-6.68,1.19-8.85,3.6-1.19,1.33-1.33,3.13-1.18,5v.07c0,.14,0,.28,0,.43a1.23,1.23,0,0,1,0,.2l0,.21c.07.66.17,1.32.25,2,0,.09,0,.19,0,.29l.06.59c0,.14,0,.29,0,.43s0,.36,0,.54,0,.28,0,.42a29,29,0,0,1-3.1,14.56c-2,4-5.08,7.71-5.61,12.2a13.57,13.57,0,0,0-.06,2.21c0,.08,0,.17,0,.26s0,.26,0,.4,0,.3.05.45l0,.26.09.61,0,.13c.53,3.05,1.75,6.07,2.4,9.13A25.26,25.26,0,0,1,328,246v0c0,.37.05.74.05,1.11s0,1,0,1.5a22.52,22.52,0,0,1-3.15,1c-1.89.27-7.43,5.19-7,6.41s-2.48,9.85-2.56,10.1h0l-4.56,31.39s-2.4,2.32-1.65,3.83-.15,4.09-.15,4.09-4.07,1.78-3.16,2.87.49,3.14-.13,4.5-1.64,3.83,0,4.24.28,5.73.28,5.73,5.7-.66,5.28,2.73c-.13,1.08,4,4,5.72,5.23V347a49.78,49.78,0,0,1-6.76-2.29c-3.52-1.64-23.25-4.78-27.58,4.64s5.95,22,8.52,23.34a17.45,17.45,0,0,1,3,2.87c.54,1,3.65,1.23,3.65,1.23a22.82,22.82,0,0,1,4.06,2.32c.6.6,5.54,2.17,11.4,3.39h0s-4.74,10.9,3,10,11.48-4.7,16.92-4.7c2.18,0,6.22-.3,10.28-.67a26,26,0,0,1,3,.72,39.47,39.47,0,0,0,7,1.5s6.09,3.27,9.33,2.46a2.31,2.31,0,0,0,.74-.4h.07a4.39,4.39,0,0,0,2-1.68c4.06.42,8.68,1,10.42,1.68,3.36,1.3,27.41-.5,27.41-.5s-2.78-2.89,1.67-1.54,9.1-11.39.89-13.09c-2.2-.42,7.64.22,5.4.25a14.69,14.69,0,0,0,1.55-1.89l4.91-.44s7.84-3.82,12.3-6.14a28.22,28.22,0,0,0,7.57-6s3.92-2.46,5.54-3.42,2.43-4.09,2.43-4.09C457.86,326.73,426.64,330.41,426.64,330.41Zm-35.2-34.93V294.1c.43.31.37.8,0,1.38Zm.13,9.65c.32.43.64.83.87,1.12.87,1.12-.71,1.67-.59,3.54,0,.43.06,1,.1,1.66h0c-.17-2.69-.3-4.92-.38-6.32Z"/><path class="cls-1" d="M321.2,348.22s-7.57-1.76-11.08-3.38-23.25-4.73-27.58,4.59,5.95,21.77,8.52,23.12,27.57-17.17,27.57-17.17l19.74,8.31,3.78-12.9Z"/><rect class="cls-10" x="329.55" y="350.79" width="85.87" height="29.87" rx="13.75"/><path class="cls-1" d="M415.42,365.72a14.94,14.94,0,0,1-14.94,14.94h-56a14.94,14.94,0,0,1,0-29.87h56a14.93,14.93,0,0,1,14.94,14.93Z"/><path class="cls-11" d="M368.66,366.59s-8.6,2.22-15.63,2.12-39.89,13.55-39.89,13.55-4.74,10.79,3,9.9,11.48-4.65,16.92-4.65,22.56-1.88,22.56-1.88l16.48-12.17Z"/><path class="cls-11" d="M374.06,264.82l-15.45,3-1,.2s-12.21-3.24-12.62-3.52-11.49-15.2-11.49-15.2a22.35,22.35,0,0,0,10-2.48l.47-.28a9.73,9.73,0,0,0,4.17-5.11c.08-.22.15-.45.22-.69a13.85,13.85,0,0,0-.13-6.65c-1.5-6.3,2-8,6.57-7.89,6.66.22,15.73,4.38,15.73,4.38a18.69,18.69,0,0,0,1.42,6.16l.24.55a17.56,17.56,0,0,0,8.2,8.61l.49.24c.49.23,1,.46,1.55.66C394.2,251.3,374.06,264.82,374.06,264.82Z"/><path class="cls-3" d="M372.2,237.33a19.46,19.46,0,0,1-24.05,4.14,13.09,13.09,0,0,0,.09-7.34c-3.65-15.41,22.3-3.51,22.3-3.51A18.56,18.56,0,0,0,372.2,237.33Z"/><path class="cls-11" d="M377.07,223.64a19.48,19.48,0,0,1-18.29,19.43c-.39,0-.78,0-1.17,0a19.47,19.47,0,1,1,19.46-19.47Z"/><path class="cls-3" d="M374.06,264.82l-15.45,3-1,.2s-12.21-3.24-12.62-3.52-11.49-15.2-11.49-15.2a22.35,22.35,0,0,0,10-2.48l.47-.28a18.12,18.12,0,0,0,13.17,5.76,19.48,19.48,0,0,0,2.75-.22c2.18-.33,4.37-.55,6.55-.78,4.19-.43,10.59-1.7,13.95-5.4l.49.24c.49.23,1,.46,1.55.66C394.2,251.3,374.06,264.82,374.06,264.82Z"/><path class="cls-6" d="M391.49,304.28c.14,3,2.3,36.5,2.3,36.5H326.34l.46-21.1.37-16.88.12-5.54.54-19.2-1.95-1.72L315.25,267h0c.08-.25,3-8.79,2.56-10s5.14-6.09,7-6.36a24.66,24.66,0,0,0,3.17-1c3.19-1.12,7.45-2.77,7.92-2.51.66.35,7.29-.26,7.57-.29h0a18.09,18.09,0,0,0,13.63,6.29,19.48,19.48,0,0,0,2.75-.22c2.18-.33,4.37-.55,6.55-.78,4.4-.45,11.23-1.83,14.44-6a20,20,0,0,1,4.52,1,27,27,0,0,0,6.62.91,33.64,33.64,0,0,1,5.14,1.88,35.09,35.09,0,0,0,4.87,1.9s3.11.81,3.92,8.65,1.62,12.3,1.62,12.3l-16.09,13.92S391.36,301.31,391.49,304.28Z"/><polygon class="cls-12" points="315.25 327.67 317.62 331.46 326.47 334.58 332.56 323.48 326.95 319.69 317.96 316.18 312.82 319.15 315.25 327.67"/><path class="cls-1" d="M390.82,346.32s12.57-.94,17.7-6.75,18.12-8.93,18.12-8.93,31.22-3.65,18.92,23.93c0,0-.81,3.11-2.43,4.06s-5.54,3.37-5.54,3.37l-48-4.19Z"/><path class="cls-3" d="M415.42,365.72a14.9,14.9,0,0,1-2.49,8.26c-8.07.71-25.94,2.39-29.68,3.44-4.6,1.27-13.89-.95-14.91-1.2l-.1,0s-1.79-5.44-2.64-8.92c-.39-1.58-.58-2.76-.33-2.84.81-.27,8.25-2.3,8.11-1.15s22.3-8.72,22.3-8.72l.69,8.65C398.66,365.84,415.42,362,415.42,365.72Z"/><path class="cls-1" d="M438.53,358.49l-.94,3.51A28,28,0,0,1,430,368c-4.46,2.3-12.3,6.09-12.3,6.09s-28.8,2.43-33.66,3.78-15-1.22-15-1.22-3.78-11.49-3-11.76,8.25-2.29,8.11-1.15,22.3-8.71,22.3-8.71Z"/><path class="cls-11" d="M348.37,388.79s12.24-.35,15.6.94,29.33.84,29.33.84,9.3-1.67,13.76-.34,9.1-11.63.88-13.31-19.79.79-19.79.79l-14.64-1.88c-1.59-.2-12,.1-12,.1Z"/><path class="cls-3" d="M302.76,351.49s18.71,1.68,23.85,4.75Z"/><path class="cls-3" d="M419.43,339.22S404.78,342.78,399,348Z"/><path class="cls-3" d="M303.85,347.23c.3.1,8.61,1.19,8.41,2S303.85,347.23,303.85,347.23Z"/><path class="cls-3" d="M290.79,368.09l1.08,4.05a17.37,17.37,0,0,1,3,2.84c.54.95,3.65,1.22,3.65,1.22a22.43,22.43,0,0,1,4.06,2.3c.81.81,9.6,3.38,17.84,4.46s23.52,3.11,26.77,4.19a38.29,38.29,0,0,0,7,1.48s6.09,3.25,9.33,2.44,8.79-15.55,8.79-15.55-21.36-5-22-6.62S329,359.71,329,359.71l-12.16.29Z"/><path class="cls-1" d="M290,368.49l1.08,4.06a17,17,0,0,1,3,2.84c.54.94,3.65,1.21,3.65,1.21a23.07,23.07,0,0,1,4.06,2.3c.81.81,9.59,3.38,17.84,4.46s23.52,3.11,26.76,4.19a39.45,39.45,0,0,0,7,1.49s6.09,3.24,9.33,2.43,8.79-15.54,8.79-15.54-21.36-5-22-6.63-30.82-13.92-30.82-13.92l-9.46-2.16Z"/><path class="cls-6" d="M317.62,265.63,315.25,267l-4.56,31.09s-2.4,2.3-1.65,3.78-.15,4.06-.15,4.06-4.07,1.76-3.16,2.84.49,3.11-.13,4.46-1.64,3.78,0,4.19.28,5.67.28,5.67,5.7-.64,5.28,2.71c-.16,1.35,6.46,5.68,6.46,5.68S310.09,317.8,327,319.7l1.45-7.7s1.45-4.33,0-5.69.32-7.77.32-7.77l.32-27.91Z"/><path class="cls-3" d="M314,305.77c.29.5,9.4,1.51,10,3.13S314,305.77,314,305.77Z"/><path class="cls-3" d="M311.08,313.49s1.23-3.86,4.17-3.16S311.08,313.49,311.08,313.49Z"/><path class="cls-3" d="M309.49,319.13s2.18-5.14,5.15-4.75S309.49,319.13,309.49,319.13Z"/><path class="cls-11" d="M408.52,319l-.94,5.68s-9.73,17.84-11.49,18.11-11.36-11.9-11.36-11.9L382.17,319l10.11-1.92,4.48-4.43S408.12,313.75,408.52,319Z"/><path class="cls-6" d="M403.93,270.22l3.65,2.57v13.65s2.84-.27,2.16,1.22-2,2.3-.81,3.65.95,3.92-.14,4.19-3,1.35-1.21,2,2.84,1.89,2.84,2.7a4.86,4.86,0,0,1-.54,3c-.68.95-1.36,3.11-.54,3.92s-.68,5-.68,5,2.57,6.62.13,8.51c0,0-1.08,3.79-1.21,4.06,0,0,1.7-13.16-15.3-7.6,0,0-.32-5-.43-6.87s1.46-2.4.59-3.51-3.06-3.65-2-4.33.68-1.89.27-2.84-1.84-.94-.54-2.09,2.06-2.23,1.3-2.77-2.08-2.3-1-3.11S391.49,279,391.49,279,395.82,261.71,403.93,270.22Z"/><path class="cls-3" d="M402.21,293.48s5.2-1.41,5.37,0S402.21,293.48,402.21,293.48Z"/><path class="cls-3" d="M396.37,297.36s7.13-1.78,8-.39S396.37,297.36,396.37,297.36Z"/><path class="cls-3" d="M394.79,301.12s10.68-1.48,11.38.7S394.79,301.12,394.79,301.12Z"/><path class="cls-3" d="M396.37,305.77c.4.1,10.29.8,10.49,2.68S396.37,305.77,396.37,305.77Z"/><path class="cls-13" d="M325.55,307.31h67.39c4.79,0,8.68,4.25,8.68,9.49v33.7c0,5.25-3.89,9.5-8.68,9.5H325.55c-4.79,0-8.67-4.25-8.67-9.5V316.8C316.88,311.56,320.76,307.31,325.55,307.31Z"/><circle class="cls-14" cx="359.25" cy="335.93" r="3.13"/><path class="cls-3" d="M331.07,282.37s8.12,6.21,14.4,1.48C345.47,283.85,334.86,284.81,331.07,282.37Z"/><path class="cls-3" d="M372.2,284s8.12,6.2,14.4,1.47C386.6,285.51,376,286.48,372.2,284Z"/><path class="cls-3" d="M377.07,223.64a19.22,19.22,0,0,1-2.95,10.3,29.73,29.73,0,0,0-4.38-15.37c-2.7-4.14-10.91-11.42-16.56-9.39a4,4,0,0,0-2.46,2.65c-.56,2.13,1.08,3,2.13,4.7a14.37,14.37,0,0,1,2,9.71,12.44,12.44,0,0,1-.28,1.35c-.89,3.33-2.92,7.15-.82,9.89,1.46,1.9,4.61,2.56,5,4.92a2.52,2.52,0,0,1,0,.67c-.09,1.59-1.45,3-2,4.56a7.48,7.48,0,0,0,.41,5.52c.94,2.41,2.44,4.85,2.8,7.4s-.42,4.91-1.34,7.31a32.72,32.72,0,0,0-2.23,6.88c-.65,4.5,1,9.69-1.83,13.24a2,2,0,0,1-1.24.84c-1.81.19-1.51-3.07-3-4.16a12.7,12.7,0,0,1-.39,5.63c-.69,1.78-2.47,3.28-4.35,3-.21-1.41-.43-2.83-.64-4.25a12.33,12.33,0,0,1-4.5,2.82,32.84,32.84,0,0,1,4.69-12.72c-4.76,2.29-7.53,7.25-10,11.92-1.55,2.91-3.14,6.1-2.6,9.36.22,1.32.79,2.58.91,3.92a3.27,3.27,0,0,1-1.6,3.41,2.92,2.92,0,0,1-3.14-1c0-.05-.09-.1-.13-.16l-.22-.3c-.13-.21-.25-.42-.36-.64a12.78,12.78,0,0,1-.76-2.49l-.08-.36c-1.26-5.53-2.4-11.23-1.48-16.82a31.87,31.87,0,0,0,.89-6.18,11.4,11.4,0,0,0-.7-3.46c-1.11-3.09-3.23-5.93-4.44-9a.13.13,0,0,1,0-.07c-.64-1.65-1-3.71.22-5a10.11,10.11,0,0,1,2.26-1.53c2.35-1.54,3.41-4.44,3.84-7.22a22.87,22.87,0,0,0,.29-3.79c3.19-1.12,7.45-2.77,7.92-2.51.66.35,7.29-.26,7.57-.29a9.88,9.88,0,0,0,4.64-5.39c.08-.22.15-.45.22-.69a19.47,19.47,0,1,1,28.7-17.14Z"/><path class="cls-15" d="M354.53,226.78c-.89,3.33-2.92,7.15-.82,9.88,1.46,1.91,4.61,2.57,5,4.93.34,1.88-1.33,3.45-2,5.23-1.61,4.25,2.57,8.42,3.21,12.92.69,4.87-2.86,9.32-3.57,14.19-.65,4.49,1,9.69-1.84,13.24a2,2,0,0,1-1.23.84c-1.81.19-1.51-3.07-3-4.16a12.7,12.7,0,0,1-.39,5.63c-.68,1.78-2.47,3.28-4.35,3l-.64-4.25a12.33,12.33,0,0,1-4.5,2.82,32.79,32.79,0,0,1,4.69-12.72c-4.76,2.29-7.53,7.25-10,11.92-1.55,2.91-3.14,6.1-2.6,9.35.22,1.33.79,2.59.91,3.93a3.27,3.27,0,0,1-1.6,3.41,3,3,0,0,1-3.27-1.14,8.49,8.49,0,0,1-1.34-3.43c-1.29-5.64-2.5-11.47-1.56-17.18a30.4,30.4,0,0,0,.89-6.19c-.16-4.56-3.53-8.3-5.18-12.56-.63-1.65-.94-3.71.23-5a10.66,10.66,0,0,1,2.26-1.52c2.35-1.54,3.41-4.44,3.84-7.22a25.15,25.15,0,0,0-.25-9c-1-4.44-3.13-8.78-2.59-13.3s3.57-8.09,5.61-12.07a28.49,28.49,0,0,0,2.9-16.7c-.35-2.66-1-5.75.84-7.74,2.17-2.39,6.37-1.49,8.85-3.56,1.21-1,1.8-2.57,2.69-3.86a9.46,9.46,0,0,1,10.1-3.61c1.71.49,3.24,1.46,4.92,2,2.37.77,4.93.67,7.41,1s5.11,1.13,6.54,3.18c.76,1.09,1.1,2.41,1.8,3.54,1.49,2.42,4.34,3.59,6.49,5.44a12.61,12.61,0,0,1,3.55,13.47c-1.28,3.58-4.26,6.75-4,10.55.11,1.56.77,3.09.55,4.64-.59,4.3-6.84,5.16-9,8.94.17-6.19-1-12.56-4.39-17.75-2.7-4.15-10.91-11.42-16.56-9.39a4,4,0,0,0-2.46,2.65c-.56,2.12,1.08,3,2.13,4.7A14.31,14.31,0,0,1,354.53,226.78Z"/><g class="cls-16"><path d="M328,248.21a25.6,25.6,0,0,0-.54-5.79c-.81-3.78-2.5-7.48-2.66-11.28-.21,4.23,1.76,8.32,2.66,12.5A25,25,0,0,1,328,248.21Z"/><path d="M344.13,278.9c.33-.6.67-1.2,1-1.78-4.76,2.29-7.53,7.25-10,11.92-1.43,2.69-2.9,5.63-2.68,8.63.18-2.58,1.44-5.08,2.68-7.42C337.44,285.94,340,281.38,344.13,278.9Z"/><path d="M333.44,303.35a2.88,2.88,0,0,1-1.58,2.38,3,3,0,0,1-3.27-1.14,8.49,8.49,0,0,1-1.34-3.43,61.41,61.41,0,0,1-1.88-12.27,56.47,56.47,0,0,0,1.88,13.49,8.55,8.55,0,0,0,1.34,3.43,3,3,0,0,0,3.27,1.13,3.27,3.27,0,0,0,1.61-3.4Z"/><path d="M355,222.71a13.38,13.38,0,0,1-.44,2.88c-.66,2.47-1.95,5.2-1.71,7.57.18-2.06,1.16-4.3,1.71-6.36A13.74,13.74,0,0,0,355,222.71Z"/><path d="M333.63,204.67a27.14,27.14,0,0,0-.23-4.32c-.14-1-.32-2.17-.37-3.26a24.93,24.93,0,0,0,.37,4.48A26.77,26.77,0,0,1,333.63,204.67Z"/><path d="M358.74,241.62s0-.06,0-.1c-.29,1.41-1.45,2.7-2,4.11a5.68,5.68,0,0,0-.33,2.65,5,5,0,0,1,.33-1.43C357.41,245.07,359.08,243.49,358.74,241.62Z"/><path d="M326.58,277.79c-.16-4.56-3.53-8.3-5.17-12.56a8.37,8.37,0,0,1-.53-2.08,7,7,0,0,0,.53,3.29c1.61,4.19,4.89,7.88,5.15,12.34C326.58,278.46,326.59,278.13,326.58,277.79Z"/><path d="M369.74,216.57c-2.7-4.15-10.91-11.42-16.55-9.39a4,4,0,0,0-2.47,2.65,2.85,2.85,0,0,0,0,1.42,1.42,1.42,0,0,1,0-.2,4,4,0,0,1,2.47-2.66c5.64-2,13.85,5.25,16.55,9.4a30.08,30.08,0,0,1,4.4,16C374.23,227.76,373,221.61,369.74,216.57Z"/><path d="M383.14,225.38c-.6,4.29-6.82,5.16-9,8.91,0,.42,0,.83,0,1.24,2.16-3.77,8.41-4.63,9-8.93a5.48,5.48,0,0,0,0-1.28Z"/><path d="M386.59,210.19c-1.28,3.58-4.26,6.75-4,10.55a.88.88,0,0,1,0,.17c.28-3.35,2.83-6.26,4-9.5a12,12,0,0,0,.67-4.63A11.73,11.73,0,0,1,386.59,210.19Z"/><path d="M354.55,286a2,2,0,0,1-1.24.84c-1.81.19-1.51-3.07-3-4.16,0,.43.07.86.09,1.3,1.35,1.16,1.1,4.26,2.87,4.07a2,2,0,0,0,1.24-.83c1.61-2,1.77-4.59,1.72-7.25A9.58,9.58,0,0,1,354.55,286Z"/><path d="M350,288.29c-.68,1.78-2.47,3.28-4.35,3-.21-1.42-.43-2.83-.64-4.25a12.23,12.23,0,0,1-4.28,2.73c-.08.43-.16.87-.22,1.3a12.35,12.35,0,0,0,4.5-2.81c.21,1.41.43,2.83.64,4.25,1.88.29,3.67-1.21,4.35-3a9.48,9.48,0,0,0,.5-3.85A8.12,8.12,0,0,1,350,288.29Z"/><path d="M356.38,272.74a20.93,20.93,0,0,0-.16,3.45,16.6,16.6,0,0,1,.16-2.23c.67-4.65,3.93-8.9,3.64-13.51C359.76,264.6,357,268.51,356.38,272.74Z"/></g><path class="cls-1" d="M369.64,390.4s24.9-1,25.21-6.27c.27-4.68-6.7-6.42-6.7-6.42.64-1,21.23-3.91,24.6,1.47,2.22,3.55.22,12.55-9.45,11.76C399.44,390.62,369.64,390.4,369.64,390.4Z"/><path class="cls-1" d="M313.14,380.54s-3.91,11,1.39,11.44S336,387.4,336,387.4l-6.33-3.34Z"/><path class="cls-17" d="M436.79,71.81s7.75,16.28,4.65,24,11.63,16.27,11.63,16.27l19.38-10.85v-14l-3.1-6.2s-12.41-7-10.86-17.82S436.79,71.81,436.79,71.81Z"/><path class="cls-11" d="M436.79,71.81s7.75,16.28,4.65,24,11.63,16.27,11.63,16.27l19.38-10.85v-14l-3.1-6.2s-12.41-7-10.86-17.82S436.79,71.81,436.79,71.81Z"/><path class="cls-11" d="M422.07,140s-1.55,17-1.55,19.37-2.33,10.08-2.33,10.08-8.52,39.53-13.95,43.4-8.53,27.9,0,26.35,10.85-22.47,10.85-22.47l17.65-33.32,2.5-40.31Z"/><path class="cls-8" d="M428.27,105.91h-6.2s-6.2,37.21,0,38.76,17.82,1.55,17.82,1.55Z"/><polygon class="cls-11" points="463.14 345.41 466.25 360.13 472.45 355.48 469.35 342.31 463.14 344.63 463.14 345.41"/><path class="cls-18" d="M435.24,188.07l-4.65,3.1s-2.32,27.13,3.1,48.05S443,285,443,285s9.3,62,11.63,63.56,17.05,2.32,17.83-.78S467,286.5,467,286.5s-4.65-48.83-.77-55c0,0,12.4,53.48,16.27,58.91,0,0,5.43,58.9,8.53,60.45s17.82,2.33,18.6-.77-4.65-69.76-7-75.18-3.1-86-8.52-85.26S435.24,188.07,435.24,188.07Z"/><circle class="cls-11" cx="444.54" cy="60.96" r="17.83"/><path class="cls-8" d="M451.52,100.49l-3.88-7s-4.65-6.2-7-4.65-2.33,7-2.33,7-17.82,6.2-16.27,14.72,11.62,23.26,11.62,23.26,1.55,12.4,0,15.5-4.65,5.42-2.32,8.52,3.1,3.88,2.32,7.75-2.32,5.43-.77,7-.78,17.82-2.33,18.6,49.61,8.53,53.48,6.2,14.73-2.32,13.95-4.65-3.87-16.28-3.87-18.6,0-12.4-.78-13.18.78-12.4.78-12.4L490.27,116l12.4-19.38s-3.1-10.85-17.82-12.4-18.8-5.42-18.8-5.42-1.36,7-4.46,8.52S451.52,100.49,451.52,100.49Z"/><path class="cls-11" d="M508.1,121.41l4.65,34.88-10.08,50.38s-3.87,28.68-11.62,27.9,0-31,0-31l6.2-47.28s-10.08-24-7.75-27.12S508.1,121.41,508.1,121.41Z"/><path class="cls-1" d="M470.12,353.16s-10.08-5.43-12.4-4.65-4.65,11.62-4.65,11.62-17.83,13.18-6.2,16.28,16.27-3.88,16.27-3.88,11.63-6.2,11.63-7.75-1.55-11.62-1.55-11.62Z"/><path class="cls-1" d="M493.37,349.28s-4.65,25.58-1.55,27.13,16.28,3.87,17.83,0,1.55-13.18.77-16.28-3.1-10.85-3.1-10.85Z"/><path class="cls-19" d="M441.43,32.76a4.16,4.16,0,0,0-2.13-.06,6.23,6.23,0,0,0-2.15,1.76c-1.78,1.68-4.32,2.21-6.64,3s-4.75,2.22-5.33,4.6a23.15,23.15,0,0,0-.25,2.89c-.35,2.81-2.49,5.34-2.11,8.14.25,1.83,1.56,3.39,1.82,5.22.3,2-.73,4.16-.15,6.14s2.47,3.12,4.22,4.12q1.14-7.17,2.72-14.26a5.17,5.17,0,0,1,1-2.35C434,50.2,437,51.21,439,50c.77-.46,1.34-1.21,2.15-1.6,2.33-1.11,4.86,1.36,7.45,1.38,1.14,0,2.39-.44,3.36.17a3,3,0,0,1,1,1.21c.93,1.73,1.43,3.68,2.51,5.32s3,3,4.91,2.52c-.29-1.48.87-2.81,1.33-4.25.8-2.47-.5-5.14-.19-7.72.29-2.42,1.87-5.26.14-7a4.93,4.93,0,0,0-2-1C453.51,37.09,447.86,33.83,441.43,32.76Z"/><path class="cls-8" d="M494.92,93.51l7.75,3.1s10.08,32.56,7.75,32.56-23.25,5.42-23.25,3.1S488.72,93.51,494.92,93.51Z"/><path class="cls-1" d="M602.15,350.49l-3-2.26s-2,11.26.24,12.94S610,365.67,610,369s19.11,7.87,19.68,2.81S628,364,628,364s-9-9-10.12-10.68-3.94-5.06-3.94-5.06Z"/><path class="cls-7" d="M647.13,210.5s-.09.49-.24,1.39-.32,1.94-.54,3.34c-2.36,14.41-9.25,56.83-8.78,58.23.56,1.69,4.5,7.88,0,9.56a3.51,3.51,0,0,0-1.4,1.53,32.58,32.58,0,0,0-2.38,5.61c-2.68,7.78-5.55,20.23-7.21,28.86-.72,3.79-1.22,6.83-1.36,8.43a4.13,4.13,0,0,0,0,1.11c.56,2.25-3.38,10.12-5.06,12.37s-4.5,4.5-3.94,6.75-14.05,8.43-15.74,4.5-1.69-6.19-2.25-7.31-1.12-9,1.69-10.12S601,314,603.83,310c.94-1.31,2.38-5.75,3.88-11.08.59-2.09,1.18-4.32,1.77-6.55C611.85,283.23,614,274,614,274l-.56-65.78,30.92-3.94.8,1.75,1.58,3.47Z"/><path class="cls-1" d="M648.81,318.44s4.5-4.49,6.75,0,4.5,21.93,8.43,25.87,9,23.61,3.38,24.73S655.56,367.36,655,364s-12.37-20.8-12.37-22.49,7.87-7.87,7.87-7.87Z"/><path class="cls-7" d="M579.66,179.57s7.31,65.78,9,72,10.69,29.8,13.5,33.73,20.8,36,23.05,37.67,6.74,6.19,6.74,6.19,8.44,8.43,9.56,10.12,10.69-3.38,11.25-6.75-.56-9-1.13-11.25,1.13-5.62-.56-7.3-10.12-10.12-10.12-14.06-14.62-27-20.24-32.05-4.5-13.49-4.5-13.49v-34.3l30.93-9.55s-1.69-27-5.63-27S585.84,174.51,579.66,179.57Z"/><circle class="cls-11" cx="625.2" cy="67.13" r="18.55"/><path class="cls-11" d="M619,81.74s-2.25,8.44-5.06,10.69,7.31,11.8,7.31,11.8l19.12,1.13,3.37-10.68s-6.18-12.37-4.5-20.24S619,81.74,619,81.74Z"/><path class="cls-20" d="M611.14,91.3s5.06.56,6.19,2.25,9,6.75,15.18,5.62,10.12-2.81,11.24-2.25,3.38,12.37,3.38,12.37l-6.19,18,1.13,49.47,1.68,13.49s3.38-4.49-10.12-1.68-30.92-2.25-36.54-2.81-15.18-2.25-15.75-5.63S583,164.39,583,164.39l9-37.67,5.62-20.24Z"/><path class="cls-21" d="M616.46,88.76s-4.76-2.52-6.44-.27-23,5.62-23,7.31S582.47,143,583.59,147s-2.25,8.44-2.25,8.44l-3.93,16.86s-10.68,32.05-6.19,33.17,8.44,0,10.12,0,1.13-21.36,5.63-27,10.68-19.68,11.8-22.49,15.18-41.61,14.62-46.1S616.46,88.76,616.46,88.76Z"/><path class="cls-21" d="M639.82,91.3s4.49,0,5.06,1.13,6.18,8.43,8.43,10.12,10.12,9,10.12,10.68-16.3,14.06-16.3,14.06-6.75,33.17-3.38,44.41,8.44,38.23,6.19,39.92-7.31,2.25-7.31,0-3.38-26.43-6.19-31.49S625.2,143,628.57,134,639.82,91.3,639.82,91.3Z"/><path class="cls-11" d="M565.6,147s-.56,17.43,5.62,26.43a105.88,105.88,0,0,1,10.12,19.11s10.12-2.81,11.81-6.18,12.37-.56,12.37-1.69-12.93-6.74-14.06-7.87-5.06-1.12-7.3-3.37-2.82-7.31-2.82-7.31l-2.24-14.62Z"/><path class="cls-22" d="M612.42,55.69a10.68,10.68,0,0,1-4.16-1,5.56,5.56,0,0,1-1.43-8.24,10.39,10.39,0,0,1,2-1.59L613.08,42a20.72,20.72,0,0,1,6-3.2,18.82,18.82,0,0,1,6.17-.37,41.72,41.72,0,0,1,11.81,2.15,19.76,19.76,0,0,1,9.56,7c3.62,5.24,3.67,12.3,1.68,18.34s-5.78,11.31-9.51,16.47l-1.94-9.45a3.47,3.47,0,0,0-1.09-2.26c-1.74-1.24-3.87,1.3-6,1.29a3.59,3.59,0,0,1-3-2.41,13.58,13.58,0,0,1-.68-4c-.25-2.89-1.26-6.92-4-8.51C619.51,55.51,615.29,56,612.42,55.69Z"/><path class="cls-3" d="M613.46,211s1.9,54.92,3,56.61,0-56.78,0-56.78Z"/><path class="cls-21" d="M591.46,95.8H587s-19.12,25.86-16.87,27.55,0,6.18,0,6.18L565.6,138s-5.62,5.06-3.93,6.18,3.93,5.62,3.93,5.62,11.25-1.68,14.62,5.06l7.29-9.2Z"/><path class="cls-21" d="M657.25,111l6.18,2.25V130.1l2.25,3.37s-.56,6.75-2.25,8.43-5.06,1.13-3.94,5.06a21.32,21.32,0,0,1,.57,7.87s-10.12,12.94-10.69,11.25-8.43-22.49-9.55-22.49S651.06,111,651.06,111Z"/><path class="cls-23" d="M583.31,196.16s-5.81-5.62-2.9-5.91,13-5.9,14.71-3.09S583.31,196.16,583.31,196.16Z"/><path class="cls-6" d="M607,133.65H577.75a55.83,55.83,0,0,1,0-25.71H607A34.62,34.62,0,0,0,607,133.65Z"/><path class="cls-11" d="M642.63,144.15s-12.37.56-26.43-8.43l-14.05-6.19s-12.37-19.11-13.5-15.74,1.69,10.12,1.69,10.12-18.42,3.51-17.4,8.89c.21,1.11,9.53-1.58,9.53-1.58s-1.69,10.68,7.87,11.25,12.37-1.69,12.37-1.69,40.48,33.73,47.23,23.05S642.63,144.15,642.63,144.15Z"/><path class="cls-24" d="M194.27,34.81a4.25,4.25,0,0,0-2.46.55,6.49,6.49,0,0,0-1.66,2.19A26.06,26.06,0,0,1,183,45.62c-2.13,1.56-4.83,3.5-4.46,6.37a8.57,8.57,0,0,0,1,2.68c2,4,7.31,7,6.78,11.53,1.95-3.26-.66-4.87,1.29-8.13.93-1.55,2.54-3.3,3.94-2.33.46.33.77.91,1.26,1.2,1.16.68,2.4-.62,3.43-1.55,3.56-3.19,8.61-2.35,13-1.36,2.09.47,4.38,1.09,5.62,3.08,1.62,2.62-1.55,5.46-2.34,8.42a1.6,1.6,0,0,0,1.16,2,1.56,1.56,0,0,0,.57,0c1.33-.13,2.9-.23,3-.82,1.67.06,3.71-.13,4.43-1.86a7.71,7.71,0,0,0,.34-2.13c.26-2.92,1.5-5.58,2.32-8.36s1.18-6-.21-8.5a9.84,9.84,0,0,0-1.81-2.21C214.51,36.05,204.17,34.8,194.27,34.81Z"/><path class="cls-11" d="M188.07,71.9s1.71,14.25-4.56,15.39,5.7,20.51,5.7,20.51l28.5,3.42-6.84-22.8s-4.56-1.7-1.71-13.1S188.07,71.9,188.07,71.9Z"/><polygon class="cls-11" points="170.69 316.69 172.97 348.03 184.94 348.03 181.52 316.69 170.69 316.69"/><polygon class="cls-11" points="258.46 257.41 260.17 283.63 273.28 277.93 268.15 256.27 258.46 257.41"/><path class="cls-25" d="M162.2,188.24s.51,41.82,3.93,52.64,2.85,11.4,2.28,13.11-1.14.57-1.14,3.42-1.14,47.88,0,51.87-3.42,10.83,0,11.4,19.38,0,19.95-3.42-4.56-4.56-2.28-6.84,5.7-49,5.7-49l8-32.48,14.82-17.1h31.35l9.69,37.61s-4,10.83-1.14,10.83,19.95,3.42,19.95-9.12-5.7-49.58-6.84-50.72.57-5.13-1.14-6.84-21.66-13.68-29.07-16-17.8-5-17.8-5Z"/><path class="cls-26" d="M273.28,273.37s-8.55-2.85-12.54,5.7-2.28,10.83-2.28,10.83,13.11,4.56,15.39,2.28c1-1,4.14-1.34,7.38-1.41,4.94-.11,6.25-7.1,1.59-8.72l-.42-.13C277.84,280.78,273.28,273.37,273.28,273.37Z"/><circle class="cls-11" cx="200.89" cy="64.2" r="17.1"/><path class="cls-27" d="M186.81,90.73s14.15,17.15,20.92-3.16c3.61-10.81,15.39,29.07,15.39,29.07l3.42,36.47-5.13,19.95s-26.79,21.66-35.33,23.37-20.19.24-20.19.24,2.52-60.66,2.52-61.79S186.81,90.73,186.81,90.73Z"/><path class="cls-5" d="M187.16,83.72s-6.21-3.56-7.92-.14-17.67,12-19.38,12,3.42,47.3,1.14,53-1.65,46,4.62,49.38,1.71-3.42,8,5.13,22.23-9.12,23.94-12.54-10.32-10.05-7.47-34,7.4-57,3.41-61.55S187.16,83.72,187.16,83.72Z"/><path class="cls-5" d="M201.27,95.4l7.26-10.56s23.71,7.86,24.85,13,.57,41-3.42,43.88-9.69,7.41-5.7,14.25,8.55,14.25,12,14.82,9.69,4.56,8,8.55S222,175.91,222,175.91s-13.68-10.26-13.11-26.22S201.27,95.4,201.27,95.4Z"/><path class="cls-11" d="M227.68,154.82,214,180.47s-19.95,20.52-8.55,22.8,17.67-18.81,17.67-18.81l14.82-21.09Z"/><path class="cls-24" d="M195.1,39.28a3.94,3.94,0,0,0-2,.39,4.68,4.68,0,0,0-1.35,1.55,19.68,19.68,0,0,1-5.82,5.71c-1.72,1.1-3.92,2.47-3.63,4.5a5.56,5.56,0,0,0,.85,1.89A15,15,0,0,1,185,62.63l4.75-6.91c.76-1.09,2.07-2.33,3.21-1.64.38.23.63.64,1,.84,1,.49,2-.44,2.79-1.09,2.89-2.25,7-1.66,10.61-1,1.7.33,3.56.77,4.57,2.18,1.67,2.34-.08,5.73.9,8.43a2.49,2.49,0,0,0,1-1.64c1.36,0,3-.09,3.6-1.32a4.29,4.29,0,0,0,.28-1.5c.22-2.07,1.23-4,1.89-5.91s1-4.27-.17-6A7.26,7.26,0,0,0,218,45.54C211.58,40.16,203.16,39.28,195.1,39.28Z"/><path class="cls-5" d="M227.68,95.55,233,97s12.36,31.65,9.51,53.3-4.56,17.1-4.56,17.1-4.56-10.26-14.82-8Z"/><path class="cls-26" d="M171.48,343.89c-1.38,1.87-1.1,4.54-2.32,6.51-1,1.71-3,2.61-4.36,4.12a12,12,0,0,0-1.13,1.62c-1.22,2.05-2.22,4.68-1,6.74,1,1.66,3,2.31,4.88,2.75a18,18,0,0,0,7.21.58,7.18,7.18,0,0,0,5.58-4.17,16.79,16.79,0,0,1,.6-1.68c1.29-2.55,5.36-2.58,6.68-5.12.93-1.77.08-3.91-.77-5.73L184.23,344c-.86-1.84-4.37-.78-6.19-1.22C175.65,342.18,173.19,341.55,171.48,343.89Z"/><polygon class="cls-6" points="183.06 215.57 193.16 229.33 232.57 208.97 234.85 207.8 185.61 204.62 183.06 215.57"/><polygon class="cls-28" points="183.6 216.32 193.16 229.33 232.57 208.97 183.6 216.32"/><polygon class="cls-6" points="179.92 231.62 181.75 219.69 235.04 207.81 179.92 231.62"/><path class="cls-11" d="M152.45,166.22l23.94,37.05s14.81,18.81,19.37,10.26-15.95-22.8-15.95-22.8l-15.39-28.5Z"/><path class="cls-5" d="M164.42,96.69l-4.56-1.14s-9.12,2.85-11.4,14.82-.57,59.84,2.28,60.41,14.07-8.33,15.87-6.45-3.9-7.8-2.19-12.93S164.42,96.69,164.42,96.69Z"/><path class="cls-3" d="M201.27,95.4l4.48,6.14,7.31-13.87c-.16-.2-.06.24,0,0,.56-2.24-3.12-2.15-3.33-2.34C215.23,92.32,202.63,94.62,201.27,95.4Z"/><path class="cls-5" d="M201,94.63l4.49,6.14,7.54-13.1c-.16-.2-.06.24,0,0,.56-2.24-4.79-2.81-5-3,2.39,3,.77,2.18-1.16,4.76A18.33,18.33,0,0,1,201,94.63Z"/><path class="cls-3" d="M181.14,81.21s.24,1.36.64,3.46c1.38,7.1,7.61,19.33,7.61,19.33a10.13,10.13,0,0,0,6.22-3.43c-1.67-2.56-8.08-7.09-8.08-7.09-1.8.66-2-4.56-2-8.4l-2.06-1.81Z"/><path class="cls-5" d="M184.82,84.33s-2.93-2.79-2.53-.7c1.38,7.1,7.1,20.37,7.1,20.37,1.7-.43,4.45-3.06,6.68-5.69-1.67-2.56-7.69-6.5-7.69-6.5-1.81.66-2.82-3.31-2.75-7.15L184,82.24Z"/><circle class="cls-29" cx="207.79" cy="108.67" r="0.9"/><circle class="cls-29" cx="210.79" cy="127.67" r="0.9"/><circle class="cls-29" cx="212.39" cy="146.77" r="0.9"/><circle class="cls-29" cx="215.89" cy="163.57" r="0.9"/><path class="cls-30" d="M69.47,29.81h0c-13.08,0-22.59,13.49-25.8,32.75l-4,28.89h2.83l6.13-23.66L47.36,91.45h3.18L52.9,79.26l-.5,12.19H90.63V62c0-17.76-9.48-32.16-21.16-32.16Z"/><path class="cls-21" d="M52.19,142.12S32.85,169,33.8,179.85,47,367.56,47,367.56L75.77,369,67.28,241.64l7.08-34.43L91.81,367.56l35.37.94-31.6-208-6.13-18.4Z"/><path class="cls-11" d="M58.79,60.06s6.13,11.32-1.88,18.87-11.79,27.82-11.79,27.82l45.27-3.3L86.62,78s-9.91-6.13-7.55-17Z"/><path class="cls-31" d="M51.25,90.25s2.83,11.56,15.09,10.28c7.46-.85,14.63-4.4,20.75-10.28l8.5,72.34L36.3,164.73l13.06-46.85Z"/><path class="cls-7" d="M53.6,145.43,56.43,136s-.94-22.16-4.71-31.12c0,0,7.21-23.62,8.32-30.44L56.43,77,34.74,87.42l7.55,39.14,2.18,8.49L35.3,168.73Z"/><path class="cls-7" d="M72,143.54,82.84,84.59,79.87,70l8.63,8.49,17,5.18-8,44.34-3.72,9.43,1.84,25.18Z"/><path class="cls-11" d="M115.39,183.16s4.71,20.28-4.72,22.63-6.13-22.63-6.13-22.63Z"/><path class="cls-11" d="M32.2,162.11s18.16,10.18,13.54,18.74-20.85-10.73-20.85-10.73Z"/><path class="cls-7" d="M98.41,84.59l7.07-1s4.25,5.66,4.72,9.91,8,75.93,8,75.93c.54,1.56,0,3.1-.48,16l-1.41,5.66s-2.83-10.84-13.68-5.18l-1.41-6.61s-2.83-25-2.83-36.78-.94-24.53-.94-24.53Z"/><ellipse class="cls-23" cx="64.24" cy="368.27" rx="6.71" ry="2.51"/><ellipse class="cls-23" cx="109.51" cy="368.27" rx="6.71" ry="2.51"/><path class="cls-7" d="M39.93,87l-5.19.47L23,133.16s-1.43,59.4,10.38,48.11c0,0-4.25-12.26,6.6-16.51v-25l3.77-21.7Z"/><ellipse class="cls-11" cx="85.2" cy="55.58" rx="0.71" ry="2.36"/><ellipse class="cls-11" cx="53.13" cy="55.58" rx="0.71" ry="2.36"/><circle class="cls-11" cx="69.17" cy="54.4" r="15.56"/><polygon class="cls-30" points="62.33 46.15 61.93 49.92 72.7 49.92 74.12 47.09 73.82 49.92 86.85 49.92 77.89 35.78 58.09 36.25 53.37 49.92 60.44 49.92 62.33 46.15"/><path class="cls-32" d="M221.6,128.79h-2c0-26.35-5.77-44.71-11.38-44.71l-.5-1.86c5,0,8.25,7.64,10.06,14C220.26,105,221.6,116.51,221.6,128.79Z"/><path class="cls-32" d="M176.09,122.27h-2c0-24.13,5.8-39.12,14.35-39.12L188,85C182.05,85,176.09,96.53,176.09,122.27Z"/><ellipse class="cls-32" cx="220.61" cy="129.26" rx="4.95" ry="4.66"/><path class="cls-32" d="M168.18,133.45h-2c0-6.68,4-12.11,8.9-12.11v1.86C171.28,123.2,168.18,127.8,168.18,133.45Z"/><path class="cls-32" d="M184,133.45h-2c0-5.65-3.11-10.25-6.93-10.25v-1.86C180,121.34,184,126.77,184,133.45Z"/><ellipse class="cls-32" cx="183.02" cy="133.92" rx="1.98" ry="1.86"/><ellipse class="cls-32" cx="167.19" cy="133.92" rx="1.98" ry="1.86"/></g></g></svg>