<svg xmlns="http://www.w3.org/2000/svg" viewBox="0 0 13.57 26.01"><defs><style>.cls-1{fill:#fff;}</style></defs><title>facebook</title><g id="Layer_2" data-name="Layer 2"><g id="Capa_1" data-name="Capa 1"><path class="cls-1" d="M4,26V14.15H.17C0,14.15,0,14.15,0,14V9.67c0-.13,0-.16.17-.16H4V9.37C4,8.17,4,7,4,5.78A6.58,6.58,0,0,1,4.64,3,5,5,0,0,1,7.32.48,6.48,6.48,0,0,1,9.86,0c1,0,2,.06,3,.1.19,0,.37,0,.56,0s.14,0,.14.15c0,.6,0,1.19,0,1.79s0,1.4,0,2.11c0,.12,0,.15-.16.15-.76,0-1.52,0-2.28,0a4.55,4.55,0,0,0-1,.12A1.44,1.44,0,0,0,8.92,5.69a4.23,4.23,0,0,0-.08.79c0,1,0,1.95,0,2.93v.1h4.38c.18,0,.19,0,.16.17l-.3,2.3-.24,1.92c0,.25,0,.25-.26.25H8.83v.18c0,3.8,0,7.6,0,11.4V26Z"/></g></g></svg>