<svg xmlns="http://www.w3.org/2000/svg" viewBox="0 0 19.56 20.09"><defs><style>.cls-1{fill:#fff;}</style></defs><title>instagram</title><g id="Layer_2" data-name="Layer 2"><g id="Capa_1" data-name="Capa 1"><path class="cls-1" d="M13.87,20.09H5.69A5.71,5.71,0,0,1,0,14.4V5.69A5.71,5.71,0,0,1,5.69,0h8.18a5.71,5.71,0,0,1,5.69,5.69V14.4A5.71,5.71,0,0,1,13.87,20.09Zm0-1.5a4.2,4.2,0,0,0,4.18-4.19V5.69A4.2,4.2,0,0,0,13.87,1.5H5.69A4.2,4.2,0,0,0,1.5,5.69V14.4a4.2,4.2,0,0,0,4.19,4.19Z"/><path class="cls-1" d="M15.19,10A5.39,5.39,0,1,1,9.81,4.58,5.38,5.38,0,0,1,15.19,10ZM9.78,6.45A3.53,3.53,0,1,0,13.31,10,3.53,3.53,0,0,0,9.78,6.45Z"/><circle class="cls-1" cx="15.28" cy="4.5" r="1.28"/></g></g></svg>