<svg xmlns="http://www.w3.org/2000/svg" viewBox="0 0 24.52 19.93"><defs><style>.cls-1{fill:#fff;}</style></defs><title>tweeter</title><g id="Layer_2" data-name="Layer 2"><g id="Capa_1" data-name="Capa 1"><path class="cls-1" d="M24.52,2.36a10,10,0,0,1-2.89.79A5.06,5.06,0,0,0,23.84.37a10.35,10.35,0,0,1-3.19,1.22A5,5,0,0,0,11.94,5a5.48,5.48,0,0,0,.13,1.15A14.28,14.28,0,0,1,1.71.92,4.94,4.94,0,0,0,1,3.45,5,5,0,0,0,3.26,7.64,5.1,5.1,0,0,1,1,7a.13.13,0,0,0,0,.06A5,5,0,0,0,5,12a4.85,4.85,0,0,1-1.33.18,4.91,4.91,0,0,1-.94-.09,5,5,0,0,0,4.7,3.49A10.09,10.09,0,0,1,1.2,17.74,11.73,11.73,0,0,1,0,17.67a14.31,14.31,0,0,0,7.71,2.26A14.22,14.22,0,0,0,22,5.61c0-.21,0-.43,0-.65A10.34,10.34,0,0,0,24.52,2.36Z"/></g></g></svg>