<svg xmlns="http://www.w3.org/2000/svg" viewBox="0 0 29.59 29.91"><defs><style>.cls-1{fill:#fff;}</style></defs><title>whatsapp</title><g id="Layer_2" data-name="Layer 2"><g id="Capa_1" data-name="Capa 1"><path class="cls-1" d="M15,0A14.58,14.58,0,0,0,.43,14.58a16.78,16.78,0,0,0,2.12,7.57L0,29.91l8-2.55a14.8,14.8,0,0,0,7,1.8A14.58,14.58,0,0,0,15,0Zm0,26.83a13.37,13.37,0,0,1-6.75-2l-4.6,1.51,1.49-4.46a14,14,0,0,1-2.38-7.27A12.25,12.25,0,1,1,15,26.83Z"/><path class="cls-1" d="M9.46,8.23a1.76,1.76,0,0,1,.6-.25h1.15a.67.67,0,0,1,.45.38c.14.32,1.11,2.59,1.18,2.77a1,1,0,0,1,0,1c-.3.39-.93,1.11-.93,1.11a.47.47,0,0,0,0,.59,11.89,11.89,0,0,0,2,2.43A9.36,9.36,0,0,0,16.63,18c.61.2.74-.07,1-.37l1-1.22a.58.58,0,0,1,.74-.14l2.88,1.38a.39.39,0,0,1,.31.38,2.59,2.59,0,0,1-.65,2.23,4.36,4.36,0,0,1-3.58,1.12,14,14,0,0,1-5.63-2.75,18.43,18.43,0,0,1-4-5,4.76,4.76,0,0,1-.55-2.55A4,4,0,0,1,9.46,8.23Z"/></g></g></svg>