<svg xmlns="http://www.w3.org/2000/svg" viewBox="0 0 40.51 32.93"><defs><style>.cls-1{fill:#fff;}</style></defs><title>iso-logo</title><g id="Layer_2" data-name="Layer 2"><g id="Capa_1" data-name="Capa 1"><path class="cls-1" d="M39.89,13a5.53,5.53,0,0,0-2.14-2.57,10.34,10.34,0,0,0-9.89-.3,5.77,5.77,0,0,0-2.91,4c-.58,2.67-.43,5.85,1.63,7.85a9.75,9.75,0,0,0,9,1.7,4.31,4.31,0,0,0,.94-.32l.09,0a6.53,6.53,0,0,0,2.57-1.94A9.7,9.7,0,0,0,39.89,13m-5,6a1.64,1.64,0,0,1-1,1.22,3.34,3.34,0,0,1-2.8-.17,2.5,2.5,0,0,1-.83-2,13.2,13.2,0,0,1,.23-4.32,2.09,2.09,0,0,1,2-1.09,2.55,2.55,0,0,1,2.17.8A3.65,3.65,0,0,1,35,15.12,24.87,24.87,0,0,1,34.84,19M9.47,20.28c-.7-.05-1.49,0-2.18-.07l0-7.38.05-.06,2.11,0c0-1.19,0-2.48,0-3.57l-8.07,0-1.33,0c0,1.11,0,2.42,0,3.55.73,0,1.42,0,2.12.07v7.15l0,.29L0,20.28c0,1.15,0,2.31,0,3.47H9.47V20.28Zm23.76,5A15.94,15.94,0,0,1,30,28.81c0,.07-.17.05-.21,0-.54-.33-1.12-.61-1.63-.94A17.48,17.48,0,0,0,30,25.3h-.66a15,15,0,0,1-1.8,2.29,23.76,23.76,0,0,0-2.76-1l-.11-.08a10,10,0,0,0,.51-1.25h-.57L24,26.44a26.06,26.06,0,0,0-3.94-.51c-.06-.19,0-.46-.06-.63h-.56c0,.25.06.44-.06.65a24.1,24.1,0,0,0-3.86.47L15,25.3a1.86,1.86,0,0,0-.59,0l.53,1.24-.06.07a23.71,23.71,0,0,0-2.83,1l-.08-.05a16.28,16.28,0,0,1-1.66-2.08c-.1-.36-.53-.15-.77-.19a18,18,0,0,0,1.89,2.59c-.58.34-1.16.71-1.76,1a15.44,15.44,0,0,1-3.38-3.56,2.66,2.66,0,0,0-.69,0A16.82,16.82,0,0,0,12,31.07a0,0,0,0,1,0,0s.06,0,0,.06a17.57,17.57,0,0,0,5.4,1.66,16.85,16.85,0,0,0,16.48-7.45,4,4,0,0,0-.69,0m-8.92,1.9.06,0a11.93,11.93,0,0,1,2.62.91,14.16,14.16,0,0,1-2.38,2c-.49.29-1,.61-1.5.86l-.92-.4.06-.14a25.55,25.55,0,0,0,2.06-3.2m-4.22-.63a16.24,16.24,0,0,1,3.58.42l0,.06a21.66,21.66,0,0,1-2.16,3.26,6.37,6.37,0,0,1-1.07-.12l-.37-.05c0-1.24-.06-2.33,0-3.57M16,27a18.63,18.63,0,0,1,3.47-.37l0,3.55c-.45.11-.94.11-1.37.21a18.4,18.4,0,0,1-2.23-3.3L16,27ZM12.51,28.1a14.5,14.5,0,0,1,2.61-.93l.09,0a33.29,33.29,0,0,0,2.16,3.34c-.29.17-.66.27-1,.44a14.45,14.45,0,0,1-3.9-2.82V28.1Zm2.77,3.6a15.35,15.35,0,0,1-5-2.36v-.06a11.65,11.65,0,0,1,1.58-.89,21.44,21.44,0,0,0,3.85,3,1.57,1.57,0,0,1-.42.34m7.94.27a16.22,16.22,0,0,1-7.07,0c0-.11.11-.13.17-.19a6.73,6.73,0,0,1,7.05.1c.06.13-.11.09-.15.13m2.05-.59-1,.32a2.62,2.62,0,0,1-.48-.34l.05-.06a19.15,19.15,0,0,0,3.79-2.93,8.31,8.31,0,0,1,1.65.91,14.23,14.23,0,0,1-4,2.1M6.2,7.55A19.27,19.27,0,0,1,7.93,5.47,12.1,12.1,0,0,1,9.6,4.05c.56.36,1.18.66,1.71,1A19.84,19.84,0,0,0,9.47,7.57a1.42,1.42,0,0,0,.65,0,15.31,15.31,0,0,1,1.8-2.25c.91.33,1.81.69,2.76.94l.08.09-.53,1.22a2.15,2.15,0,0,0,.62,0c.19-.36.34-.76.55-1.12a20.58,20.58,0,0,0,3.88.46c.17.15,0,.47.11.66H20c.07-.21,0-.44.07-.63a20.6,20.6,0,0,0,3.75-.49l.1,0,.58,1.1a1.31,1.31,0,0,0,.6-.05l-.54-1.21.05,0a22.31,22.31,0,0,0,2.84-1,19.81,19.81,0,0,1,1.85,2.32,1.85,1.85,0,0,0,.64-.05A8.65,8.65,0,0,0,29,6.2,9.41,9.41,0,0,0,28,5.06V5l1.5-.87L29.75,4a15.86,15.86,0,0,1,3.38,3.51c.26,0,.47.09.69,0A17,17,0,0,0,21.1.06l0,0,0,0a9.24,9.24,0,0,0-1.9,0,5.34,5.34,0,0,0-.79,0A16.8,16.8,0,0,0,5.51,7.57a2.66,2.66,0,0,0,.69,0M15.08,5.7l-.08,0a17.76,17.76,0,0,1-2.55-.86l0-.13A16.56,16.56,0,0,1,16.28,2c.32.12.64.23,1,.37l-.06.17a28.16,28.16,0,0,0-2.1,3.18m4.26.57a7.72,7.72,0,0,1-1.73-.07,11.08,11.08,0,0,1-1.88-.34A18.81,18.81,0,0,1,18,2.57l1.37.18c.07,1.09,0,2.36,0,3.52m.67,0C20,5.17,20,3.93,20,2.77l1.32-.19a18.15,18.15,0,0,1,2.21,3.28A15,15,0,0,1,20,6.29m6.83-1.48a13.7,13.7,0,0,1-2.62.89A35.83,35.83,0,0,0,22,2.39c.3-.16.66-.29,1-.46a15.17,15.17,0,0,1,3.88,2.82ZM24.09,1.22a15.36,15.36,0,0,1,5,2.35l-.05.09-1.47.82H27.5a18.34,18.34,0,0,0-3.81-2.91c0-.14.26-.25.4-.35M23.24,1v0a6.55,6.55,0,0,1-6.85.23c-.11-.09-.32-.13-.35-.27a15.92,15.92,0,0,1,7.2,0M10.18,3.61a15.48,15.48,0,0,1,4.43-2.22c.07-.07.11-.13.19-.13v0c.17,0,.3-.15.45,0s.28.19.39.29a21.56,21.56,0,0,0-3.83,3,7.57,7.57,0,0,1-1.63-.88V3.61Zm9.18,16.83a5.67,5.67,0,0,1-5.65-1.39c-.17-.21-.28-.46-.45-.67l-2.89,0c0,1.71-.06,3.66,0,5.35l3.21,0,.05-1c.36.16.73.37,1.09.56a9,9,0,0,0,7.3,0,4.32,4.32,0,0,0,2.22-4.42A5.05,5.05,0,0,0,20.56,15l-5.18-1.5L15,13.33a.58.58,0,0,1-.24-.56c.41-.7,1.35-.49,2.06-.47a5.21,5.21,0,0,1,3.91,2.09c.95,0,2,0,3.06,0,.05-1.72,0-3.23,0-5-1,0-2.14,0-3.1,0,0,.25,0,.61-.07.86l-1-.53c-2.36-1-5.65-1.09-7.79.45a4.24,4.24,0,0,0-1.46,4.42,4.7,4.7,0,0,0,3.13,3.15c1.9.67,3.89,1.16,5.82,1.81.19.08.45.27.41.51s-.2.29-.35.37"/></g></g></svg>