<svg xmlns="http://www.w3.org/2000/svg" viewBox="0 0 34.66 32.71"><defs><style>.cls-1{fill:#fff;}</style></defs><title>nom-logo</title><g id="Layer_2" data-name="Layer 2"><g id="Capa_1" data-name="Capa 1"><path class="cls-1" d="M0,3.08H34.66V0H0ZM0,32.71H34.66V29.62H0Zm5.47-27V15L2.89,5.72H0V26.86H2.89V16.68L5.47,26.86H8.3V5.72Zm25.9,0L28.8,15,28.26,17,27.73,15,25.15,5.72H22.26V26.86h2.89V16.68l1.7,5.37h2.83l1.69-5.37V26.86h2.9V5.72ZM16.71,21c0,2.22-.64,3-1.42,3s-1.41-.75-1.41-3V11.14c0-1.88.63-2.43,1.41-2.43s1.42.43,1.42,2.43ZM15.29,5.26A4.47,4.47,0,0,0,11,9.85V22.27a4.47,4.47,0,0,0,4.32,4.59,4.47,4.47,0,0,0,4.32-4.59V9.85A4.47,4.47,0,0,0,15.29,5.26Z"/></g></g></svg>