<svg xmlns="http://www.w3.org/2000/svg" viewBox="0 0 345 450.61">
    <defs>
        <style>.cls-1{fill:#fff;}.cls-2{opacity:0.61;}.cls-3{fill:#e0eeef;}.cls-4{fill:#133454;}</style>
    </defs>
    <title>book-card</title>
    <g id="Layer_2" data-name="Layer 2">
        <g id="Capa_1" data-name="Capa 1">
            <g id="_246gTy" data-name="246gTy">
                <path class="cls-1"
                      d="M115.76,80.83V0H224V80.83Zm34.26-69-1.84,1.06c-.38,1.1-1.09,2.2-1.1,3.3q-.18,25.14-.2,50.28c0,4.17,1,5.21,5.15,5.22,10.54,0,21.08,0,31.62,0a19.81,19.81,0,0,0,2.43-.26c.6-2.53.49-5.82,1.74-6.47,2.12-1.09,1.91-2.35,1.91-3.89q0-23.43,0-46.86c0-1-.16-1.95-.26-3a12.12,12.12,0,0,0-1.67-.26c-11.68,0-23.36,0-35,0A9.55,9.55,0,0,0,150,11.78Z"/>
                <path class="cls-1"
                      d="M148.18,12.84,150,11.78c2.06-.55,2.37.66,2.36,2.29,0,3,0,6.05,0,9.08a23.81,23.81,0,0,0,.6-7.86c-.26-2.95.73-4,3.78-4q14.28.22,28.57,0c3,0,3.88.91,3.85,3.94C189,30,189,44.7,189.2,59.42c.06,3.75-1.19,4.73-4.69,4.68-12.24-.14-24.48,0-36.82,0a11.34,11.34,0,0,1-.15-1.4q0-23.05,0-46.1A22,22,0,0,1,148.18,12.84ZM173.42,34c-2.57,0-5.86-.38-6,.07a69.32,69.32,0,0,0-1.36,9.63H173c-1.43-1.87-5.85.72-4.58-3.83l3.65-.84-.11-.57-3.6-.53-.5-1.2Zm4.52,10.19,3.86-10.1-.74-.43-3,4.35-3.3-4.32-.5.44Zm-17.48-1.72-.69-8.39-1,.12v9.58h5.52l.06-.64Z"/>
                <path d="M148.18,12.84a22,22,0,0,0-.63,3.71q-.06,23.06,0,46.1a11.34,11.34,0,0,0,.15,1.4c12.34,0,24.58-.09,36.82,0,3.5.05,4.75-.93,4.69-4.68C189,44.7,189,30,189.17,15.24c0-3-.88-4-3.85-3.94q-14.28.21-28.57,0c-3.05-.05-4,1-3.78,4a23.81,23.81,0,0,1-.6,7.86c0-3,0-6,0-9.08,0-1.63-.3-2.84-2.36-2.29a9.55,9.55,0,0,1,2.74-.86c11.68-.06,23.36,0,35,0a12.12,12.12,0,0,1,1.67.26c.1,1.05.26,2,.26,3q0,23.43,0,46.86c0,1.54.21,2.8-1.91,3.89-1.25.65-1.14,3.94-1.74,6.47a19.81,19.81,0,0,1-2.43.26c-10.54,0-21.08,0-31.62,0-4.16,0-5.16-1-5.15-5.22q.06-25.14.2-50.28C147.09,15,147.8,13.94,148.18,12.84Zm37.68,51.72c-11.71,0-23-.11-34.3.14a5.06,5.06,0,0,0-3.73,3.13c-.46,2.59,1.79,3.19,4,3.19,5.46,0,10.92,0,16.39,0h17.59Z"/>
                <path d="M173.42,34l-5.55,2.73.5,1.2,3.6.53.11.57-3.65.84c-1.27,4.55,3.15,2,4.58,3.83h-6.93a69.32,69.32,0,0,1,1.36-9.63C167.56,33.61,170.85,34,173.42,34Z"/>
                <path d="M177.94,44.18l-3.67-10.06.5-.44,3.3,4.32,3-4.35.74.43Z"/>
                <path d="M160.46,42.46l3.92.67-.06.64H158.8V34.19l1-.12Z"/>
                <path class="cls-1"
                      d="M185.86,64.56V71H168.27c-5.47,0-10.93,0-16.39,0-2.26,0-4.51-.6-4-3.19a5.06,5.06,0,0,1,3.73-3.13C162.85,64.45,174.15,64.56,185.86,64.56Z"/>
            </g>
            <g class="cls-2">
                <path class="cls-3"
                      d="M332.17,450.61H32.83c-7.08,0-12.83-6.27-12.83-14v-342c0-7.73,5.75-14,12.83-14H332.17c7.08,0,12.83,6.27,12.83,14v342C345,444.34,339.25,450.61,332.17,450.61Z"/>
            </g>
            <path class="cls-4"
                  d="M312.67,60.61H249.55a5,5,0,0,1,0,.87h63.08c6.8,0,12.33,6.09,12.33,13.57V417.16c0,7.49-5.53,13.58-12.33,13.58H13.33C6.53,430.74,1,424.65,1,417.16V75.05c0-7.48,5.53-13.57,12.33-13.57H94.45a4.28,4.28,0,0,1-.09-.87h-81C6,60.61,0,67.09,0,75.05V417.16c0,8,6,14.45,13.33,14.45H312.67c7.35,0,13.33-6.48,13.33-14.45V75.05C326,67.09,320,60.61,312.67,60.61Z"/>
        </g>
    </g>
</svg>