<svg xmlns="http://www.w3.org/2000/svg" xmlns:xlink="http://www.w3.org/1999/xlink" viewBox="0 0 196.4 244.15"><defs><style>.cls-1{fill:#cee3f6;}.cls-2{fill:#6c63ff;}.cls-11,.cls-2,.cls-5{opacity:0.1;}.cls-2,.cls-5{isolation:isolate;}.cls-3{fill:url(#linear-gradient);}.cls-4{fill:#fff;}.cls-6{fill:#eebfa5;}.cls-7{fill:#01036b;}.cls-8{fill:#8ec0fb;}.cls-9{fill:#3f3d56;}.cls-10{fill:#4f3405;}</style><linearGradient id="linear-gradient" x1="-98.48" y1="9646.72" x2="-98.48" y2="9887.95" gradientTransform="matrix(1, 0, 0, -1, 194.55, 9887.95)" gradientUnits="userSpaceOnUse"><stop offset="0" stop-color="gray" stop-opacity="0.25"/><stop offset="0.54" stop-color="gray" stop-opacity="0.12"/><stop offset="1" stop-color="gray" stop-opacity="0.1"/></linearGradient></defs><title>basico</title><g id="Layer_2" data-name="Layer 2"><g id="Capa_1" data-name="Capa 1"><path class="cls-1" d="M191.67,120.69C179.5,72.85,137.46,38.31,88.11,36.93,62,36.19,34.57,44.85,14.58,75.12c-35.73,54.13,2.19,91.53,28.64,109.31a165.51,165.51,0,0,1,34.19,30.73c17.86,21.2,52.22,47.53,93.14,6.27C200.21,191.52,199.77,152.56,191.67,120.69Z"/><ellipse class="cls-2" cx="100.41" cy="238.01" rx="38.2" ry="6.14"/><path class="cls-3" d="M137.34,86.3s-1.54-.21-1.54-2.46a35.25,35.25,0,0,0-1.11-6.46h0s-.95-7.32-2.27-8.48-3-8-3-8-.29-3.7-.89-4.49a38.84,38.84,0,0,1-2.57-5.53c-1.18-2.78-6.1-4.7-6.1-4.7s-8.89-5.16-11.41-6.84h0a3.82,3.82,0,0,1-.64-.48c-.44-.58-2.35-.59-2.35-.59a37.61,37.61,0,0,1-.46-4,3,3,0,0,0,0-.42,13.53,13.53,0,0,0,6-7.38c0-.15.09-.31.13-.45a1.34,1.34,0,0,0,.77-.69,15.17,15.17,0,0,1,.51-1.57,6,6,0,0,1,1.45-1.28A5.46,5.46,0,0,0,115.29,18c0-1.32-.25-2.64-.17-3.95l0-.32c0-.2,0-.4.08-.59.19-1,.61-1.88.85-2.85a3.69,3.69,0,0,0-.29-2.88c-.8-1.22-2.48-1.46-4-1.59-1.66-.14-3.15,0-4.22-1.34a15.48,15.48,0,0,0-1.68-2c-.22-.2-2.35-1.5-2.35-1.59A9.59,9.59,0,0,0,96.94.37c-1.1.32-2.14.85-3.27,1.11-2.41.57-5.2,0-7.25,1.34a8.51,8.51,0,0,0-2.48,3.25c-.52,1-1,2-1.59,3a19.62,19.62,0,0,0-2.11,5.14,7.87,7.87,0,0,0-.14,1.2h0V16a2.55,2.55,0,0,0,0,.4,1.29,1.29,0,0,1,0,.24c0,.08,0,.27.06.39a4.68,4.68,0,0,0,.12.52,1.72,1.72,0,0,0,.07.21c0,.14.08.27.13.4l.09.2a3.55,3.55,0,0,0,.2.39.83.83,0,0,0,.09.16,4.8,4.8,0,0,0,.36.52c.84,1.05,2.07,1.72,3,2.7v.44a13.41,13.41,0,0,0,6.11,10.95c0,.15,0,.31,0,.46a22.59,22.59,0,0,1,0,3.49A1.66,1.66,0,0,0,89,36.92a1.72,1.72,0,0,0-.5,0l0,0h0v0c-.86.21-1.93,1.11-2.94,3.66,0,0-3.09,3.48-5.44,3.34s-8.31,3.62-8.31,3.62S66,51.36,64.76,55.2a52.86,52.86,0,0,1-2.5,6.39L55.08,76.38h0L53.75,88.13a53.23,53.23,0,0,1,.59,6c-.14.8,3,8,3,8s10.44,18.34,14.7,19.28l.31-.21a2.78,2.78,0,0,0,.57.21l.88-.62a10.22,10.22,0,0,1-.06,2.07c-.59,1.81.22,13.63,1.24,16s.66,32.7.66,32.7l-.14,2.68a1.31,1.31,0,0,0,0,.23l0,.64.11,0a7.53,7.53,0,0,1-.11,2.55,28.42,28.42,0,0,0-.52,4.51s-2.93,18.77-1.54,22.54S76,212.6,76,212.6s1.47,4.7.07,5.51-5.37,2.15-4.56,4.11c.75,1.81,3.58,6.67,4,7.38l0,.37-.58,6.24a8,8,0,0,0,.67,2.39,4.1,4.1,0,0,0,4.19,2.62c.39,0,.84-.08,1.28-.14a55.29,55.29,0,0,0,9.53-2.48,4.35,4.35,0,0,1-.75-.61h0a2.15,2.15,0,0,1-.65-1.57c.06-1.14-2.07-6.55-2.6-7.89l-.12-.3s4.85-5.07,4-9.57c0,0-5.37-3.13-3.6-4.86a54.62,54.62,0,0,0,4.93-6.66s.15-18.49,0-21.24a23,23,0,0,1,.27-5.74c.06-.29.13-.56.2-.84a50.86,50.86,0,0,0,7.39.56c.9,0,1.82,0,2.74,0,0,.26,0,.54,0,.84.2,4.58.58,12.61.89,15.59.44,4.28,2.87,15.81,2.87,15.81s-4.63,3,.81,10.29c0,0,0,2.66-.36,3h0a31.43,31.43,0,0,0-.93,3.83,6.82,6.82,0,0,0,0,3.5c.89,1.73,6.18,1.59,6.18,1.59h0l.13,0a7.58,7.58,0,0,1,5.6,1.69c2,1.61,9.64.9,13.78.39,1.62-.21,2.7-.39,2.7-.39a1.58,1.58,0,0,0,.05-.57h0c0-1-.84-3.24-6.23-5.23,0,0-5.07-3.41-5-6.38h-.7a6.44,6.44,0,0,1,.7,0s-2-7.25-1.17-7.84-1.62-8.63-1.62-8.63-1.39-13.48-1.47-14.43a8.45,8.45,0,0,1,.37-2.39l-.37-7.39s-.07-2.46,0-3.26a15.9,15.9,0,0,0-.17-2.07c0-.28-.07-.56-.11-.85,1.91-.48,3.14-.93,3.14-.93l-.22-25.73c1.62-3.14,1.91-10,1.91-14.9,0-3.14-.14-5.46-.14-5.46l2.2-3.6s.51-4.31-.3-5.26a.91.91,0,0,1,.1-1.23,5.25,5.25,0,0,1,.49-.33l-.06-.09a5.48,5.48,0,0,1,.49-.35s-.78-1.21-.08-1.73c.66.45,1.25.79,1.7,1.06,0,.29-.07.45-.07.45l.19-.39.69.39S132,112,131.9,111s2.35-5.29,2.35-5.29a5.27,5.27,0,0,1,1.62-3.19c1.32-.94,1-7.76,1-7.76s.36-3.55,1.25-5S137.34,86.3,137.34,86.3Zm-66.16-3,.07,1.64-.67-1.08Z"/><path class="cls-4" d="M128.7,115.88l-.84,3.6s-6.79-3.46-8-7.86,2.05-6.06,2.05-6.06l6.32,2.67Z"/><path class="cls-5" d="M128.7,115.88l-.84,3.6s-6.79-3.46-8-7.86,2.05-6.06,2.05-6.06l6.32,2.67Z"/><path class="cls-4" d="M90.64,238.63s-6.27,2.3-10.58,2.59a4,4,0,0,1-4.12-2.6,7.79,7.79,0,0,1-.64-2.37l.56-6.22.29-3.3,9.17-2.38,1.29,4,.13.31c.52,1.32,2.61,6.71,2.54,7.84a2.12,2.12,0,0,0,.65,1.54A3.86,3.86,0,0,0,90.64,238.63Z"/><path class="cls-4" d="M133.49,235.47a1.75,1.75,0,0,1-.06.56s-13.41,2.24-16.16,0a7.3,7.3,0,0,0-5.64-1.66s-5.19.15-6.06-1.56a6.78,6.78,0,0,1,0-3.49,31.33,31.33,0,0,1,.91-3.8l.2-.17,1.24-1,14.46-.43h.11c-.07,3,4.9,6.35,4.9,6.35C132.64,232.24,133.42,234.46,133.49,235.47Z"/><path class="cls-5" d="M133.49,235.47a1.75,1.75,0,0,1-.06.56s-13.41,2.24-16.16,0a7.3,7.3,0,0,0-5.64-1.66s-5.19.15-6.06-1.56a6.78,6.78,0,0,1,0-3.49c2,.2,5.15.7,6.39,1.89,1.87,1.81,5,3.61,7,3.75C120.44,235.06,129.57,235.35,133.49,235.47Z"/><path class="cls-5" d="M90.64,238.63s-6.27,2.3-10.58,2.59a4,4,0,0,1-4.11-2.6c1.59.53,3.81,1.1,5,.58,1.38-.61,6.27-1,9-1.18A3.69,3.69,0,0,0,90.64,238.63Z"/><path class="cls-6" d="M100,52.86c-5.18-2-11.83-8.65-10.17-11.76a6.74,6.74,0,0,0,.64-2.49,21.9,21.9,0,0,0,0-3.53,48.08,48.08,0,0,0-.69-5.74s16.15.36,15.21,2.74a9.13,9.13,0,0,0-.24,3.27c.07,1.36.27,2.89.47,4.19.29,1.78.57,3.13.57,3.13s-1,1.39-1.57,1.46S107.37,55.73,100,52.86Z"/><path class="cls-5" d="M86.72,228.62l-.12.13c-4.83-5.84-10.67,1.44-10.67,1.44l-.08-.16.29-3.3,9.16-2.38,1.3,4Z"/><path class="cls-5" d="M122.45,224.35s-3.53-.08-5.41,1.58-11,.36-10.58,0a1.38,1.38,0,0,0,.2-.59l1.23-1,14.46-.43Z"/><path class="cls-7" d="M92.73,178.47a10.88,10.88,0,0,0-.59,2,22.68,22.68,0,0,0-.27,5.7c.14,2.75,0,21.14,0,21.14A56.27,56.27,0,0,1,87,214c-1.73,1.73,3.53,4.83,3.53,4.83.78,4.47-4,9.52-4,9.52-4.83-5.84-10.67,1.45-10.67,1.45s-3.18-5.49-4-7.45,3.1-3.32,4.47-4.12-.07-5.48-.07-5.48-1.15-4.12-2.53-7.87,1.52-22.43,1.52-22.43a29.64,29.64,0,0,1,.5-4.47A7.47,7.47,0,0,0,76,175.4c0-.29,0-.52-.07-.69a1.73,1.73,0,0,0,0-.23l.06-.1,2-3.65S93.67,176.17,92.73,178.47Z"/><path class="cls-7" d="M122.45,223.91s-3.53-.07-5.41,1.57-11,.36-10.58,0,.36-3,.36-3c-5.34-7.28-.79-10.24-.79-10.24s-2.38-11.46-2.81-15.72c-.31-3-.68-11-.88-15.51-.08-2-.13-3.31-.13-3.31l4.35-.88.57-.12,10.51-2.1s.29,2,.49,3.56a17.69,17.69,0,0,1,.16,2.06c-.07.79,0,3.24,0,3.24l.36,7.36a8,8,0,0,0-.36,2.38c.07.94,1.44,14.35,1.44,14.35s2.38,8,1.57,8.59S122.45,223.91,122.45,223.91Z"/><path class="cls-5" d="M105,32.08a9.13,9.13,0,0,0-.24,3.27,13.41,13.41,0,0,1-14.28-.27,48.33,48.33,0,0,0-.69-5.74S105.93,29.7,105,32.08Z"/><path class="cls-6" d="M111.24,23.42a13.42,13.42,0,0,1-26.83.32v-.32A13.42,13.42,0,0,1,111.24,23v.46Z"/><path class="cls-5" d="M100,52.86c-5.18-2-11.83-8.65-10.17-11.76a6.74,6.74,0,0,0,.64-2.49l7.09,5.82L101.89,48l3.33-8.48c.29,1.78.57,3.14.57,3.14s-1,1.38-1.57,1.46S107.37,55.73,100,52.86Z"/><polygon class="cls-8" points="118.27 78.59 112.35 177.97 104.64 178.48 84.66 120.85 87.94 52.44 88.63 37.98 97.51 45.28 101.9 48.88 105.33 40.15 111.7 45.7 118.27 78.59"/><path class="cls-5" d="M92.73,178.47a10.88,10.88,0,0,0-.59,2A57,57,0,0,1,76,175.43l-.1-.05,0-.63,0-.33,2-3.66S93.67,176.17,92.73,178.47Z"/><path class="cls-5" d="M106.65,180.5a39.29,39.29,0,0,1-4.33.49c-.09-2-.14-3.3-.14-3.3l4.36-.88Z"/><path class="cls-5" d="M118.1,178.15a30.5,30.5,0,0,1-10.94,1l-.06-2.49,10.52-2.11S117.91,176.53,118.1,178.15Z"/><path class="cls-5" d="M107.09,179.63c-16.08,2.75-30.8-5.12-30.8-5.12l.14-2.67s.37-30.22-.64-32.53-1.8-14.07-1.23-15.87-2.09-28.85-2.09-28.85l-.43-11L56.26,77.22l7.05-14.71a54.83,54.83,0,0,0,2.46-6.35c1.22-3.82,6.92-7.57,6.92-7.57s5.84-3.75,8.15-3.61,5.34-3.31,5.34-3.31c2.23-5.7,4.25-3.12,4.25-3.12a5,5,0,0,1-.11.84c-.78,6.25,12.68,26,12.87,26.36h0L104.48,97l1.29,39.52Z"/><path class="cls-4" d="M106.65,179.63c-16.07,2.75-30.79-5.12-30.79-5.12l.14-2.67s.37-30.22-.65-32.53-1.8-14.07-1.22-15.87S72,94.59,72,94.59l-.44-11L55.81,77.2l7.06-14.71a54.37,54.37,0,0,0,2.45-6.35c1.23-3.82,6.93-7.57,6.93-7.57s5.84-3.75,8.14-3.61,5.34-3.32,5.34-3.32c2.24-5.69,4.7-3.11,4.7-3.11,0,.27-.23.39-.11.84,1.73,6.06,12.25,26,12.44,26.36h0L104.06,97l1.3,39.52Z"/><path class="cls-5" d="M102.32,66.62c-1.73-.72-10.88-11.18-10.88-11.18V53.06c-.34-.78-2.32-.3-3.92.25l.69-14.46.78.65C90.71,45.56,102.12,66.27,102.32,66.62Z"/><path class="cls-4" d="M102.76,65.75C101,65,91.87,54.58,91.87,54.58V52.2c-.34-.79-2.32-.31-3.92.24L88.64,38l.79.66C91.15,44.7,102.57,65.41,102.76,65.75Z"/><path class="cls-5" d="M76.29,117.9c.22,0,11.18-1.16,11.18-1.16s6.64,13.06,6.2,16.23-1.22,6-3.89,5.49-14.37.39-14.37.39Z"/><path class="cls-4" d="M75.86,117c.21,0,11.17-1.15,11.17-1.15s6.64,13.05,6.21,16.22-1.23,6-3.9,5.49S75,138,75,138Z"/><path class="cls-6" d="M84.12,110.9s10.06,5.41,10.27,7.06-5.12-.72-6.27-1a15,15,0,0,0-2.31-.36l-7.69.21Z"/><circle class="cls-5" cx="99.52" cy="66.23" r="1.06"/><circle class="cls-9" cx="99.52" cy="65.8" r="1.06"/><circle class="cls-5" cx="101.46" cy="112.06" r="1.06"/><circle class="cls-9" cx="101.46" cy="111.62" r="1.06"/><circle class="cls-5" cx="100.57" cy="89.15" r="1.06"/><circle class="cls-9" cx="100.57" cy="88.71" r="1.06"/><path class="cls-4" d="M125,116.37s.72,1.08,0,1.59.07,1.73.07,1.73-1.8,1-1,2,.29,5.24.29,5.24l-2.16,3.58s.13,2.31.14,5.43c0,4.87-.29,11.71-1.87,14.83l.22,25.61s-7.58,2.76-13.92,1.92l-1-41.08s1.38-23.3,1.88-27.77a45.49,45.49,0,0,0,.36-7,77.33,77.33,0,0,0-.94-10.24s-.78-14.06-.86-17.95c0-1.87.06-7.3.17-12.47.12-5.65.26-11,.26-11l-1.43-11.33s1.43-.14,1.86.44a4.77,4.77,0,0,0,.63.48h0c2.47,1.67,11.2,6.8,11.2,6.8s4.83,1.92,6,4.68a40.88,40.88,0,0,0,2.52,5.48c.56.79.87,4.47.87,4.47s1.66,6.79,3,7.93,2.25,8.46,2.25,8.46l-11.47,9s-1,15-1.22,15.58S125,116.37,125,116.37Z"/><path class="cls-4" d="M125.41,116.37s.71,1.08,0,1.59.06,1.73.06,1.73-1.79,1.06-1,2,.29,5.24.29,5.24l-2.16,3.58s.12,2.31.14,5.43c0,4.87-.29,11.71-1.87,14.83l.21,25.61s-7.59,2.77-13.92,1.92l-.94-41.08s1.37-23.3,1.88-27.77a46.77,46.77,0,0,0,.35-7,78.55,78.55,0,0,0-.93-10.24s-.79-14.06-.87-18c0-1.86.07-7.3.17-12.47.13-5.64.26-11,.26-11l-1.89-11.48s1.89,0,2.33.59a4.11,4.11,0,0,0,.62.48h0c2.47,1.67,11.21,6.8,11.21,6.8s4.82,1.93,6,4.68a40.54,40.54,0,0,0,2.52,5.49c.57.78.86,4.47.86,4.47s1.67,6.78,3,7.93,2.24,8.44,2.24,8.44l-11.47,9s-1,15-1.22,15.58S125.41,116.37,125.41,116.37Z"/><path class="cls-5" d="M111.67,54.16l1,3-5.45,5.49c.12-5.64.26-11,.26-11l-1.89-11.48s1.89,0,2.32.59a3.23,3.23,0,0,0,.63.47h0l4.63,13.37Z"/><path class="cls-4" d="M111.24,53.29l1,3-5.45,5.49c.12-5.65.26-11,.26-11l-1.9-11.48s1.9,0,2.33.59a4.11,4.11,0,0,0,.62.48h0l4.64,13.37Z"/><path class="cls-5" d="M111.24,23.42a13.36,13.36,0,0,1-.66,4.16.53.53,0,0,1-.42-.11c-.11-3.52-1.84-6.84-4-9.66A10.15,10.15,0,0,0,104,15.58a4.24,4.24,0,0,0-2.92-.83c-1.18.16-2.22,1-3.4,1.07-1.57.12-3-1-4.53-1a4.49,4.49,0,0,0-3.33,1.55,9.09,9.09,0,0,0-1.78,3.31,19.09,19.09,0,0,0-1,5.71c0,1.09-.12,2.47-1.14,2.87a5.85,5.85,0,0,0-1.48-4.47l0,0v-.32A13.42,13.42,0,0,1,111.24,23v.46Z"/><path class="cls-10" d="M103.38,2.12a9.21,9.21,0,0,0-6.51-.51c-1.09.32-2.11.84-3.21,1.11-2.36.57-5.1-.05-7.12,1.33a8.42,8.42,0,0,0-2.42,3.22l-1.57,3a19.28,19.28,0,0,0-2.08,5.1,6.54,6.54,0,0,0,1,5.26c.84,1.05,2.06,1.71,3,2.71a5.86,5.86,0,0,1,1.48,4.47c1-.4,1.12-1.78,1.14-2.87a19.41,19.41,0,0,1,1-5.71,9.09,9.09,0,0,1,1.78-3.31,4.49,4.49,0,0,1,3.33-1.55c1.57.06,3,1.14,4.53,1,1.18-.1,2.22-.9,3.4-1.06a4.21,4.21,0,0,1,2.93.83,9.94,9.94,0,0,1,2.15,2.24c2.14,2.81,3.88,6.12,4,9.66.44.32,1.08-.1,1.3-.6a13.71,13.71,0,0,1,.51-1.57c.32-.56.93-.85,1.41-1.27a5.55,5.55,0,0,0,1.49-4.44,22.3,22.3,0,0,1-.06-4.83c.19-1,.6-1.88.83-2.84a3.72,3.72,0,0,0-.28-2.86c-.79-1.22-2.44-1.46-3.88-1.57-1.63-.14-3.09,0-4.14-1.34a15.14,15.14,0,0,0-1.64-2C105.48,3.5,103.38,2.21,103.38,2.12Z"/><path class="cls-5" d="M60.77,84.79l-4.1-7.57L55.38,88.91a53.17,53.17,0,0,1,.57,6c-.14.8,3,7.93,3,7.93S69.15,121.07,73.34,122l14.13-10.1-3.75-4.76s-1.3-.5-1.62,0c0,0-7-12-7.68-12.84a4.31,4.31,0,0,1-.58-2.59s-1.08-1.16-.72-2.24S71,84.65,71,84.65l2.23-2.09Z"/><path class="cls-4" d="M56.89,76.36l-1.08.86-1.3,11.69a55.33,55.33,0,0,1,.58,6c-.15.8,3,7.93,3,7.93S68.29,121.07,72.47,122l14.14-10.1-3.76-4.76s-1.29-.5-1.62,0c0,0-7-12-7.68-12.84A4.28,4.28,0,0,1,73,91.72s-1.09-1.16-.73-2.24-2.09-4.83-2.09-4.83l2.24-2.09Z"/><path class="cls-5" d="M124,122.14c.79,1,.29,5.23.29,5.23L122.16,131s.13,2.31.14,5.43l-3.64,1.14A2.17,2.17,0,0,1,116,136.1a2.13,2.13,0,0,1-.09-.71l.62-20.23L125,118.4c-.72.5.07,1.74.07,1.74S123.24,121.19,124,122.14Z"/><path class="cls-4" d="M124.47,121.7c.78,1,.29,5.24.29,5.24l-2.16,3.58s.12,2.31.14,5.43L119,137.11a2.12,2.12,0,0,1-2.65-1.4,2,2,0,0,1-.09-.69l.63-20.29,8.49,3.24c-.73.5.07,1.73.07,1.73S123.68,120.75,124.47,121.7Z"/><path class="cls-6" d="M127.28,112.06s-.58,3.68-2,3.9-2.09,6-3.53,5.75-.48-5.34-.43-6.33-1.57-5.12-.36-6.06,5,0,5,0Z"/><path class="cls-5" d="M130.35,83.71l2.72-5.49a35.82,35.82,0,0,1,1.08,6.42c0,2.24,1.52,2.45,1.52,2.45s1.65,2,.78,3.39-1.23,5-1.23,5,.29,6.78-1,7.72-1.57,3.17-1.57,3.17-2.38,4.25-2.31,5.27-3.31,7.86-3.31,7.86,1.66-8.51-8-12.19c0,0-.07-2.89.65-3.68s1.85-1.16,1.14-5.16a46.3,46.3,0,0,1-.2-9.74c0-1,2.16-6.95,2.16-6.95Z"/><path class="cls-4" d="M131.53,77.44l2.37.78A35.52,35.52,0,0,1,135,84.64c0,2.24,1.51,2.45,1.51,2.45s1.66,2,.78,3.39-1.22,5-1.22,5,.29,6.78-1,7.72a5.29,5.29,0,0,0-1.59,3.17s-2.38,4.25-2.3,5.27-3.32,7.86-3.32,7.86,1.66-8.51-8-12.19c0,0-.07-2.89.65-3.68s1.85-1.16,1.14-5.16a47,47,0,0,1-.2-9.74c0-1,2.16-6.95,2.16-6.95Z"/><path class="cls-5" d="M79.05,219.7s3.79-2.38,6.27-.65S79.05,219.7,79.05,219.7Z"/><path class="cls-5" d="M108.48,212.34a7.66,7.66,0,0,1,6.16,2.6C117.46,218,108.48,212.34,108.48,212.34Z"/><g class="cls-11"><path d="M113.38,22.75A5.73,5.73,0,0,0,112,24a13.67,13.67,0,0,0-.5,1.57c-.22.51-.86.93-1.3.6-.11-3.52-1.85-6.84-4-9.66A10.15,10.15,0,0,0,104,14.29a4.19,4.19,0,0,0-2.92-.83c-1.18.16-2.22,1-3.4,1.06-1.57.13-3-1-4.53-1a4.44,4.44,0,0,0-3.33,1.55,8.9,8.9,0,0,0-1.78,3.3,19.52,19.52,0,0,0-1,5.71c0,1.1-.12,2.46-1.14,2.87a4.22,4.22,0,0,1,0,.87c1-.39,1.13-1.77,1.15-2.87a19.45,19.45,0,0,1,1-5.71,9.11,9.11,0,0,1,1.79-3.31,4.41,4.41,0,0,1,3.32-1.54c1.57,0,3,1.13,4.53,1,1.18-.09,2.22-.9,3.4-1.05a4.2,4.2,0,0,1,2.93.82,9.93,9.93,0,0,1,2.15,2.24c2.14,2.82,3.88,6.12,4,9.66.45.32,1.09-.1,1.31-.6a12.45,12.45,0,0,1,.5-1.57,5.73,5.73,0,0,1,1.42-1.26,5.56,5.56,0,0,0,1.48-4.45V19A5.12,5.12,0,0,1,113.38,22.75Z"/><path d="M84.44,22.47c-.9-1-2.13-1.66-3-2.71a5.82,5.82,0,0,1-1.14-3.21,6.08,6.08,0,0,0,1.14,4.08c.83,1.05,2.06,1.71,3,2.7a5.84,5.84,0,0,1,1.48,3.5A5.86,5.86,0,0,0,84.44,22.47Z"/><path d="M115.64,10.63c-.23,1-.65,1.88-.83,2.84a8.62,8.62,0,0,0-.13,2,8.39,8.39,0,0,1,.13-1.11c.18-1,.6-1.88.83-2.84a4.92,4.92,0,0,0,.13-1.62A6.51,6.51,0,0,1,115.64,10.63Z"/></g></g></g></svg>