<svg xmlns="http://www.w3.org/2000/svg" xmlns:xlink="http://www.w3.org/1999/xlink" viewBox="0 0 285.55 257.81"><defs><style>.cls-1{fill:#c4e7e3;}.cls-2{fill:#0a0a0a;}.cls-3{fill:#6c63ff;}.cls-12,.cls-3,.cls-6{opacity:0.1;}.cls-3,.cls-6{isolation:isolate;}.cls-4{fill:url(#linear-gradient);}.cls-5{fill:#fff;}.cls-7{fill:#eebfa5;}.cls-8{fill:#01036b;}.cls-9{fill:#8ec0fb;}.cls-10{fill:#3f3d56;}.cls-11{fill:#4f3405;}.cls-13{fill:#3a2506;}.cls-14{fill:#316dd0;}.cls-15{fill:#050505;}.cls-16{fill:#e6e6e6;}</style><linearGradient id="linear-gradient" x1="-144.85" y1="9662.87" x2="-144.85" y2="9894.26" gradientTransform="matrix(1, 0, 0, -1, 194.55, 9915.27)" gradientUnits="userSpaceOnUse"><stop offset="0" stop-color="gray" stop-opacity="0.25"/><stop offset="0.54" stop-color="gray" stop-opacity="0.12"/><stop offset="1" stop-color="gray" stop-opacity="0.1"/></linearGradient></defs><title>clinicas</title><g id="Layer_2" data-name="Layer 2"><g id="Capa_1" data-name="Capa 1"><path class="cls-1" d="M278.67,102.52C261,44,199.85,1.75,128.1.05,90.17-.84,50.26,9.74,21.2,46.78c-51.95,66.21,3.19,112,41.63,133.7a231.26,231.26,0,0,1,49.72,37.6c26,25.92,75.93,58.14,135.42,7.66C291.09,189.16,290.46,141.5,278.67,102.52Z"/><path class="cls-2" d="M86.36,109.25a.48.48,0,0,0-.68.07.64.64,0,0,0-.12.25l-3.35,22a.46.46,0,0,0,.08.34l3.27,4.62a.48.48,0,0,0,.67.09.51.51,0,0,0,.2-.35l2.83-23.11a.43.43,0,0,0-.09-.35l-2.75-3.45Z"/><ellipse class="cls-3" cx="53.85" cy="249.32" rx="36.64" ry="5.89"/><path class="cls-4" d="M89.29,103.79s-1.49-.2-1.49-2.36a33.81,33.81,0,0,0-1.06-6.19h0s-.91-7-2.18-8.13-2.9-7.65-2.9-7.65-.28-3.55-.84-4.31a36.26,36.26,0,0,1-2.47-5.3c-1.13-2.67-5.85-4.51-5.85-4.51s-8.53-5-11-6.57h0a3.05,3.05,0,0,1-.61-.46c-.43-.55-2.26-.56-2.26-.56a37.34,37.34,0,0,1-.44-3.86,2.82,2.82,0,0,0,0-.41,13,13,0,0,0,5.72-7.08c.05-.14.09-.29.13-.43a1.24,1.24,0,0,0,.73-.67,14.61,14.61,0,0,1,.49-1.5,5.7,5.7,0,0,1,1.4-1.22,5.27,5.27,0,0,0,1.44-4.28c0-1.26-.24-2.54-.16-3.79l0-.31c0-.19.05-.38.09-.56.18-.93.58-1.81.81-2.74a3.52,3.52,0,0,0-.28-2.76c-.77-1.17-2.38-1.4-3.79-1.52-1.59-.14-3,0-4-1.29a13.48,13.48,0,0,0-1.61-1.94c-.21-.2-2.25-1.45-2.25-1.53a9.13,9.13,0,0,0-6.38-.49c-1.06.31-2.06.81-3.13,1.06-2.32.55-5,0-7,1.29a8.15,8.15,0,0,0-2.38,3.11c-.5,1-1,1.92-1.52,2.88a18.52,18.52,0,0,0-2,4.92,7.36,7.36,0,0,0-.13,1.15h0v.61a2.36,2.36,0,0,0,0,.38c0,.12,0,.15,0,.23s0,.26,0,.38.07.33.11.49,0,.14.07.21.08.25.13.38l.09.19a2.69,2.69,0,0,0,.19.38l.08.15a5.62,5.62,0,0,0,.35.5c.8,1,2,1.65,2.86,2.59v.42A12.9,12.9,0,0,0,44.22,53.2c0,.14,0,.29,0,.43a22,22,0,0,1,0,3.35A1.61,1.61,0,0,0,43,56.42a1.91,1.91,0,0,0-.48,0l0,0h0v0c-.83.21-1.84,1.07-2.82,3.52,0,0-3,3.33-5.22,3.2s-8,3.47-8,3.47-5.57,3.62-6.77,7.3a50.18,50.18,0,0,1-2.39,6.13L10.38,94.28h0L9.11,105.54a52.17,52.17,0,0,1,.56,5.78c-.14.76,2.89,7.64,2.89,7.64s10,17.6,14.11,18.5l.29-.21a2,2,0,0,0,.55.21l.85-.59a9.35,9.35,0,0,1-.07,2c-.56,1.74.21,13.08,1.2,15.3s.63,31.36.63,31.36L30,188.08a.93.93,0,0,0,0,.23l0,.61.1.05a7,7,0,0,1-.1,2.45,27.48,27.48,0,0,0-.49,4.32s-2.82,18-1.48,21.62,2.47,7.58,2.47,7.58,1.41,4.51.06,5.28-5.16,2.07-4.37,3.95,3.43,6.39,3.83,7.07l0,.36-.55,6a7.67,7.67,0,0,0,.64,2.29,4,4,0,0,0,4,2.51c.37,0,.81-.07,1.23-.13a53.17,53.17,0,0,0,9.14-2.38,3.65,3.65,0,0,1-.72-.59h0a2.06,2.06,0,0,1-.62-1.5c.06-1.09-2-6.29-2.49-7.57-.08-.18-.12-.29-.12-.29s4.65-4.86,3.88-9.18c0,0-5.15-3-3.46-4.66a52.18,52.18,0,0,0,4.73-6.39s.14-17.73,0-20.38a21.59,21.59,0,0,1,.26-5.5c.05-.27.12-.54.19-.8a49.55,49.55,0,0,0,7.09.54c.86,0,1.74,0,2.63-.06,0,.25,0,.52,0,.82.2,4.39.56,12.09.86,15,.42,4.1,2.75,15.16,2.75,15.16s-4.44,2.85.77,9.87c0,0,0,2.55-.34,2.92h0a30.66,30.66,0,0,0-.89,3.67,6.51,6.51,0,0,0,0,3.36c.85,1.66,5.93,1.52,5.93,1.52h0l.12,0a7.25,7.25,0,0,1,5.37,1.62c1.93,1.55,9.25.87,13.22.38,1.55-.2,2.59-.38,2.59-.38a1.4,1.4,0,0,0,0-.54h0c0-1-.8-3.11-6-5,0,0-4.86-3.27-4.8-6.12h-.66a5.91,5.91,0,0,1,.67,0s-1.91-7-1.13-7.52-1.55-8.27-1.55-8.27S71.52,207,71.45,206.06a8.11,8.11,0,0,1,.35-2.3l-.35-7.09s-.06-2.36,0-3.13a14.55,14.55,0,0,0-.16-2c0-.27-.07-.54-.1-.81,1.82-.47,3-.89,3-.89L74,165.17c1.55-3,1.84-9.61,1.83-14.29,0-3-.13-5.24-.13-5.24l2.11-3.45s.49-4.14-.28-5A.88.88,0,0,1,77.6,136a3.37,3.37,0,0,1,.46-.31l0-.09a3.28,3.28,0,0,1,.47-.33s-.76-1.17-.08-1.66c.63.43,1.19.75,1.62,1,0,.28-.06.44-.06.44l.18-.38.67.38s3.31-6.61,3.24-7.58,2.26-5.08,2.26-5.08a5.07,5.07,0,0,1,1.55-3.06c1.27-.9,1-7.44,1-7.44s.35-3.41,1.2-4.8S89.29,103.79,89.29,103.79ZM25.82,100.9l.07,1.57-.65-1Z"/><path class="cls-5" d="M81,132.16l-.82,3.46s-6.5-3.32-7.67-7.54,2-5.82,2-5.82l6.06,2.57Z"/><path class="cls-6" d="M81,132.16l-.82,3.46s-6.5-3.32-7.67-7.54,2-5.82,2-5.82l6.06,2.57Z"/><path class="cls-5" d="M44.49,249.91s-6,2.21-10.16,2.48a3.85,3.85,0,0,1-3.94-2.49,7.49,7.49,0,0,1-.62-2.28l.54-6,.28-3.17,8.79-2.28,1.25,3.8.11.29c.5,1.27,2.51,6.44,2.45,7.52a2,2,0,0,0,.61,1.49A3.31,3.31,0,0,0,44.49,249.91Z"/><path class="cls-5" d="M85.58,246.87a1.38,1.38,0,0,1,0,.54s-12.87,2.15-15.5,0a7,7,0,0,0-5.41-1.58s-5,.13-5.81-1.51a6.43,6.43,0,0,1,0-3.34,30.73,30.73,0,0,1,.87-3.65l.2-.16,1.18-.95,13.87-.41H75c-.07,2.84,4.7,6.09,4.7,6.09C84.78,243.78,85.52,245.9,85.58,246.87Z"/><path class="cls-6" d="M85.58,246.87a1.38,1.38,0,0,1,0,.54s-12.87,2.15-15.5,0a6.94,6.94,0,0,0-5.41-1.58s-5,.13-5.81-1.51a6.43,6.43,0,0,1,0-3.34c1.91.19,4.94.67,6.13,1.81,1.8,1.73,4.84,3.46,6.71,3.6C73.07,246.48,81.82,246.76,85.58,246.87Z"/><path class="cls-6" d="M44.49,249.91s-6,2.21-10.16,2.48a3.84,3.84,0,0,1-3.94-2.5c1.53.52,3.66,1.06,4.78.56,1.32-.58,6-1,8.64-1.12A3.79,3.79,0,0,0,44.49,249.91Z"/><path class="cls-7" d="M53.41,71.72c-5-1.93-11.34-8.3-9.75-11.28a6.87,6.87,0,0,0,.62-2.39,22.57,22.57,0,0,0,0-3.39,48.29,48.29,0,0,0-.67-5.5s15.5.35,14.59,2.63A8.64,8.64,0,0,0,58,54.92c.07,1.3.26,2.77.46,4,.27,1.7.54,3,.54,3s-1,1.33-1.51,1.4S60.54,74.47,53.41,71.72Z"/><path class="cls-6" d="M40.73,240.3l-.12.13c-4.63-5.6-10.23,1.38-10.23,1.38l-.08-.15.28-3.17,8.79-2.28,1.24,3.8Z"/><path class="cls-6" d="M75,236.21s-3.39-.08-5.19,1.52-10.53.35-10.15,0a1.17,1.17,0,0,0,.19-.57l1.19-.95,13.87-.41C75,236.05,75,236.21,75,236.21Z"/><path class="cls-8" d="M46.5,192.21a9.88,9.88,0,0,0-.58,1.92,22.36,22.36,0,0,0-.26,5.48c.14,2.63,0,20.27,0,20.27A53,53,0,0,1,41,226.24c-1.66,1.66,3.39,4.64,3.39,4.64.75,4.29-3.81,9.13-3.81,9.13-4.63-5.6-10.24,1.39-10.24,1.39s-3-5.27-3.8-7.15,3-3.18,4.29-3.94-.07-5.27-.07-5.27-1.11-3.94-2.42-7.54S29.82,196,29.82,196a27.87,27.87,0,0,1,.48-4.29,6.85,6.85,0,0,0,.1-2.43c0-.28,0-.51-.06-.66a2.32,2.32,0,0,0,0-.23l.06-.09,1.88-3.5S47.4,190,46.5,192.21Z"/><path class="cls-8" d="M75,235.79s-3.39-.07-5.19,1.51-10.53.34-10.15,0,.34-2.91.34-2.91c-5.12-7-.75-9.82-.75-9.82s-2.29-11-2.7-15.08c-.29-2.85-.65-10.51-.84-14.89-.08-1.88-.13-3.17-.13-3.17l4.18-.84.54-.11,10.09-2s.27,1.88.46,3.41a14.7,14.7,0,0,1,.16,2c-.07.75,0,3.1,0,3.1l.34,7.06A8,8,0,0,0,71,206.3c.07.9,1.38,13.77,1.38,13.77s2.28,7.68,1.5,8.23S75,235.79,75,235.79Z"/><path class="cls-6" d="M58.25,51.79A8.64,8.64,0,0,0,58,54.92a12.87,12.87,0,0,1-13.69-.26,48.57,48.57,0,0,0-.67-5.5S59.16,49.5,58.25,51.79Z"/><path class="cls-7" d="M64.24,43.48a12.61,12.61,0,0,1-.63,4,12.86,12.86,0,0,1-25.09-3.68v-.31A12.87,12.87,0,1,1,64.25,43v.44Z"/><path class="cls-6" d="M53.41,71.72c-5-1.93-11.34-8.3-9.75-11.28a6.87,6.87,0,0,0,.62-2.39l6.8,5.58,4.2,3.45,3.2-8.14c.27,1.71.54,3,.54,3s-1,1.33-1.51,1.4S60.54,74.47,53.41,71.72Z"/><polygon class="cls-9" points="70.99 96.4 65.31 191.72 57.91 192.21 38.75 136.94 41.89 71.31 42.55 57.45 51.08 64.44 55.28 67.89 58.57 59.52 64.69 64.85 70.99 96.4"/><path class="cls-6" d="M46.5,192.21a9.88,9.88,0,0,0-.58,1.92,54.53,54.53,0,0,1-15.51-4.84l-.1-.06,0-.6,0-.32,1.88-3.5S47.4,190,46.5,192.21Z"/><path class="cls-6" d="M59.85,194.15a38.93,38.93,0,0,1-4.16.47c-.08-1.88-.13-3.17-.13-3.17l4.18-.84Z"/><path class="cls-6" d="M70.83,191.89a29.05,29.05,0,0,1-10.5,1l0-2.38,10.08-2S70.64,190.34,70.83,191.89Z"/><path class="cls-6" d="M60.26,193.32C44.84,196,30.72,188.4,30.72,188.4l.14-2.55s.35-29-.62-31.21-1.73-13.5-1.18-15.23-2-27.67-2-27.67l-.42-10.53L11.5,95.08,18.27,81a51.1,51.1,0,0,0,2.36-6.09c1.17-3.66,6.64-7.26,6.64-7.26s5.6-3.6,7.82-3.46S40.2,61,40.2,61c2.15-5.47,4.09-3,4.09-3a4.7,4.7,0,0,1-.11.81c-.75,6,12.16,25,12.35,25.28h0l1.23,30L59,152Z"/><path class="cls-5" d="M59.85,193.32C44.43,196,30.31,188.4,30.31,188.4l.14-2.55s.35-29-.63-31.21-1.72-13.5-1.17-15.23-2-27.67-2-27.67l-.41-10.53L11.08,95.06,17.85,81a51,51,0,0,0,2.35-6.09c1.18-3.66,6.64-7.26,6.64-7.26s5.61-3.6,7.82-3.46S39.78,61,39.78,61c2.14-5.47,4.51-3,4.51-3,0,.26-.23.37-.11.8,1.66,5.82,11.75,25,11.93,25.29h0l1.25,30,1.24,37.9Z"/><path class="cls-6" d="M55.69,84.91C54,84.22,45.25,74.19,45.25,74.19V71.91c-.32-.75-2.22-.29-3.76.23l.66-13.86.75.62C44.55,64.72,55.5,84.58,55.69,84.91Z"/><path class="cls-5" d="M56.11,84.08c-1.66-.69-10.45-10.72-10.45-10.72V71.08c-.32-.75-2.21-.29-3.76.23l.67-13.86.75.62C45,63.89,55.93,83.75,56.11,84.08Z"/><path class="cls-6" d="M30.72,134.1c.21,0,10.73-1.11,10.73-1.11s6.36,12.52,5.94,15.57-1.17,5.74-3.73,5.26-13.78.38-13.78.38Z"/><path class="cls-5" d="M30.31,133.27c.2,0,10.72-1.11,10.72-1.11s6.36,12.53,5.95,15.57-1.18,5.74-3.74,5.26-13.78.38-13.78.38Z"/><path class="cls-7" d="M38.23,127.39s9.65,5.19,9.86,6.77-4.92-.69-6-1a13.84,13.84,0,0,0-2.22-.34l-7.37.2Z"/><circle class="cls-6" cx="53" cy="84.54" r="1.02"/><circle class="cls-10" cx="53" cy="84.13" r="1.02"/><circle class="cls-6" cx="54.87" cy="128.5" r="1.02"/><circle class="cls-10" cx="54.87" cy="128.08" r="1.02"/><circle class="cls-6" cx="54.01" cy="106.52" r="1.02"/><circle class="cls-10" cx="54.01" cy="106.11" r="1.02"/><path class="cls-5" d="M77.42,132.64s.69,1,0,1.52.06,1.66.06,1.66-1.72,1-1,1.92.28,5,.28,5l-2.08,3.44s.13,2.21.13,5.21c0,4.67-.27,11.23-1.79,14.22l.21,24.56S66,192.85,59.92,192L59,152.63s1.32-22.35,1.81-26.63a45.71,45.71,0,0,0,.34-6.72,76,76,0,0,0-.9-9.82S59.51,96,59.43,92.24c0-1.79.06-7,.17-12,.11-5.41.24-10.52.24-10.52L58.47,58.9s1.37-.14,1.79.41a3.82,3.82,0,0,0,.6.46h0c2.37,1.6,10.74,6.53,10.74,6.53s4.63,1.84,5.74,4.48a39.45,39.45,0,0,0,2.42,5.27c.54.75.83,4.28.83,4.28s1.6,6.51,2.84,7.61,2.15,8.11,2.15,8.11l-11,8.65s-1,14.39-1.18,14.94S77.42,132.64,77.42,132.64Z"/><path class="cls-5" d="M77.83,132.64s.69,1,0,1.52.07,1.66.07,1.66-1.72,1-1,1.93.27,5,.27,5l-2.07,3.44s.12,2.21.13,5.21c0,4.67-.27,11.23-1.79,14.23l.21,24.56s-7.28,2.65-13.36,1.84l-.9-39.41s1.32-22.35,1.8-26.63a43.11,43.11,0,0,0,.34-6.72,75.35,75.35,0,0,0-.89-9.82S59.92,96,59.84,92.25c0-1.79.07-7,.17-12,.12-5.42.25-10.53.25-10.53l-1.81-11s1.81,0,2.23.56a3,3,0,0,0,.6.46h0C63.65,61.38,72,66.31,72,66.31s4.63,1.84,5.74,4.48a38.82,38.82,0,0,0,2.42,5.27c.54.75.83,4.28.83,4.28S82.6,86.85,83.85,88,86,96.05,86,96.05L75,104.7s-1,14.38-1.18,14.94S77.83,132.64,77.83,132.64Z"/><path class="cls-6" d="M64.66,73l1,2.89-5.22,5.27c.11-5.42.25-10.53.25-10.53l-1.82-11s1.82,0,2.23.56a3.37,3.37,0,0,0,.61.46h0l4.44,12.83Z"/><path class="cls-5" d="M64.24,72.13l1,2.89L60,80.29c.12-5.42.25-10.53.25-10.53l-1.81-11s1.81,0,2.23.56a3.46,3.46,0,0,0,.6.47h0l4.45,12.81Z"/><path class="cls-6" d="M64.24,43.48a12.61,12.61,0,0,1-.63,4,.56.56,0,0,1-.4-.1c-.1-3.39-1.77-6.57-3.82-9.27A9.51,9.51,0,0,0,57.33,36a4.06,4.06,0,0,0-2.81-.8c-1.13.16-2.12.92-3.26,1-1.51.13-2.85-.92-4.35-1a4.27,4.27,0,0,0-3.19,1.48A8.76,8.76,0,0,0,42,39.87a18.82,18.82,0,0,0-1,5.47c0,1.06-.12,2.38-1.09,2.76a5.66,5.66,0,0,0-1.42-4.29l0,0v-.31A12.87,12.87,0,1,1,64.25,43v.44Z"/><path class="cls-11" d="M56.71,23.05a8.83,8.83,0,0,0-6.25-.49c-1,.31-2,.81-3.08,1.06-2.26.54-4.89-.05-6.83,1.27A8.23,8.23,0,0,0,38.23,28l-1.5,2.86a18.63,18.63,0,0,0-2,4.89,6.2,6.2,0,0,0,1,5c.79,1,2,1.65,2.83,2.6A5.65,5.65,0,0,1,40,47.67c1-.37,1.07-1.7,1.1-2.75a18.48,18.48,0,0,1,1-5.47,8.76,8.76,0,0,1,1.71-3.18,4.27,4.27,0,0,1,3.2-1.48c1.5.05,2.85,1.09,4.34,1,1.13-.1,2.13-.87,3.26-1a4.06,4.06,0,0,1,2.81.8,9.51,9.51,0,0,1,2.06,2.14c2.06,2.7,3.72,5.87,3.82,9.26.42.32,1-.09,1.25-.57a14.58,14.58,0,0,1,.48-1.5,5.48,5.48,0,0,1,1.36-1.22,5.31,5.31,0,0,0,1.43-4.26,21.1,21.1,0,0,1-.06-4.63c.18-.93.58-1.8.8-2.73a3.6,3.6,0,0,0-.27-2.74c-.76-1.17-2.34-1.4-3.72-1.51-1.57-.13-3,0-4-1.28a14,14,0,0,0-1.58-1.93C58.72,24.37,56.71,23.13,56.71,23.05Z"/><path class="cls-6" d="M15.84,102.35l-3.93-7.27-1.25,11.21a54.1,54.1,0,0,1,.56,5.74c-.14.77,2.83,7.61,2.83,7.61s9.83,17.5,13.84,18.4l13.56-9.68-3.6-4.57s-1.24-.48-1.56,0c0,0-6.67-11.48-7.36-12.31a4.1,4.1,0,0,1-.56-2.49s-1-1.11-.69-2.15-2-4.63-2-4.63l2.15-2Z"/><path class="cls-5" d="M12.11,94.25l-1,.83L9.83,106.29a51.87,51.87,0,0,1,.55,5.74c-.13.77,2.84,7.61,2.84,7.61s9.83,17.5,13.84,18.4l13.56-9.68L37,123.79s-1.25-.48-1.56,0c0,0-6.67-11.48-7.36-12.31a4.1,4.1,0,0,1-.56-2.49s-1-1.11-.69-2.15-2-4.63-2-4.63l2.15-2Z"/><path class="cls-6" d="M76.52,138.17c.75.91.28,5,.28,5l-2.08,3.44s.13,2.22.13,5.21l-3.49,1.09a2.07,2.07,0,0,1-2.59-1.36,2.24,2.24,0,0,1-.1-.68l.61-19.41,8.14,3.11c-.69.49.07,1.67.07,1.67S75.76,137.25,76.52,138.17Z"/><path class="cls-5" d="M76.94,137.75c.75.91.27,5,.27,5l-2.07,3.44s.12,2.21.13,5.21l-3.55,1.11a2,2,0,0,1-2.54-1.34,1.88,1.88,0,0,1-.09-.66l.6-19.47,8.15,3.11c-.7.48.06,1.66.06,1.66S76.18,136.84,76.94,137.75Z"/><path class="cls-7" d="M79.63,128.5s-.55,3.53-1.93,3.74-2,5.71-3.39,5.51-.47-5.11-.42-6.07-1.5-4.91-.34-5.81,4.84,0,4.84,0Z"/><path class="cls-6" d="M82.58,101.31,85.19,96a34.55,34.55,0,0,1,1,6.16c0,2.14,1.46,2.35,1.46,2.35s1.59,1.88.75,3.25-1.18,4.78-1.18,4.78.28,6.5-1,7.4a5.06,5.06,0,0,0-1.5,3s-2.29,4.08-2.22,5.05-3.18,7.54-3.18,7.54,1.59-8.17-7.68-11.7c0,0-.07-2.77.62-3.53s1.77-1.1,1.1-4.94a44.74,44.74,0,0,1-.2-9.35c0-.92,2.08-6.67,2.08-6.67Z"/><path class="cls-5" d="M83.7,95.29,86,96a34,34,0,0,1,1,6.16c0,2.14,1.45,2.35,1.45,2.35s1.59,1.88.75,3.25-1.17,4.78-1.17,4.78.27,6.5-1,7.4a5.11,5.11,0,0,0-1.53,3s-2.28,4.08-2.21,5.05-3.18,7.54-3.18,7.54,1.59-8.17-7.68-11.7c0,0-.07-2.77.62-3.53s1.77-1.1,1.1-4.94a44.74,44.74,0,0,1-.2-9.35c0-.92,2.08-6.67,2.08-6.67Z"/><path class="cls-6" d="M33.37,231.75s3.63-2.29,6-.63S33.37,231.75,33.37,231.75Z"/><path class="cls-6" d="M61.6,224.69a7.32,7.32,0,0,1,5.91,2.49C70.21,230.09,61.6,224.69,61.6,224.69Z"/><g class="cls-12"><path d="M66.3,42.83c-.46.4-1.06.69-1.36,1.22a11.94,11.94,0,0,0-.48,1.5c-.22.49-.83.89-1.25.58-.1-3.39-1.77-6.56-3.82-9.27a9.51,9.51,0,0,0-2.06-2.14,4.06,4.06,0,0,0-2.81-.8c-1.13.16-2.12.92-3.26,1-1.51.13-2.86-.92-4.35-1a4.23,4.23,0,0,0-3.19,1.49A8.64,8.64,0,0,0,42,38.63a18.82,18.82,0,0,0-1,5.47c0,1-.12,2.36-1.09,2.75a3.93,3.93,0,0,1,0,.84c1-.38,1.08-1.7,1.1-2.76a18.5,18.5,0,0,1,1-5.47,8.62,8.62,0,0,1,1.71-3.18,4.25,4.25,0,0,1,3.19-1.48c1.5.05,2.85,1.09,4.34,1,1.13-.1,2.13-.87,3.26-1a4,4,0,0,1,2.81.8,9.56,9.56,0,0,1,2.07,2.14c2.05,2.7,3.72,5.87,3.81,9.27.43.31,1-.1,1.25-.58a15.4,15.4,0,0,1,.48-1.5,5.49,5.49,0,0,1,1.37-1.21,5.34,5.34,0,0,0,1.42-4.27v-.14A4.93,4.93,0,0,1,66.3,42.83Z"/><path d="M38.54,42.56c-.86-1-2-1.58-2.84-2.59a5.46,5.46,0,0,1-1.09-3.08A5.81,5.81,0,0,0,35.7,40.8c.8,1,2,1.64,2.84,2.59A5.68,5.68,0,0,1,40,46.75,5.65,5.65,0,0,0,38.54,42.56Z"/><path d="M68.46,31.21c-.22.92-.61,1.8-.79,2.73a8.45,8.45,0,0,0-.12,1.88,6.37,6.37,0,0,1,.12-1.07c.18-.93.57-1.81.79-2.73a4.49,4.49,0,0,0,.13-1.55A6,6,0,0,1,68.46,31.21Z"/></g><path class="cls-2" d="M73.53,93.81a.5.5,0,0,0-.7.1.57.57,0,0,0-.12.26l-4,22.66a.42.42,0,0,0,.07.35L72,121.85a.48.48,0,0,0,.68.08.55.55,0,0,0,.22-.37L76.4,97.71a.46.46,0,0,0-.09-.36l-2.72-3.48Z"/><polygon class="cls-5" points="200.25 126.61 241.81 127.8 241.81 181.98 195.41 181.98 200.25 126.61"/><polygon class="cls-8" points="247.65 234.44 238.21 233.78 222.93 170.23 223.26 204.75 210.25 224.26 203.75 137.4 242.09 137.4 247.65 234.44"/><path class="cls-8" d="M223.8,192a10.22,10.22,0,0,0-.54,1.89,22.62,22.62,0,0,0-.24,5.39c.13,2.58,0,19.92,0,19.92a52.26,52.26,0,0,1-4.37,6.26c-1.56,1.63,3.19,4.56,3.19,4.56.71,4.21-3.58,9-3.58,9-4.36-5.5-9.64,1.36-9.64,1.36s-2.87-5.17-3.58-7,2.8-3.13,4-3.88-.06-5.17-.06-5.17-1-3.88-2.28-7.42,1.37-21.15,1.37-21.15a28.52,28.52,0,0,1,.45-4.22,7.1,7.1,0,0,0,.1-2.39c0-.27-.05-.5-.07-.65a1.18,1.18,0,0,0,0-.22l0-.09,1.77-3.45S220.39,183.21,223.8,192Z"/><path class="cls-8" d="M250,234.85s-3.19-.07-4.89,1.48-9.91.34-9.56,0,.33-2.86.33-2.86c-4.82-6.87-.71-9.66-.71-9.66S233,213,232.59,209c-.27-2.81-.61-10.34-.79-14.64-.08-1.84-.12-3.12-.12-3.12l3.93-.82.51-.11,9.5-2s.26,1.85.43,3.36a16,16,0,0,1,.15,2c-.06.74,0,3,0,3l.33,6.94a8.56,8.56,0,0,0-.33,2.25c.07.88,1.3,13.53,1.3,13.53s2.15,7.55,1.42,8.09S250,234.85,250,234.85Z"/><ellipse class="cls-3" cx="234.04" cy="247.51" rx="33.22" ry="5.57"/><path class="cls-7" d="M234.11,63.13l-19.44-1.19c1.91-4.57,2.67-9,1.91-13.13h14.48C231,52,232.56,57.55,234.11,63.13Z"/><polygon class="cls-9" points="246.31 137.15 203.62 140.33 208 61.34 215.44 59.15 223.82 61.14 232.21 56.77 237.54 58.76 246.31 137.15"/><path class="cls-5" d="M210.86,194.05l-24.81-5.28C194.72,158.75,206,88.4,201,63.93l15.24-7.16Z"/><path class="cls-5" d="M196.76,107.3l-11-7.16,9.43-28.82a13.39,13.39,0,0,1,5.69-7.06L204,62.34l-1.9,29Z"/><path class="cls-5" d="M261.81,190.18c-9.2,5.56-22.36,6-32.46,2.08-.75-27.12-2.2-103.84,2.47-136.29l16.77,7.16-1.52,21.49C239.05,103,252.49,169.73,261.81,190.18Z"/><path class="cls-10" d="M207.24,87.21h-1.52c0-20.62,4.47-33.43,11.05-33.43l-.38,1.59C211.84,55.37,207.24,65.22,207.24,87.21Z"/><path class="cls-10" d="M201.15,96.76h-1.53c0-5.71,3.08-10.35,6.86-10.35V88C203.54,88,201.15,91.93,201.15,96.76Z"/><path class="cls-10" d="M213.34,96.76h-1.52c0-4.83-2.4-8.76-5.34-8.76V86.41C210.26,86.41,213.34,91.05,213.34,96.76Z"/><ellipse class="cls-10" cx="212.58" cy="97.15" rx="1.52" ry="1.59"/><ellipse class="cls-10" cx="200.38" cy="97.15" rx="1.52" ry="1.59"/><polygon class="cls-2" points="181.33 82.52 190.84 84.29 212.58 116.57 201.03 113.73 181.33 82.52"/><path class="cls-7" d="M192.32,104l.56,8.17,8.91-1.27c1.57-.22,2.72-2.24,2.56-4.49s-1.55-3.9-3.12-3.68Z"/><path class="cls-5" d="M184.57,104.45a7.51,7.51,0,0,0,7.34,7.63h1.47l1.06-9.29-8.83-3.32Z"/><path class="cls-5" d="M257.53,131.06s.65,1,0,1.49.06,1.63.06,1.63-1.61,1-.91,1.9S257,141,257,141l-2,3.38s.12,2.17.13,5.12c0,4.59-.26,11-1.69,14l.19,24.14s-6.85,2.61-12.57,1.82l-.85-38.75s1.24-22,1.7-26.18a45.53,45.53,0,0,0,.32-6.6,76,76,0,0,0-.85-9.66s-.7-13.26-.78-16.93c0-1.75.06-6.88.16-11.75.11-5.33.23-10.35.23-10.35l-5.21-10.44s5.21-.38,5.6.17a4,4,0,0,0,.57.45h0c2.23,1.58,10.12,6.42,10.12,6.42s4.35,1.81,5.4,4.41a38.14,38.14,0,0,0,2.28,5.17c.51.74.78,4.22.78,4.22s1.5,6.39,2.67,7.48,2,8,2,8l-10.36,8.5s-.91,14.14-1.1,14.69S257.53,131.06,257.53,131.06Z"/><path class="cls-7" d="M259.22,127s-.52,3.47-1.82,3.67-1.89,5.62-3.19,5.43-.44-5-.39-6-1.42-4.83-.32-5.72,4.55,0,4.55,0Z"/><path class="cls-5" d="M263.06,94.34l2.14.74a35,35,0,0,1,1,6c0,2.11,1.37,2.32,1.37,2.32s1.5,1.85.71,3.19a16.13,16.13,0,0,0-1.11,4.7s.26,6.39-.91,7.27a5.14,5.14,0,0,0-1.43,3s-2.15,4-2.09,5-3,7.41-3,7.41,1.5-8-7.23-11.49c0,0-.07-2.72.58-3.47s1.67-1.09,1-4.86a46.49,46.49,0,0,1-.18-9.19,59.71,59.71,0,0,1,1.95-6.56Z"/><ellipse class="cls-10" cx="241.54" cy="93.18" rx="3.81" ry="3.98"/><path class="cls-10" d="M242.31,92.78h-1.53c0-22.51-4.44-38.2-8.76-38.2L231.63,53c3.88,0,6.36,6.53,7.75,12C241.27,72.42,242.31,82.29,242.31,92.78Z"/><path class="cls-7" d="M235.78,38.45a13.05,13.05,0,0,1-.6,3.93,12,12,0,0,1-15.28,8.1,12.61,12.61,0,0,1-8.35-11.72v-.31A12.13,12.13,0,1,1,235.78,38v.43Z"/><path d="M218.27,18.37a8,8,0,0,1,5.88-.48c1,.3,1.91.79,2.9,1,2.12.54,8,3.16,8.61,4.3L237.08,26A18.69,18.69,0,0,1,239,30.85a6.32,6.32,0,0,1-.9,5c-.75,1-1.86,1.62-2.67,2.55-1,1.15-.33,2.48-.2,4-.92-.37-2.15-1.47-2.17-2.51,0-1.83-3.67-9.67-9.6-9-1.07-.09-2-.85-3.08-1a3.63,3.63,0,0,0-2.64.78,9.24,9.24,0,0,0-1.94,2.1,16.78,16.78,0,0,0-3.6,9.11c-.4.31-1-.09-1.17-.56a14.14,14.14,0,0,0-.46-1.48,5.2,5.2,0,0,0-1.28-1.19,5.41,5.41,0,0,1-1.34-4.19c0-1.52-.67-5.06,2.15-9.42,1.35-1.53,3.71-2,4.65-3.26a15.12,15.12,0,0,1,1.48-1.9C216.37,19.67,218.27,18.45,218.27,18.37Z"/><path class="cls-6" d="M235.59,71.75l.55,3.36-6.92,4.55c1.19-5.85,2.34-11.36,2.34-11.36l.1-12.33s2,.4,2.4,1.1a3.9,3.9,0,0,0,.59.63h0l2.51,14.88Z"/><path class="cls-5" d="M234.64,74.32l.42,4.13-7.17,6c1.44-7.29,2.83-14.16,2.83-14.16L231.35,55s2.05.4,2.38,1.25a4.19,4.19,0,0,0,.56.75h0l1.9,18.3Z"/><path class="cls-6" d="M215.4,86.21c-1.08-1.36-4-14.1-4-14.1l1-2c.06-.81-1.72-1.27-3.24-1.52l6.62-11.77.35.89C214.93,63.54,215.38,85.84,215.4,86.21Z"/><path class="cls-5" d="M216.11,85.68c-1.08-1.36-4-14.1-4-14.1l1-2c.06-.8-1.72-1.27-3.24-1.51l6.62-11.77.35.89C215.65,63,216.1,85.31,216.11,85.68Z"/><ellipse class="cls-10" cx="233.46" cy="105.78" rx="0.96" ry="1"/><ellipse class="cls-10" cx="233.46" cy="126.97" rx="0.96" ry="1"/><ellipse class="cls-10" cx="233.46" cy="150.63" rx="0.96" ry="1"/><path d="M221.91,248.72s-5.67,2.17-9.56,2.45a3.65,3.65,0,0,1-3.72-2.46,7.8,7.8,0,0,1-.58-2.23l.51-5.86.27-3.12,8.27-2.25,1.17,3.74.11.29c.47,1.25,2.36,6.33,2.3,7.39a2.1,2.1,0,0,0,.58,1.46A3.31,3.31,0,0,0,221.91,248.72Z"/><path d="M259.93,245.74a1.87,1.87,0,0,1-.05.53s-12.12,2.11-14.6,0a6.37,6.37,0,0,0-5.1-1.56s-4.68.13-5.47-1.48a6.67,6.67,0,0,1,0-3.28,31.6,31.6,0,0,1,.82-3.59l.18-.16,1.12-.93,13.06-.41h.1c-.07,2.79,4.43,6,4.43,6C259.17,242.7,259.87,244.79,259.93,245.74Z"/><ellipse class="cls-3" cx="159.43" cy="251.75" rx="47.1" ry="6.06"/><rect class="cls-5" x="107.57" y="131.54" width="43.03" height="48.11"/><path class="cls-2" d="M129.65,238.42l-.74,10.1a3.22,3.22,0,0,0,3,3.45h.43l5.19-.32a1.64,1.64,0,0,0,1.54-1.73,1.57,1.57,0,0,0,0-.3l-2.88-11.53Z"/><path class="cls-2" d="M173.06,244.39c6.11,1.43,10.47,3.46,13.34,6.21a5.91,5.91,0,0,0,3.77,1.62,9.6,9.6,0,0,0,4.37-.61h0a1.72,1.72,0,0,0,1-1.42,1.76,1.76,0,0,0-.73-1.63l-14.49-10.31-6.16,2.46-1.43,1.44a1.41,1.41,0,0,0,0,2,1.39,1.39,0,0,0,.31.23Z"/><path class="cls-13" d="M154.26,79.4,112.85,79a37.25,37.25,0,0,1,4.57-17.75c2-3.59,2-7.49,1.49-10.77A14.67,14.67,0,0,1,123.78,37a15.34,15.34,0,0,1,10.49-3.58l.81,0a15.58,15.58,0,0,1,12.86,7.95,13.88,13.88,0,0,1,1.55,8.18,13.79,13.79,0,0,0,1.83,8C153.85,63.59,154.4,71.21,154.26,79.4Z"/><path class="cls-8" d="M182,238.79l-8.13,2.12-39.58-86.23,2.48,84.11h-8.13c-8.69-39.57-24.37-85.24-17.32-99.66l42.06-2.47Z"/><ellipse class="cls-7" cx="133.8" cy="53.97" rx="10.2" ry="10.95"/><path class="cls-7" d="M143.45,74.11l-18-1.06a19.8,19.8,0,0,0,1.77-11.66h13.42C140.59,64.24,142,69.16,143.45,74.11Z"/><polygon class="cls-14" points="154.76 139.84 115.18 142.67 119.25 72.52 126.14 70.58 133.91 72.35 141.68 68.46 146.63 70.23 154.76 139.84"/><path class="cls-5" d="M121.9,190.37l-27-6.18c8-26.66,22.52-87.64,17.85-109.37l14.13-6.36Z"/><path class="cls-5" d="M108.82,113.34,98.57,107l8.74-25.6a12.09,12.09,0,0,1,5.28-6.27l2.94-1.7L113.77,99.2Z"/><path class="cls-5" d="M178.26,184.54c-8.53,4.94-29.86,7.69-39.23,4.24-.69-24.08-2-92.21,2.3-121l15.55,6.36L155.47,93.2C148,109.52,169.62,166.38,178.26,184.54Z"/><polygon class="cls-5" points="177.02 110.16 167.48 106.98 154.76 92.49 156.88 74.11 178.08 103.8 177.02 110.16"/><path class="cls-7" d="M147.12,123.91a2.65,2.65,0,0,0,3.17,2l8.1-1.83-1.17-5.17-8.1,1.83a2.65,2.65,0,0,0-2,3.17Z"/><path class="cls-13" d="M140.34,45.06c-6.08-2.5-12.47,3.44-15.91,7.74L123,42h22.61Z"/><path class="cls-5" d="M154.41,117.93l4.59,8.48c7.73-2.15,14.42-9,20.85-17l-1.77-5.65-11,2.82Z"/><path class="cls-15" d="M151.05,100.44h-1.41c0-20-4.12-33.92-8.13-33.92l-.36-1.42c3.6,0,5.89,5.8,7.19,10.67A100.56,100.56,0,0,1,151.05,100.44Z"/><path class="cls-15" d="M118.54,95.49h-1.42c0-18.31,4.15-29.68,10.25-29.68L127,67.22C122.8,67.22,118.54,76,118.54,95.49Z"/><circle class="cls-15" cx="150.34" cy="100.79" r="3.53"/><path class="cls-15" d="M112.88,104h-1.41c0-5.06,2.85-9.18,6.36-9.18V96.2C115.1,96.2,112.88,99.69,112.88,104Z"/><path class="cls-15" d="M124.19,104h-1.41c0-4.28-2.22-7.77-5-7.77V94.79C121.34,94.79,124.19,98.91,124.19,104Z"/><circle class="cls-15" cx="123.49" cy="104.33" r="1.41"/><circle class="cls-15" cx="112.18" cy="104.33" r="1.41"/><polygon class="cls-2" points="94.51 91.33 103.33 92.9 123.48 121.57 112.78 119.05 94.51 91.33"/><path class="cls-7" d="M104.7,111.42l.52,5.27,8.27-.82a2.65,2.65,0,0,0-.53-5.27Z"/><path class="cls-16" d="M97.51,110.81a6.83,6.83,0,0,0,6.81,6.77h1.36l1-8.25-8.19-2.94Z"/><path class="cls-6" d="M144.26,82.23l.39,2.92-5.56,4.09c1-5.13,2-10,2-10l.27-10.77s1.62.31,1.89.92a3,3,0,0,0,.46.54h0l1.76,13Z"/><path class="cls-5" d="M143.47,84.49l.27,3.6L138,93.41C139.22,87,140.43,81,140.43,81l.73-13.35s1.62.32,1.87,1.06a3.71,3.71,0,0,0,.44.65h0l1.22,16Z"/><path class="cls-6" d="M125.91,93c-.91-1.14-3.38-11.84-3.38-11.84l.84-1.67c0-.67-1.45-1.06-2.72-1.27l5.55-9.87.3.74C125.52,74,125.9,92.69,125.91,93Z"/><path class="cls-5" d="M126.5,92.56c-.91-1.14-3.38-11.84-3.38-11.84l.84-1.67c.05-.67-1.44-1.06-2.72-1.26l5.56-9.88.29.74C126.12,73.53,126.5,92.25,126.5,92.56Z"/><circle class="cls-10" cx="141.41" cy="116.76" r="0.64"/><circle class="cls-10" cx="141.41" cy="129.34" r="0.64"/><circle class="cls-10" cx="141.41" cy="143.85" r="0.64"/><circle class="cls-10" cx="141.41" cy="157.07" r="0.64"/></g></g></svg>