<svg xmlns="http://www.w3.org/2000/svg" xmlns:xlink="http://www.w3.org/1999/xlink" viewBox="0 0 219.31 228.55"><defs><style>.cls-1{fill:#a1c7eb;}.cls-2{fill:#0a0a0a;}.cls-3{fill:#6c63ff;}.cls-12,.cls-3,.cls-6{opacity:0.1;}.cls-3,.cls-6{isolation:isolate;}.cls-4{fill:url(#linear-gradient);}.cls-5{fill:#fff;}.cls-7{fill:#eebfa5;}.cls-8{fill:#01036b;}.cls-9{fill:#8ec0fb;}.cls-10{fill:#3f3d56;}.cls-11{fill:#4f3405;}.cls-13{fill:#b4947b;}.cls-14{fill:#231204;}.cls-15,.cls-17{fill:#363d35;}.cls-15{opacity:0.3;}.cls-16{fill:#dbd25e;}</style><linearGradient id="linear-gradient" x1="-130.45" y1="9663.47" x2="-130.45" y2="9889.28" gradientTransform="matrix(1, 0, 0, -1, 194.55, 9889.28)" gradientUnits="userSpaceOnUse"><stop offset="0" stop-color="gray" stop-opacity="0.25"/><stop offset="0.54" stop-color="gray" stop-opacity="0.12"/><stop offset="1" stop-color="gray" stop-opacity="0.1"/></linearGradient></defs><title>plus</title><g id="Layer_2" data-name="Layer 2"><g id="Capa_1" data-name="Capa 1"><path class="cls-1" d="M214,94.48C200.44,42.26,153.49,4.56,98.39,3.05c-29.13-.8-59.79,8.64-82.11,41.69-39.9,59.08,2.45,99.91,32,119.3a183.91,183.91,0,0,1,38.18,33.55c20,23.14,58.32,51.88,104,6.84C223.57,171.79,223.08,129.27,214,94.48Z"/><path class="cls-2" d="M99.88,86.11a.48.48,0,0,0-.77.32l-3.27,21.41a.5.5,0,0,0,.07.34l3.19,4.5a.45.45,0,0,0,.65.09.49.49,0,0,0,.2-.34l2.77-22.55a.48.48,0,0,0-.1-.35l-2.68-3.36Z"/><ellipse class="cls-3" cx="68.16" cy="222.8" rx="35.76" ry="5.74"/><ellipse class="cls-3" cx="142.95" cy="222.8" rx="35.76" ry="5.74"/><path class="cls-4" d="M102.74,80.79s-1.45-.2-1.45-2.31a33.07,33.07,0,0,0-1-6h0s-.9-6.85-2.14-7.94S95.3,57,95.3,57s-.27-3.46-.83-4.21a35.72,35.72,0,0,1-2.4-5.17c-1.11-2.6-5.71-4.4-5.71-4.4S78,38.43,75.67,36.85h0a3.36,3.36,0,0,1-.6-.45c-.41-.54-2.2-.55-2.2-.55a35.62,35.62,0,0,1-.43-3.77,2.55,2.55,0,0,0,0-.39A12.7,12.7,0,0,0,78,24.78l.12-.43a1.16,1.16,0,0,0,.71-.64c.22-.48.22-1,.48-1.47a5.57,5.57,0,0,1,1.36-1.19,5.11,5.11,0,0,0,1.41-4.18c0-1.23-.23-2.47-.15-3.69l0-.31c0-.19.05-.37.08-.55.18-.91.57-1.77.79-2.67A3.46,3.46,0,0,0,82.56,7c-.75-1.14-2.32-1.36-3.69-1.48-1.56-.13-3,0-4-1.26a13.46,13.46,0,0,0-1.57-1.89c-.2-.19-2.2-1.41-2.2-1.49A8.85,8.85,0,0,0,64.92.35c-1,.3-2,.79-3.06,1-2.27.53-4.87,0-6.79,1.25a7.85,7.85,0,0,0-2.32,3L51.26,8.49a18.09,18.09,0,0,0-2,4.8,8.35,8.35,0,0,0-.13,1.12h0V15a2.23,2.23,0,0,0,0,.37c0,.11,0,.15,0,.22s0,.25,0,.37.07.32.11.49,0,.13.07.2.08.24.13.36a1.67,1.67,0,0,0,.08.2,2.47,2.47,0,0,0,.19.36l.08.15a5.25,5.25,0,0,0,.33.49c.79,1,1.95,1.6,2.8,2.52v.41a12.54,12.54,0,0,0,5.72,10.26c0,.14,0,.28,0,.42a19.84,19.84,0,0,1,0,3.27,1.56,1.56,0,0,0-1.21-.54,1.47,1.47,0,0,0-.47,0l0,0h0v0c-.8.19-1.8,1-2.75,3.42,0,0-2.89,3.26-5.09,3.13s-7.78,3.39-7.78,3.39S36,48.08,34.79,51.67a49.4,49.4,0,0,1-2.34,6L25.73,71.5h0l-1.24,11A50,50,0,0,1,25,88.13c-.14.74,2.82,7.46,2.82,7.46s9.77,17.17,13.77,18l.28-.2a2.2,2.2,0,0,0,.54.2l.83-.58a9.67,9.67,0,0,1-.07,1.94c-.55,1.7.21,12.76,1.17,14.93s.62,30.61.62,30.61l-.14,2.51a.89.89,0,0,0,0,.22l0,.59.1,0a6.85,6.85,0,0,1-.1,2.39,27,27,0,0,0-.48,4.21s-2.75,17.58-1.45,21.11S45.35,199,45.35,199s1.37,4.41.06,5.16-5,2-4.27,3.85,3.35,6.24,3.74,6.9l0,.35-.54,5.85a7,7,0,0,0,.62,2.23,3.85,3.85,0,0,0,3.92,2.45l1.2-.12A52.37,52.37,0,0,0,59,223.36a4.31,4.31,0,0,1-.7-.58h0a2.06,2.06,0,0,1-.61-1.47c.06-1.06-1.93-6.13-2.43-7.38l-.12-.28s4.55-4.75,3.79-9c0,0-5-2.94-3.37-4.55a51.62,51.62,0,0,0,4.61-6.24s.14-17.3,0-19.88a21.93,21.93,0,0,1,.25-5.37c.06-.27.13-.53.2-.79a48.38,48.38,0,0,0,6.91.53c.84,0,1.7,0,2.57-.06,0,.25,0,.51,0,.8.19,4.28.55,11.8.84,14.59.41,4,2.68,14.8,2.68,14.8s-4.33,2.78.76,9.63c0,0,0,2.49-.34,2.85h0a31.13,31.13,0,0,0-.87,3.58,6.38,6.38,0,0,0,0,3.27c.83,1.63,5.78,1.49,5.78,1.49h0l.12,0a7.17,7.17,0,0,1,5.25,1.58c1.88,1.52,9,.85,12.89.37,1.52-.19,2.53-.37,2.53-.37a1.32,1.32,0,0,0,0-.52h0c0-.95-.78-3-5.83-4.9,0,0-4.75-3.19-4.68-6h-.65a3.7,3.7,0,0,1,.65,0s-1.86-6.79-1.1-7.34-1.51-8.08-1.51-8.08-1.31-12.62-1.38-13.51a7.69,7.69,0,0,1,.35-2.23l-.35-6.93s-.06-2.3,0-3a16,16,0,0,0-.15-1.94c0-.25-.07-.52-.11-.79,1.78-.45,2.94-.87,2.94-.87l-.21-24.09c1.52-2.93,1.8-9.37,1.79-13.94,0-2.94-.13-5.11-.13-5.11l2.06-3.37s.48-4-.28-4.92a.85.85,0,0,1,.1-1.16,3.58,3.58,0,0,1,.45-.31.26.26,0,0,1-.05-.08,3.83,3.83,0,0,1,.46-.33s-.74-1.13-.08-1.61c.62.41,1.17.73,1.59,1,0,.26-.06.42-.06.42l.17-.37.65.37s3.24-6.45,3.17-7.4,2.2-5,2.2-5a5,5,0,0,1,1.52-3c1.24-.88,1-7.26,1-7.26s.34-3.33,1.17-4.68S102.74,80.79,102.74,80.79ZM40.81,78l.06,1.54-.63-1Z"/><path class="cls-5" d="M94.65,108.47l-.79,3.38s-6.35-3.24-7.5-7.36,1.92-5.68,1.92-5.68l5.91,2.51Z"/><path class="cls-6" d="M94.65,108.47l-.79,3.38s-6.35-3.24-7.5-7.36,1.92-5.68,1.92-5.68l5.91,2.51Z"/><path class="cls-5" d="M59,223.38s-5.87,2.16-9.91,2.43a3.77,3.77,0,0,1-3.85-2.44,7.1,7.1,0,0,1-.6-2.22l.52-5.82.28-3.09L54,210l1.21,3.71.11.29c.49,1.24,2.45,6.28,2.39,7.33a2,2,0,0,0,.6,1.45A3.42,3.42,0,0,0,59,223.38Z"/><path class="cls-5" d="M99.13,220.42a1.51,1.51,0,0,1-.06.52s-12.55,2.1-15.12,0a6.82,6.82,0,0,0-5.29-1.54s-4.86.13-5.67-1.47a6.45,6.45,0,0,1,0-3.26,33.5,33.5,0,0,1,.85-3.56L74,211l1.15-.93,13.54-.4h.1c-.06,2.77,4.6,5.94,4.6,5.94C98.34,217.4,99.07,219.47,99.13,220.42Z"/><path class="cls-6" d="M99.13,220.42a1.51,1.51,0,0,1-.06.52s-12.55,2.1-15.12,0a6.83,6.83,0,0,0-5.28-1.54s-4.87.13-5.67-1.47a6.33,6.33,0,0,1,0-3.26c1.87.19,4.83.65,6,1.76,1.75,1.7,4.73,3.38,6.55,3.52C86.92,220,95.46,220.31,99.13,220.42Z"/><path class="cls-6" d="M59,223.38s-5.87,2.16-9.91,2.43a3.77,3.77,0,0,1-3.85-2.44c1.5.5,3.57,1,4.66.54,1.29-.57,5.87-.94,8.44-1.1A3.56,3.56,0,0,0,59,223.38Z"/><path class="cls-7" d="M67.73,49.48c-4.84-1.88-11.07-8.1-9.52-11a6.48,6.48,0,0,0,.61-2.33,21.39,21.39,0,0,0,0-3.3,44,44,0,0,0-.65-5.37s15.12.34,14.24,2.56a8.54,8.54,0,0,0-.22,3.06c.07,1.27.25,2.71.44,3.92.26,1.67.53,2.94.53,2.94s-.93,1.29-1.47,1.36S74.68,52.17,67.73,49.48Z"/><path class="cls-6" d="M55.35,214l-.11.12c-4.52-5.47-10,1.35-10,1.35l-.08-.15.28-3.09L54,210l1.22,3.71Z"/><path class="cls-6" d="M88.8,210s-3.31-.07-5.07,1.49-10.27.33-9.91,0a1.14,1.14,0,0,0,.19-.56l1.16-.93,13.53-.4Z"/><path class="cls-8" d="M61,167.07a10.4,10.4,0,0,0-.56,1.88,21.23,21.23,0,0,0-.25,5.34c.13,2.57,0,19.79,0,19.79a53.78,53.78,0,0,1-4.52,6.21c-1.62,1.62,3.3,4.52,3.3,4.52.73,4.19-3.71,8.91-3.71,8.91-4.53-5.47-10,1.35-10,1.35s-3-5.13-3.72-7,2.9-3.1,4.19-3.85-.07-5.14-.07-5.14-1.08-3.85-2.36-7.36,1.41-21,1.41-21a26.56,26.56,0,0,1,.48-4.19,7.32,7.32,0,0,0,.1-2.38c0-.27-.05-.49-.07-.64l0-.22,0-.09,1.83-3.42S61.86,164.91,61,167.07Z"/><path class="cls-8" d="M88.8,209.61s-3.31-.07-5.07,1.46-10.27.34-9.91,0,.34-2.83.34-2.83c-5-6.82-.73-9.59-.73-9.59s-2.23-10.73-2.64-14.72c-.28-2.78-.63-10.25-.82-14.52-.08-1.84-.13-3.1-.13-3.1l4.09-.82.52-.11,9.84-2s.27,1.83.46,3.34a15.53,15.53,0,0,1,.15,1.93c-.06.73,0,3,0,3l.34,6.89a8,8,0,0,0-.34,2.23c.07.87,1.35,13.43,1.35,13.43s2.23,7.5,1.47,8S88.8,209.61,88.8,209.61Z"/><path class="cls-6" d="M72.45,30a8.54,8.54,0,0,0-.22,3.06,12.58,12.58,0,0,1-13.37-.25,44,44,0,0,0-.65-5.37S73.33,27.8,72.45,30Z"/><path class="cls-7" d="M78.3,21.92a12.56,12.56,0,0,1-25.11.3v-.3a12.56,12.56,0,1,1,25.11-.43,3.08,3.08,0,0,1,0,.43Z"/><path class="cls-6" d="M67.73,49.48c-4.84-1.88-11.07-8.1-9.52-11a6.48,6.48,0,0,0,.61-2.33l6.63,5.45L69.55,45l3.12-8c.26,1.67.53,2.94.53,2.94s-.93,1.3-1.47,1.37S74.68,52.17,67.73,49.48Z"/><polygon class="cls-9" points="84.88 73.57 79.34 166.6 72.12 167.07 53.42 113.13 56.49 49.09 57.13 35.56 65.45 42.39 69.56 45.75 72.77 37.58 78.74 42.78 84.88 73.57"/><path class="cls-6" d="M61,167.07a10.4,10.4,0,0,0-.56,1.88,53,53,0,0,1-15.14-4.73l-.1-.05,0-.59,0-.31,1.84-3.42S61.86,164.91,61,167.07Z"/><path class="cls-6" d="M74,169a39.39,39.39,0,0,1-4.06.46c-.08-1.84-.13-3.1-.13-3.1l4.08-.82Z"/><path class="cls-6" d="M84.73,166.76a28.41,28.41,0,0,1-10.25,1l0-2.33,9.84-2S84.54,165.24,84.73,166.76Z"/><path class="cls-6" d="M74.41,168.15c-15,2.57-28.82-4.79-28.82-4.79l.13-2.5s.34-28.29-.61-30.46S43.43,117.24,44,115.55s-2-27-2-27l-.4-10.28-14.78-6,6.61-13.76a48.69,48.69,0,0,0,2.29-6c1.15-3.57,6.48-7.09,6.48-7.09s5.47-3.5,7.63-3.37,5-3.11,5-3.11c2.09-5.33,4-2.91,4-2.91a4.78,4.78,0,0,1-.1.78c-.73,5.86,11.87,24.35,12,24.68h0L72,90.78l1.21,37Z"/><path class="cls-5" d="M74,168.15c-15.05,2.57-28.83-4.79-28.83-4.79l.14-2.5s.34-28.29-.61-30.46S43,117.24,43.56,115.55s-2-27-2-27L41.2,78.27l-14.78-6L33,58.49a50.28,50.28,0,0,0,2.3-5.94c1.14-3.58,6.48-7.09,6.48-7.09s5.47-3.51,7.63-3.37,5-3.11,5-3.11c2.1-5.33,4.4-2.92,4.4-2.92,0,.26-.22.37-.1.79,1.62,5.68,11.47,24.35,11.65,24.68h0l1.21,29.23,1.22,37Z"/><path class="cls-6" d="M70,62.36C68.34,61.69,59.76,51.9,59.76,51.9V49.67c-.31-.73-2.16-.28-3.67.23l.65-13.53.73.61C59.08,42.65,69.77,62,70,62.36Z"/><path class="cls-5" d="M70.36,61.55c-1.62-.67-10.19-10.46-10.19-10.46V48.86c-.31-.73-2.17-.29-3.67.23l.65-13.53.73.61C59.49,41.84,70.18,61.23,70.36,61.55Z"/><path class="cls-6" d="M45.59,110.36c.2,0,10.46-1.08,10.46-1.08s6.21,12.22,5.81,15.19-1.15,5.61-3.65,5.14-13.45.37-13.45.37Z"/><path class="cls-5" d="M45.18,109.55c.2,0,10.46-1.08,10.46-1.08s6.21,12.22,5.81,15.19-1.15,5.61-3.65,5.14-13.45.37-13.45.37Z"/><path class="cls-7" d="M52.91,103.82s9.42,5.06,9.62,6.6-4.79-.67-5.87-.94a13.12,13.12,0,0,0-2.16-.34l-7.2.2Z"/><circle class="cls-6" cx="67.33" cy="62" r="0.99"/><circle class="cls-10" cx="67.33" cy="61.6" r="0.99"/><circle class="cls-6" cx="69.15" cy="104.89" r="0.99"/><circle class="cls-10" cx="69.15" cy="104.49" r="0.99"/><circle class="cls-6" cx="68.31" cy="83.45" r="0.99"/><circle class="cls-10" cx="68.31" cy="83.04" r="0.99"/><path class="cls-5" d="M91.16,108.94s.67,1,0,1.48.06,1.62.06,1.62-1.68,1-.94,1.87.27,4.9.27,4.9l-2,3.36s.13,2.16.13,5.08c0,4.56-.27,11-1.75,13.89l.21,24s-7.1,2.59-13,1.8l-.88-38.46s1.28-21.81,1.75-26a43.44,43.44,0,0,0,.34-6.55,72.9,72.9,0,0,0-.88-9.58s-.73-13.17-.81-16.81c0-1.74.06-6.83.16-11.67.12-5.28.25-10.27.25-10.27L72.67,37s1.34-.14,1.74.4a4.44,4.44,0,0,0,.59.46h0c2.31,1.56,10.48,6.37,10.48,6.37S90,46,91.08,48.57a38.62,38.62,0,0,0,2.36,5.14c.53.73.81,4.18.81,4.18s1.56,6.35,2.77,7.43,2.11,7.91,2.11,7.91L88.39,81.67s-.94,14-1.14,14.59S91.16,108.94,91.16,108.94Z"/><path class="cls-5" d="M91.56,108.94s.67,1,0,1.48.07,1.62.07,1.62-1.68,1-.94,1.89.27,4.9.27,4.9l-2,3.35s.12,2.16.13,5.08c0,4.56-.26,11-1.75,13.89l.2,24s-7.1,2.59-13,1.8l-.88-38.46s1.29-21.81,1.76-26a42.35,42.35,0,0,0,.33-6.56,74.15,74.15,0,0,0-.87-9.58S74.08,73.17,74,69.52c0-1.74.06-6.83.16-11.67.11-5.28.24-10.27.24-10.27L72.64,36.84s1.77,0,2.18.54a3.17,3.17,0,0,0,.58.46h0c2.32,1.56,10.49,6.37,10.49,6.37s4.52,1.8,5.6,4.37a36.73,36.73,0,0,0,2.36,5.14c.53.73.81,4.18.81,4.18s1.56,6.35,2.77,7.43,2.09,7.9,2.09,7.9L88.79,81.67s-.94,14-1.15,14.58S91.56,108.94,91.56,108.94Z"/><path class="cls-6" d="M78.71,50.7l1,2.82-5.1,5.14c.11-5.29.24-10.28.24-10.28L73.05,37.64s1.77,0,2.17.55a3.68,3.68,0,0,0,.59.45h0l4.34,12.51Z"/><path class="cls-5" d="M78.3,49.88l1,2.83-5.1,5.14c.12-5.29.24-10.28.24-10.28L72.64,36.83s1.77,0,2.18.55a3.6,3.6,0,0,0,.58.45h0l4.35,12.51Z"/><path class="cls-6" d="M78.3,21.92a12.58,12.58,0,0,1-.62,3.9.54.54,0,0,1-.39-.1c-.1-3.3-1.72-6.41-3.72-9a9.82,9.82,0,0,0-2-2.1,4,4,0,0,0-2.74-.77c-1.1.15-2.07.9-3.19,1-1.46.13-2.78-.89-4.23-.94a4.18,4.18,0,0,0-3.12,1.44,8.57,8.57,0,0,0-1.67,3.1,18,18,0,0,0-.93,5.34c0,1-.12,2.32-1.07,2.69a5.49,5.49,0,0,0-1.39-4.18l0,0v-.3a12.56,12.56,0,1,1,25.11-.43,3.08,3.08,0,0,1,0,.43Z"/><path class="cls-11" d="M71,2a8.63,8.63,0,0,0-6.1-.48c-1,.3-2,.79-3,1-2.2.54-4.77,0-6.66,1.25a7.94,7.94,0,0,0-2.27,3L51.44,9.6a18.33,18.33,0,0,0-1.94,4.78,6.09,6.09,0,0,0,.94,4.92c.78,1,1.93,1.61,2.77,2.54A5.51,5.51,0,0,1,54.59,26c1-.37,1-1.66,1.07-2.69A18.32,18.32,0,0,1,56.59,18a8.72,8.72,0,0,1,1.67-3.1,4.2,4.2,0,0,1,3.12-1.44c1.47.05,2.78,1.06,4.24.94,1.1-.09,2.07-.84,3.18-1a3.94,3.94,0,0,1,2.74.77,9.1,9.1,0,0,1,2,2.1c2,2.63,3.63,5.73,3.73,9,.41.3,1-.09,1.22-.56A12.57,12.57,0,0,1,79,23.28c.3-.52.88-.79,1.33-1.18a5.23,5.23,0,0,0,1.39-4.16,20.12,20.12,0,0,1,0-4.52c.17-.91.56-1.76.77-2.66a3.52,3.52,0,0,0-.26-2.69c-.74-1.13-2.28-1.36-3.63-1.46-1.53-.14-2.9,0-3.88-1.26A13.16,13.16,0,0,0,73.1,3.47C72.91,3.28,71,2.07,71,2Z"/><path class="cls-6" d="M31.06,79.37l-3.84-7.09L26,83.22a52.14,52.14,0,0,1,.54,5.61c-.14.74,2.77,7.42,2.77,7.42s9.58,17.08,13.5,18l13.23-9.45-3.51-4.46s-1.21-.47-1.52,0c0,0-6.51-11.2-7.19-12a4.09,4.09,0,0,1-.54-2.43s-1-1.08-.68-2.1-2-4.52-2-4.52l2.09-2Z"/><path class="cls-5" d="M27.43,71.48l-1,.8L25.2,83.22a52.14,52.14,0,0,1,.54,5.61c-.14.74,2.77,7.42,2.77,7.42s9.58,17.08,13.5,18l13.23-9.45-3.51-4.46s-1.21-.47-1.52,0c0,0-6.51-11.2-7.19-12a4.09,4.09,0,0,1-.54-2.43s-1-1.08-.67-2.1-2-4.52-2-4.52l2.09-2Z"/><path class="cls-6" d="M90.28,114.33c.73.9.27,4.9.27,4.9l-2,3.35s.13,2.17.13,5.09l-3.4,1.06a2,2,0,0,1-2.54-1.33,2.44,2.44,0,0,1-.09-.66l.59-18.94,8,3c-.68.47.06,1.62.06,1.62S89.54,113.44,90.28,114.33Z"/><path class="cls-5" d="M90.69,113.93c.73.89.27,4.9.27,4.9l-2,3.35s.12,2.16.13,5.08l-3.46,1.08a2,2,0,0,1-2.48-1.3,1.8,1.8,0,0,1-.09-.65l.59-19,7.95,3c-.68.47.06,1.62.06,1.62S90,113,90.69,113.93Z"/><path class="cls-7" d="M93.32,104.9s-.54,3.44-1.89,3.65-2,5.57-3.31,5.38-.45-5-.4-5.93-1.47-4.79-.34-5.67,4.73,0,4.73,0Z"/><path class="cls-6" d="M96.19,78.36l2.55-5.14a33.52,33.52,0,0,1,1,6c0,2.09,1.42,2.3,1.42,2.3s1.55,1.83.73,3.17-1.15,4.66-1.15,4.66.27,6.35-.94,7.22a4.91,4.91,0,0,0-1.47,3s-2.23,4-2.16,4.92-3.11,7.36-3.11,7.36,1.55-8-7.49-11.41c0,0-.07-2.7.6-3.44s1.73-1.08,1.07-4.83A43.76,43.76,0,0,1,87.06,83c0-.9,2-6.51,2-6.51Z"/><path class="cls-5" d="M97.29,72.49l2.23.73a33.52,33.52,0,0,1,1,6c0,2.09,1.42,2.3,1.42,2.3s1.55,1.83.73,3.17-1.14,4.66-1.14,4.66.27,6.35-1,7.22a5,5,0,0,0-1.49,3s-2.22,4-2.15,4.92-3.11,7.36-3.11,7.36,1.55-8-7.5-11.41c0,0-.06-2.7.61-3.44s1.73-1.08,1.07-4.83A43.76,43.76,0,0,1,87.83,83c0-.9,2-6.51,2-6.51Z"/><path class="cls-6" d="M48.17,205.66s3.55-2.23,5.87-.61S48.17,205.66,48.17,205.66Z"/><path class="cls-6" d="M75.72,198.77a7.15,7.15,0,0,1,5.77,2.43C84.12,204,75.72,198.77,75.72,198.77Z"/><g class="cls-12"><path d="M80.31,21.29A5.43,5.43,0,0,0,79,22.48,11.46,11.46,0,0,0,78.51,24c-.21.47-.81.86-1.22.56-.1-3.3-1.73-6.4-3.73-9a9.54,9.54,0,0,0-2-2.1,4,4,0,0,0-2.74-.77c-1.1.15-2.07.9-3.19,1-1.46.12-2.78-.89-4.24-.94a4.14,4.14,0,0,0-3.11,1.45,8.44,8.44,0,0,0-1.67,3.09,18,18,0,0,0-.93,5.34c0,1-.12,2.3-1.07,2.69a3.66,3.66,0,0,1,0,.81c1-.37,1-1.66,1.08-2.69A18,18,0,0,1,56.61,18a8.42,8.42,0,0,1,1.67-3.1,4.16,4.16,0,0,1,3.11-1.44c1.47,0,2.79,1.06,4.24.94,1.1-.09,2.08-.84,3.18-1a3.94,3.94,0,0,1,2.74.77,9.36,9.36,0,0,1,2,2.1c2,2.63,3.63,5.73,3.72,9,.42.3,1-.09,1.22-.56s.22-1,.47-1.47.88-.79,1.33-1.18A5.16,5.16,0,0,0,81.7,18v-.14A4.82,4.82,0,0,1,80.31,21.29Z"/><path d="M53.22,21c-.85-.93-2-1.55-2.77-2.53a5.29,5.29,0,0,1-1.07-3,5.61,5.61,0,0,0,1.07,3.82c.77,1,1.92,1.6,2.77,2.53a5.53,5.53,0,0,1,1.38,3.28A5.56,5.56,0,0,0,53.22,21Z"/><path d="M82.42,10c-.22.9-.6,1.76-.78,2.66a8.71,8.71,0,0,0-.11,1.84,7.19,7.19,0,0,1,.11-1c.18-.91.56-1.77.78-2.66a4.86,4.86,0,0,0,.12-1.52A4.51,4.51,0,0,1,82.42,10Z"/></g><path class="cls-2" d="M87.36,71a.49.49,0,0,0-.68.1.58.58,0,0,0-.12.25L82.68,93.51a.48.48,0,0,0,.07.34l3.15,4.56a.45.45,0,0,0,.66.07.5.5,0,0,0,.21-.35l3.39-23.28a.46.46,0,0,0-.08-.35l-2.66-3.39Z"/><path class="cls-5" d="M132.39,212.63l-.68,9.71a3,3,0,0,0,2.77,3.31h.4l4.83-.31a1.56,1.56,0,0,0,1.43-1.67,1.35,1.35,0,0,0,0-.28l-2.68-11.08Z"/><path class="cls-5" d="M148.05,212.32l-2.69,11.08a1.59,1.59,0,0,0,1.11,1.91,1.45,1.45,0,0,0,.28,0l4.84.31a3,3,0,0,0,3.17-2.9,2.94,2.94,0,0,0,0-.42l-.69-9.71Z"/><polygon class="cls-13" points="154.38 213.98 147.86 213.31 141.36 141.67 138.91 213.07 132.5 212.84 124.58 114.48 162.97 113.94 154.38 213.98"/><path class="cls-5" d="M163.45,175s-20.19,1-26.34-.75-12.25-.23-13.17-.63.12-4.35.64-8.22c.23-1.74-.82-55.47-.82-55.47l15-5.67,9.67-2.33L162,118.47s1.8,46.83.83,50.11a8.22,8.22,0,0,0-.17,3.85A9.69,9.69,0,0,0,163.45,175Z"/><path class="cls-14" d="M158.37,50.51,133,57c-1.3.34-2.56-.86-2.91-2.77-1.84-10-5.68-23-2-29.48.4-5.71,3.7-9.93,7.51-9.6h0a9.82,9.82,0,0,1,17.21-2.4c5.14,2.67,7.08,7.41,6.41,13.84a17.93,17.93,0,0,1,3.63,9.83,19,19,0,0,1-2.59,11.05Z"/><path class="cls-13" d="M152.6,52.59l-16.79-1a19.52,19.52,0,0,0,1.65-11.21H150C149.94,43.1,151.26,47.82,152.6,52.59Z"/><ellipse class="cls-13" cx="144.04" cy="31.62" rx="12.47" ry="12.86"/><path class="cls-14" d="M158.09,25.48a36,36,0,0,0-14.87.12c-3.08,1-6.78.94-10.89.09V17l22.21.41Z"/><path class="cls-13" d="M120.34,90.29l-9.54-6.12,8.14-24.6a11.49,11.49,0,0,1,4.92-6l2.76-1.42.22,24.6Z"/><path class="cls-15" d="M161.6,103.29l-1.41-12.48A45,45,0,0,1,163.79,72l1.32-18.34-13.9-6.6c0,.31-.67,1.09-.71,1.4L143.71,52l-6.62-1.55-.22-2.69-8.41,6.67c4.36,20.89,2.37,34.75-5.12,60.37l12.46,3.66s14.09-2.29,14.16.39c7.17-.18,3.66,3.51,11.61-1.23A31.19,31.19,0,0,0,161.6,103.29Z"/><path class="cls-16" d="M160.33,102.23,159,89.75a46.3,46.3,0,0,1,3.49-18.82l-1.64-19.38-9.67-4.62-.12.91-8,3-6.41-1.55.3-1.7-13,5.63c4.22,20.88,4.36,33.39-2.89,59l14.36,5.07s13.64-2.29,13.71.39c8.45,3.32,10.49,1.34,18.18-3.41C164.17,107.47,161.74,109.33,160.33,102.23Z"/><path class="cls-13" d="M182.87,87.23,174,84.17,158.76,64.55s1.4-12.91,2.34-13c7.33-.66,22.76,29.57,22.76,29.57Z"/><path class="cls-13" d="M109.81,87.85a6.45,6.45,0,0,0,6.34,6.51h1.27l.92-7.92-7.63-2.84Z"/><path class="cls-17" d="M105.56,68.8a.73.73,0,0,0-.58,1.11l17.55,27.48a.7.7,0,0,0,.43.3l8.16,2a.7.7,0,0,0,.84-.54.71.71,0,0,0-.11-.58L112.58,70.29a.67.67,0,0,0-.45-.29l-6.44-1.19Z"/><path class="cls-13" d="M116.5,88.44l-.35,5.92,8.54-1.64a2.55,2.55,0,0,0-.49-5.07Z"/><path class="cls-13" d="M161.26,95.55l-1,8c7.2-2.07,19.75-8.75,26.24-17,.88-1.12-1.64-5.43-1.64-5.43l-8.35,2.93Z"/></g></g></svg>