<svg xmlns="http://www.w3.org/2000/svg" xmlns:xlink="http://www.w3.org/1999/xlink" viewBox="0 0 499.89 447.11"><defs><style>.cls-1{fill:#4d8af0;opacity:0.5;}.cls-1,.cls-13,.cls-17,.cls-9{isolation:isolate;}.cls-2{fill:#e0eeef;}.cls-3,.cls-5{fill:#dbd25e;}.cls-3,.cls-4{opacity:0.7;}.cls-6{opacity:0.7;}.cls-7{fill:url(#linear-gradient);}.cls-8{fill:#fff;}.cls-9{fill:#6c63ff;}.cls-13,.cls-9{opacity:0.1;}.cls-10{fill:url(#linear-gradient-2);}.cls-11{fill:#1d2366;}.cls-12{fill:#eebfa5;}.cls-14{fill:#0a0a0a;}.cls-15{fill:#316dd0;}.cls-16{fill:#c7daf5;}.cls-17{opacity:0.03;}.cls-18{fill:#ffb0b1;}.cls-19{fill:#dce7ff;}.cls-20{fill:#3a2506;}.cls-21{fill:#efc8c4;}.cls-22{fill:#727a9c;}</style><linearGradient id="linear-gradient" x1="418.68" y1="10480.41" x2="510.6" y2="10480.41" gradientTransform="matrix(1, 0, 0, -1, -235.13, 10691.99)" gradientUnits="userSpaceOnUse"><stop offset="0" stop-color="gray" stop-opacity="0.25"/><stop offset="0.54" stop-color="gray" stop-opacity="0.12"/><stop offset="1" stop-color="gray" stop-opacity="0.1"/></linearGradient><linearGradient id="linear-gradient-2" x1="217.68" y1="10585.58" x2="217.68" y2="10979.14" gradientTransform="matrix(1, 0, 0, -1, 194.55, 11021.73)" gradientUnits="userSpaceOnUse"><stop offset="0" stop-color="gray" stop-opacity="0.25"/><stop offset="0.54" stop-color="gray" stop-opacity="0.12"/><stop offset="1" stop-color="gray" stop-opacity="0.1"/></linearGradient></defs><g id="Layer_2" data-name="Layer 2"><g id="Capa_1" data-name="Capa 1"><path class="cls-1" d="M90.66,27.47a2.11,2.11,0,0,1-1.17-2.55,1.55,1.55,0,0,0,.05-.23h0a1.06,1.06,0,0,0-1.9-.7h0a1.13,1.13,0,0,0-.12.21A2.1,2.1,0,0,1,85,25.37a.93.93,0,0,0-.23,0h0a1,1,0,0,0-1.12,1,1,1,0,0,0,.42.9h0a.82.82,0,0,0,.2.12,2.11,2.11,0,0,1,1.18,2.54,1,1,0,0,0-.05.24h0a1.06,1.06,0,0,0,1.9.7h0a2.12,2.12,0,0,0,.11-.21,2.1,2.1,0,0,1,2.55-1.17.85.85,0,0,0,.23,0h0a1.05,1.05,0,0,0,.7-1.89h0A.72.72,0,0,0,90.66,27.47Z"/><path class="cls-1" d="M7,213.62a2.1,2.1,0,0,1-1.18-2.54,1,1,0,0,0,0-.23h0a1,1,0,0,0-1-1.12,1.06,1.06,0,0,0-.91.42H4a1.28,1.28,0,0,0-.11.2,2.12,2.12,0,0,1-2.55,1.18.86.86,0,0,0-.23-.05h0a1.07,1.07,0,0,0-1.12,1,1.09,1.09,0,0,0,.42.91h0a1,1,0,0,0,.21.11A2.11,2.11,0,0,1,1.8,216a1.55,1.55,0,0,0-.05.23h0a1.06,1.06,0,0,0,1.9.7h0a.72.72,0,0,0,.12-.21,2.1,2.1,0,0,1,2.54-1.17l.23,0h0a1.05,1.05,0,0,0,1.12-1,1,1,0,0,0-.42-.91h0A.82.82,0,0,0,7,213.62Z"/><circle class="cls-2" cx="65.52" cy="391.21" r="3.44"/><path class="cls-1" d="M399.39,44.08a2.1,2.1,0,0,1-1.17-2.54,1,1,0,0,0,0-.24h0a1.06,1.06,0,0,0-1.9-.7h0a1.13,1.13,0,0,0-.12.21A2.1,2.1,0,0,1,393.71,42a.93.93,0,0,0-.23,0h0a1,1,0,0,0-1.12,1,1,1,0,0,0,.42.9h0a.82.82,0,0,0,.2.12,2.11,2.11,0,0,1,1.18,2.54,1,1,0,0,0-.05.24h0a1.06,1.06,0,0,0,1.9.7h0a2.12,2.12,0,0,0,.11-.21,2.11,2.11,0,0,1,2.55-1.17.85.85,0,0,0,.23,0h0a1.05,1.05,0,0,0,.7-1.89h0A.72.72,0,0,0,399.39,44.08Z"/><path class="cls-1" d="M19,104.79a2.1,2.1,0,0,1-1.18-2.54,1,1,0,0,0,.05-.23h0a1.06,1.06,0,0,0-1-1.12,1.09,1.09,0,0,0-.91.42h0a1,1,0,0,0-.11.21,2.11,2.11,0,0,1-2.55,1.17.86.86,0,0,0-.23,0h0a1.06,1.06,0,0,0-.7,1.9h0a.7.7,0,0,0,.21.11,2.12,2.12,0,0,1,1.17,2.55,1.55,1.55,0,0,0-.05.23h0a1.06,1.06,0,0,0,1.9.7h0a.72.72,0,0,0,.12-.21,2.1,2.1,0,0,1,2.54-1.17,1,1,0,0,0,.24,0h0a1.05,1.05,0,0,0,1.11-1,1,1,0,0,0-.42-.91h0A1.32,1.32,0,0,0,19,104.79Z"/><circle class="cls-3" cx="41.47" cy="162.67" r="3.44"/><g class="cls-4"><rect class="cls-5" x="330.15" width="1.72" height="9.74"/><rect class="cls-5" x="326.14" y="4.01" width="9.74" height="1.72"/></g><g class="cls-4"><rect class="cls-5" x="11.11" y="402.09" width="1.72" height="9.74"/><rect class="cls-5" x="7.1" y="406.1" width="9.74" height="1.72"/></g><polygon class="cls-3" points="451.7 70.46 455.39 73.85 460.62 66.16 462.46 67.69 455.39 76.92 450.16 71.08 451.7 70.46"/><path class="cls-3" d="M225.2,19.66,74,112.72s0,192,151.24,296.66c151.23-104.7,151.23-296.66,151.23-296.66Z"/><path class="cls-3" d="M226.1,19.66l-2.58,1.59V407.56c.85.61,1.71,1.22,2.58,1.82,151.24-104.7,151.24-296.66,151.24-296.66Z"/><g class="cls-6"><polygon class="cls-7" points="195.68 198.79 224.8 225.49 260.9 173.41 275.47 185.54 224.8 249.76 183.55 203.65 195.68 198.79"/></g><polygon class="cls-8" points="195.31 209.82 218.44 231.02 251.2 182.84 262.77 192.47 218.44 250.29 185.68 213.67 195.31 209.82"/><circle class="cls-2" cx="414.65" cy="145.49" r="3.44"/><circle class="cls-2" cx="473.08" cy="277.8" r="3.44"/><path class="cls-1" d="M446.67,403.79a2.12,2.12,0,0,1-1.18-2.55.86.86,0,0,0,.05-.23h0a1.07,1.07,0,0,0-1-1.12,1.09,1.09,0,0,0-.91.42h0a1.39,1.39,0,0,0-.11.21,2.12,2.12,0,0,1-2.55,1.17.85.85,0,0,0-.23,0h0a1.05,1.05,0,0,0-.7,1.89h0a.72.72,0,0,0,.21.12,2.1,2.1,0,0,1,1.17,2.54,1,1,0,0,0-.05.24h0a1.05,1.05,0,0,0,1,1.11,1,1,0,0,0,.91-.42h0a.82.82,0,0,0,.12-.2,2.1,2.1,0,0,1,2.54-1.18,1,1,0,0,0,.23.05h0a1,1,0,0,0,1.12-1,1.06,1.06,0,0,0-.42-.91h0Z"/><circle class="cls-3" cx="474.79" cy="190.16" r="3.44"/><g class="cls-4"><rect class="cls-5" x="392.31" y="226.82" width="1.72" height="9.74"/><rect class="cls-5" x="388.3" y="230.83" width="9.74" height="1.72"/></g><ellipse class="cls-9" cx="414.75" cy="436.15" rx="85.14" ry="10.96"/><rect class="cls-9" x="405.89" y="145.2" width="19.92" height="19.92"/><rect class="cls-9" x="405.89" y="194.33" width="19.92" height="19.92"/><path class="cls-10" d="M486.61,229.32s-11.56-57.52-7.14-64.68c0,0,.16-6.65-.1-15.13v-1a22.51,22.51,0,0,0,2.43,1.4A19.68,19.68,0,0,0,495,151.65l-3.5-3.91a6.41,6.41,0,0,1-1.9-3.17,6.61,6.61,0,0,1,.76-3.43c3.32-8.4,3.5-19-2.91-25.38-5.41-5.39-6.73-12.36-12.6-17.28-4.29-3.6-6.65-8.89-8.88-14a78.37,78.37,0,0,1-4.86-13.26c-.84-3.58-1.18-7.28-2.33-10.78s-3.32-6.89-6.7-8.45a25.37,25.37,0,0,1-3.65-1.6c-1.44-1-2.31-2.56-3.35-3.94-5.3-7-23.05-2.88-31.46,0a17.66,17.66,0,0,0-6.21,3.45l.07-.13.21-.31A11.07,11.07,0,0,0,405.37,52c-1.23,1.94-1.74,4.2-2.76,6.3-1.23,2.49-8.09,9.43-5.14,12.22a2.46,2.46,0,0,0,.7.45,6.08,6.08,0,0,0,3.5.35l-.12.3A20.33,20.33,0,0,0,400,79.43a21,21,0,0,0,21.2,20.83,21.35,21.35,0,0,0,6.49-1c0,.27.09.53.14.8,0,.1,0,.21.05.31h0l-.37.52-.06-.09-11,15.36c-1.68,1.19-11.35,8.19-11.9,13.44-.58,5.75-1.15,12.48-1.15,12.48l-.08,1.44a4.34,4.34,0,0,1-3.5.95c-3.43-.56-3.43,12.6-3.43,12.6s-2.28,2.1-3.85.28-5.71,4.35-5.71,4.35l-26,1.12h0l-.6,0-1.4-4.34a1.83,1.83,0,0,0-2.29-1.17,1.73,1.73,0,0,0-.31.14l-.1,0-.18.13-.1.08-.14.15-.08.1,0,0h0a1.75,1.75,0,0,0-.25,1.57l1.2,3.72c-5,1-10.14,3.85-6,11.68l-21.19-3.92,6.86,5.76,35.39,7.3c-.47.84-.16,2.06,1.3,3.78,6.3,7.4,17.79,9.41,22.41,9.93a39.74,39.74,0,0,0,4.54,7.7l-.4,7.37s-11.7,56.2-13.84,59.05a33.06,33.06,0,0,0,3-3.9c-3.39,11.55-8.14,27.36-9.39,29.72-2,3.78-3.86,19.08-1.57,20.07.7.3,2.7.15,5.56-.07v1.27l-.13,48s.57,29.46-1,32.27-2,8.69-2,8.69-6.3,11.62-11.29,16.29l-.11.1-.16-1.09s-6,7.58-19.28,7.15c0,0-8,5.19,3.86,5.47s27-.42,27-.42,10.57-16.1,19.42-14v12.2h2.71v-12.4a11.14,11.14,0,0,0,4.83-7.3,8.88,8.88,0,0,0-3.17-8.21,5.28,5.28,0,0,1-1.73-3.84l-.1.08a6.66,6.66,0,0,0-.09-.75c-.78-6.31-1.75-19.31,1.69-28.93,4.71-13.19,6.14-31.57,2.71-42.51a95,95,0,0,1-2.72-10.65c-.09-.45-.17-.89-.24-1.29a53.27,53.27,0,0,1,7,1.4c8,2.19,25.33,2.59,40.18,2.48,0,.4.08.83.12,1.26a45.75,45.75,0,0,0,1.66,8.76c1.86,5.61,2.71,30.3,2.71,30.3s2.41,20.31,1.1,28.57c-.7,4.6-1.4,9.21-1.8,13.85v.09s-3.94,11.2-6.82,17.29c-.07.15-.14.31-.21.45a9.06,9.06,0,0,0-2.25.5s-3.86,7.7-7.7,9-2.57,5.47,6.13,3.93,21.85-2.8,21.85-2.8l.57-7.86,2.67-3.35-.7,7.84,2.85-.56-.38-9.53,4.38-5.48s5.29-4.71-2.57-14v.2c-.09-.13-.16-.27-.25-.41v0c-1.31-2-2.34-5.78-.44-12.45,3.43-12.06,5.42-23,5.42-23s7.66-29.32-1.55-43.19h.41a23.53,23.53,0,0,1-2-6.17c-.05-.25-.09-.51-.13-.77,6.82-.4,13.5-1.63,19-4.29C492.61,310,489.32,240.4,486.61,229.32ZM400.1,180.79v.14l-1.4.07Zm-4.8.67a1.47,1.47,0,0,0-.63.3,6.24,6.24,0,0,0-1.1,2.87l-2.18-.49s-1.54-.32-3.74-.7l-1-1.05C389.47,182.16,392.46,181.81,395.3,181.46Z"/><polygon class="cls-11" points="467.59 419.65 466.75 429.58 469.55 429.02 469.13 418.25 467.59 419.65"/><path class="cls-12" d="M403.84,372.54c-3.36,9.59-2.41,22.54-1.66,28.83.28,2.33.54,3.74.54,3.74s-5,11.47-5.45,11.9-14.82,9.23-14.82,9.23l-10.06,5.87s-10.21-4.47-5.32-6a7.48,7.48,0,0,0,2.64-1.8c4.91-4.66,11.06-16.24,11.06-16.24s.42-5.87,2-8.66,1-32.16,1-32.16l.12-47.86v-6.24l19.15.14a43.12,43.12,0,0,0,.83,6.3,97,97,0,0,0,2.67,10.62C409.85,341.11,408.45,359.4,403.84,372.54Z"/><path class="cls-13" d="M402.72,405.11s-5,11.47-5.45,11.9-14.82,9.23-14.82,9.23l-10.06,5.87s-10.21-4.47-5.32-6a7.48,7.48,0,0,0,2.64-1.8l.44,3.06,3.35-.14,28.71-25.84C402.46,403.7,402.72,405.11,402.72,405.11Z"/><path class="cls-14" d="M402.37,402,373.5,428l-3.35.14-.7-4.9s-5.87,7.55-18.91,7.13c0,0-7.83,5.17,3.77,5.46s26.43-.43,26.43-.43,10.35-16.1,19-14V433.6h2.66V421.33a11.11,11.11,0,0,0,4.72-7.28,8.91,8.91,0,0,0-3.09-8.18A5.31,5.31,0,0,1,402.37,402Z"/><path class="cls-12" d="M470.25,387.5c-1.86,6.65-.85,10.4.43,12.41v0a22.92,22.92,0,0,1,3.34,8.17l.12.63L461,427.9l-7.13,2.8s-11.46-3.91-9.37-5c.53-.27,1.35-1.73,2.28-3.74,2.8-6.06,6.67-17.23,6.67-17.23v-.09c.41-4.62,1.05-9.22,1.76-13.8,1.29-8.24-1.07-28.47-1.07-28.47s-.84-24.6-2.66-30.2a46,46,0,0,1-1.63-8.71c-.38-3.5-.46-6.38-.46-6.38s7.55-10.51,21.38.84a15.39,15.39,0,0,1,2.9,3.13c9.55,13.6,1.86,43.56,1.86,43.56S473.6,375.48,470.25,387.5Z"/><path class="cls-13" d="M474.16,408.75,461,427.9l-7.13,2.8s-11.46-3.91-9.37-5c.53-.27,1.35-1.73,2.28-3.74,4.86,0,7.37,4.58,7.37,4.58l6.15-1s8.11-15.94,9.93-16.91.28-7.28.28-7.28v-1.6c.05.05.09.12.15.17v0a22.84,22.84,0,0,1,3.34,8.17Z"/><path class="cls-14" d="M454.59,426.92s-3.5-6.43-10.21-4.05c0,0-3.77,7.7-7.55,8.95s-2.51,5.45,6,3.91,21.38-2.8,21.38-2.8l.56-7.83,8.67-11.05s5.17-4.68-2.52-13.9v1.6s1.54,6.3-.28,7.27-9.9,16.92-9.9,16.92Z"/><path class="cls-13" d="M403,313.26a43.25,43.25,0,0,0,.83,6.31,88.13,88.13,0,0,0-20-.21v-6.24Z"/><path class="cls-13" d="M474.44,322.77s-11.2.54-24.56.66c-.38-3.51-.46-6.39-.46-6.39s7.55-10.51,21.38.84a14.87,14.87,0,0,1,2.89,3.14C473.91,321.61,474.16,322.2,474.44,322.77Z"/><path class="cls-15" d="M474.44,321.51s-49.07,2.37-64-1.82-29.78-.56-32-1.54-.42-16.22,1.54-20,12.71-42,12.71-42l10.35-54,10.91-3,.77-.22,19-5.24L447.6,190S475.28,298,472.9,306a20.38,20.38,0,0,0-.4,9.38A23.35,23.35,0,0,0,474.44,321.51Z"/><path class="cls-16" d="M366.93,165.35s-9.81,10.5-2.38,16.36,12.3.56,12.3.56Z"/><path class="cls-13" d="M366.93,165.35s-9.81,10.5-2.38,16.36,12.3.56,12.3.56Z"/><path class="cls-12" d="M446.13,96.29S445,97.38,443.25,99c-2.46,2.31-6.11,5.68-9.34,8.5-4.49,3.9-8.18,6.76-6.86,4.32s1.07-6.7.41-10.69c0-.26-.09-.53-.14-.79a71,71,0,0,0-2.16-8.65s7.24-9.36,11.25-13.05c1.49-1.4,2.53-2,2.59-1a32.51,32.51,0,0,0,2.27,7.27c0,.1.07.19.11.28.82,2.1,1.73,4.26,2.54,6.12C445.15,94.16,446.13,96.29,446.13,96.29Z"/><path class="cls-13" d="M441.38,85.18a20.76,20.76,0,0,1-13.92,15.94,71.37,71.37,0,0,0-2.3-9.44S438.79,74.06,439,77.63C439.05,79,440.12,82,441.38,85.18Z"/><path class="cls-13" d="M426.1,105.83l1.77-2.49s1.17,7.13,5.47,4S437.85,131,437.85,131l-4.62,69-33.34-2,.94-33.34,3.78-16.81,9.33-24.43,5.55-8.07Z"/><path class="cls-15" d="M437.85,131.42l-4.2,62.38-.44,6.61-18.6-1.11-.7,0-14-.84.94-33.35,3.78-16.81L414,123.83l5.56-8.07,6.61-9.55,1.76-2.48s1.17,7.13,5.47,4l.09-.06h0C437.65,105,437.85,131.42,437.85,131.42Z"/><path class="cls-8" d="M405.1,142.42s-1.68,3.5-5,2.94-3.35,12.6-3.35,12.6-2.24,2.1-3.78.28-5.6,4.34-5.6,4.34l-25.45,1.12s11.33,5.17,9.11,20.83c0,0,38.44-2.38,39.7-6S405.1,142.42,405.1,142.42Z"/><path class="cls-8" d="M405.1,142.42s-1.68,3.5-5,2.94-3.35,12.6-3.35,12.6-2.24,2.1-3.78.28-5.6,4.34-5.6,4.34l-25.45,1.12s11.33,5.17,9.11,20.83c0,0,38.44-2.38,39.7-6S405.1,142.42,405.1,142.42Z"/><polygon class="cls-14" points="331.14 171.93 337.85 177.65 393.07 189.26 386.23 182.27 331.14 171.93"/><path class="cls-8" d="M426.21,108c-.92,1.4-3.54,8.57-5.74,14.83-1.82,5.22-3.35,9.81-3.35,9.81s-3.56,23.2-5.38,27.4-.84,20.55-.84,20.55L404.12,221S401,241.85,396.3,254.3c-4.69,12.24-9.91,18-10.07,18.17,2.1-2.85,13.55-58.82,13.55-58.82l3.78-70.6s.56-6.71,1.12-12.45S416.58,117,416.58,117l10.94-15.55C428.62,103,427.88,105.52,426.21,108Z"/><path class="cls-12" d="M397.69,198.77s-16.11-.7-23.91-10.07,18-3.74,18-3.74l6.72,1.54Z"/><path class="cls-13" d="M472.9,306a20.34,20.34,0,0,0-.4,9.37c-17.57,1.25-36.37-3.5-36.37-3.5-3.5,3.22-12.72,8-12.72,8l-5-62.32c-3.21-8.41-4.47-52.43-4.47-52.43l.7-5.76a.8.8,0,0,1,0-.26c1.26-9.64,3.74-27.74,5-30.18,1.68-3.37-5.17-12.31-5.17-12.31L417.55,130l.38-3.21c6.56-2.93,11.6-12.3,11.6-12.3l3.86-6.77h0c4.21-2.7,4.42,23.72,4.42,23.72l-4.2,62.39L447.53,190S475.28,298,472.9,306Z"/><path class="cls-8" d="M490.93,310.3c-19.15,9.51-54,.7-54,.7-3.5,3.22-12.72,8-12.72,8l-5-62.32c-3.2-8.4-4.46-52.43-4.46-52.43s4-32.85,5.72-36.2c.5-1,.26-2.44-.32-4a50.65,50.65,0,0,1-3.07-23.45l1.34-11.42.37-3.2c6.58-2.94,11.61-12.31,11.61-12.31l3.51-6.14,6.44-11.3,3-5.35.52.47,4,3.59,4.2,3.5c5.48,4.62,14.95,12.76,19.84,17.74,4.3,4.38,5.66,21.43,6.05,34.27.26,8.45.11,15.07.11,15.07-4.34,7.14,7,64.43,7,64.43C487.72,241,490.93,310.3,490.93,310.3Z"/><path class="cls-17" d="M454.17,113.49S441,138.51,442.55,148s5.87,20.27,3.78,22.78a7.74,7.74,0,0,1-6.16,3.08c-2.1.14-7.7,4.05-7.7,4.47s-5.17.42-9.8,2.38a61.36,61.36,0,0,1-11.47,3.08s-13.3-.42-14.54.84-2.51,8.8.14,14.82,5.6,10.5,7.83,11.32,16.36-3.92,27.82-5,23.91-10.2,23.91-10.2,13.7-4.9,16.1-13.14-2.93-53.54-2.93-53.54S465.49,107.75,454.17,113.49Z"/><path class="cls-17" d="M452.49,111.39s-13.14,25-11.6,34.53,5.87,20.27,3.76,22.79a7.69,7.69,0,0,1-6.14,3.07c-2.1.14-7.71,4.06-7.71,4.48s-5.17.42-9.8,2.37a61.35,61.35,0,0,1-11.46,3.08s-13.31-.42-14.54.84-2.52,8.81.14,14.82,5.6,10.5,7.83,11.32,16.36-3.92,27.82-5,23.91-10.21,23.91-10.21,13.69-4.9,16.07-13.14-2.94-53.54-2.94-53.54S463.81,105.66,452.49,111.39Z"/><path class="cls-8" d="M453.76,112.23s-13.15,25-11.61,34.53S448,167,445.93,169.54a7.72,7.72,0,0,1-6.16,3.09c-2.1.14-7.7,4.05-7.7,4.46s-5.17.42-9.8,2.38a61.57,61.57,0,0,1-11.47,3.08s-13.3-.42-14.54.84-2.51,8.81.14,14.82,5.6,10.5,7.83,11.32,16.36-3.92,27.82-5S456,194.29,456,194.29s13.7-4.9,16.1-13.14-2.9-53.54-2.9-53.54S465.07,106.53,453.76,112.23Z"/><path class="cls-13" d="M453.47,179.35s-10.5-2.1-6.85,1.41,3.64,6.56,8.11,6.42S453.47,179.35,453.47,179.35Z"/><path class="cls-12" d="M362.32,163.66c-5.07.18-16,1.72-10.34,12.32,5,9.38,13.45,3.11,18.2-1.65A17.9,17.9,0,0,0,362.32,163.66Z"/><path class="cls-18" d="M370.25,174.25l.21-.22Z"/><path class="cls-13" d="M452.08,98.83c-5.38,3.67-9.89,6.77-10.77,7.42-2.41,1.78-7,12.27-10,17.62-2.36,4.3-10,5.41-12.92,5.68l.37-3.2C425.37,123.41,430.4,114,430.4,114l13-22.78,4.48,4.06Z"/><path class="cls-19" d="M452.08,98.4c-5.38,3.68-9.89,6.78-10.77,7.43-2.41,1.78-7,12.27-10,17.62-2.36,4.3-10,5.41-12.92,5.68l.37-3.2c6.58-2.94,11.61-12.31,11.61-12.31l13-22.78,4.48,4S449.56,96.28,452.08,98.4Z"/><path class="cls-12" d="M441.73,80.56a20.77,20.77,0,1,1-9-17.11A20.69,20.69,0,0,1,441.73,80.56Z"/><path class="cls-13" d="M478,150.41a18.42,18.42,0,0,1-6.7-7.2c-1.17-2.31-1.95-5-3.94-6.61-1.8-1.47-4.2-1.83-6.44-2.49-7.37-2.18-13.55-8.9-13.78-16.57-.11-3.62,1-7.22.51-10.8a12,12,0,0,0-2.34-5.57,19.93,19.93,0,0,0-2-2.18c-1-.92-2-1.82-2.9-2.8a10.24,10.24,0,0,1-1.47-2,9,9,0,0,1-.81-1.86c-1.4-4.28-.12-9.37-1.66-13.7l-.09-.24c-.58-1.54-1.76-3.08-3.41-3.2s-3.05,1.24-4.62,1.85c-3.28,1.28-6.83-.89-9.57-3.1s-5.82-4.75-9.3-4.26c-2.31.33-4.13,1.9-6.25,2.71a8.37,8.37,0,0,1-1.48.43,20.77,20.77,0,0,1,40,7.74,20.28,20.28,0,0,1-.46,4.33l.11.29c.82,2.1,1.73,4.26,2.54,6.12l4,3.59,4.2,3.5c5.48,4.62,14.95,12.76,19.84,17.74C476.22,120.53,477.57,137.58,478,150.41Z"/><path class="cls-20" d="M402.93,59.61c1-2,1.5-4.32,2.69-6.25,1.76-2.8,4.83-4.6,8-5.68,8.23-2.84,25.61-7,30.81,0,1,1.4,1.87,3,3.28,3.92a23.4,23.4,0,0,0,3.57,1.6c3.31,1.56,5.43,4.95,6.55,8.41s1.47,7.17,2.29,10.73a80.22,80.22,0,0,0,4.76,13.22c2.18,5.08,4.49,10.35,8.69,13.94,5.74,4.91,7,11.85,12.33,17.22,6.3,6.39,6.1,16.93,2.85,25.3a6.86,6.86,0,0,0-.74,3.41,6.62,6.62,0,0,0,1.85,3.17l3.45,3.89a19.38,19.38,0,0,1-21.17-9.77c-1.17-2.31-1.95-5-3.95-6.61-1.79-1.47-4.2-1.82-6.44-2.48-7.36-2.19-13.54-8.92-13.77-16.59-.11-3.61,1-7.21.5-10.79a11.94,11.94,0,0,0-2.34-5.6c-1.93-2.51-4.83-4.2-6.4-7-2.66-4.68-.64-10.77-2.55-15.8-.59-1.54-1.77-3.08-3.41-3.2s-3.05,1.25-4.63,1.86c-3.28,1.27-6.82-.89-9.56-3.11s-5.82-4.74-9.31-4.24c-2.31.32-4.12,1.89-6.24,2.71-1.57.6-4.75,1.14-6.12-.19C395,69,401.72,62.1,402.93,59.61Z"/><path class="cls-13" d="M474.07,140.41c-1.18-2.31-1.95-5-3.95-6.61-1.8-1.47-4.21-1.82-6.45-2.48-7.36-2.18-13.53-8.91-13.77-16.59-.11-3.6,1-7.21.51-10.79a11.87,11.87,0,0,0-2.35-5.56c-1.93-2.52-4.83-4.2-6.4-7C439,86.7,441,80.61,439.11,75.58c-.58-1.54-1.77-3.08-3.4-3.2s-3.06,1.25-4.63,1.86c-3.28,1.27-6.83-.9-9.56-3.11s-5.83-4.74-9.32-4.25c-2.3.33-4.12,1.9-6.23,2.71-1.57.6-4.76,1.15-6.13-.18-2.89-2.8,3.83-9.69,5-12.17,1-2.05,1.5-4.32,2.71-6.26l.2-.31a10.86,10.86,0,0,0-2.3,2.62c-1.2,1.93-1.7,4.2-2.7,6.25-1.21,2.48-7.93,9.4-5,12.18,1.41,1.33,4.56.78,6.12.18,2.11-.82,3.94-2.39,6.24-2.71,3.51-.5,6.59,2,9.32,4.24s6.3,4.39,9.56,3.11c1.57-.61,2.94-2,4.62-1.85s2.81,1.66,3.41,3.2c1.92,5-.1,11.11,2.55,15.8,1.57,2.75,4.48,4.47,6.4,7a11.77,11.77,0,0,1,2.35,5.6c.51,3.57-.62,7.18-.5,10.78.23,7.71,6.4,14.41,13.77,16.59,2.22.66,4.64,1,6.44,2.48,2,1.65,2.8,4.31,3.94,6.62a19.38,19.38,0,0,0,21.17,9.76l-1.62-1.83A19.58,19.58,0,0,1,474.07,140.41Z"/><path class="cls-13" d="M425.79,108.45c-.92,1.4-3.54,8.57-5.74,14.84-2.05-.8-3.91-5.89-3.91-5.89l10.94-15.56C428.2,103.38,427.46,105.93,425.79,108.45Z"/><path class="cls-19" d="M426.21,108c-.92,1.4-3.54,8.57-5.74,14.83-2.05-.79-3.91-5.88-3.91-5.88l10.94-15.56C428.62,103,427.88,105.52,426.21,108Z"/><polygon class="cls-21" points="362.61 179.57 366.02 178.49 365.52 181.77 365.41 182.49 364.42 181.46 362.61 179.57"/><path class="cls-22" d="M364.42,181.46a.67.67,0,0,1,.22-.19.33.33,0,0,1,.33,0,1.18,1.18,0,0,1,.11.19.64.64,0,0,0,.44.29l-.11.7Z"/><path class="cls-12" d="M356.51,167.24s12.17-.07,9.3,5.1-7.34,5.8-7.34,5.8Z"/></g></g></svg>