<svg xmlns="http://www.w3.org/2000/svg" xmlns:xlink="http://www.w3.org/1999/xlink" viewBox="0 0 425.93 427.46">
    <defs>
        <style>
            .cls-1,.cls-8{fill:#dbd25e;}.cls-1,.cls-7{opacity:0.7;}.cls-2{opacity:0.7;}.cls-3{fill:url(#linear-gradient);}.cls-4{fill:#fff;}.cls-5{fill:#e0eeef;}.cls-6{fill:#4d8af0;opacity:0.5;}.cls-13,.cls-17,.cls-6,.cls-9{isolation:isolate;}.cls-9{fill:#6c63ff;}.cls-13,.cls-9{opacity:0.1;}.cls-10{fill:url(#linear-gradient-2);}.cls-11{fill:#1d2366;}.cls-12{fill:#eebfa5;}.cls-14{fill:#0a0a0a;}.cls-15{fill:#316dd0;}.cls-16{fill:#c7daf5;}.cls-17{opacity:0.03;}.cls-18{fill:#ffb0b1;}.cls-19{fill:#dce7ff;}.cls-20{fill:#3a2506;}.cls-21{fill:#efc8c4;}.cls-22{fill:#727a9c;}
        </style>
        <linearGradient id="linear-gradient" x1="344.72" y1="10460.75" x2="436.64" y2="10460.75"
                        gradientTransform="matrix(1, 0, 0, -1, -235.13, 10652.68)" gradientUnits="userSpaceOnUse">
            <stop offset="0" stop-color="gray" stop-opacity="0.25"/>
            <stop offset="0.54" stop-color="gray" stop-opacity="0.12"/>
            <stop offset="1" stop-color="gray" stop-opacity="0.1"/>
        </linearGradient>
        <linearGradient id="linear-gradient-2" x1="143.72" y1="10565.92" x2="143.72" y2="10959.48"
                        gradientTransform="matrix(1, 0, 0, -1, 194.55, 10982.42)" gradientUnits="userSpaceOnUse">
            <stop offset="0" stop-color="gray" stop-opacity="0.25"/>
            <stop offset="0.54" stop-color="gray" stop-opacity="0.12"/>
            <stop offset="1" stop-color="gray" stop-opacity="0.1"/>
        </linearGradient>
    </defs>
    <title>doctor-shield</title>
    <g id="Layer_2" data-name="Layer 2">
        <g id="Capa_1" data-name="Capa 1">
            <path class="cls-1" d="M151.24,0,0,93.07S0,285,151.24,389.72C302.47,285,302.47,93.07,302.47,93.07Z"/>
            <path class="cls-1" d="M152.14,0l-2.59,1.59V387.91l2.59,1.81C303.38,285,303.38,93.07,303.38,93.07Z"/>
            <g class="cls-2">
                <polygon class="cls-3"
                         points="121.72 179.14 150.84 205.84 186.94 153.75 201.5 165.89 150.84 230.1 109.58 183.99 121.72 179.14"/>
            </g>
            <polygon class="cls-4"
                     points="121.35 190.16 144.48 211.36 177.24 163.18 188.81 172.82 144.48 230.64 111.72 194.02 121.35 190.16"/>
            <circle class="cls-5" cx="340.69" cy="125.83" r="3.44"/>
            <circle class="cls-5" cx="399.12" cy="258.14" r="3.44"/>
            <path class="cls-6"
                  d="M372.7,384.13a2.1,2.1,0,0,1-1.17-2.54,1,1,0,0,0,.05-.24h0a1.05,1.05,0,0,0-1-1.11,1,1,0,0,0-.91.42h0a.82.82,0,0,0-.12.2A2.1,2.1,0,0,1,367,382a1,1,0,0,0-.23-.05h0a1.06,1.06,0,0,0-1.12,1,1.09,1.09,0,0,0,.42.91h0l.2.11a2.11,2.11,0,0,1,1.18,2.55.86.86,0,0,0-.05.23h0a1.06,1.06,0,0,0,1.9.7h0a.84.84,0,0,0,.11-.21A2.12,2.12,0,0,1,372,386.1a.85.85,0,0,0,.23,0h0a1.05,1.05,0,0,0,.7-1.89h0A.72.72,0,0,0,372.7,384.13Z"/>
            <circle class="cls-1" cx="400.83" cy="170.51" r="3.44"/>
            <g class="cls-7">
                <rect class="cls-8" x="318.35" y="207.17" width="1.72" height="9.74"/>
                <rect class="cls-8" x="314.34" y="211.18" width="9.74" height="1.72"/>
            </g>
            <ellipse class="cls-9" cx="340.79" cy="416.5" rx="85.14" ry="10.96"/>
            <rect class="cls-9" x="331.93" y="125.55" width="19.92" height="19.92"/>
            <rect class="cls-9" x="331.93" y="174.67" width="19.92" height="19.92"/>
            <path class="cls-10"
                  d="M412.65,209.66s-11.57-57.52-7.14-64.67c0,0,.16-6.66-.11-15.14v-1a21.82,21.82,0,0,0,2.43,1.4A19.65,19.65,0,0,0,421.07,132l-3.5-3.9a6.45,6.45,0,0,1-1.9-3.17,6.59,6.59,0,0,1,.76-3.43c3.32-8.41,3.5-19-2.91-25.39-5.41-5.39-6.73-12.35-12.6-17.27-4.3-3.61-6.66-8.9-8.88-14a78.27,78.27,0,0,1-4.86-13.25c-.84-3.58-1.18-7.29-2.33-10.78s-3.32-6.89-6.71-8.45a25.79,25.79,0,0,1-3.64-1.61c-1.44-1-2.31-2.55-3.35-3.94-5.3-7-23-2.88-31.46,0a17.61,17.61,0,0,0-6.22,3.44l.08-.13c.06-.1.14-.21.21-.31a10.93,10.93,0,0,0-2.35,2.63c-1.23,1.94-1.74,4.2-2.76,6.3-1.23,2.48-8.09,9.42-5.14,12.22a2.7,2.7,0,0,0,.7.45,6.08,6.08,0,0,0,3.5.35l-.12.3a20.25,20.25,0,0,0-1.52,7.76,21,21,0,0,0,21.2,20.84,21.36,21.36,0,0,0,6.49-1c.05.27.09.54.14.8,0,.11,0,.21.05.32h0l-.37.52-.06-.1-11,15.37c-1.68,1.18-11.36,8.18-11.9,13.44-.58,5.74-1.15,12.47-1.15,12.47l-.08,1.45a4.34,4.34,0,0,1-3.5.94c-3.43-.56-3.43,12.61-3.43,12.61s-2.28,2.1-3.85.28-5.72,4.35-5.72,4.35l-26,1.12h0l-.59,0-1.4-4.33a1.82,1.82,0,0,0-2.29-1.17,2.15,2.15,0,0,0-.32.13l-.09.06L282,138l-.09.09a1.85,1.85,0,0,0-.14.14l-.08.1,0,0h0a1.8,1.8,0,0,0-.26,1.57l1.21,3.72c-5,1-10.14,3.85-6,11.68l-21.19-3.91,6.86,5.75,35.39,7.31c-.47.84-.16,2.05,1.3,3.77,6.3,7.4,17.79,9.41,22.41,9.93a39.74,39.74,0,0,0,4.54,7.7l-.4,7.38s-11.7,56.2-13.84,59.05a33.9,33.9,0,0,0,3-3.9c-3.4,11.55-8.14,27.35-9.39,29.72-2,3.78-3.86,19.08-1.58,20.06.71.3,2.71.15,5.56-.06v1.26l-.12,48s.57,29.46-1,32.27-2,8.7-2,8.7-6.3,11.62-11.29,16.29a1.27,1.27,0,0,1-.12.1l-.15-1.1s-6,7.58-19.28,7.15c0,0-8,5.2,3.86,5.48s27-.42,27-.42,10.57-16.11,19.42-14v12.21h2.71v-12.4a11.09,11.09,0,0,0,4.82-7.31,8.86,8.86,0,0,0-3.16-8.21,5.24,5.24,0,0,1-1.73-3.84l-.1.09a6.83,6.83,0,0,0-.09-.76c-.78-6.3-1.75-19.31,1.69-28.93,4.71-13.19,6.14-31.57,2.71-42.5a98.39,98.39,0,0,1-2.73-10.65c-.08-.46-.16-.89-.23-1.3a56.79,56.79,0,0,1,7,1.4c7.94,2.19,25.33,2.6,40.18,2.48q0,.61.12,1.26a45.85,45.85,0,0,0,1.66,8.77c1.86,5.6,2.71,30.3,2.71,30.3s2.4,20.3,1.1,28.57c-.7,4.59-1.41,9.21-1.8,13.84V385s-3.94,11.21-6.82,17.29l-.21.46a9,9,0,0,0-2.25.49s-3.86,7.71-7.71,9-2.57,5.47,6.14,3.93,21.85-2.8,21.85-2.8l.56-7.86,2.68-3.34L394,410l2.85-.56-.38-9.53,4.38-5.48s5.28-4.7-2.57-14v.2c-.09-.13-.16-.27-.25-.4v0c-1.31-2-2.34-5.78-.45-12.45,3.44-12.06,5.43-23,5.43-23s7.66-29.32-1.55-43.19h.41a23.46,23.46,0,0,1-2-6.16c0-.25-.09-.51-.13-.78,6.82-.39,13.5-1.62,19-4.28C418.65,290.32,415.36,220.74,412.65,209.66Zm-86.51-48.53v.14l-1.4.07Zm-4.8.67a1.47,1.47,0,0,0-.63.3,6.23,6.23,0,0,0-1.1,2.88l-2.19-.49s-1.53-.33-3.73-.7l-1.05-1C315.51,162.5,318.5,162.15,321.34,161.8Z"/>
            <polygon class="cls-11" points="393.63 400 392.79 409.92 395.59 409.36 395.17 398.6 393.63 400"/>
            <path class="cls-12"
                  d="M329.88,352.89c-3.37,9.59-2.41,22.54-1.66,28.82.28,2.33.54,3.74.54,3.74s-5,11.47-5.45,11.91-14.82,9.22-14.82,9.22l-10.06,5.88s-10.21-4.48-5.32-6a7.35,7.35,0,0,0,2.64-1.8c4.9-4.66,11.06-16.23,11.06-16.23s.42-5.88,2-8.67,1-32.16,1-32.16l.12-47.86v-6.24l19.15.14a43.25,43.25,0,0,0,.83,6.31,94.63,94.63,0,0,0,2.67,10.61C335.89,321.46,334.49,339.74,329.88,352.89Z"/>
            <path class="cls-13"
                  d="M328.76,385.45s-5,11.47-5.45,11.91-14.82,9.22-14.82,9.22l-10.06,5.88s-10.21-4.48-5.32-6a7.35,7.35,0,0,0,2.64-1.8l.44,3.06,3.35-.14,28.71-25.83C328.5,384,328.76,385.45,328.76,385.45Z"/>
            <path class="cls-14"
                  d="M328.41,382.38l-28.87,26-3.35.14-.7-4.9s-5.87,7.54-18.91,7.12c0,0-7.83,5.18,3.77,5.46s26.42-.42,26.42-.42,10.35-16.11,19-14V414h2.66V401.67a11.06,11.06,0,0,0,4.72-7.28,8.93,8.93,0,0,0-3.09-8.18A5.29,5.29,0,0,1,328.41,382.38Z"/>
            <path class="cls-12"
                  d="M396.29,367.84c-1.87,6.66-.85,10.4.42,12.41v0a22.73,22.73,0,0,1,3.35,8.18l.11.63L387,408.25l-7.13,2.8s-11.46-3.92-9.37-5c.52-.27,1.34-1.73,2.28-3.74,2.8-6,6.67-17.23,6.67-17.23V385c.4-4.61,1.05-9.22,1.76-13.8,1.28-8.24-1.07-28.47-1.07-28.47s-.84-24.6-2.66-30.19a46.12,46.12,0,0,1-1.63-8.71c-.38-3.5-.46-6.39-.46-6.39s7.55-10.5,21.38.84a15.12,15.12,0,0,1,2.89,3.14c9.56,13.6,1.87,43.55,1.87,43.55S399.64,355.82,396.29,367.84Z"/>
            <path class="cls-13"
                  d="M400.2,389.1l-13.14,19.15-7.13,2.8s-11.46-3.92-9.37-5c.53-.27,1.34-1.73,2.28-3.74,4.86,0,7.37,4.58,7.37,4.58l6.15-1s8.11-15.93,9.93-16.91.28-7.27.28-7.27v-1.61l.14.18v0a22.76,22.76,0,0,1,3.35,8.17Z"/>
            <path class="cls-14"
                  d="M380.63,407.27s-3.5-6.43-10.21-4.06c0,0-3.77,7.71-7.55,9s-2.51,5.45,6,3.92,21.38-2.8,21.38-2.8l.56-7.84,8.67-11s5.17-4.69-2.52-13.91v1.6s1.54,6.31-.28,7.28-9.9,16.92-9.9,16.92Z"/>
            <path class="cls-13" d="M329,293.61a43.12,43.12,0,0,0,.83,6.3,88,88,0,0,0-20-.2v-6.24Z"/>
            <path class="cls-13"
                  d="M400.48,303.11s-11.2.55-24.56.66c-.38-3.5-.46-6.39-.46-6.39s7.54-10.5,21.38.84a15.12,15.12,0,0,1,2.89,3.14A18.06,18.06,0,0,0,400.48,303.11Z"/>
            <path class="cls-15"
                  d="M400.48,301.85s-49.07,2.37-64-1.82-29.78-.56-32-1.53-.43-16.22,1.54-20,12.71-41.94,12.71-41.94l10.35-54,10.91-3,.77-.21,19-5.24,13.92-3.85s27.69,108.07,25.31,116a20.38,20.38,0,0,0-.4,9.38A23.23,23.23,0,0,0,400.48,301.85Z"/>
            <path class="cls-16" d="M293,145.69s-9.8,10.51-2.38,16.36,12.31.56,12.31.56Z"/>
            <path class="cls-13" d="M293,145.69s-9.8,10.51-2.38,16.36,12.31.56,12.31.56Z"/>
            <path class="cls-12"
                  d="M372.17,76.63s-1.15,1.1-2.88,2.71c-2.46,2.3-6.11,5.67-9.35,8.49-4.48,3.9-8.17,6.77-6.85,4.32s1.07-6.7.41-10.68c-.05-.27-.09-.54-.14-.79A73.55,73.55,0,0,0,351.2,72s7.24-9.36,11.24-13c1.5-1.4,2.54-2,2.6-1a32.51,32.51,0,0,0,2.27,7.27l.11.29c.82,2.1,1.73,4.26,2.54,6.12C371.19,74.51,372.17,76.63,372.17,76.63Z"/>
            <path class="cls-13"
                  d="M367.42,65.53A20.79,20.79,0,0,1,353.5,81.47,71.13,71.13,0,0,0,351.2,72S364.83,54.41,365,58C365.09,59.32,366.16,62.32,367.42,65.53Z"/>
            <path class="cls-13"
                  d="M352.14,86.17l1.77-2.48s1.17,7.12,5.47,4,4.51,23.66,4.51,23.66l-4.62,69-33.34-2,.94-33.34,3.78-16.8L340,103.76l5.55-8.08Z"/>
            <path class="cls-15"
                  d="M363.89,111.76l-4.2,62.39-.45,6.61-18.59-1.12-.7,0-14-.84.94-33.35,3.78-16.8L340,104.18l5.55-8.08,6.61-9.54,1.77-2.48s1.17,7.13,5.47,4l.09-.06h0C363.69,85.34,363.89,111.76,363.89,111.76Z"/>
            <path class="cls-4"
                  d="M331.14,122.77s-1.68,3.5-5,2.93-3.35,12.61-3.35,12.61-2.24,2.1-3.78.28-5.6,4.33-5.6,4.33L287.92,144s11.33,5.18,9.11,20.83c0,0,38.44-2.38,39.7-6S331.14,122.77,331.14,122.77Z"/>
            <path class="cls-4"
                  d="M331.14,122.77s-1.68,3.5-5,2.93-3.35,12.61-3.35,12.61-2.24,2.1-3.78.28-5.6,4.33-5.6,4.33L287.92,144s11.33,5.18,9.11,20.83c0,0,38.44-2.38,39.7-6S331.14,122.77,331.14,122.77Z"/>
            <polygon class="cls-14" points="257.18 152.27 263.89 158 319.11 169.6 312.26 162.61 257.18 152.27"/>
            <path class="cls-4"
                  d="M352.25,88.38c-.92,1.4-3.54,8.57-5.74,14.83-1.82,5.22-3.35,9.8-3.35,9.8s-3.57,23.21-5.39,27.4-.83,20.56-.83,20.56l-6.78,40.39s-3.08,20.84-7.83,33.28c-4.68,12.25-9.9,18-10.06,18.17C314.37,250,325.82,194,325.82,194l3.78-70.6s.56-6.71,1.12-12.44,11.9-13.57,11.9-13.57l10.94-15.55C354.66,83.3,353.92,85.86,352.25,88.38Z"/>
            <path class="cls-12" d="M323.73,179.11s-16.11-.7-23.91-10.07,18-3.74,18-3.74l6.72,1.54Z"/>
            <path class="cls-13"
                  d="M398.94,286.34a20.38,20.38,0,0,0-.4,9.38c-17.57,1.24-36.37-3.5-36.37-3.5-3.5,3.22-12.72,8-12.72,8l-5-62.32c-3.21-8.4-4.47-52.43-4.47-52.43l.7-5.75a.74.74,0,0,1,0-.26c1.25-9.64,3.74-27.75,5-30.19,1.68-3.36-5.17-12.3-5.17-12.3l3.12-26.58.37-3.21c6.57-2.93,11.61-12.3,11.61-12.3l3.86-6.77h0c4.2-2.7,4.42,23.72,4.42,23.72l-4.2,62.39,13.92-3.84S401.32,278.37,398.94,286.34Z"/>
            <path class="cls-4"
                  d="M417,290.65c-19.15,9.51-54,.7-54,.7-3.5,3.22-12.72,8-12.72,8l-5-62.33c-3.2-8.4-4.46-52.43-4.46-52.43s4-32.84,5.72-36.2c.49-1,.26-2.44-.33-4a50.84,50.84,0,0,1-3.06-23.46l1.34-11.42.37-3.2C351.41,103.34,356.44,94,356.44,94l3.5-6.13,6.45-11.3,3.05-5.35.52.47,4,3.58,4.21,3.5C383.6,83.36,393.07,91.5,398,96.48c4.3,4.38,5.66,21.43,6.05,34.27.26,8.45.11,15.08.11,15.08-4.34,7.13,7,64.42,7,64.42C413.76,221.32,417,290.65,417,290.65Z"/>
            <path class="cls-17"
                  d="M380.21,93.83s-13.14,25-11.62,34.53,5.87,20.27,3.78,22.79a7.73,7.73,0,0,1-6.16,3.07c-2.1.14-7.7,4.06-7.7,4.48s-5.18.42-9.8,2.38a61,61,0,0,1-11.47,3.07s-13.3-.42-14.54.84-2.52,8.81.14,14.82,5.6,10.5,7.83,11.32,16.35-3.91,27.82-5,23.9-10.2,23.9-10.2S396.1,171,398.5,162.75s-2.93-53.54-2.93-53.54S391.53,88.1,380.21,93.83Z"/>
            <path class="cls-17"
                  d="M378.53,91.73s-13.14,25-11.6,34.53,5.86,20.27,3.76,22.8a7.69,7.69,0,0,1-6.14,3.07c-2.11.14-7.71,4.05-7.71,4.47s-5.17.42-9.8,2.38a61.83,61.83,0,0,1-11.46,3.07s-13.31-.42-14.54.84-2.52,8.81.14,14.82,5.6,10.5,7.83,11.32,16.36-3.91,27.82-5,23.9-10.2,23.9-10.2,13.7-4.91,16.08-13.14-2.94-53.55-2.94-53.55S389.85,86,378.53,91.73Z"/>
            <path class="cls-4"
                  d="M379.8,92.57s-13.15,25-11.61,34.53,5.87,20.27,3.78,22.79a7.71,7.71,0,0,1-6.16,3.08c-2.1.14-7.7,4.05-7.7,4.47s-5.17.42-9.8,2.38a61.18,61.18,0,0,1-11.47,3.07s-13.3-.42-14.54.84-2.52,8.81.14,14.82,5.6,10.5,7.83,11.32,16.36-3.91,27.82-5S382,174.64,382,174.64s13.7-4.91,16.1-13.15S395.2,108,395.2,108,391.11,86.87,379.8,92.57Z"/>
            <path class="cls-13" d="M379.51,159.7s-10.5-2.1-6.85,1.4,3.64,6.57,8.11,6.43S379.51,159.7,379.51,159.7Z"/>
            <path class="cls-12"
                  d="M288.36,144c-5.07.17-16,1.72-10.35,12.31,5,9.38,13.46,3.11,18.21-1.64A17.9,17.9,0,0,0,288.36,144Z"/>
            <path class="cls-18" d="M296.28,154.59l.21-.21Z"/>
            <path class="cls-13"
                  d="M378.12,79.17c-5.38,3.68-9.89,6.78-10.77,7.42-2.41,1.79-7,12.27-10,17.62-2.36,4.31-10,5.41-12.92,5.69l.37-3.2c6.58-2.94,11.61-12.31,11.61-12.31l13-22.79,4.47,4.07Z"/>
            <path class="cls-19"
                  d="M378.12,78.75c-5.38,3.68-9.89,6.78-10.77,7.43-2.41,1.78-7,12.26-10,17.61-2.36,4.31-10,5.41-12.92,5.69l.37-3.2C351.41,103.34,356.44,94,356.44,94l13-22.79,4.47,4S375.6,76.62,378.12,78.75Z"/>
            <path class="cls-12" d="M367.77,60.91a20.78,20.78,0,1,1-9-17.11A20.79,20.79,0,0,1,367.77,60.91Z"/>
            <path class="cls-13"
                  d="M404,130.76a18.49,18.49,0,0,1-6.7-7.2c-1.17-2.31-1.95-5-3.94-6.62-1.8-1.47-4.2-1.83-6.44-2.48-7.37-2.18-13.55-8.9-13.78-16.58-.11-3.61,1-7.22.51-10.8a12.07,12.07,0,0,0-2.34-5.56,19.05,19.05,0,0,0-2-2.18c-1-.93-2-1.82-2.9-2.8a10.62,10.62,0,0,1-1.47-2,9.2,9.2,0,0,1-.81-1.85c-1.4-4.29-.13-9.37-1.67-13.71l-.08-.24c-.58-1.54-1.76-3.08-3.41-3.2s-3.05,1.25-4.62,1.86c-3.29,1.27-6.83-.9-9.57-3.11s-5.82-4.74-9.3-4.25c-2.31.33-4.13,1.9-6.25,2.71a9.31,9.31,0,0,1-1.48.43,20.77,20.77,0,0,1,40,7.73,20.44,20.44,0,0,1-.46,4.34l.11.29c.82,2.1,1.73,4.25,2.54,6.12l4,3.58,4.21,3.5C383.6,83.36,393.07,91.5,398,96.48,402.26,100.88,403.61,117.92,404,130.76Z"/>
            <path class="cls-20"
                  d="M329,40c1-2,1.49-4.33,2.69-6.26,1.76-2.8,4.83-4.59,8-5.68,8.22-2.83,25.61-6.95,30.81,0,1,1.4,1.87,3,3.28,3.92a24.46,24.46,0,0,0,3.57,1.61c3.31,1.55,5.42,4.94,6.55,8.4s1.46,7.17,2.29,10.74A79.21,79.21,0,0,0,390.9,65.9c2.18,5.08,4.49,10.36,8.69,13.95,5.74,4.9,7,11.84,12.33,17.22,6.3,6.38,6.1,16.92,2.85,25.29a6.9,6.9,0,0,0-.74,3.42,6.59,6.59,0,0,0,1.85,3.16l3.45,3.89a19.37,19.37,0,0,1-21.17-9.76c-1.17-2.31-2-5-4-6.62-1.79-1.47-4.2-1.82-6.44-2.48-7.36-2.18-13.54-8.91-13.77-16.59-.11-3.6,1-7.21.5-10.78a11.86,11.86,0,0,0-2.34-5.6c-1.93-2.52-4.83-4.2-6.4-7-2.66-4.68-.64-10.77-2.55-15.79-.59-1.54-1.77-3.08-3.41-3.2s-3.06,1.24-4.63,1.85c-3.28,1.28-6.82-.89-9.56-3.11S339.78,49,336.3,49.5c-2.31.32-4.12,1.89-6.24,2.71-1.57.6-4.75,1.14-6.12-.18C321,49.36,327.75,42.45,329,40Z"/>
            <path class="cls-13"
                  d="M400.1,120.76c-1.17-2.31-1.94-5-4-6.61-1.79-1.47-4.2-1.83-6.44-2.49-7.36-2.18-13.53-8.91-13.77-16.58-.11-3.61,1-7.22.51-10.79a11.91,11.91,0,0,0-2.35-5.57c-1.93-2.51-4.84-4.2-6.4-7-2.65-4.68-.63-10.76-2.55-15.8-.58-1.53-1.77-3.07-3.41-3.2s-3.06,1.25-4.62,1.86c-3.28,1.28-6.83-.89-9.56-3.11s-5.84-4.74-9.32-4.25c-2.3.33-4.12,1.9-6.24,2.71-1.56.61-4.75,1.15-6.12-.17-2.89-2.8,3.83-9.7,5-12.18,1-2,1.5-4.32,2.7-6.25l.21-.32a11.33,11.33,0,0,0-2.31,2.62c-1.19,1.93-1.69,4.2-2.69,6.26-1.21,2.47-7.93,9.39-5,12.17,1.4,1.33,4.55.79,6.12.18,2.1-.81,3.94-2.38,6.24-2.71,3.5-.49,6.59,2,9.32,4.25s6.3,4.38,9.56,3.11c1.57-.61,2.94-2,4.62-1.86s2.8,1.66,3.41,3.2c1.92,5-.1,11.11,2.55,15.8,1.57,2.75,4.48,4.47,6.4,7a12,12,0,0,1,2.35,5.6c.51,3.58-.62,7.18-.51,10.79.24,7.7,6.41,14.4,13.78,16.59,2.22.66,4.64,1,6.43,2.48,2,1.64,2.8,4.3,3.95,6.61a19.38,19.38,0,0,0,21.17,9.77L417.55,131A19.57,19.57,0,0,1,400.1,120.76Z"/>
            <path class="cls-13"
                  d="M351.83,88.8c-.92,1.4-3.54,8.57-5.74,14.83-2-.8-3.91-5.89-3.91-5.89l10.94-15.56C354.24,83.72,353.5,86.28,351.83,88.8Z"/>
            <path class="cls-19"
                  d="M352.25,88.38c-.92,1.4-3.54,8.57-5.74,14.83-2.05-.79-3.91-5.89-3.91-5.89l10.94-15.55C354.66,83.3,353.92,85.86,352.25,88.38Z"/>
            <polygon class="cls-21"
                     points="288.65 159.92 292.06 158.84 291.56 162.12 291.45 162.84 290.46 161.8 288.65 159.92"/>
            <path class="cls-22"
                  d="M290.46,161.8a.55.55,0,0,1,.22-.18.27.27,0,0,1,.32,0,.76.76,0,0,1,.12.19.62.62,0,0,0,.44.28l-.11.7Z"/>
            <path class="cls-12" d="M282.55,147.58s12.17-.07,9.3,5.11-7.34,5.8-7.34,5.8Z"/>
        </g>
    </g>
</svg>