<svg xmlns="http://www.w3.org/2000/svg" viewBox="0 0 74.09 59.61"><defs><style>.cls-1{fill:#d2e2f4;}.cls-2{fill:#fff;}.cls-3{fill:#272525;}</style></defs><g id="Layer_2" data-name="Layer 2"><g id="Layer_1-2" data-name="Layer 1"><path class="cls-1" d="M30.62,2.05C23.29,4.92,24.25,16.2,18.14,21.19c-5.27,4.3-12.24,9.07-10.4,18.58,2.35,12.21,18.52,15,22.39,15.74a44.06,44.06,0,0,0,8,.15c2.23-.08,5.84-.48,8.11.31,3.17,1.11,6,3.17,9.37,3.15,8.89-.07,16.09-10.95,17.73-17.9,2.66-11.33-2.19-22.3-3.1-24.76C67.1,8.15,58.54.84,47.26.11A41.89,41.89,0,0,0,30.62,2.05Z"/><g id="YoW6SV"><path d="M0,8.16a18.9,18.9,0,0,1,2.66-.37q23.61-.08,47.2-.08c2.88,0,2.89,0,2.89,3,0,9.48,0,19,0,28.45,0,1.44.24,2.16,1.93,2.53a9.13,9.13,0,1,1-11.13,10.9c-.35-1.75-1.32-1.65-2.54-1.65q-19,0-37.92-.1A21.47,21.47,0,0,1,0,50.33ZM51.86,41.29V19.8H.92V50.08H3.53L28,50c4.5,0,9,0,13.49-.05.65,0,1.76-.55,1.86-1C44.35,44.46,47.28,42.18,51.86,41.29ZM.78,18.84H52c0-2.81-.14-5.41,0-8,.14-2-.67-2.42-2.52-2.42-14.55.05-29.09,0-43.64,0a28.12,28.12,0,0,0-3.79.07A1.76,1.76,0,0,0,.84,9.67C.73,12.68.78,15.7.78,18.84Zm60,31.68a8.34,8.34,0,1,0-8.5,8.33A8.24,8.24,0,0,0,60.78,50.52Z"/><path class="cls-2" d="M51.68,54.25l5.11-6.41-.51-.39L51.62,53l-2.94-2.29-.37.48Z"/><path d="M26.62,13.43H47.43v.38H26.61Z"/><path d="M51.68,54.25l-3.37-3.09.37-.48L51.62,53l4.66-5.52.51.39Z"/></g><path class="cls-3" d="M32.35,21.05c-.42.5-.12,1.3.48,2.11L31.28,25A3.57,3.57,0,0,0,28,26.22L18.86,37a3.53,3.53,0,0,0-.84,2.6A3.58,3.58,0,0,0,19,41.77L14.54,47a.44.44,0,0,0,.06.62.43.43,0,0,0,.28.11.46.46,0,0,0,.34-.16l4.42-5.23a3.57,3.57,0,0,0,4.68-.69l9.13-10.82a3.5,3.5,0,0,0,.83-2.61,3.39,3.39,0,0,0-.17-.84l1.54-1.83.48.22a2.55,2.55,0,0,0,.93.2,1,1,0,0,0,.76-.31c.66-.78-.45-2.34-1.77-3.45s-3-1.95-3.7-1.16Zm3.13,1.84c1.25,1.05,1.67,2,1.65,2.2a1.79,1.79,0,0,1-.89-.24l.06-.06a.48.48,0,0,0,.1-.33.47.47,0,0,0-.16-.3L34.1,22.35a.45.45,0,0,0-.63,0l0,.06a1.78,1.78,0,0,1-.38-.83A4.21,4.21,0,0,1,35.48,22.89ZM33.4,28.3a2.69,2.69,0,0,1-.62,2l-.23.27-.78-.67a.33.33,0,1,0-.43.51l.78.66-.77.92-1.41-1.2a.33.33,0,0,0-.43.51l1.41,1.19-.85,1-.78-.66a.33.33,0,0,0-.43.51l.78.66-.38.46-.39.46-1.42-1.2a.32.32,0,0,0-.46,0,.33.33,0,0,0,0,.47l1.41,1.19-.65.78L27,35.5a.32.32,0,0,0-.46,0,.33.33,0,0,0,0,.47l.78.66-.77.92-1.42-1.2a.32.32,0,0,0-.46,0,.33.33,0,0,0,0,.47l1.41,1.19-.85,1-.79-.66a.32.32,0,0,0-.46,0,.33.33,0,0,0,0,.47l.78.66-.77.92-1.42-1.2a.32.32,0,0,0-.46,0,.32.32,0,0,0,0,.47L23.68,41l0,0a2.69,2.69,0,0,1-4.11-3.47L25.15,31l3.52-4.17a2.66,2.66,0,0,1,1.83-.95h.23A2.69,2.69,0,0,1,33.4,28.3ZM33,25.79a4.19,4.19,0,0,0-.82-.52l1.65-2,1.47,1.24-1.65,2A3.69,3.69,0,0,0,33,25.79Z"/><path class="cls-3" d="M24.66,31l4.56,3.79c.28.24.7-.17.41-.41l-4.56-3.79c-.29-.24-.7.17-.41.41Z"/></g></g></svg>