<svg xmlns="http://www.w3.org/2000/svg" xmlns:xlink="http://www.w3.org/1999/xlink" viewBox="0 0 687.81 632.69"><defs><style>.cls-1{fill:#f2f2f2;}.cls-2{fill:url(#linear-gradient);}.cls-3{fill:#161616;}.cls-4{opacity:0.1;isolation:isolate;}.cls-5{fill:#2b2b2b;}.cls-6{fill:#c8c9cc;}.cls-7{fill:#a5a6aa;}.cls-8{fill:#fb503b;}.cls-9{fill:#eebfa5;}.cls-10{fill:#fff;}.cls-11{fill:#01036b;}.cls-12{fill:#4f3405;}.cls-13{fill:#191816;}.cls-14,.cls-17{fill:#dbd25e;}.cls-14{opacity:0.7;}.cls-15{fill:#001f46;}.cls-16{fill:#e0eeef;}.cls-17{opacity:0.5;}.cls-18{fill:#d2e2f4;}</style><linearGradient id="linear-gradient" y1="566.89" x2="687.81" y2="566.89" gradientUnits="userSpaceOnUse"><stop offset="0.07" stop-color="#8fc7e8"/><stop offset="0.08" stop-color="#8ec6e7"/><stop offset="0.26" stop-color="#679ebf"/><stop offset="0.44" stop-color="#487fa1"/><stop offset="0.61" stop-color="#33698b"/><stop offset="0.78" stop-color="#255c7d"/><stop offset="0.93" stop-color="#215779"/></linearGradient></defs><title>medic-desktop</title><g id="Layer_2" data-name="Layer 2"><g id="Capa_1" data-name="Capa 1"><path class="cls-1" d="M605.8,246.58C570,105.81,446.31,4.2,301.11.12,224.36-2,143.59,23.43,84.78,112.51-20.35,271.76,91.24,381.8,169,434.09a487,487,0,0,1,100.62,90.44c52.54,62.35,153.63,139.84,274,18.43C630.93,455,629.64,340.35,605.8,246.58Z"/><ellipse class="cls-2" cx="343.91" cy="566.89" rx="343.91" ry="65.8"/><polygon class="cls-3" points="490.05 350.87 490.05 518.2 518.04 563.81 520.17 567.28 630.61 567.28 632.84 350.87 490.05 350.87"/><polygon class="cls-4" points="490.05 350.87 490.05 518.2 518.04 563.81 519.76 350.87 490.05 350.87"/><polygon class="cls-3" points="223.45 346.41 223.45 513.73 195.46 559.35 193.33 562.82 82.89 562.82 80.66 346.41 223.45 346.41"/><polygon class="cls-4" points="223.45 346.41 223.45 513.73 195.46 559.35 193.74 346.41 223.45 346.41"/><polygon class="cls-5" points="666.3 343.06 666.3 353.1 66.16 353.1 66.16 338.6 121.94 309.6 617.22 309.6 666.3 343.06"/><polygon class="cls-4" points="666.3 343.06 666.3 353.1 66.16 353.1 66.16 338.6 666.3 343.06"/><polygon points="152.06 393.26 125.28 393.26 114.13 385.45 164.32 385.45 152.06 393.26"/><polygon points="152.06 425.61 125.28 425.61 114.13 417.8 164.32 417.8 152.06 425.61"/><polygon points="152.06 471.35 125.28 471.35 114.13 463.54 164.32 463.54 152.06 471.35"/><polygon points="152.06 527.09 125.28 527.09 114.13 519.28 164.32 519.28 152.06 527.09"/><polygon points="561.45 397.72 588.22 397.72 599.37 389.91 549.17 389.91 561.45 397.72"/><polygon points="561.45 430.07 588.22 430.07 599.37 422.26 549.17 422.26 561.45 430.07"/><polygon points="561.45 475.81 588.22 475.81 599.37 468 549.17 468 561.45 475.81"/><polygon points="561.45 531.55 588.22 531.55 599.37 523.74 549.17 523.74 561.45 531.55"/><path class="cls-6" d="M440.37,281.68l-3.73,23.76s-18.31,9.73-5.43,10,73.56,0,73.56,0,11.73,0-6.87-10.31l-3.72-24.9Z"/><path class="cls-4" d="M428.62,315.2a51.65,51.65,0,0,1,8-5.32l3.73-23.75,53.81.05,3.72,23.42a49.46,49.46,0,0,1,8.6,5.65c2.38-.54,5-2.57-8.6-10.1l-3.72-24.9-53.81,1.43-3.73,23.76S421.25,313.62,428.62,315.2Z"/><rect x="345.77" y="116.1" width="242.43" height="168.87" rx="8.52"/><rect class="cls-1" x="353.93" y="125.12" width="226.12" height="126.51"/><circle class="cls-1" cx="466.98" cy="121.11" r="1.43"/><path class="cls-6" d="M588.2,261.65v14.8a8.51,8.51,0,0,1-8.52,8.52H354.29a8.52,8.52,0,0,1-8.52-8.52h0v-14.8Z"/><circle class="cls-1" cx="466.98" cy="273.38" r="5.44"/><path class="cls-7" d="M517.77,328.11c-.28,1.2-1.34,2.46-3.73,3.66-8.59,4.29-26-1.14-26-1.14s-13.45-2.29-13.45-8.3a10.85,10.85,0,0,1,1.18-.71c3.61-1.91,15.58-6.62,36.8.2a8.85,8.85,0,0,1,4,2.65A4.24,4.24,0,0,1,517.77,328.11Z"/><path class="cls-6" d="M517.77,328.11c-10.51,4-19.88,4.33-29.49-2.35a21.13,21.13,0,0,0-12.56-4.14c3.61-1.91,15.58-6.62,36.8.2a8.85,8.85,0,0,1,4,2.65A4.24,4.24,0,0,1,517.77,328.11Z"/><ellipse class="cls-1" cx="504.59" cy="324.62" rx="3.72" ry="1.14"/><polygon class="cls-4" points="458.51 330.91 458.51 333.77 304.52 333.77 304.52 331.49 304.73 330.91 458.51 330.91"/><path class="cls-8" d="M546.51,184.87c-1.22-1.22-16.81-20.86-19.44-24.1-2.84-3.24-4.05-2.63-5.87-2.43s-21.47,3.64-23.69,3.85c-2.23.4-3.65,1.21-2.23,3.24,1.21,1.82,14.17,20,17,24.3l-51.64,12.35-40.9-68.65c-1.62-2.43-2-3.24-5.67-3S381.88,133,379.86,133c-2,.2-4.25,1-2.23,5.87s34.43,74.52,35.24,76.54,3.24,5.27,8.7,4.05c5.67-1.42,25.11-6.48,35.84-9.31,5.67,10.12,17,30.77,19.24,33.81,2.83,4,4.86,3.24,9.11,2,3.44-1,53-18.83,55.28-19.85s3.65-1.62,2-3.84c-1.22-1.62-14.18-19.24-21.06-28.35,4.65-1.22,21.46-5.67,23.28-6.28,2-.61,2.43-1.62,1.22-2.83ZM452.76,204.1c-.61.2-29.57,7.09-31,7.49-1.62.41-1.62.21-1.62-.4-.41-.61-34.43-71.07-35-71.88-.4-.81-.4-1.62,0-1.62s27.34-2.43,28.15-2.43c1,0,.81.2,1.22.81,0,0,37.86,65.4,38.47,66.41.81,1,.4,1.42-.2,1.62Zm81.4,15.19c.4.81,1,1.21-.61,1.62-1.42.61-48.8,16.6-49.81,17s-1.62.61-2.84-1.22-16.6-28.35-16.6-28.35l50.42-13.16c1.21-.4,1.62-.61,2.43.61.81,1.42,16.6,22.88,17,23.49Zm3.24-35.64c-1.22.2-19.64,4.86-19.64,4.86l-15.19-20.65c-.41-.61-.81-1.22.2-1.42s18.23-3.24,19-3.44,1.41-.41,2.42,1c1,1.21,14,17.82,14.58,18.43s-.2,1-1.41,1.21Z"/><circle class="cls-9" cx="330.48" cy="124.25" r="30.48"/><path class="cls-4" d="M247.45,240.16l3.61-19.65s-20.85,90.64-18.45,101.07,20.06,26.47,22.46,27.28,24.87-69,24.87-69Z"/><path class="cls-4" d="M411.1,245l6.81-13.24s9.63,90.65,3.21,99.47-31.8,12.13-31.8,12.13L389,277.46Z"/><image width="2880" height="1580" transform="translate(354.75 125.75) scale(0.08)" xlink:href="../../../Desktop/WebHiDoc/HiDocEXPEDIENTE_Folder%200/Links/Pantalla%20_Todo%20en%20una%20sola%20pantalla_.png"/><path class="cls-9" d="M308,139.49v48.13h49.73s-6.42-40.11-3.21-52.14Z"/><path class="cls-10" d="M406.68,204.47s-47.32-23.27-47.32-24.87-4.82-12-8-12-30.48-8.83-45.72,4L304,182l-58.56,38.51,16,58.56s10.43,11.23,7.22,19.25,2.41,48.93,2.41,48.93l125.94-4V288.69s4-12.83,6.42-16.84,0-16.05,0-16.05l19.25-24.06S420.32,209.28,406.68,204.47Z"/><path class="cls-10" d="M259.08,218.1l-13.63,2.41S224.59,311.15,227,321.58s20.05,26.47,22.46,27.28,24.87-69,24.87-69Z"/><path class="cls-10" d="M412.3,221.31l10.43,10.43s9.62,90.65,3.21,99.47-31.81,12.13-31.81,12.13l-.28-65.88Z"/><path class="cls-11" d="M256.68,359.29s-23.27-8.83-27.28,8S239,459.56,239,459.56s8.82,56.95,14.44,58.56S284,520.52,288,513.3s-12-81-12-81l93.05-1.6s-5.61,64.17-8.82,69.79-3.21,24.87,0,24.87,38.5-1.61,40.91-6.42,16-113.11,16-113.11,11.23-37.7-1.6-35.29S256.68,359.29,256.68,359.29Z"/><path d="M393.85,525.72s8-5.62,12,0,5.62,12-12,21.65-31.29,7.22-31.29,5.62V529.73Z"/><path d="M255.07,523.31s-8-5.62-12,0-5.61,12,12,21.66,31.29,7.22,31.29,5.61V527.32Z"/><path class="cls-12" d="M330.68,85.81a25.94,25.94,0,0,0-9,1.28,35,35,0,0,0-6.38,3.37l-13.45,8.37a6.29,6.29,0,0,0-3.8,5.88l-1.68,12.59c-.43,3.18-.82,6.58.6,9.45,1.19,2.4,3.46,4,5.32,6a22,22,0,0,1,5.77,11.21c1,5.26.34,11.59,4.5,14.94,2.26,1.82,5.33,2.17,8.22,2.33a121.65,121.65,0,0,0,23.67-.91,9.31,9.31,0,0,0,3.57-1,9.76,9.76,0,0,0,3.14-3.73c3-5.12,6.1-10.56,6.07-16.49,0-2.94-.77-6.09.64-8.67a35.06,35.06,0,0,1,2.43-3.14c1.74-2.45,2.08-5.6,2.36-8.6.91-9.57,0-16.85-7.09-23.6C349,88.76,339.66,85.87,330.68,85.81Z"/><polygon class="cls-13" points="255.8 454.05 229.03 590.15 242.41 590.15 268.07 456.29 255.8 454.05"/><polygon class="cls-13" points="341.69 465.21 358.42 621.38 369.58 621.38 359.54 460.75 341.69 465.21"/><polygon class="cls-13" points="387.43 460.75 410.85 564.49 422.01 564.49 399.7 458.52 387.43 460.75"/><polygon class="cls-13" points="298.19 460.75 294.84 543.29 303.76 543.29 310.46 460.75 298.19 460.75"/><path class="cls-1" d="M236.83,439.55S219,320.19,269.18,316.85s121.59,0,121.59,0,41.28-3.35,29,122.7c0,0,11.15,36.81-89.24,33.47S236.83,439.55,236.83,439.55Z"/><path class="cls-14" d="M236.83,441.15S219,321.79,269.18,318.44s121.59,0,121.59,0,41.28-3.35,29,122.71c0,0,11.15,36.81-89.24,33.46S236.83,441.15,236.83,441.15Z"/><path class="cls-15" d="M285,254.33h-3.25c0-45,9.54-73,23.6-73l-.81,3.48C294.82,184.8,285,206.3,285,254.33Z"/><path class="cls-15" d="M271.43,278.76h-3.88c0-14.43,7.84-26.17,17.48-26.17v4C277.53,256.62,271.43,266.55,271.43,278.76Z"/><path class="cls-15" d="M302.5,278.76h-3.88c0-12.21-6.1-22.14-13.59-22.14v-4C294.66,252.59,302.5,264.33,302.5,278.76Z"/><ellipse class="cls-15" cx="300.79" cy="278.7" rx="2.86" ry="2.96"/><ellipse class="cls-15" cx="269.07" cy="278.7" rx="2.86" ry="2.96"/><path class="cls-16" d="M129.72,156.74c.36-6.64-3.26-13-9.49-16.64L23.66,83.41c-5.28-3.1-9.9-.33-10.25,6.17L10.3,147.81c-.33,6.15,3,12,8.81,15.42l88.71,52.07c5.81,3.42,13.54,2,17.28-3.17a10.29,10.29,0,0,0,2-5.56Z"/><path class="cls-10" d="M72.41,155.25c-.93,17.43-13.62,23.8-28.31,14.22S18.23,138,19.16,120.56s13.62-23.8,28.31-14.22S73.34,137.83,72.41,155.25Z"/><path class="cls-16" d="M66.06,151.13c-.73,13.66-10.66,18.38-22.18,10.44s-20.26-25.37-19.53-39S35,104.17,46.53,112.1,66.79,137.48,66.06,151.13Z"/><path class="cls-10" d="M51.83,155a2.4,2.4,0,0,0,3.78-2.39,19.63,19.63,0,0,0-1.45-5h0a12.24,12.24,0,0,0-1.62-2c-.54-.59-1.25-1.43-1.93-2.24l-.68-.81h0l-1.37-1.69-.61-.9a1.43,1.43,0,0,1-.14-.2l0-.32,0-2A2.36,2.36,0,0,0,49,135.48c.94.68,1.22-.57,1.36-1.47.09-.64.26-2.25-.47-2.94a.52.52,0,0,1,.06-.28,7.13,7.13,0,0,0,.3-1.71,5.86,5.86,0,0,0-.27-2,2.71,2.71,0,0,1-.37-1.19,11.06,11.06,0,0,0-2.68-5,7.15,7.15,0,0,0-3.52-2c-.85-.2-2-.18-2.08,1.33a1.68,1.68,0,0,0,.08.59.26.26,0,0,0-.38.11,2.91,2.91,0,0,0-.4,1.58,13.65,13.65,0,0,0,.18,2,.9.9,0,0,0,0,.35c-.9-.65-.81,1.31-.74,2.13.08,1,.29,2.53,1.15,3.18a9.09,9.09,0,0,0,.22,1.37,8.32,8.32,0,0,0,.71,1.85h0l0,2.08v.24c0,.07-.16,0-.19.06l-.42.17h0l-.38-.1h-.09a6.91,6.91,0,0,0-.76-.17h0c-.33,0-.66-.1-1-.13-.59,0-1.18-.26-1.71-.3-1.43-.08-3.42,1-3.86,4.35a4.3,4.3,0,0,0,1.77,4.06Zm-1.69-21v0Z"/><polygon class="cls-10" points="104.72 159.56 75.46 139.5 74.91 149.69 104.17 169.76 104.72 159.56"/><polygon class="cls-10" points="74.51 157.27 73.96 167.46 118.36 197.9 118.91 187.71 74.51 157.27"/><path class="cls-17" d="M85.93,237.72a13.14,13.14,0,0,0-6.55-11.36L16.54,190.08c-3.44-2-6.26.14-6.26,4.73v41.12a12.18,12.18,0,0,0,6.08,10.53l57.73,33.33A7.92,7.92,0,0,0,86,272.91Z"/><polygon class="cls-10" points="55.3 235.1 55.3 246.29 76.74 259.36 76.74 248.17 55.3 235.1"/><path class="cls-10" d="M39.37,217A6.57,6.57,0,0,0,33,219c-.43.42-1.31-.09-1.72-1-1.43-3.11-3.53-7.09-6.41-9.37-5.49-4.34-9.46-1-7.86,6.12,1.72,8.6,15,28.16,15,28.16l.33.19s13.28-4.2,15-10.88C48.81,226.88,45.43,218.42,39.37,217Z"/><path class="cls-14" d="M33.75,235.08h0a2.62,2.62,0,0,1-1-1.48l-2.31-8.77-1.21,2.86c-.17.41-.6.5-1.07.23L24,225.54a1.06,1.06,0,0,1-.52-.86h0a1,1,0,0,1,1.07-1,.92.92,0,0,1,.48.14l2.46,1.42,1.87-4.47c.17-.4.6-.5,1.07-.22h0A2.57,2.57,0,0,1,31.49,222l2.36,9,1-2c.18-.38.6-.45,1.06-.18l4.45,2.58a1,1,0,0,1,.51.86h0a1,1,0,0,1-1.06,1,1.2,1.2,0,0,1-.49-.14l-2.8-1.62L34.83,235A.75.75,0,0,1,33.75,235.08Z"/><path class="cls-18" d="M670.66,63.07,600,37.13c-2.3-.85-4,.5-3.72,3l4,38.11-3.51,20.23,19.49-8.63,59.55,21.85c2.31.85,4-.5,3.72-3l-4.17-39.55A8,8,0,0,0,670.66,63.07Z"/><path class="cls-10" d="M627.38,69.43c.34,3.27-1.77,4.81-4.84,3.48a11.39,11.39,0,0,1-6.09-8.35c-.35-3.26,1.77-4.81,4.84-3.48A11.44,11.44,0,0,1,627.38,69.43Z"/><path class="cls-10" d="M644.23,77.07c.34,3.27-1.77,4.82-4.84,3.49a11.41,11.41,0,0,1-6.09-8.35c-.35-3.27,1.77-4.81,4.84-3.49A11.45,11.45,0,0,1,644.23,77.07Z"/><path class="cls-10" d="M661.08,84.72c.35,3.27-1.77,4.81-4.84,3.48a11.41,11.41,0,0,1-6.09-8.35c-.34-3.26,1.77-4.81,4.84-3.48A11.39,11.39,0,0,1,661.08,84.72Z"/></g></g></svg>