<svg xmlns="http://www.w3.org/2000/svg" viewBox="0 0 82.26 72.76"><defs><style>.cls-1{fill:#e0eeef;}.cls-2{fill:none;stroke:#344154;stroke-linecap:round;stroke-linejoin:round;}</style></defs><title>pantalla2_completascp</title><g id="Capa_2" data-name="Capa 2"><g id="Capa_1-2" data-name="Capa 1"><path class="cls-1" d="M25.08,2.87C16,6.39,11.7,14.5,11.22,24.14a13.19,13.19,0,0,0,3.46,9.67C16.94,36.27,19.22,37,20,40.46c1.32,6.14-4.93,11.89-.53,17.62,3.07,4,6.55,8.07,11.35,9a54.88,54.88,0,0,0,9.87.19c2.76-.1,7.24-.59,10.06.38,3.94,1.35,7.49,3.2,11.62,3.85,3.82.6,9.83,2.68,13.2-.2,2.67-2.28,2.95-5.79,2.39-9-.69-3.92-.57-8-1.75-11.91-1.45-4.82,3.11-8.15,4.77-12.54a23.85,23.85,0,0,0,1.28-9.35c-.16-3.2-.2-6.43-1.74-9.26a49.1,49.1,0,0,0-5.05-6.92A31.34,31.34,0,0,0,66,4.8C61.79,2.55,57.91.16,53.18,0,43.39-.24,28.29,1.63,25.08,2.87Z"/><line class="cls-2" x1="52.76" y1="55.27" x2="48.98" y2="55.27"/><line class="cls-2" x1="55.26" y1="45.46" x2="49.7" y2="45.46"/><line class="cls-2" x1="57.11" y1="35.62" x2="50.37" y2="35.62"/><path class="cls-2" d="M.5,64.3h15a2.08,2.08,0,0,0,2.08-2.08V25.69a2.08,2.08,0,0,0-2.08-2.08H.5Z"/><path class="cls-2" d="M17.58,61.33a224.34,224.34,0,0,0,35,2.9c2.62,0,5.07-1.41,5.07-4.47a4.62,4.62,0,0,0-4.9-4.49h2.11a5,5,0,0,0,5.07-4.59A4.91,4.91,0,0,0,55,45.44h2.11a5,5,0,0,0,5.07-4.59,4.91,4.91,0,0,0-4.9-5.24h2.11A5,5,0,0,0,64.49,31a4.91,4.91,0,0,0-4.9-5.24H41.66a2.36,2.36,0,0,1-2.31-2.85A23.93,23.93,0,0,0,37.47,7.17,4,4,0,0,0,29.89,8.8c-.26,14.24-12.31,18-12.31,18"/><circle class="cls-2" cx="9.04" cy="57.57" r="2.9"/><line class="cls-2" x1="9.04" y1="60.47" x2="9.04" y2="64.3"/></g></g></svg>