<svg xmlns="http://www.w3.org/2000/svg" viewBox="0 0 78.22 72.76"><defs><style>.cls-1{fill:#d2e2f4;}.cls-2{fill:#344154;}</style></defs><title>pantalla2_hojafrontalcolorcp</title><g id="Capa_2" data-name="Capa 2"><g id="Capa_1-2" data-name="Capa 1"><path class="cls-1" d="M21,2.87C11.95,6.39,7.66,14.5,7.18,24.14a13.19,13.19,0,0,0,3.46,9.67c2.26,2.46,4.54,3.23,5.28,6.65,1.32,6.14-4.93,11.89-.53,17.62,3.07,4,6.55,8.07,11.35,9a54.88,54.88,0,0,0,9.87.19c2.76-.1,7.24-.59,10.06.38,3.94,1.35,7.49,3.2,11.62,3.85,3.82.6,9.83,2.68,13.2-.2,2.67-2.28,2.95-5.79,2.39-9-.69-3.92-.57-8-1.75-11.91-1.45-4.82,3.11-8.15,4.77-12.54a23.85,23.85,0,0,0,1.28-9.35c-.16-3.2-.2-6.43-1.74-9.26a49.1,49.1,0,0,0-5.05-6.92A31.34,31.34,0,0,0,62,4.8C57.75,2.55,53.87.16,49.14,0,39.35-.24,24.26,1.63,21,2.87Z"/><path class="cls-2" d="M61,30.86H47.11V7a.5.5,0,0,0-.5-.5H.5A.5.5,0,0,0,0,7V57.64A8.42,8.42,0,0,0,8.41,66H54.66a6.83,6.83,0,0,0,6.82-6.82V31.36A.5.5,0,0,0,61,30.86ZM1,7.49H17.6V30.86H1ZM8.41,65A7.42,7.42,0,0,1,1,57.64V31.86H18.1a.5.5,0,0,0,.5-.5V7.49h27.5V57.64A8.42,8.42,0,0,0,50.54,65Zm52.07-5.82A5.83,5.83,0,0,1,54.66,65h-.14a7.42,7.42,0,0,1-7.41-7.41V31.86H60.48Z"/><path class="cls-2" d="M41.09,30.86H23.62a.5.5,0,0,0,0,1H41.09a.5.5,0,0,0,0-1Z"/><path class="cls-2" d="M41.09,23.93H23.62a.5.5,0,0,0,0,1H41.09a.5.5,0,0,0,0-1Z"/><path class="cls-2" d="M41.09,17H23.62a.5.5,0,0,0,0,1H41.09a.5.5,0,0,0,0-1Z"/><path class="cls-2" d="M41.08,37.79H6a.5.5,0,1,0,0,1H41.08a.5.5,0,0,0,0-1Z"/><path class="cls-2" d="M41.08,45.79H6a.5.5,0,1,0,0,1H41.08a.5.5,0,0,0,0-1Z"/><path class="cls-2" d="M41.08,53.79H6a.5.5,0,1,0,0,1H41.08a.5.5,0,0,0,0-1Z"/><path class="cls-2" d="M13.54,11.74H5.06a.5.5,0,0,0-.5.5V26.1a.5.5,0,0,0,.5.5h8.48a.5.5,0,0,0,.5-.5V12.24A.5.5,0,0,0,13.54,11.74ZM13,25.6H5.56V12.74H13Z"/></g></g></svg>