<svg xmlns="http://www.w3.org/2000/svg" viewBox="0 0 345 440.5"><defs><style>.cls-1{opacity:0.35;}.cls-2{fill:#0071ce;}.cls-3{fill:#133454;}.cls-4{fill:#344154;}</style></defs><title>perk-recipe</title><g id="Layer_2" data-name="Layer 2"><g id="Capa_1" data-name="Capa 1"><g class="cls-1"><path class="cls-2" d="M332.17,440.5H32.83c-7.08,0-12.83-6.27-12.83-14v-342c0-7.74,5.75-14,12.83-14H332.17c7.08,0,12.83,6.27,12.83,14v342C345,434.23,339.25,440.5,332.17,440.5Z"/></g><path class="cls-3" d="M312.67,50.5h-99a5.14,5.14,0,0,1-.09.87h99.12c6.8,0,12.33,6.09,12.33,13.58v342.1c0,7.49-5.53,13.58-12.33,13.58H13.33C6.53,420.63,1,414.54,1,407.05V65c0-7.49,5.53-13.58,12.33-13.58h99.9a6.36,6.36,0,0,1-.06-.87H13.33C6,50.5,0,57,0,65v342.1c0,8,6,14.45,13.33,14.45H312.67C320,421.5,326,415,326,407.05V65C326,57,320,50.5,312.67,50.5Z"/><path class="cls-4" d="M151.05,10.6a1.45,1.45,0,1,0-1.45-1.45A1.45,1.45,0,0,0,151.05,10.6Zm0-1.9a.45.45,0,1,1,0,.9.45.45,0,0,1,0-.9Z"/><path class="cls-4" d="M142.23,10.68a1.45,1.45,0,1,0-1.45-1.45A1.45,1.45,0,0,0,142.23,10.68Zm0-1.9a.46.46,0,0,1,.45.45.45.45,0,0,1-.45.45.45.45,0,0,1-.45-.45A.45.45,0,0,1,142.23,8.78Z"/><path class="cls-4" d="M133.4,10.77A1.45,1.45,0,1,0,132,9.32,1.45,1.45,0,0,0,133.4,10.77Zm0-1.9a.45.45,0,1,1-.45.45A.45.45,0,0,1,133.4,8.87Z"/><path class="cls-4" d="M163.83,9.73h31.9a.5.5,0,0,0,.5-.5.5.5,0,0,0-.5-.5h-31.9a.51.51,0,0,0-.5.5A.5.5,0,0,0,163.83,9.73Z"/><path class="cls-4" d="M159.77,27.43H137.44a.5.5,0,0,0-.5.5v9.72a.5.5,0,0,0,.5.5.51.51,0,0,0,.5-.5V28.43h21.33v9.22a.5.5,0,0,0,.5.5.51.51,0,0,0,.5-.5V27.93A.5.5,0,0,0,159.77,27.43Z"/><path class="cls-4" d="M159.77,43.61H137.44a.5.5,0,0,0-.5.5.5.5,0,0,0,.5.5h22.33a.5.5,0,0,0,.5-.5A.51.51,0,0,0,159.77,43.61Z"/><path class="cls-4" d="M159.77,49.46H137.44a.5.5,0,0,0,0,1h22.33a.5.5,0,0,0,0-1Z"/><path class="cls-4" d="M159.77,55.3H137.44a.5.5,0,0,0-.5.5.5.5,0,0,0,.5.5h22.33a.5.5,0,0,0,.5-.5A.51.51,0,0,0,159.77,55.3Z"/><path class="cls-4" d="M182.65,38.05a3.31,3.31,0,1,0-3.09-3.3A3.21,3.21,0,0,0,182.65,38.05Zm0-5.6a2.31,2.31,0,1,1-2.09,2.3A2.21,2.21,0,0,1,182.65,32.45Z"/><path class="cls-4" d="M191.36,26.93H173.94a.5.5,0,0,0-.5.5V44.86a.5.5,0,0,0,.5.5h17.42a.5.5,0,0,0,.5-.5V27.43A.5.5,0,0,0,191.36,26.93Zm-14,17.43.37-2.82a.8.8,0,0,1,.52-.65l1.88-.41a8.55,8.55,0,0,0,2.43.73h.14a8.55,8.55,0,0,0,2.43-.73l1.88.41a.82.82,0,0,1,.52.64l.37,2.83Zm13.48,0h-1.94l-.39-3v0a1.77,1.77,0,0,0-1.29-1.42l-2.05-.45a.51.51,0,0,0-.34,0,7.58,7.58,0,0,1-2.2.7,7.71,7.71,0,0,1-2.21-.7.47.47,0,0,0-.33,0l-2.05.45a1.78,1.78,0,0,0-1.3,1.46l-.39,3h-1.93V27.93h16.42Z"/><path class="cls-4" d="M204,46.79V2a2,2,0,0,0-2-2H124.88a2,2,0,0,0-2,2V64.47a2,2,0,0,0,2,2h52.25a.05.05,0,0,0,0,0l.19,0h24.44A2.28,2.28,0,0,0,204,64.22V46.81ZM124.88,1H202a1,1,0,0,1,1,1V17.47H123.89V2A1,1,0,0,1,124.88,1Zm76.84,64.5H190.11a.45.45,0,0,0-.2,0h-65a1,1,0,0,1-1-1v-46H203V52.41a.5.5,0,0,0,.05.21v11.6A1.29,1.29,0,0,1,201.72,65.5Z"/></g></g></svg>