<svg xmlns="http://www.w3.org/2000/svg" viewBox="0 0 345 439.97">
    <defs>
        <style>.cls-1{opacity:0.8;}.cls-2{fill:#d2e2f4;}.cls-3{fill:#133454;}</style>
    </defs>
    <title>perk-folder</title>
    <g id="Layer_2" data-name="Layer 2">
        <g id="Capa_1" data-name="Capa 1">
            <g class="cls-1">
                <path class="cls-2"
                      d="M332.17,440H32.83C25.75,440,20,433.7,20,426V84c0-7.73,5.75-14,12.83-14H332.17C339.25,70,345,76.24,345,84V426C345,433.7,339.25,440,332.17,440Z"/>
            </g>
            <path class="cls-3"
                  d="M312.67,50h-60a4.28,4.28,0,0,1-.09.87h60.08c6.8,0,12.33,6.09,12.33,13.57V406.52c0,7.49-5.53,13.58-12.33,13.58H13.33C6.53,420.1,1,414,1,406.52V64.41c0-7.48,5.53-13.57,12.33-13.57H98.15a5.12,5.12,0,0,1-.08-.87H13.33C6,50,0,56.45,0,64.41V406.52c0,8,6,14.45,13.33,14.45H312.67C320,421,326,414.49,326,406.52V64.41C326,56.45,320,50,312.67,50Z"/>
            <path class="cls-3"
                  d="M169.05,56.53a1.41,1.41,0,1,0,1.4,1.41A1.4,1.4,0,0,0,169.05,56.53Zm0,1.81a.41.41,0,1,1,.4-.4A.4.4,0,0,1,169.05,58.34Z"/>
            <rect class="cls-3" x="203.13" y="67.56" width="24.09" height="1"/>
            <path class="cls-3"
                  d="M227.94,27.84H215.68V5.43A5.44,5.44,0,0,0,210.24,0H127.85a5.44,5.44,0,0,0-5.43,5.43V58.92a5,5,0,0,0,5,5h27.66a26.51,26.51,0,0,1-.39,6.22,9,9,0,0,1-5,6,1.15,1.15,0,0,0-.67,1.31,1.38,1.38,0,0,0,1.42,1h37a1.4,1.4,0,0,0,1.43-1,1.17,1.17,0,0,0-.67-1.31,9,9,0,0,1-5-6A26.37,26.37,0,0,1,183,64h16.64V75.65a2.81,2.81,0,0,0,2.81,2.82h25.52a2.81,2.81,0,0,0,2.81-2.82v-45A2.82,2.82,0,0,0,227.94,27.84ZM182.37,70.38a10,10,0,0,0,5.5,6.68c.07,0,.17.1.15.18s-.16.23-.45.23h-37c-.29,0-.43-.14-.45-.23s.1-.16.15-.18a10,10,0,0,0,5.5-6.68,27.16,27.16,0,0,0,.41-6.41H182A26.49,26.49,0,0,0,182.37,70.38Zm.68-7.41H127.47a4,4,0,0,1-4-4v-6h76.19V63Zm16.56-32.31V51.9H123.42V5.43A4.43,4.43,0,0,1,127.85,1h82.39a4.44,4.44,0,0,1,4.44,4.43V27.84H202.42A2.82,2.82,0,0,0,199.61,30.66Zm30.14,45a1.82,1.82,0,0,1-1.81,1.82H202.42a1.82,1.82,0,0,1-1.81-1.82v-45a1.82,1.82,0,0,1,1.81-1.82h25.52a1.82,1.82,0,0,1,1.81,1.82Z"/>
            <path class="cls-3"
                  d="M215.18,71.76a1.3,1.3,0,1,0,1.3,1.3A1.3,1.3,0,0,0,215.18,71.76Zm0,1.6a.3.3,0,1,1,.3-.3A.29.29,0,0,1,215.18,73.36Z"/>
            <rect class="cls-3" x="212.19" y="32.86" width="5.97" height="1"/>
            <path class="cls-3"
                  d="M192.39,14.78H163.63l-1-3.2A3.82,3.82,0,0,0,159,8.88H145.65V42.82a2.3,2.3,0,0,0,2.29,2.29h44.45a2.3,2.3,0,0,0,2.29-2.29V17.07A2.3,2.3,0,0,0,192.39,14.78Zm-45.74-4.9H159a2.81,2.81,0,0,1,2.7,2l.9,2.9H146.65Zm12.63,34.23V41.46a8.39,8.39,0,0,1,8.38-8.38h5a8.39,8.39,0,0,1,8.38,8.38v2.65Zm34.4-1.29a1.29,1.29,0,0,1-1.29,1.29H182.05V41.46a9.39,9.39,0,0,0-9.38-9.38h-5a9.39,9.39,0,0,0-9.38,9.38v2.65H147.94a1.29,1.29,0,0,1-1.29-1.29v-27h45.74a1.29,1.29,0,0,1,1.29,1.29Z"/>
        </g>
    </g>
</svg>