<svg xmlns="http://www.w3.org/2000/svg" viewBox="0 0 345 440.5"><defs><style>.cls-1{opacity:0.61;}.cls-2{fill:#e0eeef;}.cls-3{fill:#133454;}</style></defs><title>perk-time</title><g id="Layer_2" data-name="Layer 2"><g id="Capa_1" data-name="Capa 1"><g class="cls-1"><path class="cls-2" d="M332.17,440.5H32.83c-7.08,0-12.83-6.27-12.83-14v-342c0-7.74,5.75-14,12.83-14H332.17c7.08,0,12.83,6.27,12.83,14v342C345,434.23,339.25,440.5,332.17,440.5Z"/></g><path class="cls-3" d="M312.67,50.5H249.55a5,5,0,0,1,0,.87h63.08c6.8,0,12.33,6.09,12.33,13.58v342.1c0,7.49-5.53,13.58-12.33,13.58H13.33C6.53,420.63,1,414.54,1,407.05V65c0-7.49,5.53-13.58,12.33-13.58H94.45a4.28,4.28,0,0,1-.09-.87h-81C6,50.5,0,57,0,65v342.1c0,8,6,14.45,13.33,14.45H312.67C320,421.5,326,415,326,407.05V65C326,57,320,50.5,312.67,50.5Z"/><path class="cls-3" d="M163.19,56.71a1.4,1.4,0,1,0,1.4,1.4A1.4,1.4,0,0,0,163.19,56.71Zm0,1.8a.4.4,0,1,1,.4-.4A.4.4,0,0,1,163.19,58.51Z"/><rect class="cls-3" x="197.38" y="67.77" width="24.16" height="1"/><path class="cls-3" d="M222.26,27.93H210V5.45A5.45,5.45,0,0,0,204.51,0H121.87a5.45,5.45,0,0,0-5.45,5.45V59.1a5.07,5.07,0,0,0,5.06,5.06h27.75a26.15,26.15,0,0,1-.39,6.24,9,9,0,0,1-5,6,1.16,1.16,0,0,0-.67,1.31,1.39,1.39,0,0,0,1.43,1h37.16a1.39,1.39,0,0,0,1.43-1,1.16,1.16,0,0,0-.67-1.31,9,9,0,0,1-5-6,26.67,26.67,0,0,1-.39-6.24h16.7V75.88a2.82,2.82,0,0,0,2.82,2.82h25.59a2.82,2.82,0,0,0,2.82-2.82V30.75A2.82,2.82,0,0,0,222.26,27.93ZM176.56,70.6a10,10,0,0,0,5.51,6.69c.07,0,.18.1.16.19s-.17.22-.46.22H144.61c-.29,0-.44-.13-.46-.22s.09-.16.16-.19a10,10,0,0,0,5.51-6.69,26.88,26.88,0,0,0,.41-6.44h25.92A26.88,26.88,0,0,0,176.56,70.6Zm.67-7.44H121.48a4.06,4.06,0,0,1-4.06-4.06v-6h76.43v10.1Zm16.62-32.41V52.06H117.42V5.45A4.45,4.45,0,0,1,121.87,1h82.64A4.45,4.45,0,0,1,209,5.45V27.93H196.67A2.82,2.82,0,0,0,193.85,30.75Zm30.23,45.13a1.82,1.82,0,0,1-1.82,1.82H196.67a1.81,1.81,0,0,1-1.82-1.82V30.75a1.82,1.82,0,0,1,1.82-1.82h25.59a1.83,1.83,0,0,1,1.82,1.82Z"/><path class="cls-3" d="M209.46,72a1.31,1.31,0,1,0,1.31,1.31A1.31,1.31,0,0,0,209.46,72Zm0,1.62a.31.31,0,0,1,0-.62.31.31,0,0,1,0,.62Z"/><rect class="cls-3" x="206.47" y="32.96" width="5.99" height="1"/><path class="cls-3" d="M163.19,11.93A14.87,14.87,0,1,0,178.05,26.8,14.88,14.88,0,0,0,163.19,11.93Zm0,28.73A13.87,13.87,0,1,1,177.05,26.8,13.87,13.87,0,0,1,163.19,40.66Z"/><path class="cls-3" d="M163.19,5.76a21,21,0,1,0,21,21A21.07,21.07,0,0,0,163.19,5.76Zm0,41.07a20,20,0,1,1,20-20A20.05,20.05,0,0,1,163.19,46.83Z"/><polygon class="cls-3" points="163.69 19.14 162.69 19.14 162.69 26.8 163.19 26.8 162.84 27.15 168.14 32.45 168.85 31.75 163.69 26.59 163.69 19.14"/></g></g></svg>