<svg xmlns="http://www.w3.org/2000/svg" viewBox="0 0 345 441.23"><defs><style>.cls-1{opacity:0.61;}.cls-2{fill:#ecebbb;}.cls-3{fill:#133454;}</style></defs><title>perk-phone</title><g id="Layer_2" data-name="Layer 2"><g id="Capa_1" data-name="Capa 1"><g class="cls-1"><path class="cls-2" d="M332.17,441.23H32.83c-7.08,0-12.83-6.27-12.83-14v-342c0-7.73,5.75-14,12.83-14H332.17c7.08,0,12.83,6.28,12.83,14v342C345,435,339.25,441.23,332.17,441.23Z"/></g><path class="cls-3" d="M312.67,51.23h-99a5.25,5.25,0,0,1-.09.88h99.12c6.8,0,12.33,6.09,12.33,13.57V407.79c0,7.48-5.53,13.57-12.33,13.57H13.33C6.53,421.36,1,415.27,1,407.79V65.68C1,58.2,6.53,52.11,13.33,52.11h99.9a6.4,6.4,0,0,1-.06-.88H13.33C6,51.23,0,57.72,0,65.68V407.79c0,8,6,14.44,13.33,14.44H312.67c7.35,0,13.33-6.48,13.33-14.44V65.68C326,57.72,320,51.23,312.67,51.23Z"/><rect class="cls-3" x="146.72" y="64.78" width="37.74" height="1"/><rect class="cls-3" x="146.72" y="8.18" width="37.74" height="1"/><path class="cls-3" d="M181.72,78.73H149.46a8,8,0,0,1-8-8V8a8,8,0,0,1,8-8h32.26a8,8,0,0,1,8,8V70.76A8,8,0,0,1,181.72,78.73ZM149.46,1a7,7,0,0,0-7,7V70.76a7,7,0,0,0,7,7h32.26a7,7,0,0,0,7-7V8a7,7,0,0,0-7-7Z"/><path class="cls-3" d="M165.59,75.31a3.48,3.48,0,1,1,3.49-3.48A3.48,3.48,0,0,1,165.59,75.31Zm0-6a2.48,2.48,0,1,0,2.49,2.48A2.48,2.48,0,0,0,165.59,69.35Z"/><rect class="cls-3" x="160.91" y="4.13" width="9.36" height="1"/><path class="cls-3" d="M169.37,33l-.31-2.56a.4.4,0,0,0-.23-.28l-1.22-.27a3.43,3.43,0,0,1-3.54,0l-1.2.27a.39.39,0,0,0-.24.33l-.3,2.51-1-.12.31-2.55a1.41,1.41,0,0,1,1-1.15l1.64-.36.18.14a2.47,2.47,0,0,0,2.73,0l.18-.12h.25l1.41.31a1.37,1.37,0,0,1,1,1.1l.32,2.6Z"/><path class="cls-3" d="M165.85,27.73a2.43,2.43,0,1,1,2.28-2.43A2.36,2.36,0,0,1,165.85,27.73Zm0-3.86a1.44,1.44,0,1,0,1.28,1.43A1.36,1.36,0,0,0,165.85,23.87Z"/><path class="cls-3" d="M172.59,33.4H159.1V19.91h13.49Zm-12.49-1h11.49V20.91H160.1Z"/><rect class="cls-3" x="151.69" y="41" width="28.31" height="1"/><rect class="cls-3" x="151.69" y="46.73" width="28.31" height="1"/><rect class="cls-3" x="151.69" y="52.46" width="28.31" height="1"/></g></g></svg>