<svg id="Layer_1" data-name="Layer 1" xmlns="http://www.w3.org/2000/svg" viewBox="0 0 1012.38 534.35"><defs><style>.cls-1,.cls-4{fill:#4197cb;}.cls-2{fill:#0071ce;}.cls-3{fill:#8fc7e8;}.cls-3,.cls-4{fill-rule:evenodd;}</style></defs><path class="cls-1" d="M320.27,630.09h80.8V586.58a13.14,13.14,0,0,1,13.14-13.14h0a13.14,13.14,0,0,1,13.14,13.14V724.72H401.07v-66.4h-80.8Z" transform="translate(-35.93 -279.13)"/><path class="cls-1" d="M449.62,587.66c0-8.12,7.72-15.84,16.65-15.84,9.74,0,17.26,7.51,17.26,15.84,0,8.93-7.52,16.44-17.26,16.44A16.82,16.82,0,0,1,449.62,587.66Zm31.27,137.06H452.06V622.18h28.83Z" transform="translate(-35.93 -279.13)"/><path class="cls-2" d="M572.88,573.44c43.66,0,79.2,32.5,79.2,75.54,0,43.46-35.54,75.74-79,75.74H511.57V573.44Zm.21,122.85c26.19,0,46.7-20.1,46.7-47.31,0-27.41-20.51-47.11-46.91-47.11H543v94.42Z" transform="translate(-35.93 -279.13)"/><path class="cls-2" d="M880.94,685.57C875.38,709.15,853.58,727,828.15,727a53.51,53.51,0,0,1,0-107,54.4,54.4,0,0,1,42,20.1l-22.94,17.88a23.07,23.07,0,0,0-19.09-9.14c-13.2,0-24,10.36-24,24.77,0,14.62,10.76,24.77,24,24.77,12.59,0,22.54-8.32,24.37-20.71l28.42,8" transform="translate(-35.93 -279.13)"/><path class="cls-2" d="M919.37,711.67a15.4,15.4,0,0,1-18.76,11.7A15.53,15.53,0,1,1,907.23,693C916.35,695,921.23,703.14,919.37,711.67ZM924.43,677l-26-5.67,16.75-106.5,41.94,11Z" transform="translate(-35.93 -279.13)"/><path class="cls-2" d="M768.24,673.55c0,29.24-24.57,53.4-54,53.4a53.51,53.51,0,0,1,0-107C743.67,619.94,768.24,643.9,768.24,673.55Zm-29.44,0c0-14.41-10.56-24.77-24.57-24.77-13.2,0-24,10.36-24,24.77,0,14.62,10.76,24.77,24,24.77C728.24,698.32,738.8,688.17,738.8,673.55Z" transform="translate(-35.93 -279.13)"/><path class="cls-3" d="M526.78,288.93l.75-1.13c-21.83-14.45-43.06-11-57.22,11.55-13.64,21.74-20.6,61.1-16.75,118.33l1.23-.08,0,.42.89,0c0,.06,0,.13,0,.2l2.72-.17c0-.07,0-.14,0-.21l.92-.06c0-.14,0-.28,0-.43l.93-.06c-3.82-56.88,3.25-94.44,15.75-114.33,12-19.13,29-22,47.8-9.5l.46-.7.32.21.4-.6.09.05,1.5-2.28-.05,0,.57-.92Z" transform="translate(-35.93 -279.13)"/><path class="cls-3" d="M598,329.45l-.5.95h0l-.49,1-.25-.14-1.27,2.43.25.13-.85,1.61c20,10.48,25.73,26.71,14.77,46.47-11.39,20.53-40.84,44.87-92.51,69l.46,1h0l.33.71-.27.13,1.15,2.48.27-.13.44.94h0l.45,1c52-24.24,83.1-49.34,95.55-71.79C628.46,361.84,621.23,341.56,598,329.45Z" transform="translate(-35.93 -279.13)"/><path class="cls-4" d="M604,329.89l-9.35-6.66a3.22,3.22,0,0,0-3.5-.31c-3.26,1.21-5.31,5.07-5.16,9.35.07,1.16,1.47,2,2.59,2.51l9,4.49c1.1.65,1.81.34,2.09-.07a47.82,47.82,0,0,0,4.64-7.35A1.41,1.41,0,0,0,604,329.89Z" transform="translate(-35.93 -279.13)"/><path class="cls-4" d="M523.57,284.18a48.32,48.32,0,0,0-4.22,7.62c-.2.43-.13,1.21,1,1.86l8.28,5.73c1,.75,2.41,1.55,3.46,1.05,3.82-1.94,6.21-5.59,5.7-9a3.27,3.27,0,0,0-2-2.93l-10.35-5A1.4,1.4,0,0,0,523.57,284.18Z" transform="translate(-35.93 -279.13)"/><path class="cls-1" d="M460.66,395s0,2.11.1,5.81c.09,1.78.13,3.92.3,6.4.08,1.25.18,2.57.28,4s.28,2.84.43,4.35.4,3.07.61,4.68.56,3.25.89,4.93a80.59,80.59,0,0,0,2.85,10.16,41.26,41.26,0,0,0,4.88,9.48,23.74,23.74,0,0,0,7.46,6.89,24.49,24.49,0,0,0,9.69,3.1,38.87,38.87,0,0,0,10.7-.35,75.84,75.84,0,0,0,10.3-2.39c1.63-.5,3.23-1,4.75-1.58s3-1.09,4.41-1.7c2.83-1.11,5.38-2.31,7.66-3.31s4.22-2,5.83-2.83l5.05-2.6.12-.06a4.7,4.7,0,0,1,4.55,8.23l-5.1,3c-1.65.93-3.67,2-6,3.28s-5,2.57-8.06,3.85c-1.48.69-3.08,1.33-4.75,2s-3.4,1.29-5.21,1.9-3.74,1.15-5.68,1.72c-1,.29-2,.46-3,.69s-2.05.46-3.13.6a50.42,50.42,0,0,1-13.6.53,35.36,35.36,0,0,1-14.11-4.45A34.71,34.71,0,0,1,462,451.13,51.38,51.38,0,0,1,455.85,439a76.55,76.55,0,0,1-3.05-11.84c-.32-1.89-.59-3.73-.84-5.5s-.39-3.48-.53-5.12-.21-3.21-.31-4.7-.07-2.9-.11-4.23c-.06-2.65,0-5,0-6.9.14-3.69.23-5.8.23-5.8a4.71,4.71,0,0,1,9.41.1Z" transform="translate(-35.93 -279.13)"/><path class="cls-1" d="M503.07,454.72q-12.65,0-22.16-5.55c-14.76-8.62-23.79-27.36-26.83-55.71a2.64,2.64,0,0,1,2.35-2.92,2.68,2.68,0,0,1,2.93,2.36c2.85,26.57,11,44,24.23,51.68,12.91,7.54,31.33,6.25,54.75-3.84a2.66,2.66,0,1,1,2.1,4.88C526.37,451.68,513.88,454.72,503.07,454.72Z" transform="translate(-35.93 -279.13)"/><path class="cls-1" d="M336.85,587.05s0,4,.1,11.49.34,19.06-.17,33.78a315.3,315.3,0,0,1-6.16,53.29c-4.35,20.41-11.85,43.7-26.66,66a144.55,144.55,0,0,1-28,30.79c-2.7,2.41-5.76,4.39-8.67,6.6-3.09,2.17-5.94,3.86-9.5,6.14l-4.47,2.51-5.3,2.69c-3.44,1.63-7,3.14-10.56,4.5-28.88,10.94-62.63,11.51-94,1.76s-60.94-29.43-81.14-57.69a140.14,140.14,0,0,1-22-47.13,146.59,146.59,0,0,1-3.56-52,172.65,172.65,0,0,1,4.66-25.46c1.1-4.23,2.28-8.09,3.71-12.48,1.37-3.83,2.63-7.58,4.33-11.71A172.77,172.77,0,0,1,74.82,555.8a141.41,141.41,0,0,1,38-33.31,164.58,164.58,0,0,1,45.31-18.26c31-7.57,61.55-7.8,89.78-6.64s54.69,4.24,78.84,5.7a304.19,304.19,0,0,0,34.28.56,123.08,123.08,0,0,0,15.41-1.71c5.3-.84,10.1-1.87,14.72-2.88,18.74-4.44,34.31-10.89,46-17.95a149.2,149.2,0,0,0,25.51-19.06c5.42-5.06,8.16-8,8.16-8a5.31,5.31,0,0,1,7.81,7.2l-.12.13s-2.79,3.07-8.43,8.53a159.76,159.76,0,0,1-27,21c-12.55,7.87-29.21,15.1-49,20.16-5.06,1.21-10.25,2.4-15.37,3.3a135.93,135.93,0,0,1-16.86,2.18,316.19,316.19,0,0,1-35.8.08c-24.66-1.06-51-3.56-78.65-4.26s-56.81.23-85.14,7.71a148,148,0,0,0-40.37,17.07,123.51,123.51,0,0,0-32.74,29.74A154,154,0,0,0,67.38,607c-1.35,3.39-2.63,7.36-3.92,11.21-1,3.36-2.18,7.29-3.06,11a152,152,0,0,0-3.81,22.6c-3,30.32,5.22,61,23,84.67C97.12,760.23,123,777,150,784.88s55.48,6.88,78.92-2.41c2.93-1.16,5.78-2.44,8.56-3.8l3.88-2,4.41-2.57c2.11-1.48,5.07-3.26,7.41-5s4.91-3.54,7.09-5.57A120,120,0,0,0,283,737.7c12-18.74,18.35-39,21.93-57.33a288.93,288.93,0,0,0,4.82-48.82c.26-13.79-.16-24.76-.38-32.39s-.28-11.92-.28-11.92a13.9,13.9,0,1,1,27.8-.67v.48Z" transform="translate(-35.93 -279.13)"/><path class="cls-2" d="M1014.56,561.05a33.75,33.75,0,1,1,33.75-33.75A33.79,33.79,0,0,1,1014.56,561.05Zm0-60.91a27.16,27.16,0,1,0,27.16,27.16A27.19,27.19,0,0,0,1014.56,500.14Z" transform="translate(-35.93 -279.13)"/><path class="cls-2" d="M1005.07,511.46a56.16,56.16,0,0,1,8.9-.67c4.65,0,7.8.77,10,2.59a8.15,8.15,0,0,1,2.77,6.46,8.59,8.59,0,0,1-5.84,8.08v.15c2.3.86,3.69,3.11,4.5,6.22,1,4,1.87,7.75,2.54,9h-6.08a45.19,45.19,0,0,1-2.15-7.6c-.91-4.21-2.44-5.56-5.79-5.65h-3v13.25h-5.84Zm5.84,14.26h3.49c4,0,6.46-2.1,6.46-5.31,0-3.54-2.49-5.17-6.31-5.17a17.16,17.16,0,0,0-3.64.29Z" transform="translate(-35.93 -279.13)"/></svg>