<svg xmlns="http://www.w3.org/2000/svg" viewBox="0 0 70.71 41.02"><defs><style>.cls-1,.cls-4{fill:#4197cb;}.cls-2{fill:#0071ce;}.cls-3{fill:#8fc7e8;}.cls-3,.cls-4{fill-rule:evenodd;}</style></defs><title>Asset 2</title><g id="Layer_2" data-name="Layer 2"><g id="Capa_1" data-name="Capa 1"><path class="cls-1" d="M21.83,26.94H28V23.6a1,1,0,0,1,1-1h0a1,1,0,0,1,1,1V34.21H28v-5.1h-6.2Z"/><path class="cls-1" d="M31.76,23.68A1.3,1.3,0,1,1,33,25,1.29,1.29,0,0,1,31.76,23.68Zm2.4,10.53H31.94V26.33h2.22Z"/><path class="cls-2" d="M41.22,22.59a5.82,5.82,0,1,1,0,11.62H36.51V22.59Zm0,9.43a3.62,3.62,0,0,0,0-7.24H38.93V32Z"/><path class="cls-2" d="M64.87,31.2a4.19,4.19,0,0,1-4.06,3.18,4.11,4.11,0,0,1,0-8.22A4.16,4.16,0,0,1,64,27.71l-1.76,1.37a1.76,1.76,0,0,0-1.47-.7,1.9,1.9,0,1,0,1.87,2.21l2.19.61"/><path class="cls-2" d="M67.82,33.2a1.18,1.18,0,0,1-1.44.9,1.19,1.19,0,1,1,.5-2.33A1.18,1.18,0,0,1,67.82,33.2Zm.38-2.66-2-.43,1.29-8.18,3.21.85Z"/><path class="cls-2" d="M56.21,30.28a4.15,4.15,0,0,1-4.14,4.1,4.11,4.11,0,1,1,4.14-4.1Zm-2.26,0a1.86,1.86,0,1,0-1.88,1.9A1.83,1.83,0,0,0,54,30.28Z"/><path class="cls-3" d="M37.68.75l.06-.08a2.86,2.86,0,0,0-4.4.88c-1,1.67-1.58,4.69-1.28,9.09h.09v0h.27v0h.07v0h.07c-.29-4.36.25-7.25,1.21-8.77a2.34,2.34,0,0,1,3.67-.73l0-.06,0,0,0-.05h0l.11-.18h0l0-.07Z"/><path class="cls-3" d="M43.15,3.86l0,.08h0l0,.07h0L43,4.19h0l-.06.12A2.35,2.35,0,0,1,44,7.89c-.87,1.57-3.13,3.44-7.1,5.29l0,.08h0l0,.05h0l.09.19h0l0,.07h0l0,.08c4-1.86,6.38-3.79,7.33-5.51A2.86,2.86,0,0,0,43.15,3.86Z"/><path class="cls-4" d="M43.6,3.9l-.71-.51a.25.25,0,0,0-.27,0,.72.72,0,0,0-.4.72c0,.09.11.16.2.19l.69.35c.09,0,.14,0,.16,0a3.33,3.33,0,0,0,.36-.56A.11.11,0,0,0,43.6,3.9Z"/><path class="cls-4" d="M37.43.39a3.28,3.28,0,0,0-.32.58s0,.1.07.15l.64.44c.07.05.18.11.26.08a.71.71,0,0,0,.44-.7.24.24,0,0,0-.15-.22L37.58.34C37.51.32,37.46.33,37.43.39Z"/><path class="cls-1" d="M32.6,8.89v.45c0,.13,0,.3,0,.49l0,.3,0,.34c0,.11,0,.23.05.36l.06.37A6.94,6.94,0,0,0,33,12a3.16,3.16,0,0,0,.38.73,1.8,1.8,0,0,0,.57.53,1.9,1.9,0,0,0,.74.24,2.9,2.9,0,0,0,.83,0,5.32,5.32,0,0,0,.79-.18l.36-.12L37,13l.59-.26.44-.21.39-.2h0a.36.36,0,0,1,.49.16.35.35,0,0,1-.14.47l-.39.24-.46.25-.62.29a3.88,3.88,0,0,1-.36.15c-.13.06-.27.1-.4.15l-.44.13-.23.06-.24,0a3.64,3.64,0,0,1-1.05,0,2.55,2.55,0,0,1-1.91-1.12,4.33,4.33,0,0,1-.48-.93,6.74,6.74,0,0,1-.23-.91c0-.15-.05-.29-.06-.42s0-.27,0-.4l0-.36V9.33l0-.45a.36.36,0,0,1,.38-.34A.35.35,0,0,1,32.6,8.89Z"/><path class="cls-1" d="M35.86,13.48a3.23,3.23,0,0,1-1.7-.43C33,12.39,32.33,11,32.1,8.78a.21.21,0,0,1,.18-.23.2.2,0,0,1,.22.18c.22,2,.85,3.38,1.86,4s2.41.48,4.21-.29a.19.19,0,0,1,.26.1.2.2,0,0,1-.1.27A7.34,7.34,0,0,1,35.86,13.48Z"/><path class="cls-1" d="M23.1,23.64v.88c0,.59,0,1.46,0,2.59a23.62,23.62,0,0,1-.47,4.09,14.35,14.35,0,0,1-2.05,5.07,11,11,0,0,1-2.14,2.36c-.21.19-.44.34-.67.51s-.45.29-.73.47l-.34.19-.41.21c-.26.12-.53.24-.81.34a11.17,11.17,0,0,1-7.21.14A12,12,0,0,1,2,36.06,10.63,10.63,0,0,1,.34,32.44a11.17,11.17,0,0,1-.27-4A14.22,14.22,0,0,1,.42,26.5c.09-.33.18-.62.29-1s.2-.58.33-.9A13.31,13.31,0,0,1,3,21.24a10.84,10.84,0,0,1,2.93-2.56,12.58,12.58,0,0,1,3.47-1.4,24.58,24.58,0,0,1,6.9-.51c2.17.1,4.19.33,6,.44a26.06,26.06,0,0,0,2.63,0,8.87,8.87,0,0,0,1.18-.13c.41-.07.78-.14,1.13-.22a12.56,12.56,0,0,0,3.54-1.38,11.58,11.58,0,0,0,1.95-1.46c.42-.39.63-.62.63-.62A.41.41,0,0,1,34,14h0s-.21.23-.65.65a11.39,11.39,0,0,1-2.07,1.61,13.29,13.29,0,0,1-3.77,1.55c-.38.09-.78.18-1.17.25a9.24,9.24,0,0,1-1.3.17,25.15,25.15,0,0,1-2.75,0c-1.89-.09-3.91-.28-6-.33a23.56,23.56,0,0,0-6.54.59,11.42,11.42,0,0,0-3.1,1.31A9.56,9.56,0,0,0,4.09,22.1a12,12,0,0,0-1.68,3.06c-.1.27-.2.57-.3.86s-.16.56-.23.85a11.36,11.36,0,0,0-.29,1.73,9.37,9.37,0,0,0,1.76,6.5,10.33,10.33,0,0,0,5.41,3.72,9.37,9.37,0,0,0,6.05-.18c.23-.09.45-.19.66-.29l.3-.16.34-.2c.16-.11.39-.25.57-.38s.37-.27.54-.43a8.75,8.75,0,0,0,1.74-2,12.52,12.52,0,0,0,1.69-4.4A23.06,23.06,0,0,0,21,27.05c0-1.06,0-1.9,0-2.48l0-.92a1.07,1.07,0,0,1,2.13,0h0Z"/></g></g></svg>