<svg xmlns="http://www.w3.org/2000/svg" viewBox="0 0 611.5 407.89"><defs><style>.cls-1{fill:#e0eeef;}.cls-2{fill:#3e6696;}.cls-3{fill:none;stroke:#344154;stroke-linecap:round;stroke-miterlimit:10;}.cls-4{opacity:0.35;}</style></defs><title>medic_1</title><g id="Layer_2" data-name="Layer 2"><g id="Capa_1" data-name="Capa 1"><rect class="cls-1" x="14.39" y="80.35" width="597.1" height="327.54" rx="15.68"/><path class="cls-2" d="M578.5,64.89H179a5.9,5.9,0,0,1,0,.84H578.5A15.28,15.28,0,0,1,593.76,81V377.37a15.28,15.28,0,0,1-15.26,15.26H16.1A15.28,15.28,0,0,1,.84,377.37V81A15.28,15.28,0,0,1,16.1,65.73H65.79a5.9,5.9,0,0,1,0-.84H16.1A16.12,16.12,0,0,0,0,81V377.37a16.12,16.12,0,0,0,16.1,16.1H578.5a16.12,16.12,0,0,0,16.1-16.1V81A16.12,16.12,0,0,0,578.5,64.89Z"/><path class="cls-3" d="M137.32,83.41l21-4.35-2.78-13.91a13.74,13.74,0,0,0-4.7-7.86,11.27,11.27,0,0,0-4.61-2.42l-11.88-3.45a2.5,2.5,0,0,1-.72-.34,2.57,2.57,0,0,1-1.13-1.84l-.54-4.7c3.61-3.29,4.84-6.22,5-10.39,0-6.12-2.52-17.63-2.52-17.63-2.84-9.69-11.79-9.1-11.79-9.1s-8.95-.59-11.79,9.1c0,0-2.57,11.51-2.52,17.63.2,4.17,1.43,7.1,5,10.39l-.55,4.7a2.53,2.53,0,0,1-1.12,1.84,2.43,2.43,0,0,1-.73.34L99.16,54.87a11.24,11.24,0,0,0-4.6,2.42,13.69,13.69,0,0,0-4.7,7.86L87.08,79.06l21,4.35"/><polyline class="cls-3" points="132.4 48.14 122.71 56.81 113.02 48.14"/><polyline class="cls-3" points="135.85 56.26 129.01 62.82 122.71 56.81"/><polyline class="cls-3" points="109.56 56.26 116.41 62.82 122.71 56.81"/><line class="cls-3" x1="122.71" y1="72.95" x2="122.71" y2="84.06"/><line class="cls-3" x1="122.71" y1="67.72" x2="122.71" y2="62.2"/><path class="cls-3" d="M122.71.5c6.94,0,14.2,3.86,17.11,10.35A30.78,30.78,0,0,1,142,20c.51,4.38.73,8.56,2.83,12.51a9.49,9.49,0,0,0,7.6,5.36A14,14,0,0,1,138,43.91"/><path class="cls-3" d="M122.71.5c-6.94,0-14.21,3.86-17.11,10.35a30.78,30.78,0,0,0-2.16,9.1c-.51,4.38-.73,8.56-2.84,12.51A9.46,9.46,0,0,1,93,37.82a14,14,0,0,0,14.42,6.09"/><g class="cls-4"><path class="cls-2" d="M558.18,121.15l-11.62,27.38-7.39.16,4-27.68-.29-13.57,15-.32Zm-25.07.52-11.62,27.39-7.4.16,4-27.69L517.8,108l15-.32Z"/></g></g></g></svg>