<?xml version="1.0" encoding="utf-8"?>
<!-- Generator: Adobe Illustrator 24.2.0, SVG Export Plug-In . SVG Version: 6.00 Build 0)  -->
<svg version="1.1" id="Capa_1" xmlns="http://www.w3.org/2000/svg" xmlns:xlink="http://www.w3.org/1999/xlink" x="0px" y="0px"
	 viewBox="0 0 611.5 407.1" style="enable-background:new 0 0 611.5 407.1;" xml:space="preserve">
<style type="text/css">
	.st0{opacity:0.35;fill:#ECEBBB;enable-background:new    ;}
	.st1{fill:#3E6696;}
	.st2{fill:none;stroke:#344154;stroke-linecap:round;stroke-miterlimit:10;}
	.st3{opacity:0.35;}
</style>
<g id="Layer_2">
	<g id="Capa_1_1_">
		<path class="st0" d="M30.1,79.6h565.7c8.7,0,15.7,7,15.7,15.7v296.2c0,8.7-7,15.7-15.7,15.7H30.1c-8.7,0-15.7-7-15.7-15.7V95.3
			C14.4,86.6,21.4,79.6,30.1,79.6z"/>
		<path class="st1" d="M578.5,64.1h-385c0,0.3,0,0.6-0.1,0.8h385.1c8.4,0,15.2,6.8,15.3,15.3v296.4c0,8.4-6.8,15.2-15.3,15.3H16.1
			c-8.4,0-15.2-6.8-15.3-15.3V80.2C0.9,71.8,7.7,65,16.1,65h56.1c0-0.3,0-0.6,0-0.8H16.1C7.2,64.2,0,71.4,0,80.2v296.4
			c0,8.9,7.2,16.1,16.1,16.1h562.4c8.9,0,16.1-7.2,16.1-16.1V80.2C594.6,71.4,587.4,64.2,578.5,64.1z"/>
		<polyline class="st2" points="137.2,50.8 132.4,55.5 127.6,50.8 		"/>
		<polyline class="st2" points="130,53.2 125.3,76.8 132.4,84.1 		"/>
		<polyline class="st2" points="134.8,53.2 139.6,76.8 132.4,84.1 		"/>
		<path class="st2" d="M145.6,73.2l19-3.9l-2.5-12.6c-0.6-2.8-2.1-5.3-4.2-7.1c-1.2-1-2.6-1.8-4.2-2.2L143,44.3
			c-0.2-0.1-0.5-0.2-0.6-0.3c-0.6-0.4-0.9-1-1-1.7l-0.5-4.3c3.1-2.5,5.3-6,6.3-9.9c1.9-0.2,3.4-2.3,3.4-5c0-2.5-1.3-4.5-2.9-4.9"/>
		<path class="st2" d="M117.2,18.3c-1.7,0.5-2.9,2.5-2.9,4.9c0,2.7,1.5,4.8,3.4,5c1,3.9,3.1,7.3,6.3,9.9l-0.5,4.3
			c-0.1,0.7-0.4,1.3-1,1.7c-0.2,0.1-0.4,0.2-0.7,0.3l-10.7,3.1c-1.5,0.4-3,1.1-4.2,2.2c-2.2,1.8-3.7,4.3-4.2,7.1l-2.5,12.6l17,3.5"
			/>
		<path class="st2" d="M147.5,18.3c0,0,0.9-17.8-15.1-17.8s-15.2,17.8-15.2,17.8"/>
		<path class="st2" d="M118.4,10.7c0.7-1.3,1.8-2.3,3.2-2.7c2.2-0.8,4.6-0.2,6.7,0.8c3,1.4,5.7,3,9.1,3.4c3.1,0.4,6.3-0.1,9.1-1.5"
			/>
		<path class="st2" d="M122.6,17.7h5.6c0.8,0,1.4,0.6,1.4,1.4v2.5c0,0.8-0.6,1.4-1.4,1.4h-5.6c-0.8,0-1.4-0.6-1.4-1.4v-2.5
			C121.1,18.3,121.8,17.7,122.6,17.7z"/>
		<path class="st2" d="M136.7,17.7h5.6c0.8,0,1.4,0.6,1.4,1.4v2.5c0,0.8-0.6,1.4-1.4,1.4h-5.6c-0.8,0-1.4-0.6-1.4-1.4v-2.5
			C135.3,18.3,135.9,17.7,136.7,17.7z"/>
		<line class="st2" x1="129.6" y1="19.7" x2="135.3" y2="19.7"/>
		<line class="st2" x1="117.2" y1="17.7" x2="121.1" y2="19.4"/>
		<line class="st2" x1="143.7" y1="19.4" x2="147.5" y2="17.7"/>
		<polyline class="st2" points="141.2,41.3 132.4,49.2 123.7,41.3 		"/>
		<line class="st2" x1="146.4" y1="62.4" x2="156.3" y2="60.5"/>
		<g class="st3">
			<path class="st1" d="M556,142.7l-11.6,27.4l-7.4,0.1l4-27.7l-0.3-13.5l15-0.3L556,142.7z M530.9,143.2l-11.6,27.4l-7.4,0.1
				l4-27.7l-0.3-13.6l15-0.3L530.9,143.2z"/>
		</g>
	</g>
</g>
</svg>
