<svg xmlns="http://www.w3.org/2000/svg" viewBox="0 0 611.5 407.14"><defs><style>.cls-1{fill:#a9c6e8;}.cls-1,.cls-4{opacity:0.35;}.cls-2{fill:#3e6696;}.cls-3{fill:none;stroke:#344154;stroke-linecap:round;stroke-miterlimit:10;}</style></defs><title>medic_2</title><g id="Layer_2" data-name="Layer 2"><g id="Capa_1" data-name="Capa 1"><rect class="cls-1" x="14.39" y="79.6" width="597.1" height="327.54" rx="15.68"/><path class="cls-2" d="M578.5,64.14h-385a7.93,7.93,0,0,1-.07.84H578.5a15.28,15.28,0,0,1,15.26,15.26V376.62a15.28,15.28,0,0,1-15.26,15.26H16.1A15.28,15.28,0,0,1,.84,376.62V80.24A15.28,15.28,0,0,1,16.1,65H72.23a5.9,5.9,0,0,1,0-.84H16.1A16.12,16.12,0,0,0,0,80.24V376.62a16.12,16.12,0,0,0,16.1,16.1H578.5a16.12,16.12,0,0,0,16.1-16.1V80.24A16.12,16.12,0,0,0,578.5,64.14Z"/><polyline class="cls-3" points="137.23 50.77 132.41 55.49 127.59 50.77"/><polyline class="cls-3" points="130.02 53.15 125.25 76.84 132.41 84.06"/><polyline class="cls-3" points="134.8 53.15 139.57 76.84 132.41 84.06"/><path class="cls-3" d="M145.6,73.16l19-3.93-2.51-12.56a12.41,12.41,0,0,0-4.24-7.1,10.16,10.16,0,0,0-4.16-2.18l-10.72-3.11a2.29,2.29,0,0,1-.65-.31,2.33,2.33,0,0,1-1-1.66l-.49-4.25a18.31,18.31,0,0,0,6.29-9.88c1.91-.17,3.38-2.3,3.38-5,0-2.48-1.25-4.49-2.95-4.92"/><path class="cls-3" d="M117.23,18.3c-1.66.47-2.86,2.45-2.86,4.89,0,2.68,1.46,4.81,3.38,5A18.35,18.35,0,0,0,124,38.06l-.49,4.25a2.33,2.33,0,0,1-1,1.66,2.29,2.29,0,0,1-.65.31l-10.69,3.1A10.29,10.29,0,0,0,107,49.57a12.33,12.33,0,0,0-4.24,7.1l-2.51,12.56,17,3.51"/><path class="cls-3" d="M147.5,18.27S148.38.5,132.41.5s-15.18,17.8-15.18,17.8"/><path class="cls-3" d="M118.37,10.66a5.75,5.75,0,0,1,3.17-2.74c2.17-.78,4.59-.15,6.69.8,3,1.38,5.67,3,9.06,3.38a15.52,15.52,0,0,0,9.1-1.48"/><rect class="cls-3" x="121.12" y="17.68" width="8.44" height="5.41" rx="1.43"/><rect class="cls-3" x="135.25" y="17.68" width="8.44" height="5.41" rx="1.43"/><line class="cls-3" x1="129.56" y1="19.67" x2="135.25" y2="19.67"/><line class="cls-3" x1="117.23" y1="17.68" x2="121.12" y2="19.42"/><line class="cls-3" x1="143.69" y1="19.42" x2="147.5" y2="17.68"/><polyline class="cls-3" points="141.16 41.31 132.41 49.15 123.66 41.31"/><line class="cls-3" x1="146.38" y1="62.37" x2="156.28" y2="60.5"/><g class="cls-4"><path class="cls-2" d="M556,142.69l-11.62,27.39-7.39.15,4-27.68L540.64,129l15-.31Zm-25.07.53-11.62,27.39-7.4.15,4-27.68-.29-13.57,15-.31Z"/></g></g></g></svg>