<svg xmlns="http://www.w3.org/2000/svg" xmlns:xlink="http://www.w3.org/1999/xlink" viewBox="0 0 720.36 434.4">
    <defs>
        <style>
            .cls-1{fill:none;}.cls-2{clip-path:url(#clip-path);}.cls-3{fill:#34495e;}.cls-4{fill:#fff;}.cls-12,.cls-5{fill:#6c63ff;}.cls-10,.cls-5,.cls-7{opacity:0.1;}.cls-5,.cls-7{isolation:isolate;}.cls-6{fill:url(#linear-gradient);}.cls-8{fill:#316dd0;}.cls-9{fill:#3d2005;}.cls-11{fill:#eebfa5;}.cls-13{fill:#0a0a0a;}.cls-14{fill:url(#linear-gradient-2);}.cls-15{fill:#161711;}.cls-16{fill:#4d4981;}.cls-17{fill:#01036b;}.cls-18{fill:#8ec0fb;}.cls-19{fill:#151516;}.cls-20{fill:#d9e6f9;}.cls-21{fill:url(#linear-gradient-3);}.cls-22{fill:#ccc;}.cls-23{fill:#1d1e21;}
        </style>
        <clipPath id="clip-path">
            <rect class="cls-1" x="124.6" y="24.53" width="469.88" height="290.78"/>
        </clipPath>
        <linearGradient id="linear-gradient" x1="-154.37" y1="10943.81" x2="-154.37" y2="11279.52"
                        gradientTransform="matrix(1, 0, 0, -1, 225.84, 11344.1)" gradientUnits="userSpaceOnUse">
            <stop offset="0" stop-color="gray" stop-opacity="0.25"/>
            <stop offset="0.54" stop-color="gray" stop-opacity="0.12"/>
            <stop offset="1" stop-color="gray" stop-opacity="0.1"/>
        </linearGradient>
        <linearGradient id="linear-gradient-2" x1="542.69" y1="10763.48" x2="542.69" y2="11132.24"
                        gradientTransform="matrix(1, 0, 0, -1, 118.79, 11187.59)" xlink:href="#linear-gradient"/>
        <linearGradient id="linear-gradient-3" x1="3411.28" y1="10419.94" x2="3411.28" y2="10463.73"
                        gradientTransform="matrix(0.84, -0.54, -0.54, -0.84, 3333.78, 10802.85)"
                        xlink:href="#linear-gradient"/>
    </defs>
    <title>Asset 2</title>
    <g id="Layer_2" data-name="Layer 2">
        <g id="Capa_1" data-name="Capa 1">
            <image width="871" height="538" transform="translate(49.82) scale(0.71)"
                   xlink:href="empty-screen.png"/>
            <g class="cls-2">
                <image width="2880" height="1678" transform="translate(124.44 19.36) scale(0.18)"
                       href="app-screen.png"/>
            </g>
            <circle class="cls-3" cx="554.01" cy="176.42" r="5.64"/>
            <circle class="cls-4" cx="554.17" cy="175.95" r="1.98"/>
            <ellipse class="cls-5" cx="56.62" cy="397.97" rx="56.62" ry="9.09"/>
            <path class="cls-6"
                  d="M121.81,157.49a.31.31,0,0,0-.08-.15c-.87-.85-11.91-16.47-11.91-16.47s-.58-1.74-1.52-4a4,4,0,0,0,.66-1.3,4.34,4.34,0,0,0,.11-.61c0-.07.05-.12.07-.18a4.45,4.45,0,0,0-.06-2.4,3,3,0,0,1-.24.58A10.2,10.2,0,0,0,108,131c-1.46-2.52-3.56-4.65-5.1-7.1a19.31,19.31,0,0,1-2.62-12.77v.69a21.12,21.12,0,0,1,.35-2.62,18.29,18.29,0,0,1,1-2.87c1.39-3.16,3.62-5.92,5-9.1a16.92,16.92,0,0,0,1-3.33,18.53,18.53,0,0,0,.51-5.84,9.35,9.35,0,0,1-.14,1.39,19,19,0,0,0-5.34-12.6c-4.75-4.77-11.57-6.62-18.09-7.6a16.54,16.54,0,0,1-7.61-2.9,13.26,13.26,0,0,0-8.67-1.66,14.35,14.35,0,0,0-8.83,4.37c-3.09,3.4-4.44,8.22-8.05,11.1-2.19,1.74-5,2.55-7.52,3.74s-5,2.9-5.78,5.45v.09l0,.09c-.84,3,.79,6.08,1.65,9.08a36.47,36.47,0,0,1,1,9.61c.07,3.93.12,7.86.06,11.79,0,1.55-.08,3.11-.2,4.65a25,25,0,0,0-4,1.61c-1.3.84-6.17,6.1-6.17,6.1l-9.53,36.39.13.15-.13.49.49-.11a48.75,48.75,0,0,0,9.72,8.17l.41,7.14s.48,7.16,7.07,10.12c.15,2.48.62,12.55-1.56,16.55a18.59,18.59,0,0,0-2.06,9.46s.76,6-.1,9.24a15.07,15.07,0,0,0-.11,6.48h0v1.91c0,6.45.07,27.1,0,29.44-.11,2.76,0,43.58,0,43.58s-.54,20.4-2.27,25.93-1.3,23.82-1.3,23.82-1.09,21.8,2.75,26.1c0,.19,0,.39,0,.58v.28c0,1.65.28,3.41,1.7,3.95A24.21,24.21,0,0,1,43,397.48c.73.95,5,3.34,10.46,2.7a80.29,80.29,0,0,1,10.4-.47h0s2.17-.4,1.47-3.1h0a23.93,23.93,0,0,0-3.36-6c.22.06.44.1.64.14l.21.05h.87c1.46-.14,6.9,2.39,7.87,4.06s4.39,2.95,7,3.27a49.12,49.12,0,0,0,8.66-.55,31.92,31.92,0,0,0,4.84-.88c.77-.29.93-1.22.71-2.27h0a5.89,5.89,0,0,0-2-3.39,16.45,16.45,0,0,1-3.1-3.87l-.25-.39c1.62-1.55,4.55-6.6,5.44-7.65,1.08-1.27-1.74-47.81-1.74-47.81V308l4.33-22.08,3-11.69L101,256.6S105.59,236,104.19,234h0s-1.16-21.26-2.39-26.36c-.52-2.27-.39-7.38-.08-12.36a2.42,2.42,0,0,0,.58-2.54,4.58,4.58,0,0,0-.33-.87v-.26a40,40,0,0,1,7.83-2.67c4.32-.84,3.24-3.08,3.24-3.08s1-1.91,1.62-3.08.12-11.47,0-12.32c0-.34-.3-2.24-.61-4.39,1.39-1,3.19-2.21,5.16-3.37C123,160.45,122.12,158.1,121.81,157.49ZM65.33,304.82s-3.25,8.29-1.95,10.41-.21,10-.21,10l-1.09,11.68s-3,21.68-1.95,26.77c.85,4,1.17,15.94,1.26,20.92h0l-.21.11-.15.07c.5-1.95.29-5.92-2.19-13.89L58.63,338s-.38-38,2.62-42.3,4.07-11.47,4.07-11.47-.65,10.42-1.07,13.18S65.33,304.82,65.33,304.82Zm-6,81.86-.09.2-.16-.21Z"/>
            <path class="cls-4"
                  d="M92.41,399.73c-1.68.64-10.79,1.74-13.33,1.44s-5.92-1.6-6.88-3.29-6.33-4.23-7.77-4.07a5.22,5.22,0,0,1-1.75-.24,20.43,20.43,0,0,1-2.9-1.12,5.44,5.44,0,0,1,.06-2.2c0-.15.08-.29.13-.43a3.84,3.84,0,0,1,2-2.18l.21-.1a6.3,6.3,0,0,1,1.26-.38c4.57-.88,23.41.88,23.41.88s.53.95,1.26,2.12a16,16,0,0,0,3.06,3.9,6,6,0,0,1,2,3.42C93.33,398.5,93.16,399.45,92.41,399.73Z"/>
            <path class="cls-7"
                  d="M92.41,399.73c-1.68.64-10.78,1.74-13.33,1.44s-5.91-1.61-6.88-3.29-6.33-4.23-7.77-4.07-4.65-1.36-4.65-1.36a4.8,4.8,0,0,1,1-3.91l2.9,2.07s7.78,2.41,9.22,4.65,4.07,3.48,7.86,3.71c2.84.18,9.35-.92,12.4-1.47C93.33,398.5,93.17,399.45,92.41,399.73Z"/>
            <path class="cls-4"
                  d="M64.59,402.69a78.08,78.08,0,0,0-10.26.49c-5.46.63-9.63-1.75-10.35-2.73A24.31,24.31,0,0,0,36.6,395c-1.41-.55-1.74-2.33-1.68-4v-.27a16.45,16.45,0,0,1,.47-3.12L58,387.13l2,2.65.3.41,1.19,1.62s.54.71,1.25,1.74a25,25,0,0,1,3.32,6h0C66.73,402.3,64.59,402.69,64.59,402.69Z"/>
            <path class="cls-7"
                  d="M64.59,402.69a78.08,78.08,0,0,0-10.26.49c-5.45.63-9.63-1.75-10.35-2.73A23.54,23.54,0,0,0,36.6,395c-1.41-.55-1.74-2.32-1.68-4,1.62.38,5,1.35,6.34,3,1.75,2.25,4.87,6,9.3,6.26,3.58.19,12.3-.45,15.49-.71C66.74,402.3,64.59,402.69,64.59,402.69Z"/>
            <path class="cls-7"
                  d="M61.9,387.62c-.26,1.94-1.07,2.46-1.65,2.58a1,1,0,0,1-.43,0l-.23,0s-20.3,4.49-24.4.86a2,2,0,0,1-.29-.3,15.56,15.56,0,0,1,.46-3.12L58,387.11l2,2.66a3.85,3.85,0,0,1,2-2.17Z"/>
            <path class="cls-7"
                  d="M88.05,390.14c-.45.5-.83.79-1.07.69-1.07-.43-9.83-1.93-12.62-.64s-12.2.21-12.2.21,0-1.12,0-2.91a6,6,0,0,1,1.25-.38c4.57-.88,23.42.88,23.42.88S87.33,389,88.05,390.14Z"/>
            <path class="cls-8"
                  d="M101.31,258.69l-2.57,17.75-3,11.76-4.28,22.24V334s2.78,46.83,1.71,48.11-5.13,8.56-6.2,8.13-9.84-1.92-12.62-.64-12.2.21-12.2.21-.22-18.17-1.29-23.3,1.93-26.94,1.93-26.94l1.07-11.76s1.49-7.91.21-10S66,307.27,66,307.27s-1.49-4.71-1.06-7.49S66,286.52,66,286.52,65,293.8,62,298.07s-2.59,42.55-2.59,42.55l.21,33.12c5.35,17.54,0,15.83,0,15.83s-20.31,4.49-24.41.85-2.93-26.53-2.93-26.53S31.84,345.5,33.55,340s2.25-26.09,2.25-26.09-.11-41.06,0-43.83c.08-2.32,0-23.13,0-29.64v-1.92l2.45-6.09,29.05-3.64H81.2s20.92,4.92,23.09,7a.69.69,0,0,1,.11.13C105.8,238,101.31,258.69,101.31,258.69Z"/>
            <path class="cls-7" d="M66,351.92s6.39,15.39,9.41,16.46S66,351.92,66,351.92Z"/>
            <path class="cls-7" d="M68.4,374.58S90,375.65,89.76,378,68.4,374.58,68.4,374.58Z"/>
            <path class="cls-7" d="M39.52,368.43c.86.8,16.46,2.32,15.18,3.8s-13.89,4.34-13.89,4.34Z"/>
            <path class="cls-7" d="M37,341.87c0,.64,3.21,20.52,4.07,21.38S48.94,365,48.94,365Z"/>
            <path class="cls-9"
                  d="M60.23,70.06c-3.06,3.42-4.39,8.27-7.95,11.17C50.11,83,47.37,83.8,44.84,85s-5,3-5.77,5.68c-.83,3,.78,6.1,1.63,9.13a37.53,37.53,0,0,1,1,9.66c.06,4,.13,7.91.06,11.87-.11,6.17-.62,12.62-3.89,17.84,11.81,3.76,24.38,4.27,36.76,4.75a37.13,37.13,0,0,0,7.15-.18,58.18,58.18,0,0,0,6.08-1.54A47.24,47.24,0,0,1,100,140.65a20.6,20.6,0,0,0,5.33-.35,5.27,5.27,0,0,0,3.84-3.38,6.25,6.25,0,0,0-1-4.58c-1.44-2.53-3.48-4.65-5-7.14a19.63,19.63,0,0,1-1.26-17.66c1.37-3.19,3.58-6,4.93-9.17a19.33,19.33,0,0,0-3.89-20.5C98.2,73.07,91.47,71.21,85,70.22a16.27,16.27,0,0,1-7.52-2.9,12.87,12.87,0,0,0-8.57-1.67A14,14,0,0,0,60.23,70.06Z"/>
            <g class="cls-10">
                <path d="M102,104.18a19.42,19.42,0,0,0-1.48,8.88,19,19,0,0,1,1.48-6.3c1.37-3.19,3.58-6,4.92-9.17a18.46,18.46,0,0,0,1.36-8.43A18,18,0,0,1,107,95C105.61,98.22,103.4,101,102,104.18Z"/>
                <path d="M41.86,108.67c0,2.28.07,4.56.07,6.84,0-3.14,0-6.27-.07-9.4a38.19,38.19,0,0,0-1-9.67,46.49,46.49,0,0,1-1.75-6c-.52,2.85,1,5.73,1.75,8.57A38.1,38.1,0,0,1,41.86,108.67Z"/>
                <path d="M105.48,137a19.3,19.3,0,0,1-5.31.36,46.72,46.72,0,0,0-12.12,1.52A60.79,60.79,0,0,1,82,140.39a37.17,37.17,0,0,1-7.15.18c-12-.47-24.11-1-35.58-4.4a20.19,20.19,0,0,1-1.16,2.21c11.81,3.75,24.38,4.27,36.76,4.75A36.36,36.36,0,0,0,82,143c2-.41,4.07-.92,6.06-1.53a46.56,46.56,0,0,1,12.09-1.54,20.1,20.1,0,0,0,5.32-.36,5.24,5.24,0,0,0,3.84-3.37,4.52,4.52,0,0,0-.06-2.42A5.39,5.39,0,0,1,105.48,137Z"/>
            </g>
            <path class="cls-11"
                  d="M88.27,130.09c-.43,1-2.24,9.3-2.67,10.15s-2.78,14.53-3,15.3-15.47-3.21-15.47-3.21l-9.19-7.7-9.44-9.4s-.28-8.48,6.68-11.2a11.62,11.62,0,0,1,1.45-.45c8.44-2,7.59-27.68,7.59-27.68l17.32,7.47s-3.21,15-3.1,17.86c0,1,.79,1.58,1.78,1.94a14,14,0,0,0,4.73.51S88.7,129.13,88.27,130.09Z"/>
            <path class="cls-12"
                  d="M119.27,158.2l2.46.65s1.82,2.76-2.46,5.34a75.11,75.11,0,0,0-7.8,5.45l-12.64,3.85-2.44-7.64,11.77-8.93Z"/>
            <path class="cls-8"
                  d="M119.27,158.2l2.46.65s1.82,2.76-2.46,5.34a75.11,75.11,0,0,0-7.8,5.45l-12.64,3.85-2.44-7.64,11.77-8.93Z"/>
            <path class="cls-12" d="M27,165.58l-4.91,4.81S31,180.66,37.81,181.3,49,173.49,49,173.49l-5.91-9.3Z"/>
            <path class="cls-8" d="M27,165.58l-4.91,4.81S31,180.66,37.81,181.3,49,173.49,49,173.49l-5.91-9.3Z"/>
            <circle class="cls-7" cx="73.73" cy="95.56" r="17.1"/>
            <circle class="cls-11" cx="73.73" cy="94.27" r="17.1"/>
            <path class="cls-7"
                  d="M104.41,237.85A55.36,55.36,0,0,0,93,240.41c-6.39,2.13-56.48,0-57.18,0v-1.92l2.45-6.09,29.06-3.64H81.2s20.92,4.92,23.08,7C104.37,237.08,104.41,237.85,104.41,237.85Z"/>
            <path class="cls-7"
                  d="M88.27,130.09c-.43,1-2.24,9.3-2.67,10.15s-2.78,14.53-3,15.3-15.47-3.21-15.47-3.21l-9.19-7.7-9.44-9.4s-.28-8.48,6.68-11.2l17.27,19.86,7.77-20.72a14,14,0,0,0,4.73.51S88.7,129.13,88.27,130.09Z"/>
            <path class="cls-8"
                  d="M72.45,144.53,54.77,124.19a7.4,7.4,0,0,0-7-.52c-4,1.72-8.88,3.11-10.16,4s-6.1,6.14-6.1,6.14l14.33,37.49L39.52,196s1,12.62-1.49,17.21a18.92,18.92,0,0,0-2,9.52s.75,6.09-.1,9.29a15.42,15.42,0,0,0-.11,6.52s50.78,2.14,57.19,0a54.72,54.72,0,0,1,11.44-2.56s-1.16-21.38-2.32-26.51,1-24.7,1-24.7l-1.38-20.95,8.33-21.5s-4.52-13.79-9.22-15.17c0,0-8.55-2-10.37-3s-7.17-1.82-7.17-1.82l-2.8,1Z"/>
            <rect class="cls-7" x="45.26" y="172.52" width="62.28" height="40.7" rx="1.71"
                  transform="translate(-121.21 256.01) rotate(-86.11)"/>
            <path class="cls-13"
                  d="M56.41,159.26l41.79,2.45a1.76,1.76,0,0,1,1.78,1.76l-4.49,56.92a1.84,1.84,0,0,1-2,1.54l-41.79-2.45a1.77,1.77,0,0,1-1.78-1.77l4.49-56.91A1.83,1.83,0,0,1,56.41,159.26Z"/>
            <rect class="cls-7" x="75.22" y="168.57" width="8.07" height="28.97"
                  transform="translate(-108.88 249.34) rotate(-86)"/>
            <path class="cls-7"
                  d="M74.59,236.67s-.22,31.65-8.56,49.82c0,0,10-23.95,10-24.91s5.56-11,4.07-14S74.59,236.67,74.59,236.67Z"/>
            <path class="cls-7"
                  d="M75,90A11.94,11.94,0,0,1,77,82a9.82,9.82,0,0,0,7.59,10.34A1.27,1.27,0,0,1,84.2,91a42.87,42.87,0,0,0,3.45,4.13C89,96.29,91,97,92.61,96.15c2.15-1.16,2.18-4.22,1.62-6.61a31.11,31.11,0,0,0-7.14-13.63,9.46,9.46,0,0,0-7.5-3.82,18.53,18.53,0,0,0-9.69,1.52,26.22,26.22,0,0,0-4.65,3.25l-8.13,6.63a7.58,7.58,0,0,0-2,2.09,5.47,5.47,0,0,0-.61,2.17A11.73,11.73,0,0,0,60,98.84a8.67,8.67,0,0,1,5.19-8.14A2.28,2.28,0,0,1,66,92.38l1.71-3.06A3.43,3.43,0,0,1,68.87,88c1.06-.58,2.38.1,3.28.92s1.78,1.84,3,2l0-4.55"/>
            <path class="cls-9"
                  d="M75,89.36a11.89,11.89,0,0,1,1.93-8,9.84,9.84,0,0,0,7.6,10.34,1.28,1.28,0,0,1-.37-1.4,44.38,44.38,0,0,0,3.45,4.13c1.35,1.19,3.38,1.89,5,1.05,2.16-1.17,2.18-4.23,1.62-6.6a30.89,30.89,0,0,0-7.14-13.64,11.54,11.54,0,0,0-4-3.11,11.91,11.91,0,0,0-3.49-.71A18.38,18.38,0,0,0,69.93,73a25.51,25.51,0,0,0-4.65,3.25l-8.14,6.64a7.7,7.7,0,0,0-2,2.08,5.64,5.64,0,0,0-.61,2.18A11.74,11.74,0,0,0,60,98.19a8.68,8.68,0,0,1,5.19-8.13A2.26,2.26,0,0,1,66,91.74l1.71-3a3.3,3.3,0,0,1,1.16-1.38c1.06-.58,2.38.11,3.28.93s1.78,1.83,3,2l0-4.56"/>
            <path class="cls-11"
                  d="M83.14,197.23c-1.49-.76-26.19,3.1-26.19,3.1s-4.07-1.16-13.9-2.78-10.46-11.23-10.46-11.23l-1.08-19.24,3.32-2.9,14.22,9.29a46.11,46.11,0,0,1,0,5.55,7.59,7.59,0,0,0-.48,1.75.58.58,0,0,0,.48.52c1,.24,14.11,2.37,14.11,2.37s30.46-2.09,38.06,8.18a7.79,7.79,0,0,1,1.34,2.53C104.44,201.38,84.49,197.9,83.14,197.23Z"/>
            <path class="cls-7"
                  d="M102.58,194.41c-1.16.52-1.89.89-1.89.89s-10.9-.32-17-2.54-13.57-1.82-13.57-1.82-25.52-4.4-21.57-10.13a.59.59,0,0,0,.48.52c1,.24,14.11,2.37,14.11,2.37s30.47-2.08,38.06,8.18A7.76,7.76,0,0,1,102.58,194.41Z"/>
            <path class="cls-11"
                  d="M113.18,160.56s1.5,10.58,1.6,11.44.65,11.22,0,12.4-1.6,3.1-1.6,3.1,1.07,2.24-3.21,3.1a43.79,43.79,0,0,0-9.3,3.42s-10.91-.32-17-2.57-13.57-1.82-13.57-1.82-32.4-5.56-18.5-12.34,23.74,2.4,23.74,2.4l15.49-1s5.78-3.53,7.38-3.2a6,6,0,0,0,3.32-.54l.11-11.23Z"/>
            <path class="cls-7" d="M34.59,134.58l-3.11-.16L22.08,171s10.15-2.57,14.53,0,12.4,3.1,12.4,3.1l-3-29.19Z"/>
            <path class="cls-8" d="M34.59,133.94l-3.11-.17-9.4,36.61s10.15-2.57,14.53,0,12.4,3.1,12.4,3.1L46,144.3Z"/>
            <path class="cls-7"
                  d="M105.7,142l4.27,1s10.91,15.69,11.76,16.57-4.07,4.06-6.09,4.06-12,1.17-14.86,3.85-1.69-10.82-1.69-11.13,3.59-8.84,3.59-8.84Z"/>
            <path class="cls-8"
                  d="M105.7,141.32l4.27,1s10.91,15.72,11.76,16.58-4.07,4.07-6.09,4.07-12,1.16-14.86,3.84-1.69-10.82-1.69-11.13,3.61-8.86,3.61-8.86Z"/>
            <g class="cls-10">
                <path d="M76.94,81.44a10,10,0,0,1,0-1.34,12.05,12.05,0,0,0-1.79,4.39v1.62c0,.94,0,1.89,0,2.83h-.09v.44a2.22,2.22,0,0,0,0-.45c-1.16-.19-2-1.16-2.85-1.94s-2.22-1.53-3.28-.93a3.3,3.3,0,0,0-1.16,1.38l-1.73,3a2.28,2.28,0,0,0-.81-1.68A8.67,8.67,0,0,0,60,97a11.82,11.82,0,0,1-5.51-9.26A11.75,11.75,0,0,0,60,98.23a8.68,8.68,0,0,1,5.19-8.14A2.28,2.28,0,0,1,66,91.77l1.71-3a3.24,3.24,0,0,1,1.16-1.38c1.06-.58,2.38.1,3.28.92s1.78,1.84,3,2c0-1.49,0-3,0-4.45A12,12,0,0,1,76.94,81.44Z"/>
                <path d="M75,87.29c0-.4.08-.79.13-1.16l.07-1.61A11.68,11.68,0,0,0,75,87.29Z"/>
                <path d="M92.61,94.22c-1.58.85-3.61.14-5-1A44.52,44.52,0,0,1,84.2,89a1.29,1.29,0,0,0,.37,1.41,1.31,1.31,0,0,1-.34-.09,38.35,38.35,0,0,0,3.42,4.07c1.34,1.16,3.38,1.9,5,1s2-2.84,1.9-4.77A4,4,0,0,1,92.61,94.22Z"/>
                <path d="M84.2,90.35A9.87,9.87,0,0,1,77,81.72a9.82,9.82,0,0,0,7.61,10A1.28,1.28,0,0,1,84.2,90.35Z"/>
            </g>
            <path class="cls-14"
                  d="M605.24,171.33l.69-.05v.05h.29l.09.79s17.33-.94,23-7.41a9,9,0,0,0,1.1-1.2l-6,77.89h0l0,.74h4.43a176.3,176.3,0,0,1-1.2,28.69v50.78s-.23,4.46,8.81,11a340,340,0,0,1,27.35,21.79l1.1,1c-1.66,15.54-5.14,44.5-8,45.58l1.79.32c-3.06,4-11.76,15-14.41,15.24-3.25.37-5.42,5.57,0,6.67a59.1,59.1,0,0,0,32.16-3.25,5.06,5.06,0,0,0,3.06-5.37l-1-8.18a1.18,1.18,0,0,1,.45.49c.72,2.23,0-3,0-3a237.11,237.11,0,0,0,7-29.9l10.72,9.52s.22-.27.59-.79c2.63,6.13,7.32,18.65,6.27,27.82-1.44,12.59,12.25,1.48,10.82-5.93-1.17-6,4-31.41,6.07-40.91a4.25,4.25,0,0,0-2.76-4.93c-3.14-1.06-7.79-2.28-11.48-1.85-3.52-1.32-11.78-4.72-17.43-9.85a131.45,131.45,0,0,0-.37-15.12c-2.89-33.73,3.61-56,3.61-56s5.1-17,4.54-31c.33.64.51,1,.51,1,.44-12.14,4.47-24.71,7.49-32.53l.34-.13,3.37-8.21a7,7,0,0,0,.63-1.52l.55-1.3-.16-.07c0-.21.1-.44.16-.67h0c2.15-9.36,3.83-31.54,3.83-31.54,5.77-23.35-7.94-37.77-7.94-37.77l-23.26-20.56a3.37,3.37,0,0,1,.23.84l-.2-.18c-.33-1-.69-2.12-1-3.44a18.38,18.38,0,0,0,2.3-2,18.58,18.58,0,0,0,5.22-9.56,37.46,37.46,0,0,0,.34-8.66l-.38-9.92a32,32,0,0,0-.58-5.78c-1.75-7.87-9.6-13.38-17.48-13.74a62.89,62.89,0,0,0-7.51.41,48.06,48.06,0,0,1-6.12.13,1,1,0,0,1-.66-.18,1,1,0,0,1-.29-.68,3.49,3.49,0,0,1,.82-2.56,2.87,2.87,0,0,1,1.05-.62l-.56.13a3.32,3.32,0,0,1,.92-.51,17.42,17.42,0,0,0-5.8,2.17,7.2,7.2,0,0,0-1.36,1.17,6.14,6.14,0,0,0-2,3.74,7,7,0,0,1-2.07-3.14,3.3,3.3,0,0,1,0-1.53c-.13.17-.27.35-.39.53v-.16a16.18,16.18,0,0,0-3.07,6.4,2.57,2.57,0,0,1-.55-1.84c-.11.37-.22.74-.32,1.11a3.05,3.05,0,0,1,0-.74,26,26,0,0,0-1.2,8.8c0,3,1.28,7.61,4.39,8.65a3.94,3.94,0,0,0,.49.14,20.33,20.33,0,0,0,5.83,27.65,19.28,19.28,0,0,0,7.3,2.91q.07.54.15,1.14h.12c.08.78.15,1.65.2,2.53a17.19,17.19,0,0,1-2.56,2.11,20.61,20.61,0,0,1-8.52,2.89A25,25,0,0,0,638.39,123c-3.71,2.13-7.81,5.24-9.09,9-2.15,6.29-14,16.09-21.88,17.31l-2.81-.17-.21-.06v.05l-.69,0h-.22v0l-.71,0s-.07.34-.17.94"/>
            <path class="cls-11"
                  d="M657.62,109.4s2.81,12.31,0,21l12.68,1.81,11.27-5.79v-7.6a53.44,53.44,0,0,1-3.87-25Z"/>
            <path class="cls-15"
                  d="M693.53,376.12s9.19,18.46,7.75,30.76,12,1.45,10.56-5.79c-1.14-5.85,3.95-30.68,5.93-39.92a4.12,4.12,0,0,0-2.66-4.8c-4.24-1.44-11.33-3.19-14.89-.51C695,359.84,693.53,376.12,693.53,376.12Z"/>
            <path class="cls-15"
                  d="M658.67,396.39s-12,15.92-15.14,16.29-5.29,5.42,0,6.51A57.65,57.65,0,0,0,674.92,416a4.93,4.93,0,0,0,3-5.24l-2-15.5Z"/>
            <path class="cls-16"
                  d="M639,227.38,627.46,229a177.71,177.71,0,0,1-.14,41.49V320s-.22,4.37,8.6,10.71A330,330,0,0,1,662.63,352l32,28.45s12.68-15.93,10.92-25.34c0,0-21.14-6.87-24-18.09-1.61-6.42-9.81-11.8-16.52-15.19a21.28,21.28,0,0,1-11-23.95,18.52,18.52,0,0,1,1.8-4.65c5.63-10.13,13.73-32.93,13.73-32.93l-15.5-30.36Z"/>
            <path class="cls-17"
                  d="M639,227.38,627.46,229a177.71,177.71,0,0,1-.14,41.49V320s-.22,4.37,8.6,10.71A330,330,0,0,1,662.63,352l32,28.45s12.68-15.93,10.92-25.34c0,0-21.14-6.87-24-18.09-1.61-6.42-9.81-11.8-16.52-15.19a21.28,21.28,0,0,1-11-23.95,18.52,18.52,0,0,1,1.8-4.65c5.63-10.13,13.73-32.93,13.73-32.93l-15.5-30.36Z"/>
            <path class="cls-17"
                  d="M655.86,397.5s20.78,3.62,21.48,5.79,0-2.9,0-2.9,12-37.27,9.19-70.2,3.53-54.65,3.53-54.65,7.39-24.61,3.17-38.73-48.62-8-48.62-8,15.5,37.28,15.15,55c0,0,1.76,53.57,4.93,59.72C664.66,343.55,659.73,396,655.86,397.5Z"/>
            <path class="cls-18" d="M658.3,118.81s2.11,13.38,23.25,7.6l-14.06,110s-40.87,1.45-40.51-3.62l8.42-66.59Z"/>
            <path class="cls-7"
                  d="M658.85,118.09a17,17,0,0,1-10.18,5,24.24,24.24,0,0,0-10,3.06c-3.62,2.08-7.66,5.11-8.88,8.8-2.47,7.24-18,19.18-25,16.65l2.47,21.71s20.08-1.08,23.6-9l-6,77.49h5.29s2.81-21,4.93-25.34,6.34-28.23,6.69-34,5.64-39.09,10.22-44.84l6.89-17.2Z"/>
            <path class="cls-7"
                  d="M658.85,119.18a21.48,21.48,0,0,1-10.88,4.6,24.25,24.25,0,0,0-10,3.07c-3.62,2.08-7.66,5.11-8.88,8.8-2.47,7.24-18,19.18-25,16.65L606.54,174s20.08-1.08,23.61-9l-6,77.44h5.28s2.82-21,4.93-25.34,6.34-28.23,6.7-34,5.63-39.08,10.21-44.84l7.57-16.87Z"/>
            <path class="cls-7"
                  d="M676.82,104.52c-.46-3.43.46-5.57.88-9.59l-20.08,15.56s.48,2.1.85,5.18a19.53,19.53,0,0,0,3.06.25C668.5,115.92,673.52,110.32,676.82,104.52Z"/>
            <ellipse class="cls-11" cx="661.49" cy="95.3" rx="19.02" ry="19.54"/>
            <path class="cls-7"
                  d="M640.73,76.14a25.45,25.45,0,0,1,1.53-9.67,2.47,2.47,0,0,0,.4,3.15,15.55,15.55,0,0,1,4.78-8.71c-1.36.23-2.05,2-1.72,3.32a7.6,7.6,0,0,0,2.35,3.4A6.09,6.09,0,0,1,651,62.5a17,17,0,0,1,5.66-2.11,3.37,3.37,0,0,0-2.17,3.46,1,1,0,0,0,.28.67,1.13,1.13,0,0,0,.65.17,49.25,49.25,0,0,0,6-.13,59.8,59.8,0,0,1,7.33-.4c7.65.33,15.35,5.7,17.07,13.37a31.45,31.45,0,0,1,.55,5.65l.38,9.69a36.31,36.31,0,0,1-.34,8.46,17.86,17.86,0,0,1-9,12.18c-2.76-4.11-3-9.4-4-14.3a7.31,7.31,0,0,0-1.2-3.15,2.64,2.64,0,0,0-3-1,1.77,1.77,0,0,0-.62,2.77c-.76.92-2.19.23-3.06-.59a17,17,0,0,1-4.77-8.76c-.34-1.68-.69-3.76-2.3-4.34a4.23,4.23,0,0,0-1.7-.11c-3.35.23-8.6,1.66-11.84.56C642,83.57,640.73,79,640.73,76.14Z"/>
            <path class="cls-19"
                  d="M641.08,75.78a25.41,25.41,0,0,1,1.53-9.67,2.45,2.45,0,0,0,.4,3.14,15.68,15.68,0,0,1,4.78-8.7c-1.35.23-2,2-1.71,3.32a7.45,7.45,0,0,0,2.35,3.4,6.09,6.09,0,0,1,2.9-5.14A17,17,0,0,1,657,60a3.38,3.38,0,0,0-2.18,3.46,1,1,0,0,0,.28.67,1.15,1.15,0,0,0,.65.17,49.25,49.25,0,0,0,6-.13,59.81,59.81,0,0,1,7.33-.41c7.66.33,15.35,5.71,17.07,13.38a32.4,32.4,0,0,1,.56,5.65L687,92.5a36.37,36.37,0,0,1-.33,8.47,17.94,17.94,0,0,1-9,12.18c-2.77-4.12-3-9.4-4-14.3a7.37,7.37,0,0,0-1.19-3.15,2.65,2.65,0,0,0-3-1,1.75,1.75,0,0,0-.62,2.76c-.77.93-2.2.24-3.07-.59a17,17,0,0,1-4.77-8.75c-.34-1.69-.69-3.76-2.3-4.34a4.42,4.42,0,0,0-1.7-.12c-3.35.24-8.6,1.66-11.84.57C642.34,83.2,641.08,78.68,641.08,75.78Z"/>
            <path class="cls-7"
                  d="M679.63,115l22.73,20.09s13.38,14.12,7.75,36.92c0,0-2.47,33.29-5.29,34.74,0,0-9.86,20.27-10.57,39.45,0,0-13.21-27.32-19.2-10.68s-19.91,19-19.91,19l7.75-98.47S682.45,121.17,679.63,115Z"/>
            <path class="cls-4"
                  d="M680.34,115l22.72,20.09s13.39,14.12,7.75,36.92c0,0-2.46,33.29-5.28,34.74,0,0-9.87,20.27-10.57,39.45,0,0-13.92-28.77-19.91-12.12s-19.2,20.45-19.2,20.45l7.75-98.43S683.16,121.17,680.34,115Z"/>
            <path class="cls-11" d="M690.73,199.88s5.64-4,14.8,6.88l-22.55,42L675.41,237S691.44,204.59,690.73,199.88Z"/>
            <path class="cls-7" d="M685.27,202.24s12.47,14.38,17.33,12.07l4.5-10.77-16.9-7.46Z"/>
            <path class="cls-20" d="M685.27,201.51s12.47,14.38,17.33,12.08l4.5-10.77-16.9-7.46Z"/>
            <path class="cls-7" d="M676.17,234.25s5.94,12.49,9.1,13.22l-4.59,5.43-6.7-13Z"/>
            <path class="cls-17" d="M675.82,234.64s5.94,12.49,9.1,13.21l-4.6,5.43-6.71-13.05Z"/>
            <path class="cls-7" d="M687,157.36s.71,26.06-2.11,35.83"/>
            <path class="cls-7" d="M630,162.42s4.23-1.44,4.23-5.06"/>
            <path class="cls-7"
                  d="M679.14,147.27l-1,6.17-14.17,4.26c5.4-9.58,10.54-18.6,10.54-18.6l7.4-21.48s3.16,1.78,3.35,3.2a7.38,7.38,0,0,0,.6,1.42h0l-4.55,27.32Z"/>
            <path class="cls-4"
                  d="M679.2,145.37l-1,6.15L664,155.79c5.4-9.58,10.53-18.6,10.53-18.6L681.31,116s3.79,1.51,4,2.92a8.1,8.1,0,0,0,.61,1.42h0l-4.53,27.37Z"/>
            <path class="cls-21"
                  d="M603.42,154.24c-4.09,1-12.74,3.27-27.4.72-16.32-2.84-29.11,8.23-33.74,13a1.16,1.16,0,0,0,0,1.59,1.11,1.11,0,0,0,.85.33c2.94-.21,7.42-.64,9.1-1.46,0,0-1.07,5.58,3.5,5.16a2.94,2.94,0,0,0,2.42-1.95c.89-2.35,7.28-2.55,14.9-5.48,0,0,31.44,7.67,42.75,4.59.49.29.47-.29,1,0"/>
            <path class="cls-11"
                  d="M605.35,155.53s-9.5,4.26-29.71,1c-16-2.55-28.31,8.42-32.77,13.12a1.11,1.11,0,0,0,0,1.54,1,1,0,0,0,.83.31c2.87-.24,7.24-.72,8.89-1.55,0,0-1,5.48,3.5,5a2.92,2.92,0,0,0,2.36-2c.83-2.3,7.07-2.58,14.48-5.55,0,0,42.54,9.79,45.51,1.25Z"/>
            <path class="cls-4"
                  d="M658.85,118.45a21.48,21.48,0,0,1-10.88,4.6,24.24,24.24,0,0,0-10,3.06c-3.63,2.08-7.66,5.11-8.89,8.8-2.46,7.24-18,19.18-25,16.65l2.47,21.71s20.08-1.08,23.6-9l-6,77.49h5.28s2.82-21,4.93-25.34,6.34-28.23,6.7-34,5.63-39.09,10.21-44.84l7.58-16.83Z"/>
            <path class="cls-20" d="M603.92,151.57s-2.81,13.37,2.47,21.71l3-.25-1.63-21.24Z"/>
            <path class="cls-7"
                  d="M641.9,164.35c-.9-2.83.67-24.36.67-24.36l2.79-2.47c.59-1.21-2-3.11-4.24-4.47l17.66-14.17,0,1.62C653.43,128.86,642.12,163.77,641.9,164.35Z"/>
            <path class="cls-4"
                  d="M643.35,164c-.9-2.84.67-24.36.67-24.36l2.8-2.47c.58-1.22-2-3.11-4.25-4.48l16.28-14.22.7,3.24C654.2,130.06,643.57,163.39,643.35,164Z"/>
            <path class="cls-3"
                  d="M657.8,135.6c1.45,3.7-.9,7.47-4.35,9.84-4.07,2.86-9.36,3.53-14.52,4.29s-10.08,1.93-14,4.9a19.45,19.45,0,0,0-6.93,9.52,13.31,13.31,0,0,0-.52,5.37c.23,2.3,1.08,4.49,1.43,6.69a11.47,11.47,0,0,1-4.48,9.93c-7.15,6.23-18.33,6-27.15,2.13-5.39-2.43-9-6.14-13.7-9.35a14.62,14.62,0,0,0-7.1-2.73c-2.21-.22-4.91,0-6.64,1.25-1.36,1-3.19-.62-2-1.61,3-2.17,7.63-2.24,11.43-1.42,4.78,1.12,8.08,4.43,11.5,7.14,7.09,5.63,18.37,10.08,27.85,5.45a12.51,12.51,0,0,0,7.42-8.52c.25-2.29-.59-4.39-1.07-6.58a20.66,20.66,0,0,1-.34-5.48c.9-7.17,6.34-13.51,14.34-16.75,5.54-2.06,11.93-2.12,17.71-3.78,4.8-1.36,10.22-5.31,8.41-9.81-.61-1.4,2.1-2,2.7-.48Z"/>
            <path class="cls-22"
                  d="M672.82,98.88c-2.08-2.62-2.4-1.11-2.56-1.11L670.5,99s-.08-1.21,1.52.81,1.75,5.85.64,11.09c0,.05,0,.09,0,.14l1.16.35C675,105.53,674.65,101.3,672.82,98.88Z"/>
            <path class="cls-22"
                  d="M643,109.06c-.55-4.22-.68-6.32.22-8.39l-.47-2.23c-1.27,2.33-1.6,6-.94,10.93a.36.36,0,0,0,0,.11l1.2-.24Z"/>
            <path class="cls-3"
                  d="M656.87,134.07a5.91,5.91,0,0,0,4.94-2.42c3.25-5.21,9.18-12.92,10.81-20.63l-.44-.14c-1.6,7.66-7.5,15.33-10.77,20.57a5.64,5.64,0,0,1-4.54,2.22,6.06,6.06,0,0,1-4.39-2.72c-2.79-5.55-8.05-14-9.09-21.78l-.37.07c1.09,7.82,6.37,16.2,9.14,21.81A6.3,6.3,0,0,0,656.87,134.07Z"/>
            <path class="cls-3"
                  d="M673.77,111.38c-1.67,7.87-7.73,15.84-11,21.18a7.12,7.12,0,0,1-6,3,7.59,7.59,0,0,1-5.66-3.73c-2.86-5.73-8.24-14.24-9.31-22.38l-.42.09c1,8.17,6.46,16.94,9.33,22.69a8,8,0,0,0,6.06,3.83,7.63,7.63,0,0,0,6.3-3.23c3.35-5.34,9.41-13.31,11.08-21.37l-.39-.12Z"/>
            <path class="cls-3"
                  d="M656.79,135.59a7.12,7.12,0,0,0,6-3c3.27-5.34,9.33-13.31,11-21.18h0l-1.16-.35c-1.63,7.71-7.56,15.42-10.81,20.63a5.91,5.91,0,0,1-4.94,2.42,6.3,6.3,0,0,1-4.71-3c-2.77-5.61-8-14-9.14-21.81l-1.2.24c1.07,8.14,6.45,16.65,9.31,22.38A7.59,7.59,0,0,0,656.79,135.59Z"/>
            <ellipse class="cls-5" cx="658.78" cy="424.57" rx="59.61" ry="9.84"/>
            <circle class="cls-4" cx="59.92" cy="165.68" r="1.22"/>
            <rect class="cls-23" x="337.67" y="319.93" width="43" height="12"/>
        </g>
    </g>
</svg>